<?xml version="1.0" encoding="UTF-8" standalone="no"?>
<!-- Generator: Adobe Illustrator 19.0.0, SVG Export Plug-In . SVG Version: 6.00 Build 0)  -->

<svg
   xmlns:dc="http://purl.org/dc/elements/1.1/"
   xmlns:cc="http://creativecommons.org/ns#"
   xmlns:rdf="http://www.w3.org/1999/02/22-rdf-syntax-ns#"
   xmlns:svg="http://www.w3.org/2000/svg"
   xmlns="http://www.w3.org/2000/svg"
   xmlns:sodipodi="http://sodipodi.sourceforge.net/DTD/sodipodi-0.dtd"
   xmlns:inkscape="http://www.inkscape.org/namespaces/inkscape"
   version="1.1"
   id="Layer_1"
   x="0px"
   y="0px"
   viewBox="0 0 512 364.47501"
   xml:space="preserve"
   sodipodi:docname="drill.svg"
   width="512"
   height="364.47501"
   inkscape:version="0.92.1 r"><metadata
     id="metadata63"><rdf:RDF><cc:Work
         rdf:about=""><dc:format>image/svg+xml</dc:format><dc:type
           rdf:resource="http://purl.org/dc/dcmitype/StillImage" /><dc:title></dc:title></cc:Work></rdf:RDF></metadata><defs
     id="defs61" /><sodipodi:namedview
     pagecolor="#ffffff"
     bordercolor="#666666"
     borderopacity="1"
     objecttolerance="10"
     gridtolerance="10"
     guidetolerance="10"
     inkscape:pageopacity="0"
     inkscape:pageshadow="2"
     inkscape:window-width="776"
     inkscape:window-height="480"
     id="namedview59"
     showgrid="false"
     fit-margin-top="0"
     fit-margin-left="0"
     fit-margin-right="0"
     fit-margin-bottom="0"
     inkscape:zoom="0.4609375"
     inkscape:cx="256"
     inkscape:cy="182.238"
     inkscape:window-x="51"
     inkscape:window-y="27"
     inkscape:window-maximized="0"
     inkscape:current-layer="Layer_1" /><path
     style="fill:#f4ba48"
     d="m 503.322,104.135 -8.678,-77.234 c 0,-10.414 -7.81,-18.224 -18.224,-18.224 H 433.898 208.271 v 90.251 c 0,28.637 19.959,53.803 47.729,59.878 v 0 c 42.522,9.546 87.647,9.546 130.169,0 l 47.729,-11.281 v 137.98 c 0,12.149 -4.339,23.431 -13.017,31.241 l -3.471,3.471 c -6.075,6.075 -9.546,14.753 -9.546,23.431 v 5.207 c 0,8.678 6.942,15.62 15.62,15.62 h 10.414 52.068 8.678 c 9.546,0 17.356,-7.81 17.356,-17.356 V 234.305 Z"
     id="path2"
     inkscape:connector-curvature="0" /><path
     style="fill:#c3c7cb"
     d="M 104.136,86.779 H 8.678 C 3.471,86.779 0,83.308 0,78.101 0,72.894 3.471,69.423 8.678,69.423 h 95.458 c 5.207,0 8.678,3.471 8.678,8.678 0,5.207 -3.472,8.678 -8.678,8.678"
     id="path4"
     inkscape:connector-curvature="0" /><g
     id="g10"
     transform="translate(0,-73.763)"><path
       style="fill:#565656"
       d="m 173.559,195.254 h -43.39 c -14.753,0 -26.034,-11.281 -26.034,-26.034 v -34.712 c 0,-14.753 11.281,-26.034 26.034,-26.034 h 43.39 z"
       id="path6"
       inkscape:connector-curvature="0" /><path
       style="fill:#565656"
       d="m 173.559,264.678 h 34.712 V 73.763 h -34.712 z"
       id="path8"
       inkscape:connector-curvature="0" /></g><path
     style="fill:#c3c7cb"
     d="m 225.627,364.474 h -69.424 l 8.678,-17.356 V 225.627 l -17.356,-34.712 h 86.78 l -17.356,34.712 v 121.492 z"
     id="path12"
     inkscape:connector-curvature="0" /><g
     id="g26"
     transform="translate(0,-73.763)"><path
       style="fill:#565656"
       d="m 451.254,125.831 h -52.068 c -5.207,0 -8.678,-3.471 -8.678,-8.678 0,-5.207 3.471,-8.678 8.678,-8.678 h 52.068 c 5.207,0 8.678,3.471 8.678,8.678 0,5.207 -3.471,8.678 -8.678,8.678"
       id="path14"
       inkscape:connector-curvature="0" /><path
       style="fill:#565656"
       d="m 451.254,160.542 h -52.068 c -5.207,0 -8.678,-3.471 -8.678,-8.678 0,-5.207 3.471,-8.678 8.678,-8.678 h 52.068 c 5.207,0 8.678,3.471 8.678,8.678 0,5.207 -3.471,8.678 -8.678,8.678"
       id="path16"
       inkscape:connector-curvature="0" /><path
       style="fill:#565656"
       d="m 433.898,221.288 -43.39,10.414 17.356,59.01 h 26.034 z"
       id="path18"
       inkscape:connector-curvature="0" /><path
       style="fill:#565656"
       d="m 251.661,117.153 v 69.424 h 69.424 c 0,-34.713 -34.712,-69.424 -69.424,-69.424"
       id="path20"
       inkscape:connector-curvature="0" /><path
       style="fill:#565656"
       d="m 477.288,342.78 c -5.207,0 -8.678,3.471 -8.678,8.678 0,5.207 3.471,8.678 8.678,8.678 H 512 V 342.78 Z"
       id="path22"
       inkscape:connector-curvature="0" /><path
       style="fill:#565656"
       d="m 477.288,377.492 c -5.207,0 -8.678,3.471 -8.678,8.678 0,5.207 3.471,8.678 8.678,8.678 H 512 v -17.356 z"
       id="path24"
       inkscape:connector-curvature="0" /></g><g
     id="g28"
     transform="translate(0,-73.763)" /><g
     id="g30"
     transform="translate(0,-73.763)" /><g
     id="g32"
     transform="translate(0,-73.763)" /><g
     id="g34"
     transform="translate(0,-73.763)" /><g
     id="g36"
     transform="translate(0,-73.763)" /><g
     id="g38"
     transform="translate(0,-73.763)" /><g
     id="g40"
     transform="translate(0,-73.763)" /><g
     id="g42"
     transform="translate(0,-73.763)" /><g
     id="g44"
     transform="translate(0,-73.763)" /><g
     id="g46"
     transform="translate(0,-73.763)" /><g
     id="g48"
     transform="translate(0,-73.763)" /><g
     id="g50"
     transform="translate(0,-73.763)" /><g
     id="g52"
     transform="translate(0,-73.763)" /><g
     id="g54"
     transform="translate(0,-73.763)" /><g
     id="g56"
     transform="translate(0,-73.763)" /></svg>