<?xml version="1.0" encoding="UTF-8" standalone="no"?>
<!-- Generator: Adobe Illustrator 19.0.0, SVG Export Plug-In . SVG Version: 6.00 Build 0)  -->

<svg
   xmlns:dc="http://purl.org/dc/elements/1.1/"
   xmlns:cc="http://creativecommons.org/ns#"
   xmlns:rdf="http://www.w3.org/1999/02/22-rdf-syntax-ns#"
   xmlns:svg="http://www.w3.org/2000/svg"
   xmlns="http://www.w3.org/2000/svg"
   xmlns:sodipodi="http://sodipodi.sourceforge.net/DTD/sodipodi-0.dtd"
   xmlns:inkscape="http://www.inkscape.org/namespaces/inkscape"
   version="1.1"
   id="Layer_1"
   x="0px"
   y="0px"
   viewBox="0 0 503.98207 511.99702"
   xml:space="preserve"
   sodipodi:docname="perfume.svg"
   width="503.98206"
   height="511.99701"
   inkscape:version="0.92.1 r"><metadata
     id="metadata89"><rdf:RDF><cc:Work
         rdf:about=""><dc:format>image/svg+xml</dc:format><dc:type
           rdf:resource="http://purl.org/dc/dcmitype/StillImage" /><dc:title></dc:title></cc:Work></rdf:RDF></metadata><defs
     id="defs87" /><sodipodi:namedview
     pagecolor="#ffffff"
     bordercolor="#666666"
     borderopacity="1"
     objecttolerance="10"
     gridtolerance="10"
     guidetolerance="10"
     inkscape:pageopacity="0"
     inkscape:pageshadow="2"
     inkscape:window-width="776"
     inkscape:window-height="480"
     id="namedview85"
     showgrid="false"
     fit-margin-top="0"
     fit-margin-left="0"
     fit-margin-right="0"
     fit-margin-bottom="0"
     inkscape:zoom="0.46093931"
     inkscape:cx="251.99099"
     inkscape:cy="255.99801"
     inkscape:window-x="51"
     inkscape:window-y="27"
     inkscape:window-maximized="0"
     inkscape:current-layer="Layer_1" /><path
     style="fill:#e0273d"
     d="M 387.244,156.698 C 371.044,126.379 346.422,101.614 316.039,85.078 285.486,68.448 249.78,61.626 215.301,64.66 l -12.929,-7.232 12.929,-11.357 c 38.093,-3.349 75.782,4.502 109.522,22.867 33.544,18.257 61.302,46.458 79.198,79.949 l -5.017,11.247 z"
     id="path2"
     inkscape:connector-curvature="0" /><path
     style="fill:#ed4850"
     d="M 319.25,79.035 C 287.689,61.856 250.999,54.475 215.301,56.88 v 7.779 c 34.478,-3.035 70.184,3.789 100.738,20.418 30.383,16.537 55.005,41.302 71.205,71.62 l 6.997,-3.258 C 376.878,122.024 351.015,96.323 319.25,79.035 Z"
     id="path4"
     inkscape:connector-curvature="0" /><path
     style="fill:#6149aa"
     d="m 442.547,177.315 -13.824,-29.018 c -2.537,-5.326 -8.91,-7.586 -14.236,-5.049 l -8.554,4.075 c -0.026,0.012 -0.051,0.02 -0.077,0.032 l -27.385,13.051 c -5.326,2.537 -7.586,8.91 -5.049,14.236 l 13.824,29.018 46.671,-22.238 -0.012,-0.026 z"
     id="path6"
     inkscape:connector-curvature="0" /><path
     style="fill:#4a4087"
     d="m 428.722,148.296 c -2.537,-5.326 -8.91,-7.586 -14.236,-5.049 l -15.484,7.376 c 5.087,-1.794 10.809,0.505 13.181,5.482 l 13.824,29.018 16.539,-7.81 z"
     id="path8"
     inkscape:connector-curvature="0" /><path
     style="fill:#58595b"
     d="m 215.826,34.177 c 0,-5.24 -4.247,-9.487 -9.487,-9.487 h -18.989 0.001 -19.211 c -5.24,0 -9.487,4.247 -9.487,9.487 v 99.768 h 41.183 v 0 h 15.991 V 34.177 Z"
     id="path10"
     inkscape:connector-curvature="0" /><path
     style="fill:#414042"
     d="m 206.337,24.689 h -18.989 c 5.24,0 9.487,4.247 9.487,9.487 v 99.768 h 18.989 V 34.177 c 0.002,-5.24 -4.247,-9.488 -9.487,-9.488 z"
     id="path12"
     inkscape:connector-curvature="0" /><path
     style="fill:#ed4850"
     d="m 243.593,132.839 h -35.776 0.001 -76.936 c -6.766,0 -12.251,5.485 -12.251,12.251 v 50.638 c 0,6.766 5.485,12.251 12.251,12.251 h 84.419 0.001 28.29 c 6.766,0 12.251,-5.485 12.251,-12.251 V 145.09 c 0.001,-6.765 -5.484,-12.251 -12.25,-12.251 z"
     id="path14"
     inkscape:connector-curvature="0" /><path
     style="fill:#e0273d"
     d="m 243.593,132.839 h -35.776 c 6.766,0 12.251,5.485 12.251,12.251 v 50.638 c 0,6.766 -5.485,12.251 -12.251,12.251 h 35.776 c 6.766,0 12.251,-5.485 12.251,-12.251 V 145.09 c 0,-6.765 -5.485,-12.251 -12.251,-12.251 z"
     id="path16"
     inkscape:connector-curvature="0" /><path
     style="fill:#f2ba43"
     d="m 187.29,170.41 c -11.32,0 -22.369,1.147 -33.055,3.3 -0.168,0.031 -0.342,0.049 -0.507,0.083 -75.886,15.529 -132.971,82.674 -132.971,163.15 0,56.693 28.337,107.406 71.612,137.482 h 121.183 13.999 54.659 C 325.486,444.35 353.823,393.637 353.823,336.943 353.824,244.969 279.265,170.41 187.29,170.41 Z"
     id="path18"
     inkscape:connector-curvature="0" /><path
     style="fill:#eda21d"
     d="m 187.29,170.41 c -11.768,0 -23.25,1.229 -34.329,3.55 75.503,15.824 132.205,82.779 132.205,162.983 0,56.693 -28.338,107.406 -71.613,137.482 h 68.659 C 325.487,444.35 353.825,393.637 353.825,336.943 353.824,244.969 279.265,170.41 187.29,170.41 Z"
     id="path20"
     inkscape:connector-curvature="0" /><g
     id="g26"
     transform="translate(-4.0080004)"><path
       style="fill:#ed4850"
       d="m 155.345,379.549 h 71.907 c 16.392,-11.392 27.125,-30.356 27.125,-51.83 0,-34.837 -28.241,-63.077 -63.077,-63.077 -34.836,0 -63.077,28.241 -63.077,63.077 -0.002,21.474 10.731,40.438 27.122,51.83 z"
       id="path22"
       inkscape:connector-curvature="0" /><path
       style="fill:#ed4850"
       d="M 285.924,473.78 H 96.569 c -10.499,0 -19.011,8.512 -19.011,19.011 v 0.195 c 0,10.499 8.512,19.011 19.011,19.011 h 139.272 50.083 c 10.499,0 19.011,-8.512 19.011,-19.011 v -0.195 c 0,-10.499 -8.511,-19.011 -19.011,-19.011 z"
       id="path24"
       inkscape:connector-curvature="0" /></g><path
     style="fill:#e0273d"
     d="m 281.916,473.78 h -67.381 c 10.499,0 19.011,8.512 19.011,19.011 v 0.195 c 0,10.499 -8.512,19.011 -19.011,19.011 h 67.381 c 10.499,0 19.011,-8.512 19.011,-19.011 v -0.195 c 0,-10.499 -8.512,-19.011 -19.011,-19.011 z"
     id="path28"
     inkscape:connector-curvature="0" /><g
     id="g46"
     transform="translate(-4.0080004)"><path
       style="fill:#d1d3d4"
       d="m 108.172,68.7 c -0.039,-5.051 -4.145,-9.119 -9.187,-9.119 -0.023,0 -0.048,0 -0.071,0 l -40.13,0.306 c -5.074,0.039 -9.157,4.184 -9.119,9.258 0.039,5.051 4.145,9.119 9.187,9.119 0.023,0 0.048,0 0.071,0 l 40.13,-0.306 c 5.075,-0.039 9.157,-4.184 9.119,-9.258 z"
       id="path30"
       inkscape:connector-curvature="0" /><circle
       style="fill:#d1d3d4"
       cx="26.562"
       cy="69.327003"
       r="9.1879997"
       id="circle32" /><circle
       style="fill:#d1d3d4"
       cx="17.371"
       cy="19.636"
       r="9.1879997"
       id="circle34" /><circle
       style="fill:#d1d3d4"
       cx="13.196"
       cy="127.949"
       r="9.1879997"
       id="circle36" /><path
       style="fill:#d1d3d4"
       d="m 91.602,32.018 19.645,9.992 c 1.334,0.679 2.757,1 4.159,1 3.347,0 6.575,-1.836 8.197,-5.024 2.301,-4.523 0.499,-10.056 -4.025,-12.355 L 99.933,15.639 c -4.522,-2.3 -10.056,-0.5 -12.355,4.025 -2.3,4.522 -0.499,10.055 4.024,12.354 z"
       id="path38"
       inkscape:connector-curvature="0" /><circle
       style="fill:#d1d3d4"
       cx="66.986"
       cy="9.1879997"
       r="9.1879997"
       id="circle40" /><path
       style="fill:#d1d3d4"
       d="m 126.979,94.694 c -3.199,-3.939 -8.986,-4.538 -12.925,-1.338 l -17.108,13.896 c -3.939,3.2 -4.538,8.986 -1.338,12.925 1.816,2.236 4.466,3.395 7.138,3.395 2.036,0 4.085,-0.673 5.789,-2.057 l 17.106,-13.896 c 3.939,-3.199 4.538,-8.985 1.338,-12.925 z"
       id="path42"
       inkscape:connector-curvature="0" /><circle
       style="fill:#d1d3d4"
       cx="77.669998"
       cy="134.748"
       r="9.1879997"
       id="circle44" /></g><circle
     style="fill:#f2ba43"
     cx="187.24301"
     cy="60.138"
     r="9.1879997"
     id="circle48" /><path
     style="fill:#f474fb"
     d="m 497.496,209.099 c -10.797,-22.665 -32.749,-36.403 -56.152,-37.812 -0.334,-0.023 -0.657,-0.058 -1.001,-0.072 -10.551,-0.475 -21.368,1.56 -31.569,6.418 -33.19,15.811 -47.277,55.533 -31.466,88.722 6.407,13.451 16.742,23.764 28.979,30.221 0.131,0.07 0.261,0.124 0.392,0.19 17.885,9.29 39.754,10.39 59.351,1.055 33.188,-15.811 47.277,-55.532 31.466,-88.722 z"
     id="path50"
     inkscape:connector-curvature="0" /><path
     style="fill:#e45acd"
     d="m 497.496,209.099 c -10.951,-22.988 -33.376,-36.801 -57.153,-37.874 12.234,6.458 22.569,16.768 28.975,30.217 15.811,33.188 1.724,72.911 -31.466,88.722 -10.2,4.86 -21.018,6.884 -31.569,6.409 17.957,9.478 40.006,10.652 59.746,1.248 33.189,-15.811 47.277,-55.532 31.467,-88.722 z"
     id="path52"
     inkscape:connector-curvature="0" /><g
     id="g54"
     transform="translate(-4.0080004)" /><g
     id="g56"
     transform="translate(-4.0080004)" /><g
     id="g58"
     transform="translate(-4.0080004)" /><g
     id="g60"
     transform="translate(-4.0080004)" /><g
     id="g62"
     transform="translate(-4.0080004)" /><g
     id="g64"
     transform="translate(-4.0080004)" /><g
     id="g66"
     transform="translate(-4.0080004)" /><g
     id="g68"
     transform="translate(-4.0080004)" /><g
     id="g70"
     transform="translate(-4.0080004)" /><g
     id="g72"
     transform="translate(-4.0080004)" /><g
     id="g74"
     transform="translate(-4.0080004)" /><g
     id="g76"
     transform="translate(-4.0080004)" /><g
     id="g78"
     transform="translate(-4.0080004)" /><g
     id="g80"
     transform="translate(-4.0080004)" /><g
     id="g82"
     transform="translate(-4.0080004)" /></svg>