<?xml version="1.0" encoding="UTF-8" standalone="no"?>
<!-- Generator: Adobe Illustrator 17.1.0, SVG Export Plug-In . SVG Version: 6.00 Build 0)  -->

<svg
   xmlns:dc="http://purl.org/dc/elements/1.1/"
   xmlns:cc="http://creativecommons.org/ns#"
   xmlns:rdf="http://www.w3.org/1999/02/22-rdf-syntax-ns#"
   xmlns:svg="http://www.w3.org/2000/svg"
   xmlns="http://www.w3.org/2000/svg"
   xmlns:sodipodi="http://sodipodi.sourceforge.net/DTD/sodipodi-0.dtd"
   xmlns:inkscape="http://www.inkscape.org/namespaces/inkscape"
   version="1.1"
   id="Layer_1"
   x="0px"
   y="0px"
   viewBox="0 0 561.85005 566.59996"
   enable-background="new 0 0 595.3 841.9"
   xml:space="preserve"
   sodipodi:docname="salon.svg"
   width="561.85004"
   height="566.59998"
   inkscape:version="0.92.1 r"><metadata
     id="metadata41"><rdf:RDF><cc:Work
         rdf:about=""><dc:format>image/svg+xml</dc:format><dc:type
           rdf:resource="http://purl.org/dc/dcmitype/StillImage" /><dc:title></dc:title></cc:Work></rdf:RDF></metadata><defs
     id="defs39" /><sodipodi:namedview
     pagecolor="#ffffff"
     bordercolor="#666666"
     borderopacity="1"
     objecttolerance="10"
     gridtolerance="10"
     guidetolerance="10"
     inkscape:pageopacity="0"
     inkscape:pageshadow="2"
     inkscape:window-width="776"
     inkscape:window-height="480"
     id="namedview37"
     showgrid="false"
     fit-margin-top="0"
     fit-margin-left="0"
     fit-margin-right="0"
     fit-margin-bottom="0"
     inkscape:zoom="0.28031832"
     inkscape:cx="268.84999"
     inkscape:cy="297.64999"
     inkscape:window-x="51"
     inkscape:window-y="27"
     inkscape:window-maximized="0"
     inkscape:current-layer="Layer_1" /><path
     d="M 426.1,153.5 C 407.3,118.2 378.6,89.5 343.3,70.2 307.8,50.9 266.3,42.9 226.2,46.5 l -15,-8.4 15,-13.2 c 44.3,-3.9 88.1,5.2 127.3,26.6 39,21.2 71.3,54 92.1,93 l -5.8,13.1 z"
     id="path2"
     inkscape:connector-curvature="0"
     style="fill:#e0273d" /><path
     d="M 347,63.2 C 310.3,43.2 267.6,34.6 226.1,37.4 v 9 c 40.1,-3.5 81.6,4.4 117.1,23.7 35.3,19.2 64,48 82.8,83.3 l 8.1,-3.8 C 414,113.2 384,83.3 347,63.2 Z"
     id="path4"
     inkscape:connector-curvature="0"
     style="fill:#ed4850" /><path
     d="m 490.4,177.5 -16.1,-33.7 c -2.9,-6.2 -10.4,-8.8 -16.6,-5.9 l -9.9,4.7 c 0,0 -0.1,0 -0.1,0 l -31.8,15.2 c -6.2,2.9 -8.8,10.4 -5.9,16.6 l 16.1,33.7 54.3,-25.9 v 0 z"
     id="path6"
     inkscape:connector-curvature="0"
     style="fill:#3fb64c" /><path
     d="m 474.3,143.7 c -2.9,-6.2 -10.4,-8.8 -16.6,-5.9 l -18,8.6 c 5.9,-2.1 12.6,0.6 15.3,6.4 l 16.1,33.7 19.2,-9.1 z"
     id="path8"
     inkscape:connector-curvature="0"
     style="fill:#2d9632" /><path
     d="m 226.8,11 c 0,-6.1 -4.9,-11 -11,-11 h -22.1 v 0 h -22.3 c -6.1,0 -11,4.9 -11,11 v 116 h 47.8 v 0 h 18.6 z"
     id="path10"
     inkscape:connector-curvature="0"
     style="fill:#58595b" /><path
     d="m 215.8,0 h -22.1 c 6.1,0 11,4.9 11,11 v 116 h 22.1 V 11 c 0,-6.1 -4.9,-11 -11,-11 z"
     id="path12"
     inkscape:connector-curvature="0"
     style="fill:#414042" /><path
     d="m 259.1,125.8 h -41.6 v 0 H 128 c -7.9,0 -14.2,6.4 -14.2,14.2 v 58.9 c 0,7.9 6.4,14.2 14.2,14.2 h 98.2 v 0 h 32.9 c 7.9,0 14.2,-6.4 14.2,-14.2 V 140 c 0,-7.9 -6.4,-14.2 -14.2,-14.2 z"
     id="path14"
     inkscape:connector-curvature="0"
     style="fill:#ff7f00" /><path
     d="m 259.1,125.8 h -41.6 c 7.9,0 14.2,6.4 14.2,14.2 v 58.9 c 0,7.9 -6.4,14.2 -14.2,14.2 h 41.6 c 7.9,0 14.2,-6.4 14.2,-14.2 V 140 c 0,-7.9 -6.4,-14.2 -14.2,-14.2 z"
     id="path16"
     inkscape:connector-curvature="0"
     style="fill:#d36122" /><path
     d="m 193.6,169.4 c -13.2,0 -26,1.3 -38.4,3.8 -0.2,0 -0.4,0.1 -0.6,0.1 C 66.4,191.4 0,269.5 0,363.1 0,429 32.9,488 83.3,522.9 h 140.9 16.3 63.5 c 50.3,-35 83.3,-93.9 83.3,-159.8 -0.1,-107 -86.7,-193.7 -193.7,-193.7 z"
     id="path18"
     inkscape:connector-curvature="0"
     style="fill:#f2ba43" /><path
     d="m 193.6,169.4 c -13.7,0 -27,1.4 -39.9,4.1 87.8,18.4 153.7,96.2 153.7,189.5 0,65.9 -32.9,124.9 -83.3,159.8 h 79.8 c 50.3,-35 83.3,-93.9 83.3,-159.8 0,-106.9 -86.6,-193.6 -193.6,-193.6 z"
     id="path20"
     inkscape:connector-curvature="0"
     style="fill:#eda21d" /><g
     id="g26"
     transform="translate(-28.8,-152)"><path
       d="m 180.6,564.6 h 83.6 c 19.1,-13.2 31.5,-35.3 31.5,-60.3 0,-40.5 -32.8,-73.3 -73.3,-73.3 -40.5,0 -73.3,32.8 -73.3,73.3 0,25 12.5,47 31.5,60.3 z"
       id="path22"
       inkscape:connector-curvature="0"
       style="fill:#ff7f00" /><path
       d="M 332.4,674.2 H 112.3 c -12.2,0 -22.1,9.9 -22.1,22.1 v 0.2 c 0,12.2 9.9,22.1 22.1,22.1 h 161.9 58.2 c 12.2,0 22.1,-9.9 22.1,-22.1 v -0.2 c 0,-12.3 -9.9,-22.1 -22.1,-22.1 z"
       id="path24"
       inkscape:connector-curvature="0"
       style="fill:#ff7f00" /></g><path
     d="m 303.6,522.2 h -78.3 c 12.2,0 22.1,9.9 22.1,22.1 v 0.2 c 0,12.2 -9.9,22.1 -22.1,22.1 h 78.3 c 12.2,0 22.1,-9.9 22.1,-22.1 v -0.2 c 0,-12.3 -9.9,-22.1 -22.1,-22.1 z"
     id="path28"
     inkscape:connector-curvature="0"
     style="fill:#d36122" /><circle
     cx="193.59999"
     cy="41.199997"
     r="10.7"
     id="circle30"
     style="fill:#f2ba43" /><path
     d="m 554.3,214.4 c -12.6,-26.4 -38.1,-42.3 -65.3,-44 -0.4,0 -0.8,-0.1 -1.2,-0.1 -12.3,-0.6 -24.8,1.8 -36.7,7.5 -38.6,18.4 -55,64.6 -36.6,103.2 7.4,15.6 19.5,27.6 33.7,35.1 0.2,0.1 0.3,0.1 0.5,0.2 20.8,10.8 46.2,12.1 69,1.2 38.6,-18.3 55,-64.5 36.6,-103.1 z"
     id="path32"
     inkscape:connector-curvature="0"
     style="fill:#3fb64c" /><path
     d="m 554.3,214.4 c -12.7,-26.7 -38.8,-42.8 -66.4,-44 14.2,7.5 26.2,19.5 33.7,35.1 18.4,38.6 2,84.8 -36.6,103.2 -11.9,5.7 -24.4,8 -36.7,7.5 20.9,11 46.5,12.4 69.5,1.5 38.5,-18.5 54.9,-64.7 36.5,-103.3 z"
     id="path34"
     inkscape:connector-curvature="0"
     style="fill:#2d9632" /></svg>