<?xml version="1.0" encoding="UTF-8" standalone="no"?>
<!-- Generator: Adobe Illustrator 18.0.0, SVG Export Plug-In . SVG Version: 6.00 Build 0)  -->

<svg
   xmlns:dc="http://purl.org/dc/elements/1.1/"
   xmlns:cc="http://creativecommons.org/ns#"
   xmlns:rdf="http://www.w3.org/1999/02/22-rdf-syntax-ns#"
   xmlns:svg="http://www.w3.org/2000/svg"
   xmlns="http://www.w3.org/2000/svg"
   xmlns:sodipodi="http://sodipodi.sourceforge.net/DTD/sodipodi-0.dtd"
   xmlns:inkscape="http://www.inkscape.org/namespaces/inkscape"
   version="1.1"
   id="Capa_1"
   x="0px"
   y="0px"
   viewBox="0 0 42.999489 54.820724"
   xml:space="preserve"
   sodipodi:docname="groceries.svg"
   width="42.999489"
   height="54.820724"
   inkscape:version="0.92.1 r"><metadata
     id="metadata71"><rdf:RDF><cc:Work
         rdf:about=""><dc:format>image/svg+xml</dc:format><dc:type
           rdf:resource="http://purl.org/dc/dcmitype/StillImage" /><dc:title></dc:title></cc:Work></rdf:RDF></metadata><defs
     id="defs69" /><sodipodi:namedview
     pagecolor="#ffffff"
     bordercolor="#666666"
     borderopacity="1"
     objecttolerance="10"
     gridtolerance="10"
     guidetolerance="10"
     inkscape:pageopacity="0"
     inkscape:pageshadow="2"
     inkscape:window-width="776"
     inkscape:window-height="480"
     id="namedview67"
     showgrid="false"
     fit-margin-top="0"
     fit-margin-left="0"
     fit-margin-right="0"
     fit-margin-bottom="0"
     inkscape:zoom="4.3050767"
     inkscape:cx="21.499485"
     inkscape:cy="27.4105"
     inkscape:window-x="51"
     inkscape:window-y="27"
     inkscape:window-maximized="0"
     inkscape:current-layer="Capa_1" /><g
     id="g34"
     transform="translate(-5.9100147,7.2570622e-4)"><path
       style="fill:#436b1c"
       d="m 11.217,19.913 c -0.335,0 -0.663,-0.169 -0.852,-0.476 C 9.751,18.442 8.604,17.291 7.287,17.333 6.727,17.303 6.273,16.915 6.257,16.364 6.24,15.811 6.674,15.35 7.226,15.333 c 2.107,-0.063 3.904,1.534 4.841,3.055 0.29,0.47 0.144,1.086 -0.326,1.376 -0.163,0.101 -0.345,0.149 -0.524,0.149 z"
       id="path2"
       inkscape:connector-curvature="0" /><g
       id="g6"><path
         style="fill:#88c057"
         d="M 31.684,6.597 C 31.55,4.649 29.931,3.109 27.949,3.109 27.943,3.109 27.938,3.11 27.932,3.11 27.967,2.815 27.947,2.503 27.852,2.178 27.584,1.264 26.78,0.562 25.834,0.449 25.058,0.357 24.346,0.635 23.847,1.128 23.372,0.699 22.75,0.431 22.06,0.431 c -1.479,0 -2.677,1.199 -2.677,2.677 0,0.005 0.001,0.009 0.001,0.014 -1.797,0.136 -3.214,1.635 -3.214,3.467 0,0.28 0.037,0.551 0.099,0.812 -2.139,0.089 -3.847,1.847 -3.847,4.008 0,0.732 0.199,1.416 0.541,2.007 -0.657,0.54 -1.077,1.359 -1.077,2.276 0,0.838 0.355,1.589 0.917,2.124 2.412,-1.971 4.946,4.621 7.93,9.884 0.991,1.748 11.698,-0.114 12.551,0.972 0.972,-0.874 1.6,-16.094 1.627,-17.431 0.042,-2.145 -1.32,-3.975 -3.227,-4.644 z"
         id="path4"
         inkscape:connector-curvature="0" /></g><path
       style="fill:#eeaf4b"
       d="m 33.053,26.533 0.713,-0.427 c 1.32,-0.792 2.968,-0.792 4.287,0 l 0.713,0.427 c 1.32,0.792 2.968,0.792 4.287,0 l 2.015,-0.896 c 0.296,-0.826 0.502,-1.424 0.584,-1.689 1.88,-6.047 3.091,-12.414 3.256,-18.765 0.066,-2.554 -2.046,-6.537 -5.555,-4.727 -3.449,1.778 -5.919,8.597 -7.655,11.835 -2.466,4.601 -4.416,9.605 -5.805,14.704 1.058,0.267 2.196,0.116 3.16,-0.462 z"
       id="path8"
       inkscape:connector-curvature="0" /><path
       style="fill:#ed3f32"
       d="M 7.055,25.506 8.4,26.313 c 1.545,0.927 3.475,0.927 5.02,0 l 0.346,-0.208 c 1.32,-0.792 2.968,-0.792 4.287,0 l 0.713,0.427 c 0.775,0.465 1.663,0.649 2.531,0.568 0.64,-2.067 0.425,-4.651 -0.567,-6.4 -3.336,-5.885 -6.111,-4.686 -8.781,-2.131 -0.512,0.49 -1.138,0.849 -1.82,1.044 -2.928,0.837 -5.089,2.206 -3.86,5.934 0.217,-0.158 0.519,-0.201 0.786,-0.041 z"
       id="path10"
       inkscape:connector-curvature="0" /><path
       style="fill:#a46f3e"
       d="m 35.592,24.356 c -0.106,0 -0.215,-0.017 -0.321,-0.053 -0.523,-0.178 -0.803,-0.746 -0.625,-1.269 0.667,-1.962 2.809,-3.012 4.768,-2.352 0.919,0.313 1.92,-0.181 2.232,-1.1 0.177,-0.523 0.743,-0.805 1.269,-0.626 0.523,0.178 0.803,0.746 0.625,1.269 -0.666,1.963 -2.806,3.017 -4.768,2.352 -0.918,-0.312 -1.919,0.183 -2.232,1.1 -0.143,0.418 -0.532,0.679 -0.948,0.679 z"
       id="path12"
       inkscape:connector-curvature="0" /><path
       style="fill:#a46f3e"
       d="m 37.957,17.389 c -0.106,0 -0.215,-0.017 -0.321,-0.053 -0.523,-0.178 -0.803,-0.746 -0.625,-1.269 0.323,-0.951 0.997,-1.72 1.897,-2.164 0.9,-0.444 1.919,-0.511 2.871,-0.188 0.921,0.314 1.92,-0.181 2.232,-1.101 0.177,-0.524 0.745,-0.805 1.268,-0.626 0.523,0.178 0.803,0.746 0.625,1.269 -0.666,1.964 -2.806,3.016 -4.768,2.353 -0.445,-0.152 -0.923,-0.121 -1.344,0.087 -0.421,0.208 -0.736,0.567 -0.888,1.013 -0.141,0.417 -0.53,0.679 -0.947,0.679 z"
       id="path14"
       inkscape:connector-curvature="0" /><path
       style="fill:#a46f3e"
       d="m 40.323,10.421 c -0.106,0 -0.215,-0.017 -0.322,-0.053 -0.523,-0.178 -0.803,-0.746 -0.625,-1.269 0.584,-1.722 2.463,-2.646 4.185,-2.064 0.33,0.112 0.682,0.09 0.993,-0.063 0.311,-0.153 0.544,-0.419 0.656,-0.748 0.177,-0.523 0.744,-0.804 1.269,-0.626 0.523,0.178 0.803,0.746 0.625,1.269 C 46.82,7.702 46.229,8.377 45.439,8.766 44.648,9.156 43.753,9.213 42.918,8.93 42.24,8.699 41.5,9.064 41.27,9.743 c -0.142,0.416 -0.531,0.678 -0.947,0.678 z"
       id="path16"
       inkscape:connector-curvature="0" /><g
       id="g20"><path
         style="fill:#dae7ef"
         d="m 23.37,14.095 c -0.945,1.257 -2.436,2.745 -1.862,5.373 l 1.544,7.065 c 0,0 0.001,0 0.001,0 l 0.713,-0.427 c 1.32,-0.792 2.968,-0.792 4.287,0 l 0.713,0.427 c 0.58,0.348 1.127,0.463 1.127,0.463 1.042,-3.823 2.399,-7.593 4.052,-11.179 -0.774,-1.936 -2.427,-2.584 -3.627,-3.247 -0.007,-0.004 -0.014,-0.008 -0.02,-0.011 -0.759,-0.435 -0.806,-1.474 -0.235,-2.136 0.225,-0.261 0.329,-0.62 0.251,-0.98 L 30.193,8.891 C 30.06,8.283 29.454,7.895 28.847,8.028 L 22.77,9.354 c -0.608,0.133 -0.996,0.739 -0.863,1.346 l 0.121,0.552 c 0.08,0.368 0.334,0.653 0.656,0.792 0.739,0.319 1.19,1.144 0.812,1.855 -0.036,0.067 -0.078,0.132 -0.126,0.196 z"
         id="path18"
         inkscape:connector-curvature="0" /></g><path
       style="fill:#ffffff"
       d="m 29.746,10.899 -6.879,1.503 c -0.759,0.166 -1.517,-0.32 -1.683,-1.079 l -0.099,-0.452 c -0.166,-0.759 0.32,-1.517 1.079,-1.683 l 6.879,-1.503 c 0.759,-0.166 1.517,0.32 1.683,1.079 l 0.099,0.452 c 0.166,0.76 -0.32,1.517 -1.079,1.683 z"
       id="path22"
       inkscape:connector-curvature="0" /><path
       style="fill:#fbd490"
       d="M 46.816,25.332 45.071,50.361 C 44.943,52.86 42.88,54.82 40.378,54.82 H 12.307 c -2.502,0 -4.565,-1.96 -4.693,-4.459 L 5.911,26.153 c -0.029,-0.569 0.588,-0.94 1.077,-0.647 l 1.345,0.807 c 1.545,0.927 3.475,0.927 5.02,0 l 0.346,-0.208 c 1.32,-0.792 2.968,-0.792 4.287,0 l 0.713,0.428 c 1.32,0.792 2.968,0.792 4.287,0 l 0.713,-0.428 c 1.32,-0.792 2.968,-0.792 4.287,0 l 0.713,0.428 c 1.32,0.792 2.968,0.792 4.287,0 l 0.713,-0.428 c 1.32,-0.792 2.968,-0.792 4.287,0 l 0.713,0.428 c 1.32,0.792 2.968,0.792 4.287,0 l 3.387,-1.505 c 0.215,-0.096 0.455,0.069 0.443,0.304 z"
       id="path24"
       inkscape:connector-curvature="0" /><path
       style="fill:#e0b877"
       d="m 17.91,42 h -7 c -0.552,0 -1,-0.447 -1,-1 0,-0.553 0.448,-1 1,-1 h 7 c 0.552,0 1,0.447 1,1 0,0.553 -0.448,1 -1,1 z"
       id="path26"
       inkscape:connector-curvature="0" /><path
       style="fill:#e0b877"
       d="m 19.91,46 h -9 c -0.552,0 -1,-0.447 -1,-1 0,-0.553 0.448,-1 1,-1 h 9 c 0.552,0 1,0.447 1,1 0,0.553 -0.448,1 -1,1 z"
       id="path28"
       inkscape:connector-curvature="0" /><path
       style="fill:#e0b877"
       d="m 21.91,50 h -11 c -0.552,0 -1,-0.447 -1,-1 0,-0.553 0.448,-1 1,-1 h 11 c 0.552,0 1,0.447 1,1 0,0.553 -0.448,1 -1,1 z"
       id="path30"
       inkscape:connector-curvature="0" /><path
       style="fill:#e0b877"
       d="m 27.91,50 h -2 c -0.552,0 -1,-0.447 -1,-1 0,-0.553 0.448,-1 1,-1 h 2 c 0.552,0 1,0.447 1,1 0,0.553 -0.448,1 -1,1 z"
       id="path32"
       inkscape:connector-curvature="0" /></g><g
     id="g36"
     transform="translate(-5.9100147,7.2570622e-4)" /><g
     id="g38"
     transform="translate(-5.9100147,7.2570622e-4)" /><g
     id="g40"
     transform="translate(-5.9100147,7.2570622e-4)" /><g
     id="g42"
     transform="translate(-5.9100147,7.2570622e-4)" /><g
     id="g44"
     transform="translate(-5.9100147,7.2570622e-4)" /><g
     id="g46"
     transform="translate(-5.9100147,7.2570622e-4)" /><g
     id="g48"
     transform="translate(-5.9100147,7.2570622e-4)" /><g
     id="g50"
     transform="translate(-5.9100147,7.2570622e-4)" /><g
     id="g52"
     transform="translate(-5.9100147,7.2570622e-4)" /><g
     id="g54"
     transform="translate(-5.9100147,7.2570622e-4)" /><g
     id="g56"
     transform="translate(-5.9100147,7.2570622e-4)" /><g
     id="g58"
     transform="translate(-5.9100147,7.2570622e-4)" /><g
     id="g60"
     transform="translate(-5.9100147,7.2570622e-4)" /><g
     id="g62"
     transform="translate(-5.9100147,7.2570622e-4)" /><g
     id="g64"
     transform="translate(-5.9100147,7.2570622e-4)" /></svg>