<?xml version="1.0" encoding="iso-8859-1"?>
<!-- Generator: Adobe Illustrator 19.0.0, SVG Export Plug-In . SVG Version: 6.00 Build 0)  -->
<svg version="1.1" id="Layer_1" xmlns="http://www.w3.org/2000/svg" xmlns:xlink="http://www.w3.org/1999/xlink" x="0px" y="0px"
	 viewBox="0 0 512 512" style="enable-background:new 0 0 512 512;" xml:space="preserve">
<path style="fill:#FFDD77;" d="M258.577,0.023C257.722,0.011,256.855,0,256,0c-0.855,0-1.722,0.011-2.577,0.023
	C113.225,1.395,0,115.476,0,256s113.225,254.605,253.423,255.977c0.855,0.011,1.722,0.022,2.577,0.022
	c0.855,0,1.722-0.011,2.577-0.022C367.346,510.211,477.612,396.277,477.612,256S367.346,1.789,258.577,0.023z"/>
<path style="fill:#FF7A2F;" d="M311.427,325.734c0-7.87,6.439-14.309,14.309-14.309h81.935c7.87,0,14.309-6.439,14.309-14.309
	v-82.234c0-7.87-6.439-14.309-14.309-14.309h-81.935c-7.87,0-14.309-6.439-14.309-14.309v-81.934c0-7.87-6.439-14.309-14.309-14.309
	h-82.236c-7.87,0-14.309,6.439-14.309,14.309v81.935c0,7.87-6.439,14.309-14.309,14.309h-81.932c-7.87,0-14.309,6.439-14.309,14.309
	v82.236c0,7.87,6.439,14.309,14.309,14.309h81.935c7.87,0,14.309,6.439,14.309,14.309v81.935c0,7.87,6.439,14.309,14.309,14.309
	h82.236c7.87,0,14.309-6.439,14.309-14.309v-81.938H311.427z"/>
<path style="fill:#FFCC3D;" d="M258.577,0.023C398.775,1.395,512,115.476,512,256S398.775,510.605,258.577,511.978
	C367.346,510.211,455.106,396.277,455.106,256S367.346,1.789,258.577,0.023z"/>
<g>
</g>
<g>
</g>
<g>
</g>
<g>
</g>
<g>
</g>
<g>
</g>
<g>
</g>
<g>
</g>
<g>
</g>
<g>
</g>
<g>
</g>
<g>
</g>
<g>
</g>
<g>
</g>
<g>
</g>
</svg>
