<?xml version="1.0" encoding="UTF-8" standalone="no"?>
<!-- Generator: Adobe Illustrator 19.0.0, SVG Export Plug-In . SVG Version: 6.00 Build 0)  -->

<svg
   xmlns:dc="http://purl.org/dc/elements/1.1/"
   xmlns:cc="http://creativecommons.org/ns#"
   xmlns:rdf="http://www.w3.org/1999/02/22-rdf-syntax-ns#"
   xmlns:svg="http://www.w3.org/2000/svg"
   xmlns="http://www.w3.org/2000/svg"
   xmlns:sodipodi="http://sodipodi.sourceforge.net/DTD/sodipodi-0.dtd"
   xmlns:inkscape="http://www.inkscape.org/namespaces/inkscape"
   version="1.1"
   id="Layer_1"
   x="0px"
   y="0px"
   viewBox="0 0 503.32263 512"
   xml:space="preserve"
   sodipodi:docname="meal.svg"
   width="503.32263"
   height="512"
   inkscape:version="0.92.1 r"><metadata
     id="metadata57"><rdf:RDF><cc:Work
         rdf:about=""><dc:format>image/svg+xml</dc:format><dc:type
           rdf:resource="http://purl.org/dc/dcmitype/StillImage" /><dc:title></dc:title></cc:Work></rdf:RDF></metadata><defs
     id="defs55" /><sodipodi:namedview
     pagecolor="#ffffff"
     bordercolor="#666666"
     borderopacity="1"
     objecttolerance="10"
     gridtolerance="10"
     guidetolerance="10"
     inkscape:pageopacity="0"
     inkscape:pageshadow="2"
     inkscape:window-width="776"
     inkscape:window-height="480"
     id="namedview53"
     showgrid="false"
     fit-margin-top="0"
     fit-margin-left="0"
     fit-margin-right="0"
     fit-margin-bottom="0"
     inkscape:zoom="0.4609375"
     inkscape:cx="32.542356"
     inkscape:cy="256"
     inkscape:window-x="51"
     inkscape:window-y="27"
     inkscape:window-maximized="0"
     inkscape:current-layer="Layer_1" /><g
     id="g20"
     transform="translate(-4.339)"><path
       style="fill:#fdc693"
       d="m 501.589,348.559 c 6.717,-5.571 8.079,-15.447 2.994,-22.537 -10.873,-15.143 -19.89,-18.744 -57.665,1.119 l -75.273,46.011 c -23.005,12.227 -83.369,8.678 -109.412,8.678 0,0 61.457,4.165 36.933,-32.447 -12.201,-18.206 -33.237,-28.542 -55.148,-28.542 h -33.853 c -19.734,0 -39.198,-5.866 -54.949,-17.746 -36.769,-27.717 -107.485,26.667 -107.485,26.667 v 156.203 h 121.492 c 17.33,0 34.642,-1.31 51.773,-3.914 l 113.109,-17.2 c 3.862,0 7.611,-0.451 11.238,-1.258 0.061,-0.009 0.113,-0.017 0.174,-0.026 9.155,-1.284 17.521,-5.918 24.203,-12.314 z"
       id="path2"
       inkscape:connector-curvature="0" /><polygon
       style="fill:#556080"
       points="47.728,303.729 4.339,303.729 4.339,512 47.728,512 "
       id="polygon4" /><path
       style="fill:#f9a571"
       d="m 154.316,416.542 c -4.799,0 -8.678,-3.888 -8.678,-8.678 0,-21.738 16.219,-34.712 43.39,-34.712 h 84.332 c 4.799,0 8.678,3.888 8.678,8.678 0,4.79 -3.879,8.678 -8.678,8.678 h -84.332 c -26.034,0 -26.034,13.06 -26.034,17.356 0,4.791 -3.879,8.678 -8.678,8.678"
       id="path6"
       inkscape:connector-curvature="0" /><g
       id="g14"><polygon
         style="fill:#cad3db"
         points="70.043,269.017 441.963,269.017 472.952,225.627 39.054,225.627 "
         id="polygon8" /><path
         style="fill:#cad3db"
         d="m 256.003,43.39 c -4.799,0 -8.678,-3.888 -8.678,-8.678 V 8.678 c 0,-4.79 3.879,-8.678 8.678,-8.678 4.799,0 8.678,3.888 8.678,8.678 v 26.034 c 0,4.79 -3.879,8.678 -8.678,8.678"
         id="path10"
         inkscape:connector-curvature="0" /><path
         style="fill:#cad3db"
         d="m 282.037,17.356 h -52.068 c -4.799,0 -8.678,-3.888 -8.678,-8.678 0,-4.79 3.879,-8.678 8.678,-8.678 h 52.068 c 4.799,0 8.678,3.888 8.678,8.678 0,4.79 -3.879,8.678 -8.678,8.678"
         id="path12"
         inkscape:connector-curvature="0" /></g><path
       style="fill:#e6eef3"
       d="M 446.918,225.627 C 446.918,120.19 361.44,34.712 256.003,34.712 150.566,34.712 65.088,120.19 65.088,225.627 Z"
       id="path16"
       inkscape:connector-curvature="0" /><path
       style="fill:#cad3db"
       d="m 120.757,156.199 c -1.475,0 -2.977,-0.373 -4.348,-1.172 -4.148,-2.404 -5.563,-7.715 -3.15,-11.854 29.479,-50.844 84.176,-82.432 142.744,-82.432 4.799,0 8.678,3.888 8.678,8.678 0,4.799 -3.879,8.678 -8.678,8.678 -52.398,0 -101.341,28.273 -127.731,73.771 -1.605,2.778 -4.521,4.331 -7.515,4.331"
       id="path18"
       inkscape:connector-curvature="0" /></g><g
     id="g22"
     transform="translate(-4.339)" /><g
     id="g24"
     transform="translate(-4.339)" /><g
     id="g26"
     transform="translate(-4.339)" /><g
     id="g28"
     transform="translate(-4.339)" /><g
     id="g30"
     transform="translate(-4.339)" /><g
     id="g32"
     transform="translate(-4.339)" /><g
     id="g34"
     transform="translate(-4.339)" /><g
     id="g36"
     transform="translate(-4.339)" /><g
     id="g38"
     transform="translate(-4.339)" /><g
     id="g40"
     transform="translate(-4.339)" /><g
     id="g42"
     transform="translate(-4.339)" /><g
     id="g44"
     transform="translate(-4.339)" /><g
     id="g46"
     transform="translate(-4.339)" /><g
     id="g48"
     transform="translate(-4.339)" /><g
     id="g50"
     transform="translate(-4.339)" /></svg>