<?xml version="1.0" encoding="UTF-8" standalone="no"?>
<!-- Generator: Adobe Illustrator 17.1.0, SVG Export Plug-In . SVG Version: 6.00 Build 0)  -->

<svg
   xmlns:dc="http://purl.org/dc/elements/1.1/"
   xmlns:cc="http://creativecommons.org/ns#"
   xmlns:rdf="http://www.w3.org/1999/02/22-rdf-syntax-ns#"
   xmlns:svg="http://www.w3.org/2000/svg"
   xmlns="http://www.w3.org/2000/svg"
   xmlns:sodipodi="http://sodipodi.sourceforge.net/DTD/sodipodi-0.dtd"
   xmlns:inkscape="http://www.inkscape.org/namespaces/inkscape"
   version="1.1"
   id="Layer_1"
   x="0px"
   y="0px"
   viewBox="0 0 529.70002 548.37151"
   enable-background="new 0 0 595.3 841.9"
   xml:space="preserve"
   sodipodi:docname="odezhda.svg"
   width="529.70001"
   height="548.37152"
   inkscape:version="0.92.1 r"><metadata
     id="metadata37"><rdf:RDF><cc:Work
         rdf:about=""><dc:format>image/svg+xml</dc:format><dc:type
           rdf:resource="http://purl.org/dc/dcmitype/StillImage" /><dc:title></dc:title></cc:Work></rdf:RDF></metadata><defs
     id="defs35" /><sodipodi:namedview
     pagecolor="#ffffff"
     bordercolor="#666666"
     borderopacity="1"
     objecttolerance="10"
     gridtolerance="10"
     guidetolerance="10"
     inkscape:pageopacity="0"
     inkscape:pageshadow="2"
     inkscape:window-width="776"
     inkscape:window-height="480"
     id="namedview33"
     showgrid="false"
     fit-margin-top="0"
     fit-margin-left="0"
     fit-margin-right="0"
     fit-margin-bottom="0"
     inkscape:zoom="0.28031832"
     inkscape:cx="264.84999"
     inkscape:cy="297.64999"
     inkscape:window-x="576"
     inkscape:window-y="116"
     inkscape:window-maximized="0"
     inkscape:current-layer="Layer_1" /><path
     d="m 189.8,115.5715 c 0.6,1.2 1.1,2.5 1.7,3.7 l 0.1,0.1 c 3.8,8.5 7.6,16.9 11.5,25.3 5.2,-2.2 10.5,-4.4 15.8,-6 30,-9.7 62.2,-9.7 92.1,0 5.3,1.8 10.6,3.8 15.8,6 3.9,-8.4 7.7,-16.8 11.5,-25.3 0,-0.1 0.1,-0.1 0.1,-0.1 0.6,-1.2 1.1,-2.5 1.7,-3.7 -48,-21.499998 -102.5,-21.499998 -150.3,0 z"
     id="path2"
     inkscape:connector-curvature="0"
     style="fill:#acb3ba" /><path
     d="m 218.8,138.4715 c 21.1,10.2 46.1,17.7 46.1,17.7 0,0 24.9,-7.6 46.1,-17.7 -30.1,-9.5 -62.2,-9.5 -92.2,0 z"
     id="path4"
     inkscape:connector-curvature="0"
     style="fill:#ced5e0" /><path
     d="m 264.8,108.8715 c 1.8,0 3.2,-1.4 3.2,-3.2 v -9.599998 c 0,-16.5 -7.4,-32.6 -20.6,-44.3 -6,-5.4 -9.2,-13.1 -8.7,-21.1 0.8,-13.1 11.3,-23.6000002 24.4,-24.4000002 7.3,-0.5 14.3,2 19.6,7.1000002 5.3,5 8.3,11.8 8.3,19 0,1.8 1.4,3.2 3.2,3.2 1.8,0 3.2,-1.4 3.2,-3.2 0,-8.9 -3.8,-17.5 -10.3,-23.6000002 -6.6,-6.1 -15.2,-9.29999999 -24.2,-8.69999999 C 246.6,1.1715018 233.6,14.171502 232.7,30.271502 c -0.6,10 3.3,19.6 10.7,26.2 11.7,10.5 18.4,24.9 18.4,39.6 v 9.599998 c -0.1,1.8 1.3,3.2 3,3.2 z"
     id="path6"
     inkscape:connector-curvature="0"
     style="fill:#324a5e" /><path
     d="m 81.2,195.5715 c 1.3,2.5 3.9,3.9 6.5,3.9 H 442 c 4,0 7.3,-3.3 7.3,-7.3 0,-2.8 -1.5,-5.2 -3.9,-6.5 L 268.2,89.171502 c -2.2,-1.2 -5,-1.2 -7.1,0 L 83.9,185.6715 c -3.3,1.9 -4.7,6.3 -2.7,9.9 z m 183.6,-73.8 142.3,63 H 122.5 Z"
     id="path8"
     inkscape:connector-curvature="0"
     style="fill:#ffd05b" /><path
     d="m 0,243.6715 78,81.1 45.4,-35.7 v 223.6 c 42.2,22.8 90.2,35.7 141.5,35.7 51.1,0 99.3,-12.9 141.4,-35.7 v -223.6 l 45.4,35.7 78,-81.1 -90.9,-86.5 c -7.9,-7.6 -18.1,-12.6 -28.9,-14.6 l -73,-13 c 0.2,3.9 -2.1,7.8 -7.1,7.8 -0.7,0 -1.3,0 -1.8,-0.2 -7,22.4 -32.6,39.1 -63.1,39.3 -30.8,-0.2 -56.6,-17.2 -63.3,-40 -0.9,0.6 -2.2,0.9 -3.7,0.9 -4.8,0 -7.2,-3.8 -7.2,-7.4 l -70.9,12.6 c -10.9,2 -20.9,7 -28.9,14.6 z"
     id="path10"
     inkscape:connector-curvature="0"
     style="fill:#ff7058" /><polygon
     points="562.4,413.9 541.5,394 461.7,477 484.5,495 "
     id="polygon12"
     style="fill:#324a5e"
     transform="translate(-32.8,-170.2285)" /><g
     id="g18"
     transform="translate(-32.8,-170.2285)"><polygon
       points="562.4,413.9 541.5,394 461.7,477 484.5,495 "
       id="polygon14"
       style="fill:#e6e9ee" /><polygon
       points="133.6,477 53.7,394 32.8,413.9 110.8,495 "
       id="polygon16"
       style="fill:#e6e9ee" /></g><rect
     x="245.8"
     y="156.37151"
     width="37.900002"
     height="126.7"
     id="rect20"
     style="fill:#f1543f" /><g
     id="g30"
     transform="translate(-32.8,-170.2285)"><path
       d="m 230.8,347.4 31.8,34.3 35,-55 c 0,0 -24.9,-7.6 -46.1,-17.7 -12,-5.9 -23,-12.5 -27.2,-19.3 l -0.1,-0.1 c -0.8,-1.2 -1.3,-2.5 -1.7,-3.7 l -4.1,10.2 c -6.6,16.4 -2.8,34.7 12.4,51.3 z"
       id="path22"
       inkscape:connector-curvature="0"
       style="fill:#e6e9ee" /><path
       d="m 297.6,326.6 35,55 31.9,-34.3 c 15.4,-16.5 19.1,-34.7 12.3,-51.4 l -4.1,-10.2 c -0.2,1.2 -0.8,2.5 -1.7,3.7 0,0.1 -0.1,0.1 -0.1,0.1 -4.3,6.6 -15.2,13.3 -27.3,19.1 -21,10.4 -46,18 -46,18 z"
       id="path24"
       inkscape:connector-curvature="0"
       style="fill:#e6e9ee" /><circle
       cx="297.60001"
       cy="397.70001"
       r="9.8000002"
       id="circle26"
       style="fill:#e6e9ee" /><circle
       cx="297.60001"
       cy="434.60001"
       r="9.8000002"
       id="circle28"
       style="fill:#e6e9ee" /></g></svg>