<?xml version="1.0" encoding="UTF-8" standalone="no"?>
<!-- Generator: Adobe Illustrator 19.0.0, SVG Export Plug-In . SVG Version: 6.00 Build 0)  -->

<svg
   xmlns:dc="http://purl.org/dc/elements/1.1/"
   xmlns:cc="http://creativecommons.org/ns#"
   xmlns:rdf="http://www.w3.org/1999/02/22-rdf-syntax-ns#"
   xmlns:svg="http://www.w3.org/2000/svg"
   xmlns="http://www.w3.org/2000/svg"
   xmlns:sodipodi="http://sodipodi.sourceforge.net/DTD/sodipodi-0.dtd"
   xmlns:inkscape="http://www.inkscape.org/namespaces/inkscape"
   version="1.1"
   id="Layer_1"
   x="0px"
   y="0px"
   viewBox="0 0 512 398.22198"
   xml:space="preserve"
   sodipodi:docname="taxi.svg"
   width="512"
   height="398.22198"
   inkscape:version="0.92.1 r"><metadata
     id="metadata87"><rdf:RDF><cc:Work
         rdf:about=""><dc:format>image/svg+xml</dc:format><dc:type
           rdf:resource="http://purl.org/dc/dcmitype/StillImage" /><dc:title></dc:title></cc:Work></rdf:RDF></metadata><defs
     id="defs85" /><sodipodi:namedview
     pagecolor="#ffffff"
     bordercolor="#666666"
     borderopacity="1"
     objecttolerance="10"
     gridtolerance="10"
     guidetolerance="10"
     inkscape:pageopacity="0"
     inkscape:pageshadow="2"
     inkscape:window-width="776"
     inkscape:window-height="480"
     id="namedview83"
     showgrid="false"
     fit-margin-top="0"
     fit-margin-left="0"
     fit-margin-right="0"
     fit-margin-bottom="0"
     inkscape:zoom="0.4609375"
     inkscape:cx="256"
     inkscape:cy="199.111"
     inkscape:window-x="51"
     inkscape:window-y="27"
     inkscape:window-maximized="0"
     inkscape:current-layer="Layer_1" /><path
     style="fill:#ffdc64"
     d="m 296.825,0 h -81.65 c -9.269,0 -17.18,6.702 -18.705,15.846 l -6.841,41.043 H 322.37 L 315.529,15.846 C 314.005,6.702 306.094,0 296.825,0 Z"
     id="path2"
     inkscape:connector-curvature="0" /><g
     id="g8"
     transform="translate(0,-56.889)"><rect
       x="18.962999"
       y="189.63"
       style="fill:#e1a546"
       width="47.407001"
       height="18.962999"
       id="rect4" /><rect
       x="445.63"
       y="189.63"
       style="fill:#e1a546"
       width="47.407001"
       height="18.962999"
       id="rect6" /></g><g
     id="g16"
     transform="translate(0,-56.889)"><path
       style="fill:#ffc850"
       d="M 397.262,104.296 H 114.738 c -11.961,0 -22.644,7.482 -26.732,18.724 l -31.117,85.573 v 28.444 H 455.111 V 208.593 L 423.994,123.02 c -4.088,-11.242 -14.772,-18.724 -26.732,-18.724 z"
       id="path10"
       inkscape:connector-curvature="0" /><path
       style="fill:#ffc850"
       d="m 18.963,170.667 h 9.481 c 10.473,0 18.963,8.489 18.963,18.963 v 0 c 0,10.473 -8.489,18.963 -18.963,18.963 H 18.963 C 8.489,208.593 0,200.103 0,189.63 v 0 c 0,-10.474 8.489,-18.963 18.963,-18.963 z"
       id="path12"
       inkscape:connector-curvature="0" /><path
       style="fill:#ffc850"
       d="m 483.556,170.667 h 9.481 c 10.473,0 18.963,8.489 18.963,18.963 v 0 c 0,10.473 -8.489,18.963 -18.963,18.963 h -9.481 c -10.474,0 -18.963,-8.489 -18.963,-18.963 v 0 c 0,-10.474 8.489,-18.963 18.963,-18.963 z"
       id="path14"
       inkscape:connector-curvature="0" /></g><path
     style="fill:#707487"
     d="m 397.262,66.37 c 3.973,0 7.553,2.508 8.91,6.241 l 29.976,82.433 v 6.14 H 75.852 v -6.14 l 29.976,-82.433 c 1.358,-3.733 4.937,-6.241 8.91,-6.241 h 282.524"
     id="path18"
     inkscape:connector-curvature="0" /><g
     id="g24"
     transform="translate(0,-56.889)"><path
       style="fill:#5b5d6e"
       d="M 284.444,123.259 H 114.738 c -3.973,0 -7.553,2.508 -8.91,6.241 l -29.976,82.433 v 6.14 H 189.63 Z"
       id="path20"
       inkscape:connector-curvature="0" /><path
       style="fill:#5b5d6e"
       d="m 18.963,369.778 v 75.852 c 0,5.236 4.245,9.481 9.481,9.481 h 28.444 c 5.236,0 9.481,-4.245 9.481,-9.481 v -75.852 z"
       id="path22"
       inkscape:connector-curvature="0" /></g><path
     style="fill:#464655"
     d="m 18.963,350.573 c 7.948,6.016 17.73,9.723 28.444,9.723 H 66.37 V 312.889 H 18.963 Z"
     id="path26"
     inkscape:connector-curvature="0" /><path
     style="fill:#5b5d6e"
     d="m 493.037,312.889 v 75.852 c 0,5.236 -4.245,9.481 -9.481,9.481 h -28.444 c -5.236,0 -9.481,-4.245 -9.481,-9.481 v -75.852 z"
     id="path28"
     inkscape:connector-curvature="0" /><path
     style="fill:#464655"
     d="m 493.037,350.573 c -7.948,6.016 -17.73,9.723 -28.444,9.723 H 445.63 v -47.407 h 47.407 z"
     id="path30"
     inkscape:connector-curvature="0" /><path
     style="fill:#ffdc64"
     d="M 484.725,188.723 455.111,151.704 H 56.889 l -29.615,37.019 c -5.38,6.724 -8.311,15.079 -8.311,23.692 v 100.474 c 0,15.71 12.735,28.444 28.444,28.444 h 417.185 c 15.71,0 28.444,-12.735 28.444,-28.444 V 212.415 c 10e-4,-8.613 -2.931,-16.969 -8.311,-23.692 z"
     id="path32"
     inkscape:connector-curvature="0" /><path
     style="fill:#ffc850"
     d="m 94.815,274.963 c -5.236,0 -9.481,-4.245 -9.481,-9.482 v -53.067 c 0,-8.613 2.111,-16.967 5.984,-23.692 l 21.323,-37.019 H 56.889 l -29.615,37.019 c -5.38,6.725 -8.311,15.08 -8.311,23.692 v 100.474 c 0,15.71 12.735,28.444 28.444,28.444 h 417.185 c 15.71,0 28.444,-12.735 28.444,-28.444 V 274.962 H 94.815 Z"
     id="path34"
     inkscape:connector-curvature="0" /><path
     style="fill:#5b5d6e"
     d="m 159.106,256 h 193.786 c 4.351,0 8.143,-2.961 9.198,-7.182 l 4.741,-18.963 c 1.496,-5.984 -3.031,-11.781 -9.198,-11.781 H 154.366 c -6.169,0 -10.694,5.797 -9.198,11.781 l 4.741,18.963 c 1.054,4.22 4.847,7.182 9.197,7.182 z"
     id="path36"
     inkscape:connector-curvature="0" /><g
     id="g46"
     transform="translate(0,-56.889)"><circle
       style="fill:#ffffff"
       cx="85.333"
       cy="355.556"
       r="14.222"
       id="circle38" /><circle
       style="fill:#ffffff"
       cx="426.66699"
       cy="355.556"
       r="14.222"
       id="circle40" /><circle
       style="fill:#ffffff"
       cx="80.593002"
       cy="289.185"
       r="28.444"
       id="circle42" /><circle
       style="fill:#ffffff"
       cx="431.40701"
       cy="289.185"
       r="28.444"
       id="circle44" /></g><path
     style="fill:#464655"
     d="M 360.296,303.407 H 151.704 c -5.236,0 -9.481,4.245 -9.481,9.481 v 28.444 h 227.556 v -28.444 c -10e-4,-5.237 -4.247,-9.481 -9.483,-9.481 z"
     id="path48"
     inkscape:connector-curvature="0" /><path
     style="fill:#5b5d6e"
     d="m 284.444,37.926 h -56.889 c -5.236,0 -9.481,-4.245 -9.481,-9.481 v 0 c 0,-5.236 4.245,-9.481 9.481,-9.481 h 56.889 c 5.236,0 9.481,4.245 9.481,9.481 v 0 c 10e-4,5.235 -4.244,9.481 -9.481,9.481 z"
     id="path50"
     inkscape:connector-curvature="0" /><g
     id="g52"
     transform="translate(0,-56.889)" /><g
     id="g54"
     transform="translate(0,-56.889)" /><g
     id="g56"
     transform="translate(0,-56.889)" /><g
     id="g58"
     transform="translate(0,-56.889)" /><g
     id="g60"
     transform="translate(0,-56.889)" /><g
     id="g62"
     transform="translate(0,-56.889)" /><g
     id="g64"
     transform="translate(0,-56.889)" /><g
     id="g66"
     transform="translate(0,-56.889)" /><g
     id="g68"
     transform="translate(0,-56.889)" /><g
     id="g70"
     transform="translate(0,-56.889)" /><g
     id="g72"
     transform="translate(0,-56.889)" /><g
     id="g74"
     transform="translate(0,-56.889)" /><g
     id="g76"
     transform="translate(0,-56.889)" /><g
     id="g78"
     transform="translate(0,-56.889)" /><g
     id="g80"
     transform="translate(0,-56.889)" /></svg>