<svg xmlns="http://www.w3.org/2000/svg" viewBox="0 0 115.7 71.699995" width="115.7" height="71.7"><g clip-rule="evenodd" fill-rule="evenodd"><path d="M95.8 56.2c-2 0-3.6 1.6-3.6 3.6s1.6 3.6 3.6 3.6 3.6-1.6 3.6-3.6-1.6-3.6-3.6-3.6zM23.9 56.2c-2 0-3.6 1.6-3.6 3.6s1.6 3.6 3.6 3.6 3.6-1.6 3.6-3.6-1.6-3.6-3.6-3.6z" fill="#1a9f29"/><path d="M111 32.6l-13.8-6.1L87.1 4.6C85.8 1.8 83 0 80 0H5.9C2.7 0 0 2.6 0 5.9v49.9c0 3.3 2.6 5.9 5.9 5.9h6.3c.9 5.7 5.8 10 11.7 10 5.9 0 10.8-4.3 11.7-10h48.5c.9 5.7 5.8 10 11.7 10 5.9 0 10.8-4.3 11.7-10h2.3c3.2 0 5.9-2.6 5.9-5.9V39.7c0-3-1.9-5.9-4.7-7.1zM87.2 13.7l5.6 12.2H75.7V13.7zM23.9 67.9c-4.5 0-8.1-3.7-8.1-8.1 0-4.5 3.6-8.1 8.1-8.1s8.1 3.7 8.1 8.1c0 4.5-3.6 8.1-8.1 8.1zm71.9 0c-4.5 0-8.1-3.7-8.1-8.1 0-4.5 3.7-8.1 8.1-8.1 4.5 0 8.1 3.7 8.1 8.1 0 4.5-3.6 8.1-8.1 8.1zM111.9 50h-2.1c-1 0-1.9.8-1.9 1.9 0 1 .8 1.9 1.9 1.9h2.1v2.1c0 1.2-1 2.1-2.1 2.1h-2.3c-.9-5.6-5.8-10-11.7-10-5.9 0-10.8 4.3-11.7 10H35.6c-.9-5.6-5.8-10-11.7-10-5.9 0-10.8 4.3-11.7 10H5.9c-1.2 0-2.1-.9-2.1-2.1v-2.1h6.1c1 0 1.9-.9 1.9-1.9 0-1-.9-1.9-1.9-1.9H3.8V5.9c0-1.2 1-2.1 2.1-2.1H80c1.6 0 3.1.9 3.7 2.4l1.8 3.8H67.8c-2.1 0-3.9 1.8-3.9 3.9v8c0 4.3 3.5 7.9 7.9 7.9h23.6L107 35l-.3.2c-1.7 1-2.8 3-2.8 5v3.7c0 1 .8 1.9 1.9 1.9h6.1zM72 13.7v12.2h-.1c-2.3 0-4.1-1.8-4.1-4.1v-8c0-.1.1-.1.1-.1zM111.9 42h-4.3v-1.9c0-.7.4-1.4 1-1.8l2.2-1.3c.7.7 1.1 1.7 1.1 2.7z" fill="#1a9f29"/><path d="M81.8 50H37.9c-1 0-1.9.8-1.9 1.9 0 1 .9 1.9 1.9 1.9h43.9c1 0 1.9-.9 1.9-1.9 0-1.1-.8-1.9-1.9-1.9zM26.9 7.9c-.9 0-1.6.7-1.6 1.6v7h-2v-7c0-.9-.7-1.6-1.6-1.6-.9 0-1.6.7-1.6 1.6v7h-1.9v-7c0-.9-.7-1.6-1.6-1.6-.9 0-1.6.7-1.6 1.6v10.3c0 2.8 2.3 5 5 5h.1v13.9c0 .9.7 1.6 1.6 1.6.9 0 1.6-.7 1.6-1.6V24.9h.1c2.8 0 5.1-2.3 5.1-5V9.6c0-1-.7-1.7-1.6-1.7zm-1.6 11.9c0 1-.8 1.8-1.8 1.8H20c-1 0-1.8-.8-1.8-1.8v-.1h7.1zM33.8 40.4c.9 0 1.6-.7 1.6-1.6v-7h3.2c1 0 1.9-.4 2.6-1.2.7-.8.9-1.7.8-2.7l-2.9-17.1c-.3-1.7-1.7-2.9-3.4-2.9-1.9 0-3.5 1.6-3.5 3.5v27.4c0 .9.7 1.6 1.6 1.6zm1.6-29.1c0-.1.1-.2.3-.2.1 0 .2.1.2.2l2.9 17.1v.1H35.5V11.3z" fill="#f79400"/></g></svg>