<?xml version="1.0" encoding="UTF-8"?>
<!DOCTYPE svg PUBLIC "-//W3C//DTD SVG 1.1//EN" "http://www.w3.org/Graphics/SVG/1.1/DTD/svg11.dtd">
<!-- Creator: CorelDRAW X7 -->
<svg xmlns="http://www.w3.org/2000/svg" xml:space="preserve" width="276.225mm" height="297.028mm" version="1.1" shape-rendering="geometricPrecision" text-rendering="geometricPrecision" image-rendering="optimizeQuality" fill-rule="evenodd" clip-rule="evenodd"
viewBox="0 0 27623 29703"
 xmlns:xlink="http://www.w3.org/1999/xlink">
 <g id="Слой_x0020_1">
  <metadata id="CorelCorpID_0Corel-Layer"/>
  <path fill="#EFBB6A" d="M27623 10836l0 9892c0,2041 -1657,3697 -3692,3697l-6436 0 -548 -3153 6989 0c299,0 539,-245 539,-539l0 -9897c0,-300 -240,-539 -539,-539l-8266 0 -933 -3153 9189 0c2045,0 3697,1651 3697,3692z"/>
  <g id="_1107738339440">
   <polygon fill="#D19B54" points="20933,10297 15670,10297 14742,7144 20763,7144 20818,8137 "/>
   <polygon fill="#D19B54" points="21706,24420 17490,24420 16942,21267 21531,21267 21536,21377 21681,24046 "/>
  </g>
  <g>
   <path fill="#F2F2F2" d="M19606 5493c518,-400 848,-1028 848,-1731 0,-1213 -983,-2191 -2190,-2191 -45,0 -95,0 -140,5 -324,-808 -1112,-1376 -2035,-1376 -724,0 -1367,354 -1766,893 -385,-195 -814,-300 -1273,-300 -603,0 -1162,190 -1621,509 -344,-763 -1107,-1297 -2000,-1297 -604,0 -1148,244 -1547,639 -384,-195 -818,-305 -1282,-305 -1033,0 -1936,549 -2434,1377 -195,-55 -395,-85 -609,-85 -1212,0 -2190,983 -2190,2190 0,604 244,1153 643,1552l17596 120zm0 0l0 0 0 0z"/>
  </g>
  <g>
   <path fill="#CCCCCC" d="M14632 1841c459,-319 1018,-509 1621,-509 459,0 888,110 1272,299 115,-159 255,-299 409,-419 -389,-608 -1067,-1012 -1845,-1012 -724,0 -1367,354 -1766,893 -155,-75 -315,-140 -484,-190 344,234 623,554 793,938z"/>
   <path fill="#CCCCCC" d="M4575 4355c0,-1212 982,-2190 2190,-2190 209,0 414,30 608,85 499,-823 1402,-1377 2435,-1377 459,0 893,110 1282,304 60,-60 120,-114 189,-164 -389,-609 -1067,-1013 -1845,-1013 -604,0 -1148,244 -1547,639 -384,-195 -818,-305 -1282,-305 -1033,0 -1936,549 -2434,1377 -195,-55 -395,-85 -609,-85 -1212,0 -2190,983 -2190,2190 0,604 244,1153 643,1552l2819 20c-165,-304 -259,-659 -259,-1033z"/>
  </g>
  <polygon fill="#D88948" points="20643,26510 833,26510 968,24046 1112,21377 1686,10806 1836,8137 1990,5313 19491,5313 19646,8137 19790,10806 20364,21377 20509,24046 "/>
  <polygon fill="#C4783F" points="5537,21377 5847,10806 5927,8137 6011,5313 1990,5313 1836,8137 1691,10806 1112,21377 968,24046 833,26510 5388,26510 5458,24046 "/>
  <polygon fill="#D88948" points="5024,5313 4210,26510 4191,26969 3313,26934 3327,26510 4141,5313 "/>
  <g>
   <polygon fill="#C4783F" points="18164,26934 17286,26969 17266,26510 16453,5313 17336,5313 18149,26510 "/>
   <polygon fill="#C4783F" points="8491,5313 8132,26510 8127,26959 7244,26944 7254,26510 7608,5313 "/>
   <polygon fill="#C4783F" points="14233,26944 13350,26959 13345,26510 12991,5313 13869,5313 14223,26510 "/>
  </g>
  <g>
   <polygon fill="#EFBB6A" points="20070,8137 1407,8137 1277,10806 20199,10806 "/>
   <polygon fill="#EFBB6A" points="20733,21377 743,21377 614,24046 20863,24046 "/>
  </g>
  <g>
   <polygon fill="#D19B54" points="743,21377 614,24046 4924,24046 5054,21377 "/>
   <polygon fill="#D19B54" points="1407,8137 1277,10806 5103,10806 5233,8137 "/>
  </g>
  <rect fill="#EFBB6A" y="26365" width="21481" height="3337"/>
  <rect fill="#D19B54" y="26365" width="6086" height="3337"/>
 </g>
</svg>
