<svg xmlns="http://www.w3.org/2000/svg" viewBox="0 0 99.100001 91.8" width="99.1" height="91.8"><g fill="#1a9f29"><path d="M61.2 22.9c-.2-.8-.7-3.3-3.6-3.3-2.9 0-3.4 2.5-3.6 3.3L47.6 56h20l-6.3-32.8zm-7.7 28.2l4.2-21.5 4.2 21.5z"/><path d="M99.1 91.5L82.6 15.9C80 4 71.4.8 62.3.2V0h-4.6-.1-17.8c-9.3.2-20.4 2.2-23.3 15.9L.7 88.3 0 91.8l22-.3h23.8l3.3-16.7h4.2l2.9 16.7h13.1v.1h29.8zM21.2 17C23 8.8 28 5.4 38.9 5c-2.9 2.4-5.1 5.9-6.2 11L17.3 86.8 5.9 87zm24 53l-3.3 16.7H22.3L37.4 17C39.3 8.3 45 4.9 57.6 4.9h.1C70.4 4.9 76 8.3 77.9 17l15.2 69.7H73.4L70.1 70zm15.1 16.6l-2.1-11.8h7.9l2.3 11.8z"/></g></svg>