<svg xmlns="http://www.w3.org/2000/svg" viewBox="0 0 841.92501 841.82499" width="841.925" height="841.825"><g clip-rule="evenodd" fill="#fff" fill-rule="evenodd"><path d="M594.5 368.125c12.6 11.9 28.9 17.9 45.1 17.9 16.9 0 33.8-6.4 46.7-19.3l28.5-28.5 120.9-120.9c8.3-8.3 8.3-21.8 0-30.1l-180.8-181c-8.3-8.3-21.8-8.3-30.2 0l-120.8 120.9-28.6 28.5c-25.2 25.3-25.7 66-1.4 91.8l-45.4 45.4-30.2 30.2-30.4-30.4-24.9-24.9c-13.5-13.5-31.4-20.9-50.5-20.9-1.3 0-2.6 0-3.9.1 1.6-32.8-12.1-68.7-40-96.6-42.9-42.9-165.3-59.1-179.1-60.8-6.5-.8-13 1.4-17.7 6.1-4.6 4.6-6.9 11.2-6.1 17.7 1.7 13.8 18 136.3 60.8 179.1 26.4 26.4 60.1 40.1 91.5 40.1 1.2 0 2.4 0 3.7-.1-1.5 20 5.4 40.6 20.7 55.9l55.2 55.2-271.4 271.4c-4 4-6.2 9.4-6.2 15.1 0 5.7 2.2 11.1 6.2 15.1l90.5 90.4c4.1 4.2 9.6 6.2 15.1 6.2s10.9-2.1 15.1-6.2l60.6-60.6 60.2-60.2c8.3-8.3 8.3-21.8 0-30.1s-21.8-8.3-30.2 0l-45.1 45.1-60.3-60.3 195.7-195.7 60.3 60.3-60.2 60.1c-8.3 8.3-8.3 21.8 0 30.2 8.3 8.3 21.8 8.3 30.2 0l60.1-60.2 210.8 210.9 60.6 60.6c.5.5 1.1 1 1.6 1.4 3.9 3.2 8.7 4.8 13.5 4.8 5.4 0 10.9-2.1 15.1-6.2l90.4-90.4c4-4 6.2-9.4 6.2-15.1 0-5.7-2.2-11.1-6.2-15.1l-271.3-271.3 30.2-30.2zm-452.2 391.9l-30.5 30.5-60.3-60.3 30.4-30.5zm497.5-708.6l150.7 150.7-90.7 90.7-150.7-150.6zm-134.3 134.4l13.5-13.5 150.7 150.7-13.5 13.5c-9.1 9.1-23.9 9.1-33 0l-13.6-13.7-90.4-90.4-13.6-13.6c-9.2-9.1-9.2-23.9-.1-33zm-61.9 152.3l60.3 60.3-15.2 15.2-60.3-60.3zm-306.8-75.7c-20.1-20.1-36.1-79.7-44.4-126.1 46.5 8.2 106 24.2 126.1 44.4 30.6 30.5 37 73.7 14.5 96.3-22.5 22.5-65.7 16-96.2-14.6zm125.6 105.7l-9.8-9.8c-3.5-3.5-5.9-7.7-7.2-12.2-.8-2.7-1.2-5.4-1.2-8.2 0-7.4 2.8-14.7 8.4-20.4l19.6-19.6c5.4-5.4 12.7-8.4 20.4-8.4 7.7 0 14.9 3 20.4 8.4l9.8 9.8zm482.6 362l-60.3 60.3-30.4-30.5 60.3-60.3zm-60.6-60.6l-60.3 60.3-210.7-210.7-90.4-90.5-30.4-30.4 60.3-60.3 30.4 30.4 90.5 90.4zm-210.7-361.5l30.3-30.3 60.3 60.3-30.3 30.3z"/><path d="M298.8 650.425c-.3-1.4-.7-2.7-1.2-4-.5-1.3-1.2-2.5-2-3.7-.8-1.2-1.7-2.3-2.6-3.3-1-1-2.1-1.9-3.3-2.6-1.1-.8-2.4-1.4-3.7-2-1.3-.5-2.6-.9-4-1.2-6.9-1.4-14.3.9-19.2 5.8-4 4-6.2 9.5-6.2 15.1 0 1.4.1 2.8.4 4.2.3 1.4.7 2.7 1.2 4 .5 1.3 1.2 2.5 2 3.7.8 1.2 1.7 2.2 2.6 3.2 4 4 9.5 6.3 15.1 6.3 1.4 0 2.8-.2 4.2-.4 1.4-.3 2.7-.7 4-1.2 1.3-.5 2.5-1.2 3.7-2 1.2-.8 2.3-1.6 3.3-2.6s1.9-2.1 2.6-3.2c.8-1.2 1.4-2.4 2-3.7.5-1.3 1-2.6 1.2-4 .3-1.4.4-2.7.4-4.2-.1-1.4-.3-2.8-.5-4.2z"/></g></svg>