<?xml version="1.0" encoding="UTF-8" standalone="no"?>
<!-- Generator: Adobe Illustrator 17.1.0, SVG Export Plug-In . SVG Version: 6.00 Build 0)  -->

<svg
   xmlns:dc="http://purl.org/dc/elements/1.1/"
   xmlns:cc="http://creativecommons.org/ns#"
   xmlns:rdf="http://www.w3.org/1999/02/22-rdf-syntax-ns#"
   xmlns:svg="http://www.w3.org/2000/svg"
   xmlns="http://www.w3.org/2000/svg"
   xmlns:sodipodi="http://sodipodi.sourceforge.net/DTD/sodipodi-0.dtd"
   xmlns:inkscape="http://www.inkscape.org/namespaces/inkscape"
   version="1.1"
   id="Layer_1"
   x="0px"
   y="0px"
   viewBox="0 0 535.90004 595.40001"
   enable-background="new 0 0 595.3 841.9"
   xml:space="preserve"
   sodipodi:docname="podarok.svg"
   width="535.90002"
   height="595.40002"
   inkscape:version="0.92.1 r"><metadata
     id="metadata13"><rdf:RDF><cc:Work
         rdf:about=""><dc:format>image/svg+xml</dc:format><dc:type
           rdf:resource="http://purl.org/dc/dcmitype/StillImage" /><dc:title></dc:title></cc:Work></rdf:RDF></metadata><defs
     id="defs11" /><sodipodi:namedview
     pagecolor="#ffffff"
     bordercolor="#666666"
     borderopacity="1"
     objecttolerance="10"
     gridtolerance="10"
     guidetolerance="10"
     inkscape:pageopacity="0"
     inkscape:pageshadow="2"
     inkscape:window-width="776"
     inkscape:window-height="480"
     id="namedview9"
     showgrid="false"
     fit-margin-top="0"
     fit-margin-left="0"
     fit-margin-right="0"
     fit-margin-bottom="0"
     inkscape:zoom="0.28031832"
     inkscape:cx="267.94999"
     inkscape:cy="297.74996"
     inkscape:window-x="861"
     inkscape:window-y="113"
     inkscape:window-maximized="0"
     inkscape:current-layer="Layer_1" /><g
     id="g6"
     transform="translate(-29.7,-123.3)"><g
       id="g4"><path
         d="M 535.8,272.1 H 430.9 c 8.9,-3.3 16.5,-6.7 22.2,-10 35.6,-20.5 47.8,-66.1 27.2,-101.6 -13.8,-23.9 -38.8,-37.2 -64.5,-37.2 -12.6,0 -25.4,3.2 -37.1,10 -22.2,12.8 -60.5,49.9 -81,84.6 -20.6,-34.7 -58.8,-71.8 -81,-84.6 -11.7,-6.8 -24.5,-10 -37.1,-10 -25.7,0 -50.7,13.3 -64.5,37.2 -20.5,35.6 -8.4,81.1 27.2,101.6 5.7,3.3 13.3,6.7 22.2,10 h -105 c -16.4,0 -29.8,13.3 -29.8,29.8 v 89.3 c 0,16.4 13.3,29.8 29.8,29.8 v 267.9 c 0,16.4 13.3,29.8 29.8,29.8 H 238.1 357.2 506 c 16.4,0 29.8,-13.3 29.8,-29.8 v -268 c 16.4,0 29.8,-13.3 29.8,-29.8 v -89.3 c -0.1,-16.4 -13.4,-29.7 -29.8,-29.7 z m -142.2,-113 c 6.8,-3.9 14.5,-6 22.3,-6 15.9,0 30.8,8.6 38.7,22.3 12.3,21.3 5,48.7 -16.3,61 -16.9,9.7 -64.6,23.9 -100.9,23.9 -13.6,0 -21,-2.1 -24.1,-3.4 0.3,-20.3 48.4,-79.5 80.3,-97.8 z M 208.3,688.8 H 89.3 V 420.9 h 119.1 z m 0,-297.6 H 89.3 59.5 V 301.9 H 208.3 Z M 157.1,236.4 c -21.3,-12.3 -28.7,-39.7 -16.3,-61 7.9,-13.8 22.8,-22.3 38.7,-22.3 7.8,0 15.5,2.1 22.2,6 31.8,18.4 80,77.5 80.3,97.8 -3,1.4 -10.5,3.4 -24.1,3.4 -36.3,0 -83.9,-14.2 -100.8,-23.9 z M 357.2,688.8 H 238.1 V 301.9 h 119.1 z m 148.8,0 H 386.9 V 420.9 H 506 Z M 535.8,391.2 H 506 386.9 v -89.3 h 148.8 v 89.3 z"
         id="path2"
         inkscape:connector-curvature="0"
         style="fill:#ffffff" /></g></g></svg>