<svg xmlns="http://www.w3.org/2000/svg" viewBox="0 0 42.999489 54.820724" width="42.999" height="54.821">
    <path d="M5.307 19.914c-.335 0-.663-.17-.852-.476-.614-.995-1.76-2.146-3.078-2.104-.56-.03-1.014-.418-1.03-.97-.017-.552.417-1.013.97-1.03 2.106-.063 3.903 1.534 4.84 3.055.29.47.144 1.085-.326 1.375-.162.1-.344.15-.523.15z"
          fill="#436b1c"/>
    <path d="M25.774 6.598C25.64 4.65 24.02 3.11 22.04 3.11h-.018c.035-.294.015-.606-.08-.93-.268-.915-1.072-1.617-2.018-1.73-.776-.092-1.488.186-1.987.68C17.462.7 16.84.43 16.15.43c-1.48 0-2.677 1.2-2.677 2.677v.013c-1.796.136-3.213 1.635-3.213 3.467 0 .28.037.55.1.812-2.14.09-3.848 1.847-3.848 4.008 0 .732.2 1.416.54 2.007-.656.54-1.076 1.36-1.076 2.276 0 .838.355 1.59.917 2.124 2.412-1.97 4.946 4.62 7.93 9.884.99 1.75 11.698-.113 12.55.973.973-.874 1.6-16.094 1.628-17.43.043-2.146-1.32-3.976-3.226-4.645z"
          fill="#88c057"/>
    <path d="M27.143 26.534l.713-.427c1.32-.792 2.968-.792 4.287 0l.713.427c1.32.792 2.968.792 4.287 0l2.015-.896c.296-.826.502-1.424.584-1.69 1.88-6.046 3.09-12.413 3.256-18.764.066-2.554-2.046-6.537-5.555-4.727-3.45 1.778-5.92 8.597-7.655 11.835-2.466 4.6-4.416 9.605-5.805 14.704 1.058.267 2.196.116 3.16-.462z"
          fill="#eeaf4b"/>
    <path d="M1.145 25.507l1.345.807c1.545.927 3.475.927 5.02 0l.346-.208c1.32-.792 2.968-.792 4.287 0l.713.427c.775.465 1.663.65 2.53.568.64-2.066.426-4.65-.566-6.4-3.336-5.884-6.11-4.685-8.78-2.13-.513.49-1.14.85-1.82 1.044-2.93.837-5.09 2.206-3.86 5.934.216-.158.518-.2.785-.04z"
          fill="#ed3f32"/>
    <path d="M29.682 24.357c-.106 0-.215-.017-.32-.053-.524-.178-.804-.746-.626-1.27.667-1.96 2.81-3.01 4.768-2.35.92.312 1.92-.182 2.232-1.1.177-.524.743-.806 1.27-.627.522.178.802.746.624 1.27-.666 1.962-2.806 3.016-4.768 2.35-.918-.31-1.92.184-2.232 1.1-.143.42-.532.68-.948.68zM32.047 17.39c-.106 0-.215-.017-.32-.053-.524-.178-.804-.746-.626-1.27.324-.95.998-1.72 1.898-2.163.9-.444 1.92-.51 2.87-.188.922.314 1.92-.18 2.233-1.1.178-.525.746-.806 1.27-.627.522.177.802.745.624 1.268-.666 1.964-2.806 3.016-4.768 2.353-.445-.15-.923-.12-1.344.088-.42.208-.736.567-.888 1.013-.14.418-.53.68-.947.68zM34.413 10.422c-.106 0-.215-.017-.322-.053-.522-.18-.802-.747-.624-1.27.584-1.722 2.463-2.646 4.185-2.064.33.112.683.09.994-.063.31-.153.544-.42.656-.748.177-.523.744-.804 1.27-.626.522.177.802.745.624 1.268-.284.835-.875 1.51-1.665 1.9-.792.39-1.687.446-2.522.163-.678-.23-1.418.135-1.648.814-.142.416-.53.678-.947.678z"
          fill="#a46f3e"/>
    <path d="M17.46 14.096c-.945 1.257-2.436 2.745-1.862 5.373l1.544 7.064.714-.427c1.32-.792 2.968-.792 4.287 0l.713.427c.58.348 1.127.463 1.127.463 1.042-3.823 2.4-7.593 4.052-11.18-.774-1.935-2.427-2.583-3.627-3.246l-.02-.01c-.76-.435-.806-1.474-.235-2.136.225-.26.33-.62.25-.98l-.12-.552c-.133-.608-.74-.996-1.346-.863L16.86 9.354c-.608.133-.996.74-.863 1.346l.12.553c.08.368.335.653.657.792.74.32 1.19 1.144.812 1.855-.036.067-.078.132-.126.196z"
          fill="#dae7ef"/>
    <path d="M23.836 10.9l-6.88 1.503c-.758.166-1.516-.32-1.682-1.08l-.1-.45c-.165-.76.32-1.518 1.08-1.684l6.88-1.504c.758-.166 1.516.32 1.682 1.08l.1.45c.165.76-.32 1.518-1.08 1.684z"
          fill="#fff"/>
    <path d="M40.906 25.333l-1.745 25.03c-.127 2.498-2.19 4.458-4.692 4.458H6.398c-2.503 0-4.566-1.96-4.694-4.458L0 26.154c-.028-.57.59-.94 1.078-.647l1.345.807c1.545.927 3.475.927 5.02 0l.346-.208c1.32-.792 2.967-.792 4.286 0l.713.428c1.32.792 2.967.792 4.286 0l.713-.428c1.32-.792 2.967-.792 4.286 0l.713.428c1.32.792 2.967.792 4.286 0l.713-.428c1.32-.792 2.967-.792 4.286 0l.713.428c1.32.792 2.967.792 4.286 0l3.387-1.505c.215-.097.455.068.443.303z"
          fill="#fbd490"/>
    <path d="M12 42H5c-.552 0-1-.446-1-1 0-.552.448-1 1-1h7c.552 0 1 .448 1 1 0 .554-.448 1-1 1zM14 46H5c-.552 0-1-.446-1-1 0-.552.448-1 1-1h9c.552 0 1 .448 1 1 0 .554-.448 1-1 1zM16 50H5c-.552 0-1-.446-1-1 0-.552.448-1 1-1h11c.552 0 1 .448 1 1 0 .554-.448 1-1 1zM22 50h-2c-.552 0-1-.446-1-1 0-.552.448-1 1-1h2c.552 0 1 .448 1 1 0 .554-.448 1-1 1z"
          fill="#e0b877"/>
</svg>