<?xml version="1.0" encoding="UTF-8"?>
<!DOCTYPE svg PUBLIC "-//W3C//DTD SVG 1.1//EN" "http://www.w3.org/Graphics/SVG/1.1/DTD/svg11.dtd">
<!-- Creator: CorelDRAW X7 -->
<svg xmlns="http://www.w3.org/2000/svg" xml:space="preserve" width="21.601mm" height="41.7554mm" version="1.1" shape-rendering="geometricPrecision" text-rendering="geometricPrecision" image-rendering="optimizeQuality" fill-rule="evenodd" clip-rule="evenodd"
viewBox="0 0 2074 4009"
 xmlns:xlink="http://www.w3.org/1999/xlink">
 <g id="Слой_x0020_1">
  <metadata id="CorelCorpID_0Corel-Layer"/>
  <g id="_1107591217664">
   <path fill="white" d="M1940 1327l-1806 0c-72,0 -134,57 -134,134 0,76 57,134 134,134l771 0 0 2146 -479 0c-72,0 -134,57 -134,134 0,76 58,134 134,134l1222 0c71,0 134,-58 134,-134 0,-77 -58,-134 -134,-134l-479 0 0 -2146 771 0c72,0 134,-58 134,-134 0,-77 -62,-134 -134,-134z"/>
   <path fill="white" d="M1035 939c258,0 469,-211 469,-470 0,-258 -211,-469 -469,-469 -259,0 -470,211 -470,469 0,259 211,470 470,470zm0 -676c115,0 205,91 205,206 0,115 -91,206 -205,206 -115,0 -206,-91 -206,-206 0,-115 95,-206 206,-206z"/>
  </g>
 </g>
</svg>
