<?xml version="1.0" encoding="utf-8"?>
<!-- Generator: Adobe Illustrator 17.1.0, SVG Export Plug-In . SVG Version: 6.00 Build 0)  -->
<!DOCTYPE svg PUBLIC "-//W3C//DTD SVG 1.1//EN" "http://www.w3.org/Graphics/SVG/1.1/DTD/svg11.dtd">
<svg version="1.1" id="Capa_1" xmlns="http://www.w3.org/2000/svg" xmlns:xlink="http://www.w3.org/1999/xlink" x="0px" y="0px"
	 viewBox="0 0 512 512" enable-background="new 0 0 512 512" xml:space="preserve">
<g>
	<path fill="#1A9F29" d="M496.6,76.8c-12.6-12.6-29.3-19.6-47.1-19.6H62.6C25.9,57.2-4,87.1-4,123.8v264.4
		c0,36.7,29.9,66.6,66.6,66.6h386.8c36.7,0,66.6-29.9,66.6-66.6V123.9C516.1,106.1,509.2,89.4,496.6,76.8z M32.6,123.9
		c0-16.5,13.5-30,30-30h386.8c16.5,0,30,13.5,30,30v266.9c-1.3,15.4-14.2,27.5-29.9,27.5H62.6c-16.5,0-30-13.5-30-30V123.9z"/>
	<path fill="#1A9F29" d="M61.2,143.4l123.4,110.3l-123,115.1c-7.3,6.9-7.7,18.5-0.8,25.9c3.5,3.7,8.4,5.8,13.4,5.8
		c4.6,0,9.1-1.7,12.5-4.9l125.4-117.3l32,28.6c3.4,3,7.7,4.6,12.2,4.6c4.5,0,9-1.7,12.2-4.7l33-29.5l124.6,118.4
		c3.4,3.2,7.9,5,12.6,5c5,0,9.7-2,13.3-5.7c3.3-3.5,5.1-8.2,5-13.1c-0.1-4.9-2.1-9.5-5.7-12.8L328.8,252.8l122-109.4
		c7.4-6.8,8-18.4,1.3-25.9c-3.5-3.8-8.4-6-13.6-6c-4.5,0-8.9,1.7-12.2,4.7l-170,152.6L226.3,242l-1.1-1.1c-0.8-0.8-1.7-1.5-2.6-2.3
		L85.6,116c-3.4-3-7.7-4.7-12.2-4.7c-5.2,0-10.2,2.2-13.7,6.2c-3.3,3.7-4.9,8.4-4.6,13.3C55.4,135.6,57.6,140.1,61.2,143.4z"/>
</g>
</svg>
