<?xml version="1.0" encoding="UTF-8" standalone="no"?>
<!-- Generator: Adobe Illustrator 17.1.0, SVG Export Plug-In . SVG Version: 6.00 Build 0)  -->

<svg
   xmlns:dc="http://purl.org/dc/elements/1.1/"
   xmlns:cc="http://creativecommons.org/ns#"
   xmlns:rdf="http://www.w3.org/1999/02/22-rdf-syntax-ns#"
   xmlns:svg="http://www.w3.org/2000/svg"
   xmlns="http://www.w3.org/2000/svg"
   xmlns:sodipodi="http://sodipodi.sourceforge.net/DTD/sodipodi-0.dtd"
   xmlns:inkscape="http://www.inkscape.org/namespaces/inkscape"
   version="1.1"
   id="Capa_1"
   x="0px"
   y="0px"
   viewBox="0 0 595.20002 595.29997"
   enable-background="new 0 0 595.3 841.9"
   xml:space="preserve"
   sodipodi:docname="map.svg"
   width="595.20001"
   height="595.29999"
   inkscape:version="0.92.1 r"><metadata
     id="metadata11"><rdf:RDF><cc:Work
         rdf:about=""><dc:format>image/svg+xml</dc:format><dc:type
           rdf:resource="http://purl.org/dc/dcmitype/StillImage" /><dc:title></dc:title></cc:Work></rdf:RDF></metadata><defs
     id="defs9" /><sodipodi:namedview
     pagecolor="#ffffff"
     bordercolor="#666666"
     borderopacity="1"
     objecttolerance="10"
     gridtolerance="10"
     guidetolerance="10"
     inkscape:pageopacity="0"
     inkscape:pageshadow="2"
     inkscape:window-width="776"
     inkscape:window-height="480"
     id="namedview7"
     showgrid="false"
     fit-margin-top="0"
     fit-margin-left="0"
     fit-margin-right="0"
     fit-margin-bottom="0"
     inkscape:zoom="0.28031832"
     inkscape:cx="297.64999"
     inkscape:cy="297.64999"
     inkscape:window-x="851"
     inkscape:window-y="168"
     inkscape:window-maximized="0"
     inkscape:current-layer="Capa_1" /><ellipse
     cx="297.60001"
     cy="513.20001"
     rx="297.60001"
     ry="82.099998"
     id="ellipse2"
     style="fill:#339933" /><path
     d="m 427.7,54.6 v 0 c -72.8,-72.8 -191,-72.8 -263.8,0 v 0 c -65.6,65.6 -73,189.2 -17.3,263.5 L 295.8,533.7 445,318.2 C 500.8,243.9 493.4,120.3 427.7,54.6 Z M 297.6,246.3 c -34,0 -61.6,-27.6 -61.6,-61.6 0,-34 27.6,-61.6 61.6,-61.6 34,0 61.6,27.6 61.6,61.6 0,34 -27.5,61.6 -61.6,61.6 z"
     id="path4"
     inkscape:connector-curvature="0"
     style="fill:#f48b00" /></svg>