<svg xmlns="http://www.w3.org/2000/svg" viewBox="0 0 242.60001 168.39999" width="242.6" height="168.4"><path d="M193.5 23.5h28c2.3 0 4.2-1.9 4.2-4.2 0-2.3-1.9-4.2-4.2-4.2h-28c-2.3 0-4.2 1.9-4.2 4.2 0 2.3 1.9 4.2 4.2 4.2zM75.5 58.9h80.6c2.3 0 4.2-1.9 4.2-4.2 0-2.3-1.9-4.2-4.2-4.2H75.5c-2.3 0-4.2 1.8-4.2 4.2 0 2.3 1.9 4.2 4.2 4.2zM82.6 76.1H149c1.9 0 3.4-1.9 3.4-4.2 0-2.3-1.6-4.2-3.4-4.2H82.6c-1.9 0-3.4 1.9-3.4 4.2-.1 2.3 1.5 4.2 3.4 4.2zM75.5 93.4h80.6c2.3 0 4.2-1.9 4.2-4.2 0-2.3-1.9-4.2-4.2-4.2H75.5c-2.3 0-4.2 1.8-4.2 4.2 0 2.3 1.9 4.2 4.2 4.2zM87.3 110.6h56.8c1.6 0 2.9-1.9 2.9-4.2 0-2.3-1.3-4.2-2.9-4.2H87.3c-1.6 0-2.9 1.9-2.9 4.2 0 2.3 1.3 4.2 2.9 4.2zM75.5 127.9h80.6c2.3 0 4.2-1.9 4.2-4.2 0-2.3-1.9-4.2-4.2-4.2H75.5c-2.3 0-4.2 1.9-4.2 4.2 0 2.3 1.9 4.2 4.2 4.2zM19.8 24.5h14.3c2.5 0 4.5-2 4.5-4.5s-2-4.5-4.5-4.5H19.8c-2.5 0-4.5 2-4.5 4.5-.1 2.5 2 4.5 4.5 4.5z" clip-rule="evenodd" fill="#f89803" fill-rule="evenodd"/><path d="M226.8 0H15.9C7.1 0 0 7.1 0 15.9v26.8c0 8.8 7.1 15.9 15.9 15.9h4.2v26.5h12.2v47.5h17.1c-.9 7.9-2.5 14.4-4.8 23.5-.6 2.2-1.1 4.5-1.8 7l-1.3 5.3h147.3l-1.7-5.5c-.9-3.1-1.8-5.9-2.6-8.4-2.7-8.7-4.5-14.5-5.5-21.8h21.1V85.2h22.4V58.7h4.3c8.7 0 15.8-7.1 15.8-15.9V16c0-8.9-7.1-16-15.8-16zM28.7 58.6h21.4v18H28.7zm12.1 65.5v-39h9.3v33.2c0 2.1 0 4-.1 5.8zm11.6 35.7c.1-.6.3-1.1.4-1.6 3.6-14.1 5.7-22.6 5.7-39.9V39.8h111.2v77.8c0 18.2 2.4 25.7 6.7 39.4.3.9.6 1.9.9 2.8zm139.3-35.7h-13.3c-.1-2-.1-4.2-.1-6.5V85.1h13.4zM214 76.6h-35.7v-18H214zm20.1-33.9c0 4.1-3.3 7.4-7.3 7.4h-48.5V39.2h4.4c2.3 0 4.1-1.8 4.1-4.1S185 31 182.7 31H46.5c-2.2 0-4.1 1.8-4.1 4.1s1.8 4.1 4.1 4.1h3.6v10.9H16c-4.1 0-7.4-3.3-7.4-7.4V15.9c0-4.1 3.3-7.4 7.4-7.4h210.8c4 0 7.3 3.3 7.3 7.4z" clip-rule="evenodd" fill="#1a9f29" fill-rule="evenodd"/></svg>