<?xml version="1.0" encoding="UTF-8" standalone="no"?>
<svg
   xmlns:dc="http://purl.org/dc/elements/1.1/"
   xmlns:cc="http://creativecommons.org/ns#"
   xmlns:rdf="http://www.w3.org/1999/02/22-rdf-syntax-ns#"
   xmlns:svg="http://www.w3.org/2000/svg"
   xmlns="http://www.w3.org/2000/svg"
   xmlns:sodipodi="http://sodipodi.sourceforge.net/DTD/sodipodi-0.dtd"
   xmlns:inkscape="http://www.inkscape.org/namespaces/inkscape"
   enable-background="new 0 0 52 52"
   id="Layer_1"
   version="1.1"
   viewBox="0 0 52 52"
   xml:space="preserve"
   sodipodi:docname="printer.svg"
   inkscape:version="0.92.1 r"><metadata
     id="metadata15"><rdf:RDF><cc:Work
         rdf:about=""><dc:format>image/svg+xml</dc:format><dc:type
           rdf:resource="http://purl.org/dc/dcmitype/StillImage" /></cc:Work></rdf:RDF></metadata><defs
     id="defs13" /><sodipodi:namedview
     pagecolor="#ffffff"
     bordercolor="#666666"
     borderopacity="1"
     objecttolerance="10"
     gridtolerance="10"
     guidetolerance="10"
     inkscape:pageopacity="0"
     inkscape:pageshadow="2"
     inkscape:window-width="778"
     inkscape:window-height="480"
     id="namedview11"
     showgrid="false"
     inkscape:zoom="4.5384615"
     inkscape:cx="3.7457627"
     inkscape:cy="26"
     inkscape:window-x="51"
     inkscape:window-y="27"
     inkscape:window-maximized="0"
     inkscape:current-layer="Layer_1" /><g
     id="g8"
     style="fill:#ffffff"><path
       d="M11.960022,50h28.0899658V32H11.960022V50z M18.8141479,36.9968262h14.1884766v2H18.8141479V36.9968262z    M18.8141479,42.9968262h14.1884766v2H18.8141479V42.9968262z"
       id="path2"
       style="fill:#ffffff" /><polygon
       points="16,20 36,20 36,19.9968262 37.0026245,19.9968262 37.0026245,17.9968262 36,17.9968262 36,2 16,2 16,17.9968262    15.0026245,17.9968262 15.0026245,19.9968262 16,19.9968262  "
       id="polygon4"
       style="fill:#ffffff" /><path
       d="M43.0299683,10h-5.0297852v5.9968262h1.0024414v6h-1.0024414v0.003418h-24v-0.003418h-0.9975586v-6h0.9975586V10H8.9700317   C5.1300049,10,2,13.1199951,2,16.9699707V40h7.960144v-9.9997559h32.0898438V40H50V16.9699707   C50,13.1199951,46.8800049,10,43.0299683,10z"
       id="path6"
       style="fill:#ffffff" /></g></svg>