<svg xmlns="http://www.w3.org/2000/svg" viewBox="0 0 595.40004 495.99999" width="595.4" height="496"><g fill="#fff"><path d="M595 406.6l-22.9-159.2c13.5-5.5 23.1-18.8 23.1-34.3v-88C595.2 56.1 539.1 0 470.1 0H232.4c-17.7 0-32.7 11.6-37.9 27.5h-70.2c-6.4 0-11.7 4.8-12.3 11.1H97c-1.8 0-3.5.4-5.2 1.1L64.5 52.2c-4.4 2-7.2 6.4-7.2 11.3v8.6H12.4C5.6 72 0 77.5 0 84.4c0 6.8 5.6 12.4 12.4 12.4h44.8v8.6c0 4.9 2.8 9.3 7.2 11.3l27.3 12.5c1.6.7 3.4 1.1 5.2 1.1h15c.7 6.2 5.9 11.1 12.3 11.1h73.3c8.7 19.1 28 32.3 50.3 32.3h42.7c7.5 34.4 44.2 76.4 92.8 76.4 35.4 0 55.4 19.6 61.2 59.8 4.3 29.8-.3 53.3-13.1 68.2-10.6 12.2-27.2 18.7-48 18.7-6.8 0-12.4 5.6-12.4 12.4v74.4c0 6.8 5.6 12.4 12.4 12.4H583c6.8 0 12.4-5.6 12.4-12.4v-73.9-.5c-.1-.9-.2-1.8-.4-2.6zM111.8 105.5H99.5l-17.6-8V71.4l17.6-8h12.3zm80.7 11h-55.9V52.2h55.9zM370.9 224c-28.7-5.9-48.1-31.4-54.6-50.3h54.6zm199.6 247.2H395.7v-49.6h174.8zm0-258.2c0 6.7-5.5 12.2-12.2 12.2-3.6 0-7 1.6-9.4 4.3-2.4 2.7-3.4 6.3-2.9 9.9l22.6 157.3H447.8c.8-.8 1.5-1.6 2.2-2.5 5.6-6.5 10.1-14 13.5-22.4h27.2c6.8 0 12.4-5.6 12.4-12.4 0-6.8-5.6-12.4-12.4-12.4h-21c1.6-12.4 1.4-26.1-.7-40.8-3.4-23.8-11.4-42.7-23.8-56.2h31.9c6.8 0 12.4-5.6 12.4-12.4 0-6.8-5.6-12.4-12.4-12.4h-81.5v-64c0-6.8-5.6-12.4-12.4-12.4H247.7c-16.8 0-30.5-13.7-30.5-30.5V39.8c0-8.3 6.8-15.1 15.1-15.1h237.8c55.3 0 100.3 45 100.3 100.3z"/><path d="M365.3 74.4h.9c6.8 0 12.4-5.6 12.4-12.4 0-6.8-5.6-12.4-12.4-12.4h-.9c-6.8 0-12.4 5.6-12.4 12.4 0 6.8 5.6 12.4 12.4 12.4zM470.2 49.6h-68c-6.8 0-12.4 5.6-12.4 12.4 0 6.8 5.6 12.4 12.4 12.4h68c6.8 0 12.4-5.6 12.4-12.4 0-6.9-5.6-12.4-12.4-12.4zM470.2 99.2H365.3c-6.8 0-12.4 5.6-12.4 12.4 0 6.8 5.6 12.4 12.4 12.4h104.8c6.8 0 12.4-5.6 12.4-12.4.1-6.8-5.5-12.4-12.3-12.4zM301.4 49.6h-46.9c-6.8 0-12.4 5.6-12.4 12.4 0 6.8 5.6 12.4 12.4 12.4h46.9c6.8 0 12.4-5.6 12.4-12.4 0-6.9-5.5-12.4-12.4-12.4zM301.4 99.2h-46.9c-6.8 0-12.4 5.6-12.4 12.4 0 6.8 5.6 12.4 12.4 12.4h46.9c6.8 0 12.4-5.6 12.4-12.4 0-6.8-5.5-12.4-12.4-12.4zM514 225.3h-.9c-6.8 0-12.4 5.6-12.4 12.4 0 6.8 5.6 12.4 12.4 12.4h.9c6.8 0 12.4-5.6 12.4-12.4 0-6.9-5.6-12.4-12.4-12.4zM470.2 162.3H433c-6.8 0-12.4 5.6-12.4 12.4 0 6.8 5.6 12.4 12.4 12.4h37.2c6.8 0 12.4-5.6 12.4-12.4 0-6.9-5.6-12.4-12.4-12.4z"/></g></svg>