<svg xmlns="http://www.w3.org/2000/svg" viewBox="0 0 136.80001 118.69999" width="136.8" height="118.7"><path d="M136.7 118.7H.1V97.6h136.5v21.1zM4.9 113.9h126.9v-11.5H4.9z" fill="#1a9f29"/><path d="M120.1 41H16.7v49.9h103.4zM21.5 86.1V45.9h24.7v40.2zm29.5 0V45.9h29.9v40.2zm34.7 0V45.9h29.6v40.2z" fill="#f79400"/><path d="M136.8 0H.2v.1H0v102.3h136.5v-79c.1-.5.1-1.1.1-1.7V0zM5.2 4.9h17.1v16.9c0 4.7-3.8 8.5-8.5 8.5s-8.6-3.8-8.6-8.5zm21.9 0h17.1v16.9c0 4.7-3.8 8.5-8.5 8.5s-8.6-3.8-8.6-8.5zm22 0h17.1v16.9c0 4.7-3.8 8.5-8.5 8.5s-8.6-3.8-8.6-8.5zm21.9 0h17.1v16.9c0 4.7-3.8 8.5-8.5 8.5s-8.5-3.8-8.5-8.5V4.9zm22 0h17.1v16.9c0 4.7-3.8 8.5-8.5 8.5s-8.5-3.8-8.5-8.5V4.9zm21.9 0h17v18.2c-.6 4.1-4.2 7.2-8.4 7.2-4.7 0-8.5-3.8-8.5-8.5V4.9zM4.9 97.6V31.9c2.4 2.1 5.4 3.3 8.8 3.3 4.5 0 8.5-2.3 10.9-5.7 2.4 3.5 6.4 5.7 11 5.7 4.5 0 8.6-2.3 11-5.8 2.4 3.5 6.4 5.8 11 5.8 4.5 0 8.5-2.3 11-5.7 2.4 3.5 6.4 5.7 11 5.7s8.6-2.3 11-5.8c2.4 3.5 6.4 5.8 11 5.8 4.5 0 8.5-2.3 11-5.7 2.4 3.5 6.4 5.7 11 5.7 3.2 0 6.1-1.1 8.4-3v65.4z" fill="#1a9f29"/></svg>