<svg xmlns="http://www.w3.org/2000/svg" viewBox="0 0 177.60001 113.3" width="177.6" height="113.3"><path d="M89.4 94.9c-22.7 0-45.6-6.9-65.7-20.6-1.3-.9-1.6-2.6-.7-3.8.9-1.3 2.6-1.6 3.8-.7 38.6 26.4 87.7 26.2 125.1-.5 1.2-.9 3-.6 3.8.6.9 1.2.6 3-.6 3.8-19.8 14.2-42.7 21.2-65.7 21.2z" fill="#1a9f29"/><path d="M168.3 33.2h-28.5C136.5 14.5 114.9 0 88.8 0s-47.7 14.5-51 33.2H9.3c-5.1 0-9.3 4.5-9.3 10v34.9c0 4.7 3.3 6.7 5.9 8.4l1.8 1.2c23.4 16.8 51.2 25.6 80.2 25.6s58.2-9.1 82-25.6c.6-.4 1.1-.7 1.7-1.1 2.7-1.7 6-3.7 6-8.5V43.2c0-5.5-4.2-10-9.3-10zM88.8 5.5c25.3 0 45.9 14.7 45.9 32.7 0 18-20.6 32.7-45.9 32.7-25.4 0-46-14.7-46-32.7 0-18 20.6-32.7 46-32.7zm83.3 72.6c0 1.5-.9 2.2-3.4 3.8-.7.4-1.3.8-2 1.3-22.9 15.9-50.9 24.6-78.9 24.6-27.9 0-54.5-8.5-77-24.6-.7-.5-1.4-1-2.1-1.4-2.5-1.5-3.3-2.2-3.3-3.7V43.2c0-2.5 1.8-4.5 3.8-4.5h28.1c.4 20.8 23.3 37.6 51.5 37.6 28.1 0 51-16.8 51.4-37.6h28.1c2.1 0 3.8 2.1 3.8 4.5z" fill="#1a9f29"/><path d="M86.8 55.2c-.1.1-.3.2-.7.2H68.6c-.4 0-.6-.1-.7-.2-.1-.1-.2-.4-.2-.8v-3.1c0-.4.1-.6.2-.8.1-.1.3-.2.7-.2h5.7V27.1l-5.6.9c-.4.1-.6 0-.7-.1-.1-.1-.2-.3-.2-.6v-2.9c0-.3.1-.5.2-.7.1-.2.3-.3.7-.5l7.9-2.2c.9-.3 1.7-.3 2.4 0s1.1.9 1.1 1.9v27.4h6c.4 0 .6.1.7.2.1.1.2.4.2.8v3.1c-.1.4-.1.7-.2.8zM111.3 21.5c.7 0 1.3.2 1.8.5s.7.9.7 1.7v1.4c0 .5-.1 1-.2 1.5s-.3 1-.6 1.5L98.7 54.6c-.2.4-.4.6-.6.7-.2.1-.5.2-1 .2h-4.3c-.3 0-.5-.1-.7-.4-.2-.3-.1-.5 0-.9L107 26.6H89.9c-.4 0-.6-.1-.7-.2-.1-.2-.2-.4-.2-.8v-3.1c0-.4.1-.7.2-.8.1-.2.4-.2.7-.2z" fill="#ff9000"/></svg>