<?xml version="1.0" encoding="UTF-8"?>
<!DOCTYPE svg PUBLIC "-//W3C//DTD SVG 1.1//EN" "http://www.w3.org/Graphics/SVG/1.1/DTD/svg11.dtd">
<!-- Creator: CorelDRAW X7 -->
<svg xmlns="http://www.w3.org/2000/svg" xml:space="preserve" width="304.714mm" height="305.063mm" version="1.1" shape-rendering="geometricPrecision" text-rendering="geometricPrecision" image-rendering="optimizeQuality" fill-rule="evenodd" clip-rule="evenodd"
viewBox="0 0 30469 30504"
 xmlns:xlink="http://www.w3.org/1999/xlink">
 <g id="Слой_x0020_1">
  <metadata id="CorelCorpID_0Corel-Layer"/>
  <g id="_1107579460528">
   <path fill="#1A9F29" d="M24145 18520c-690,-713 -1520,-1096 -2407,-1096 -882,0 -1723,377 -2430,1085l-1770 1763c-23,-11 -40,-23 -63,-35 -53,-29 -105,-52 -157,-81l-6 -6c-214,-110 -423,-208 -580,-313 -1821,-1154 -3474,-2662 -5058,-4611 -678,-859 -1160,-1589 -1519,-2320 388,-366 759,-743 1113,-1102l134 -134c87,-87 180,-180 267,-267 87,-87 174,-174 261,-261 1467,-1467 1467,-3445 0,-4912l-1712 -1712c-191,-191 -388,-388 -574,-585l-6 -6c-371,-383 -771,-789 -1189,-1178 -684,-678 -1508,-1032 -2378,-1032 -876,0 -1705,360 -2413,1032l-2152 2170c-870,870 -1369,1937 -1479,3167 -156,1902 395,3665 824,4826 1038,2795 2581,5371 4866,8114 2785,3324 6137,5951 9960,7796 1484,702 3462,1525 5661,1670l5 0c145,6 285,12 412,12 1566,0 2883,-568 3916,-1688l40 -41 6 -11c0,-6 6,-6 6,-12 284,-342 615,-661 963,-997l87 -82c330,-313 591,-574 829,-823 696,-719 1061,-1566 1061,-2448 0,-893 -377,-1734 -1084,-2436l-3434 -3446zm1775 6479l-226 0 0 250c-157,162 -319,325 -493,487l-140 139c-400,383 -829,807 -1229,1276 -563,598 -1195,859 -2054,859 -87,0 -179,0 -261,-6 -1792,-116 -3474,-824 -4738,-1427 -3498,-1694 -6566,-4095 -9119,-7140 -2111,-2529 -3520,-4884 -4448,-7396 -563,-1496 -772,-2650 -679,-3747 52,-643 290,-1154 748,-1606l2135 -2135c232,-214 464,-330 673,-330 255,0 481,174 626,319l29 29c360,336 702,684 1114,1108 98,104 197,203 301,307 99,99 198,203 296,302l1717 1716c505,505 505,865 0,1369 -64,64 -122,122 -180,186 -122,122 -232,238 -354,348l-5 6c-557,568 -1033,1044 -1555,1508l-6 6c-11,11 -40,34 -63,63 -737,754 -488,1549 -407,1810l24 64 11 29c453,1102 1097,2152 2083,3399l23 29c1757,2163 3608,3846 5649,5133 273,174 546,308 807,441 214,110 423,209 585,313l35 23c18,12 41,29 70,41 267,133 533,197 800,197 458,0 876,-185 1242,-551l2146 -2146c133,-133 388,-354 661,-354 278,0 516,227 603,325l3480 3480c435,447 470,824 99,1276z"/>
   <path fill="#1A9F29" d="M16367 7871c1554,261 2970,998 4106,2129 1126,1125 1862,2546 2129,4106 99,604 621,1044 1236,1044 69,0 127,-5 179,-11l29 -6c679,-110 1143,-760 1033,-1444 -354,-2071 -1328,-3956 -2825,-5453 -1496,-1496 -3381,-2476 -5458,-2830 -70,-12 -139,-17 -203,-17 -609,0 -1131,435 -1235,1038 -58,336 17,673 208,945 192,267 476,447 801,499z"/>
   <path fill="#1A9F29" d="M30450 13439c-574,-3358 -2158,-6409 -4582,-8839 -2425,-2425 -5482,-4008 -8834,-4583 -70,-11 -145,-17 -215,-17 -603,0 -1119,435 -1224,1038l0 6c-110,690 337,1323 1027,1444 2831,482 5418,1822 7482,3881 2060,2059 3399,4646 3881,7482 98,603 620,1044 1235,1044 70,0 128,-6 180,-11l23 -6c331,-52 621,-226 818,-499 192,-278 267,-615 209,-940z"/>
  </g>
 </g>
</svg>
