<svg xmlns="http://www.w3.org/2000/svg" viewBox="0 0 625.90089 841.9" width="625.901" height="841.9"><g clip-rule="evenodd" fill="#fff" fill-rule="evenodd"><path d="M607 362.9h-50c-4.8-22.7-12.3-44.5-22.3-64.9l39.5-39.5c7.4-7.4 7.4-19.4 0-26.8l-55.4-55.4c-3.5-3.5-8.4-5.6-13.4-5.6s-9.8 2-13.4 5.6l-29.3 29.3c-4.3-3.7-8.8-7.2-13.3-10.6V18.9c0-10.5-8.5-18.9-18.9-18.9h-293c-10.5 0-18.9 8.5-18.9 18.9v172.5C46.8 242.5 0 326.4 0 420.9s46.9 178.4 118.7 229.5V823c0 10.5 8.5 18.9 18.9 18.9h292.9c10.5 0 18.9-8.5 18.9-18.9V646.8c54.1-40.3 93.2-99.5 107.6-167.8h50c10.4 0 18.9-8.5 18.9-18.9v-78.3c.1-10.5-8.4-18.9-18.9-18.9zm-450.5-325h255.1v32.7h-156c-10.5 0-18.9 8.5-18.9 18.9 0 10.5 8.5 18.9 18.9 18.9h155.9v62.7c-28.8-15.1-59.9-24.9-92.1-29.2-.9-.1-1.7-.3-2.6-.3-1.4-.2-2.8-.3-4.2-.5-1.2-.1-2.5-.3-3.8-.4-1.2-.1-2.5-.2-3.8-.3-1.4-.1-2.9-.2-4.4-.3-1.1-.1-2.3-.1-3.4-.2l-5.1-.3c-.9 0-1.8-.1-2.7-.1-2.6-.1-5.3-.1-7.9-.1-2.6 0-5.2 0-7.8.1-.8 0-1.6.1-2.4.1-1.8.1-3.5.1-5.3.2-1 .1-1.9.1-2.9.2l-4.8.3c-1 .1-2.1.2-3.1.3-1.5.1-3 .3-4.5.5-1.1.1-2.2.3-3.2.4-1.4.2-2.9.4-4.3.6-1.1.2-2.2.3-3.3.5-1.4.2-2.7.4-4.1.7-1.2.2-2.4.4-3.5.6-1.1.2-2.3.4-3.4.6-5.6 1.1-11.1 2.3-16.6 3.7-.3.1-.7.1-1 .2-2 .5-4 1.1-6 1.6-.3.1-.5.1-.8.2-2.2.6-4.3 1.2-6.4 1.9-14.2 4.4-28 9.9-41.4 16.6V37.9zm255 766.1h-255v-42.2h155.9c10.5 0 18.9-8.5 18.9-18.9 0-10.4-8.5-18.9-18.9-18.9H156.5v-50.7c13.4 6.6 27.2 12.2 41.4 16.6 2.1.7 4.2 1.3 6.3 1.9.3.1.5.1.8.2 2 .6 4 1.1 6 1.6.3.1.7.2 1 .3 5.5 1.4 11.1 2.6 16.7 3.7 1.1.2 2.3.4 3.4.7 1.2.2 2.4.4 3.5.6 1.4.2 2.7.5 4.1.7 1.1.2 2.2.3 3.3.5 1.5.2 2.9.4 4.4.6 1.1.1 2.1.3 3.2.4 1.5.2 3 .3 4.6.5 1 .1 2.1.2 3.1.3l4.8.3c1 .1 1.9.1 2.9.2 1.8.1 3.5.1 5.3.2.8 0 1.6.1 2.5.1 2.6.1 5.2.1 7.7.1 2.6 0 5.3-.1 7.9-.1.9 0 1.8-.1 2.7-.1 1.7-.1 3.4-.1 5.1-.2 1.1-.1 2.3-.1 3.4-.2 1.5-.1 2.9-.2 4.4-.3 1.2-.1 2.5-.2 3.7-.3 1.3-.1 2.5-.3 3.8-.4 1.4-.2 2.8-.3 4.2-.5.9-.1 1.8-.3 2.6-.4 32.2-4.3 63.3-14.2 92.1-29.2V804zM525 429.1c0 .7-.1 1.3-.1 2-.1 2.6-.2 5.1-.4 7.7v.5c-.2 2.7-.5 5.4-.8 8.1-.1.7-.1 1.4-.2 2.1-.3 2.1-.5 4.2-.8 6.3-14.1 97.7-86.3 176.8-180.3 201.1-.1 0-.3.1-.4.1-3.2.8-6.4 1.6-9.7 2.3-.9.2-1.8.4-2.6.5-1.4.3-2.9.6-4.3.9-1.5.3-3 .5-4.6.8-1.6.3-3.1.5-4.7.7-1.8.3-3.6.5-5.4.7-1 .1-2 .2-2.9.3-2.5.3-5 .5-7.6.7-.3 0-.7.1-1.1.1-2.4.2-4.8.3-7.3.4-.7 0-1.5.1-2.2.1-2.7.1-5.5.2-8.2.2-2.7 0-5.3-.1-8-.1-.7 0-1.4-.1-2.2-.1-2.2-.1-4.4-.2-6.6-.4-.5 0-1-.1-1.4-.1-2.6-.2-5.2-.4-7.7-.7-.7-.1-1.4-.2-2.1-.2-2-.2-4-.5-5.9-.8-.8-.1-1.5-.2-2.3-.3-2.4-.4-4.8-.8-7.3-1.2-.9-.2-1.7-.3-2.6-.5-1.6-.3-3.2-.6-4.8-1-1.1-.2-2.2-.5-3.3-.7-1.5-.3-2.9-.7-4.4-1-2-.5-4.1-1-6.1-1.6-.9-.3-1.8-.5-2.7-.8-1.6-.5-3.1-.9-4.7-1.4-.4-.1-.8-.3-1.2-.4-98.5-31.2-170.3-123.6-170.3-232.5s71.8-201.2 170.5-232.4c.4-.1.8-.3 1.2-.4 1.6-.5 3.1-1 4.7-1.4.9-.3 1.8-.5 2.7-.7 2-.6 4-1.1 6.1-1.6 1.5-.4 2.9-.7 4.4-1.1 1.1-.3 2.2-.5 3.3-.7 1.6-.3 3.2-.7 4.8-1 .9-.2 1.7-.3 2.6-.5 2.4-.5 4.8-.9 7.2-1.2.8-.1 1.5-.2 2.3-.3 2-.3 3.9-.5 5.9-.7l2.1-.3c2.6-.3 5.1-.5 7.7-.7.5 0 1-.1 1.4-.1 2.2-.1 4.4-.3 6.6-.3.7 0 1.4-.1 2.2-.1 2.6-.1 5.3-.1 8-.1s5.5.1 8.2.1c.7 0 1.5.1 2.2.1 2.4.1 4.8.2 7.3.4.4 0 .7.1 1.1.1 2.6.2 5.1.4 7.6.7 1 .1 2 .2 2.9.3 1.8.2 3.6.5 5.4.7 1.6.2 3.1.5 4.7.7 1.5.3 3.1.5 4.6.8 1.4.3 2.9.5 4.3.8.9.2 1.8.4 2.6.5 3.3.7 6.5 1.4 9.7 2.3.1 0 .3.1.4.1 94 24.3 166.2 103.4 180.3 201.1.3 2.1.6 4.2.8 6.3.1.7.2 1.4.2 2.2.3 2.7.6 5.4.8 8.1v.5c.2 2.6.3 5.1.4 7.7 0 .7.1 1.3.1 2 .1 2.7.1 5.5.1 8.2 0 2.7-.1 5.4-.2 8.1zM515.3 264c-7.6-11.3-16-22-25.1-32.1l15.4-15.4 28.6 28.6zm72.8 177.2h-25.8c0-.3 0-.7.1-1 .2-2.6.3-5.2.4-7.8 0-.8.1-1.5.1-2.3.1-3 .2-6.1.2-9.1 0-3.1-.1-6.1-.2-9.1 0-.8-.1-1.5-.1-2.3-.1-2.6-.2-5.2-.4-7.8 0-.3 0-.7-.1-1H588v40.4z"/><path d="M281.5 211.9c-115.3 0-209 93.7-209 209s93.8 209 209 209 209-93.8 209-209-93.8-209-209-209zm0 380.2c-94.4 0-171.2-76.8-171.2-171.1s76.8-171.1 171.2-171.1c94.4 0 171.1 76.8 171.1 171.1s-76.7 171.1-171.1 171.1z"/><path d="M373.9 405.3h-73.4v-92.5c0-10.5-8.5-18.9-18.9-18.9-10.5 0-18.9 8.5-18.9 18.9v111.4c0 10.5 8.5 18.9 18.9 18.9H374c10.5 0 19-8.5 19-18.9 0-10.4-8.7-18.9-19.1-18.9zM387.8 739.2c-.3-1.2-.6-2.4-1.1-3.6-.5-1.1-1.1-2.2-1.8-3.3-.7-1-1.5-2-2.3-2.9-.9-.9-1.8-1.6-2.9-2.3-1-.7-2.1-1.3-3.3-1.8-1.1-.5-2.3-.9-3.5-1.1-2.4-.5-5-.5-7.4 0-1.2.3-2.4.6-3.5 1.1-1.2.5-2.2 1-3.3 1.8-1 .7-2 1.5-2.9 2.3-.9.9-1.7 1.8-2.4 2.9-.7 1-1.2 2.1-1.7 3.3-.5 1.2-.9 2.4-1.1 3.6-.3 1.2-.4 2.4-.4 3.7 0 1.2.1 2.5.4 3.7.2 1.2.6 2.4 1.1 3.5.5 1.2 1 2.2 1.7 3.3.7 1 1.5 2 2.4 2.9.9.9 1.8 1.7 2.9 2.4 1 .7 2.1 1.3 3.3 1.7 1.1.5 2.3.9 3.5 1.1 1.2.3 2.5.4 3.7.4 1.2 0 2.5-.1 3.7-.4 1.2-.2 2.4-.6 3.5-1.1 1.2-.5 2.3-1 3.3-1.7s2-1.5 2.9-2.4c.9-.9 1.6-1.8 2.3-2.9.7-1 1.3-2.1 1.8-3.3.5-1.1.9-2.3 1.1-3.5.3-1.2.4-2.5.4-3.7 0-1.3-.2-2.5-.4-3.7zM217.4 85.9c-.2-1.2-.6-2.4-1.1-3.5-.5-1.2-1-2.2-1.8-3.3-.7-1-1.5-2-2.4-2.9-4.4-4.4-10.9-6.4-17.1-5.2-1.2.2-2.4.6-3.5 1.1-1.2.5-2.3 1-3.3 1.7s-2 1.5-2.9 2.4c-.9.9-1.7 1.8-2.4 2.9-.7 1-1.3 2.1-1.8 3.3-.5 1.1-.9 2.3-1.1 3.5-.2 1.2-.4 2.5-.4 3.7 0 1.2.1 2.5.4 3.7.2 1.2.6 2.4 1.1 3.5.5 1.1 1.1 2.2 1.8 3.3.7 1 1.5 2 2.4 2.9.9.9 1.8 1.7 2.9 2.4 1 .7 2.1 1.2 3.3 1.7 1.1.5 2.3.9 3.5 1.1 1.2.3 2.5.4 3.7.4 1.2 0 2.5-.1 3.7-.4 1.2-.2 2.4-.6 3.5-1.1 1.2-.5 2.3-1 3.3-1.7s2-1.5 2.9-2.4c.9-.9 1.7-1.8 2.4-2.9.7-1 1.3-2.1 1.8-3.3.5-1.1.9-2.3 1.1-3.5.2-1.2.4-2.5.4-3.7-.1-1.3-.2-2.5-.4-3.7z"/></g></svg>