<?xml version="1.0" encoding="utf-8"?>
<!-- Generator: Adobe Illustrator 17.1.0, SVG Export Plug-In . SVG Version: 6.00 Build 0)  -->
<!DOCTYPE svg PUBLIC "-//W3C//DTD SVG 1.1//EN" "http://www.w3.org/Graphics/SVG/1.1/DTD/svg11.dtd">
<svg version="1.1" id="Capa_1" xmlns="http://www.w3.org/2000/svg" xmlns:xlink="http://www.w3.org/1999/xlink" x="0px" y="0px"
	 viewBox="0 0 512 512" enable-background="new 0 0 512 512" xml:space="preserve">
<path fill="#FFFFFF" d="M29.7,97.3h452.6c16.4,0,29.7-12.7,29.7-28.4c0-15.7-13.3-28.4-29.7-28.4H29.7C13.3,40.4,0,53.2,0,68.9
	C0,84.6,13.3,97.3,29.7,97.3z"/>
<path fill="#FFFFFF" d="M482.3,191.5H29.7C13.3,191.5,0,204.3,0,219.9c0,15.7,13.3,28.4,29.7,28.4h452.6c16.4,0,29.7-12.7,29.7-28.4
	C512,204.3,498.7,191.5,482.3,191.5z"/>
<path fill="#FFFFFF" d="M482.3,340.7H29.7C13.3,340.7,0,353.5,0,369.1c0,15.7,13.3,28.4,29.7,28.4h452.6c16.4,0,29.7-12.7,29.7-28.4
	C512,353.5,498.7,340.7,482.3,340.7z"/>
</svg>
