<?xml version="1.0" encoding="utf-8"?>
<!-- Generator: Adobe Illustrator 17.1.0, SVG Export Plug-In . SVG Version: 6.00 Build 0)  -->
<!DOCTYPE svg PUBLIC "-//W3C//DTD SVG 1.1//EN" "http://www.w3.org/Graphics/SVG/1.1/DTD/svg11.dtd">
<svg version="1.1" id="Слой_1" xmlns="http://www.w3.org/2000/svg" xmlns:xlink="http://www.w3.org/1999/xlink" x="0px" y="0px"
	 viewBox="0 0 595.3 841.9" enable-background="new 0 0 595.3 841.9" xml:space="preserve">
<g>
	<path fill-rule="evenodd" clip-rule="evenodd" fill="#FFFFFF" d="M591.7,363.9h-50c-4.8-22.7-12.3-44.5-22.3-64.9l39.5-39.5
		c7.4-7.4,7.4-19.4,0-26.8l-55.4-55.4c-3.5-3.5-8.4-5.6-13.4-5.6c-5,0-9.8,2-13.4,5.6l-29.3,29.3c-4.3-3.7-8.8-7.2-13.3-10.6V19.9
		c0-10.5-8.5-18.9-18.9-18.9h-293c-10.5,0-18.9,8.5-18.9,18.9v172.5C31.5,243.5-15.3,327.4-15.3,421.9s46.9,178.4,118.7,229.5V824
		c0,10.5,8.5,18.9,18.9,18.9h292.9c10.5,0,18.9-8.5,18.9-18.9V647.8c54.1-40.3,93.2-99.5,107.6-167.8h50c10.4,0,18.9-8.5,18.9-18.9
		v-78.3C610.7,372.3,602.2,363.9,591.7,363.9L591.7,363.9z M141.2,38.9h255.1v32.7H240.3c-10.5,0-18.9,8.5-18.9,18.9
		c0,10.5,8.5,18.9,18.9,18.9h155.9v62.7c-28.8-15.1-59.9-24.9-92.1-29.2c-0.9-0.1-1.7-0.3-2.6-0.3c-1.4-0.2-2.8-0.3-4.2-0.5
		c-1.2-0.1-2.5-0.3-3.8-0.4c-1.2-0.1-2.5-0.2-3.8-0.3c-1.4-0.1-2.9-0.2-4.4-0.3c-1.1-0.1-2.3-0.1-3.4-0.2c-1.7-0.1-3.4-0.2-5.1-0.3
		c-0.9,0-1.8-0.1-2.7-0.1c-2.6-0.1-5.3-0.1-7.9-0.1l0,0c-2.6,0-5.2,0-7.8,0.1c-0.8,0-1.6,0.1-2.4,0.1c-1.8,0.1-3.5,0.1-5.3,0.2
		c-1,0.1-1.9,0.1-2.9,0.2c-1.6,0.1-3.2,0.2-4.8,0.3c-1,0.1-2.1,0.2-3.1,0.3c-1.5,0.1-3,0.3-4.5,0.5c-1.1,0.1-2.2,0.3-3.2,0.4
		c-1.4,0.2-2.9,0.4-4.3,0.6c-1.1,0.2-2.2,0.3-3.3,0.5c-1.4,0.2-2.7,0.4-4.1,0.7c-1.2,0.2-2.4,0.4-3.5,0.6c-1.1,0.2-2.3,0.4-3.4,0.6
		c-5.6,1.1-11.1,2.3-16.6,3.7c-0.3,0.1-0.7,0.1-1,0.2c-2,0.5-4,1.1-6,1.6c-0.3,0.1-0.5,0.1-0.8,0.2c-2.2,0.6-4.3,1.2-6.4,1.9h0
		c-14.2,4.4-28,9.9-41.4,16.6V38.9L141.2,38.9z M396.2,805H141.2v-42.2h155.9c10.5,0,18.9-8.5,18.9-18.9s-8.5-18.9-18.9-18.9H141.2
		v-50.7c13.4,6.6,27.2,12.2,41.4,16.6c0,0,0,0,0,0c2.1,0.7,4.2,1.3,6.3,1.9c0.3,0.1,0.5,0.1,0.8,0.2c2,0.6,4,1.1,6,1.6
		c0.3,0.1,0.7,0.2,1,0.3c5.5,1.4,11.1,2.6,16.7,3.7c1.1,0.2,2.3,0.4,3.4,0.7c1.2,0.2,2.4,0.4,3.5,0.6c1.4,0.2,2.7,0.5,4.1,0.7
		c1.1,0.2,2.2,0.3,3.3,0.5c1.5,0.2,2.9,0.4,4.4,0.6c1.1,0.1,2.1,0.3,3.2,0.4c1.5,0.2,3,0.3,4.6,0.5c1,0.1,2.1,0.2,3.1,0.3
		c1.6,0.1,3.2,0.2,4.8,0.3c1,0.1,1.9,0.1,2.9,0.2c1.8,0.1,3.5,0.1,5.3,0.2c0.8,0,1.6,0.1,2.5,0.1c2.6,0.1,5.2,0.1,7.7,0.1
		c0,0,0,0,0,0c2.6,0,5.3-0.1,7.9-0.1c0.9,0,1.8-0.1,2.7-0.1c1.7-0.1,3.4-0.1,5.1-0.2c1.1-0.1,2.3-0.1,3.4-0.2
		c1.5-0.1,2.9-0.2,4.4-0.3c1.2-0.1,2.5-0.2,3.7-0.3c1.3-0.1,2.5-0.3,3.8-0.4c1.4-0.2,2.8-0.3,4.2-0.5c0.9-0.1,1.8-0.3,2.6-0.4
		c32.2-4.3,63.3-14.2,92.1-29.2V805L396.2,805z M509.7,430.1c0,0.7-0.1,1.3-0.1,2c-0.1,2.6-0.2,5.1-0.4,7.7c0,0.2,0,0.3,0,0.5
		c-0.2,2.7-0.5,5.4-0.8,8.1c-0.1,0.7-0.1,1.4-0.2,2.1c-0.3,2.1-0.5,4.2-0.8,6.3c-14.1,97.7-86.3,176.8-180.3,201.1
		c-0.1,0-0.3,0.1-0.4,0.1c-3.2,0.8-6.4,1.6-9.7,2.3c-0.9,0.2-1.8,0.4-2.6,0.5c-1.4,0.3-2.9,0.6-4.3,0.9c-1.5,0.3-3,0.5-4.6,0.8
		c-1.6,0.3-3.1,0.5-4.7,0.7c-1.8,0.3-3.6,0.5-5.4,0.7c-1,0.1-2,0.2-2.9,0.3c-2.5,0.3-5,0.5-7.6,0.7c-0.3,0-0.7,0.1-1.1,0.1
		c-2.4,0.2-4.8,0.3-7.3,0.4c-0.7,0-1.5,0.1-2.2,0.1c-2.7,0.1-5.5,0.2-8.2,0.2l0,0c-2.7,0-5.3-0.1-8-0.1c-0.7,0-1.4-0.1-2.2-0.1
		c-2.2-0.1-4.4-0.2-6.6-0.4c-0.5,0-1-0.1-1.4-0.1c-2.6-0.2-5.2-0.4-7.7-0.7c-0.7-0.1-1.4-0.2-2.1-0.2c-2-0.2-4-0.5-5.9-0.8
		c-0.8-0.1-1.5-0.2-2.3-0.3c-2.4-0.4-4.8-0.8-7.3-1.2c-0.9-0.2-1.7-0.3-2.6-0.5c-1.6-0.3-3.2-0.6-4.8-1c-1.1-0.2-2.2-0.5-3.3-0.7
		c-1.5-0.3-2.9-0.7-4.4-1c-2-0.5-4.1-1-6.1-1.6c-0.9-0.3-1.8-0.5-2.7-0.8c-1.6-0.5-3.1-0.9-4.7-1.4c-0.4-0.1-0.8-0.3-1.2-0.4
		C94.3,623.2,22.5,530.8,22.5,421.9S94.3,220.7,193,189.5c0.4-0.1,0.8-0.3,1.2-0.4c1.6-0.5,3.1-1,4.7-1.4c0.9-0.3,1.8-0.5,2.7-0.7
		c2-0.6,4-1.1,6.1-1.6c1.5-0.4,2.9-0.7,4.4-1.1c1.1-0.3,2.2-0.5,3.3-0.7c1.6-0.3,3.2-0.7,4.8-1c0.9-0.2,1.7-0.3,2.6-0.5
		c2.4-0.5,4.8-0.9,7.2-1.2c0.8-0.1,1.5-0.2,2.3-0.3c2-0.3,3.9-0.5,5.9-0.7c0.7-0.1,1.4-0.2,2.1-0.3c2.6-0.3,5.1-0.5,7.7-0.7
		c0.5,0,1-0.1,1.4-0.1c2.2-0.1,4.4-0.3,6.6-0.3c0.7,0,1.4-0.1,2.2-0.1c2.6-0.1,5.3-0.1,8-0.1l0,0c2.7,0,5.5,0.1,8.2,0.1
		c0.7,0,1.5,0.1,2.2,0.1c2.4,0.1,4.8,0.2,7.3,0.4c0.4,0,0.7,0.1,1.1,0.1c2.6,0.2,5.1,0.4,7.6,0.7c1,0.1,2,0.2,2.9,0.3
		c1.8,0.2,3.6,0.5,5.4,0.7c1.6,0.2,3.1,0.5,4.7,0.7c1.5,0.3,3.1,0.5,4.6,0.8c1.4,0.3,2.9,0.5,4.3,0.8c0.9,0.2,1.8,0.4,2.6,0.5
		c3.3,0.7,6.5,1.4,9.7,2.3c0.1,0,0.3,0.1,0.4,0.1c94,24.3,166.2,103.4,180.3,201.1c0.3,2.1,0.6,4.2,0.8,6.3c0.1,0.7,0.2,1.4,0.2,2.2
		c0.3,2.7,0.6,5.4,0.8,8.1c0,0.2,0,0.3,0,0.5c0.2,2.6,0.3,5.1,0.4,7.7c0,0.7,0.1,1.3,0.1,2c0.1,2.7,0.1,5.5,0.1,8.2
		S509.8,427.4,509.7,430.1L509.7,430.1z M500,265c-7.6-11.3-16-22-25.1-32.1l15.4-15.4l28.6,28.6L500,265z M572.8,442.2H547
		c0-0.3,0-0.7,0.1-1c0.2-2.6,0.3-5.2,0.4-7.8c0-0.8,0.1-1.5,0.1-2.3c0.1-3,0.2-6.1,0.2-9.1c0-3.1-0.1-6.1-0.2-9.1
		c0-0.8-0.1-1.5-0.1-2.3c-0.1-2.6-0.2-5.2-0.4-7.8c0-0.3,0-0.7-0.1-1h25.7V442.2z"/>
	<path fill-rule="evenodd" clip-rule="evenodd" fill="#FFFFFF" d="M266.2,212.9c-115.3,0-209,93.7-209,209s93.8,209,209,209
		c115.2,0,209-93.8,209-209S381.4,212.9,266.2,212.9L266.2,212.9z M266.2,593.1c-94.4,0-171.2-76.8-171.2-171.1
		s76.8-171.1,171.2-171.1s171.1,76.8,171.1,171.1S360.6,593.1,266.2,593.1L266.2,593.1z"/>
	<path fill-rule="evenodd" clip-rule="evenodd" fill="#FFFFFF" d="M358.6,406.3h-73.4v-92.5c0-10.5-8.5-18.9-18.9-18.9
		c-10.5,0-18.9,8.5-18.9,18.9v111.4c0,10.5,8.5,18.9,18.9,18.9h92.4c10.5,0,19-8.5,19-18.9S369,406.3,358.6,406.3L358.6,406.3z"/>
	<path fill-rule="evenodd" clip-rule="evenodd" fill="#FFFFFF" d="M372.5,740.2c-0.3-1.2-0.6-2.4-1.1-3.6c-0.5-1.1-1.1-2.2-1.8-3.3
		c-0.7-1-1.5-2-2.3-2.9c-0.9-0.9-1.8-1.6-2.9-2.3c-1-0.7-2.1-1.3-3.3-1.8c-1.1-0.5-2.3-0.9-3.5-1.1c-2.4-0.5-5-0.5-7.4,0
		c-1.2,0.3-2.4,0.6-3.5,1.1c-1.2,0.5-2.2,1-3.3,1.8c-1,0.7-2,1.5-2.9,2.3c-0.9,0.9-1.7,1.8-2.4,2.9c-0.7,1-1.2,2.1-1.7,3.3
		c-0.5,1.2-0.9,2.4-1.1,3.6c-0.3,1.2-0.4,2.4-0.4,3.7c0,1.2,0.1,2.5,0.4,3.7c0.2,1.2,0.6,2.4,1.1,3.5c0.5,1.2,1,2.2,1.7,3.3
		c0.7,1,1.5,2,2.4,2.9c0.9,0.9,1.8,1.7,2.9,2.4c1,0.7,2.1,1.3,3.3,1.7c1.1,0.5,2.3,0.9,3.5,1.1c1.2,0.3,2.5,0.4,3.7,0.4
		c1.2,0,2.5-0.1,3.7-0.4c1.2-0.2,2.4-0.6,3.5-1.1c1.2-0.5,2.3-1,3.3-1.7c1-0.7,2-1.5,2.9-2.4c0.9-0.9,1.6-1.8,2.3-2.9
		c0.7-1,1.3-2.1,1.8-3.3c0.5-1.1,0.9-2.3,1.1-3.5c0.3-1.2,0.4-2.5,0.4-3.7C372.9,742.6,372.7,741.4,372.5,740.2L372.5,740.2z"/>
	<path fill-rule="evenodd" clip-rule="evenodd" fill="#FFFFFF" d="M202.1,86.9c-0.2-1.2-0.6-2.4-1.1-3.5c-0.5-1.2-1-2.2-1.8-3.3
		c-0.7-1-1.5-2-2.4-2.9c-4.4-4.4-10.9-6.4-17.1-5.2c-1.2,0.2-2.4,0.6-3.5,1.1c-1.2,0.5-2.3,1-3.3,1.7c-1,0.7-2,1.5-2.9,2.4
		c-0.9,0.9-1.7,1.8-2.4,2.9c-0.7,1-1.3,2.1-1.8,3.3c-0.5,1.1-0.9,2.3-1.1,3.5c-0.2,1.2-0.4,2.5-0.4,3.7c0,1.2,0.1,2.5,0.4,3.7
		c0.2,1.2,0.6,2.4,1.1,3.5c0.5,1.1,1.1,2.2,1.8,3.3c0.7,1,1.5,2,2.4,2.9c0.9,0.9,1.8,1.7,2.9,2.4c1,0.7,2.1,1.2,3.3,1.7
		c1.1,0.5,2.3,0.9,3.5,1.1c1.2,0.3,2.5,0.4,3.7,0.4c1.2,0,2.5-0.1,3.7-0.4c1.2-0.2,2.4-0.6,3.5-1.1c1.2-0.5,2.3-1,3.3-1.7
		c1-0.7,2-1.5,2.9-2.4c0.9-0.9,1.7-1.8,2.4-2.9c0.7-1,1.3-2.1,1.8-3.3c0.5-1.1,0.9-2.3,1.1-3.5c0.2-1.2,0.4-2.5,0.4-3.7
		C202.4,89.3,202.3,88.1,202.1,86.9L202.1,86.9z"/>
</g>
</svg>
