<?xml version="1.0" encoding="utf-8"?>
<!-- Generator: Adobe Illustrator 17.1.0, SVG Export Plug-In . SVG Version: 6.00 Build 0)  -->
<!DOCTYPE svg PUBLIC "-//W3C//DTD SVG 1.1//EN" "http://www.w3.org/Graphics/SVG/1.1/DTD/svg11.dtd">
<svg version="1.1" id="Слой_1" xmlns="http://www.w3.org/2000/svg" xmlns:xlink="http://www.w3.org/1999/xlink" x="0px" y="0px"
	 viewBox="0 0 595.3 841.9" enable-background="new 0 0 595.3 841.9" xml:space="preserve">
<g>
	<path fill-rule="evenodd" clip-rule="evenodd" fill="#FFFFFF" d="M797.1,869.1C809.7,881,826,887,842.2,887
		c16.9,0,33.8-6.4,46.7-19.3l28.5-28.5c0,0,0,0,0,0l120.9-120.9c8.3-8.3,8.3-21.8,0-30.1L857.5,507.2c-8.3-8.3-21.8-8.3-30.2,0
		L706.5,628.1l-28.6,28.5c-25.2,25.3-25.7,66-1.4,91.8l-45.4,45.4l-30.2,30.2l-30.4-30.4l0,0l-24.9-24.9
		c-13.5-13.5-31.4-20.9-50.5-20.9c-1.3,0-2.6,0-3.9,0.1c1.6-32.8-12.1-68.7-40-96.6c-42.9-42.9-165.3-59.1-179.1-60.8
		c-6.5-0.8-13,1.4-17.7,6.1c-4.6,4.6-6.9,11.2-6.1,17.7c1.7,13.8,18,136.3,60.8,179.1c26.4,26.4,60.1,40.1,91.5,40.1
		c1.2,0,2.4,0,3.7-0.1c-1.5,20,5.4,40.6,20.7,55.9l55.2,55.2l-271.4,271.4c-4,4-6.2,9.4-6.2,15.1s2.2,11.1,6.2,15.1l90.5,90.4
		c4.1,4.2,9.6,6.2,15.1,6.2c5.5,0,10.9-2.1,15.1-6.2l0,0l60.6-60.6l60.2-60.2c8.3-8.3,8.3-21.8,0-30.1c-8.3-8.3-21.8-8.3-30.2,0
		l-45.1,45.1l-60.3-60.3l195.7-195.7l60.3,60.3l-60.2,60.1c-8.3,8.3-8.3,21.8,0,30.2c8.3,8.3,21.8,8.3,30.2,0l60.1-60.2L811.6,1276
		c0,0,0,0,0,0l60.6,60.6c0.5,0.5,1.1,1,1.6,1.4c3.9,3.2,8.7,4.8,13.5,4.8c5.4,0,10.9-2.1,15.1-6.2l90.4-90.4c4-4,6.2-9.4,6.2-15.1
		s-2.2-11.1-6.2-15.1l0,0L721.5,944.7l30.2-30.2L797.1,869.1z M344.9,1261l-30.5,30.5l-60.3-60.3l30.4-30.5L344.9,1261z
		 M842.4,552.4l150.7,150.7l-90.7,90.7L751.7,643.2L842.4,552.4z M708.1,686.8l13.5-13.5l150.7,150.7l-13.5,13.5
		c-9.1,9.1-23.9,9.1-33,0l-13.6-13.7l-90.4-90.4l-13.6-13.6C699,710.7,699,695.9,708.1,686.8L708.1,686.8z M646.2,839.1l60.3,60.3
		l-15.2,15.2L631,854.3L646.2,839.1z M339.4,763.4c-20.1-20.1-36.1-79.7-44.4-126.1c46.5,8.2,106,24.2,126.1,44.4
		c30.6,30.5,37,73.7,14.5,96.3C413.1,800.5,369.9,794,339.4,763.4L339.4,763.4z M465,869.1l-9.8-9.8c-3.5-3.5-5.9-7.7-7.2-12.2
		c-0.8-2.7-1.2-5.4-1.2-8.2c0-7.4,2.8-14.7,8.4-20.4l19.6-19.6c5.4-5.4,12.7-8.4,20.4-8.4s14.9,3,20.4,8.4l9.8,9.8L465,869.1z
		 M947.6,1231.1l-60.3,60.3l-30.4-30.5l60.3-60.3L947.6,1231.1z M887,1170.5l-60.3,60.3L616,1020.1l0,0l-90.4-90.5h0l-30.4-30.4
		l60.3-60.3l30.4,30.4l0,0l90.5,90.4l0,0L887,1170.5z M676.3,809l30.3-30.3l60.3,60.3l-30.3,30.3L676.3,809z"/>
	<path fill-rule="evenodd" clip-rule="evenodd" fill="#FFFFFF" d="M501.4,1151.4c-0.3-1.4-0.7-2.7-1.2-4c-0.5-1.3-1.2-2.5-2-3.7
		c-0.8-1.2-1.7-2.3-2.6-3.3c-1-1-2.1-1.9-3.3-2.6c-1.1-0.8-2.4-1.4-3.7-2c-1.3-0.5-2.6-0.9-4-1.2c-6.9-1.4-14.3,0.9-19.2,5.8
		c-4,4-6.2,9.5-6.2,15.1c0,1.4,0.1,2.8,0.4,4.2c0.3,1.4,0.7,2.7,1.2,4c0.5,1.3,1.2,2.5,2,3.7c0.8,1.2,1.7,2.2,2.6,3.2
		c4,4,9.5,6.3,15.1,6.3c1.4,0,2.8-0.2,4.2-0.4c1.4-0.3,2.7-0.7,4-1.2c1.3-0.5,2.5-1.2,3.7-2c1.2-0.8,2.3-1.6,3.3-2.6
		c1-1,1.9-2.1,2.6-3.2c0.8-1.2,1.4-2.4,2-3.7c0.5-1.3,1-2.6,1.2-4c0.3-1.4,0.4-2.7,0.4-4.2C501.8,1154.2,501.6,1152.8,501.4,1151.4
		L501.4,1151.4z"/>
</g>
</svg>
