<?xml version="1.0" encoding="utf-8"?>
<!-- Generator: Adobe Illustrator 17.1.0, SVG Export Plug-In . SVG Version: 6.00 Build 0)  -->
<!DOCTYPE svg PUBLIC "-//W3C//DTD SVG 1.1//EN" "http://www.w3.org/Graphics/SVG/1.1/DTD/svg11.dtd">
<svg version="1.1" id="Слой_1" xmlns="http://www.w3.org/2000/svg" xmlns:xlink="http://www.w3.org/1999/xlink" x="0px" y="0px"
	 viewBox="0 0 595.3 841.9" enable-background="new 0 0 595.3 841.9" xml:space="preserve">
<g>
	<path fill="#1D9F49" d="M325.6,526.7l-5-4.3c0.2-0.3,0.4-0.6,0.6-0.9c0.6-0.9,1.2-1.9,1.1-3.2l0-0.3c-0.4-1.3-9.8-6.5-11-6.5
		l-0.2,0l-0.4,0.1c-1.1,0.6-2,2-2.5,3.3c-1-0.3-2.2-0.7-3.3-1.2c-1.4-0.5-2.8-1.1-4.3-1.5c-3.6-0.9-6.8-1.4-9.8-1.7
		c-1.4-0.1-2.9-0.2-4.3-0.2c-5.6,0-11,0.8-16.4,2.5c-6.7,2.1-11.4,4.9-15.5,7.6c-1.1,0.7-2.2,1.5-3.3,2.4c-1.1,0.9-6.9,5.7-8.7,9.1
		l-0.8,1.5l1.7,0c2.7-0.1,5.7-0.1,9.3-0.1c2.4,0,4.8,0,7.1,0l4,0c1.8,0,2.3-0.2,3.1-1c0.2-0.2,0.4-0.4,0.7-0.6
		c0.5-0.4,0.9-0.7,1.3-1c2.6-2,3.7-2.9,7.9-4.7c4.4-1.8,9-2.7,13.7-2.7c6.1,0,12.5,1.6,18.4,4.5c13.7,6.9,21.9,19.5,23.1,35.7
		c1.1,13.9-2.5,25.7-10.4,34.1c-7.8,8.4-19.6,13.2-32.5,13.2c-17.4,0-40.8-9.1-49.6-34.8l-2-5.7v6c0,1.2,0.3,2.3,0.7,3.3
		c0.2,0.6,0.4,1.2,0.5,1.8l0,0.1c0.7,2.4,1.6,4.7,2.8,7.2c8.9,18.7,25.5,29.4,45.5,29.4c14.9,0,29.4-6.1,39.7-16.7
		c10-10.2,15-23.5,14.6-38.4C340.9,549.9,335.2,536.5,325.6,526.7z"/>
	<path fill="#1D9F49" d="M307.5,504.3c0.9,1,3.9,2.5,4.6,2.6l0.5,0.1l0.4-0.4c0.3-0.3,0.4-0.4,0.5-0.6c1.6,0.8,3.8,2.2,6,3.5
		c2.4,1.5,4.8,3,6.7,3.9l-0.6,1.6l0.5,0.4c1,0.9,3.4,2.4,5.1,2.7l0.7,0.1l5.7-9.9l-0.4-0.5c-0.4-0.6-0.8-0.9-1-1.1
		c-0.3-0.2-0.4-0.3-0.7-1.4c-2.5-7.5-11-11.6-17.7-11.6c-0.1,0-0.3,0-0.4,0c-1.2,0-1.9,0-2.6-0.1c-0.5-0.1-1.1-0.1-1.8-0.1l-0.5,0
		l-0.3,0.4c-0.9,1.1-4.7,7.4-5.1,9.1l-0.1,0.4l0.2,0.4C307.3,504.2,307.4,504.3,307.5,504.3z"/>
	<polygon fill="#1D9F49" points="284,559.8 284,575 318.2,568.8 297.3,564.8 307.7,534 	"/>
	<path fill="#1D9F49" d="M286.3,507.4c1.9,0,4.1,0,6,0c2.4,0,4.4,0,4.9,0l0.7,0l0.3-0.7c1.7-4.6,0.6-7.6-0.6-9.4
		c-1.7-2.4-4.8-3.9-8.3-3.9c-3.6,0-6.8,1.5-8.5,4c-1.2,1.7-2.2,4.7-0.6,9.2C280.5,507.3,280.6,507.4,286.3,507.4z"/>
	<path fill="#1D9F49" d="M349.7,534.1c-0.5-4.5-4.5-9.2-9.5-9.2c-1.9,0-4.7,0.8-7.3,4.3l-0.1,0.1c-0.4,0.7-0.4,0.7,5.2,9
		c1.5,2.1,2.8,4.2,3.1,4.6l0.4,0.7l0.7-0.2C347.5,542.1,350.3,538.7,349.7,534.1z"/>
</g>
<path fill="#333333" d="M32,563.9c0,0.4-0.1,0.6-0.2,0.7s-0.4,0.1-0.7,0.1h-3c-0.3,0-0.5-0.1-0.7-0.2s-0.2-0.3-0.2-0.7v-24.6
	c0-0.7,0.2-1.3,0.5-1.7c0.3-0.4,0.9-0.6,1.7-0.6h9.4c1.3,0,2.5,0.2,3.6,0.6c1.1,0.4,2,1,2.8,1.7c0.8,0.7,1.4,1.6,1.8,2.7
	c0.4,1,0.6,2.2,0.6,3.4c0,0.7-0.1,1.6-0.3,2.5c-0.2,1-0.7,1.9-1.3,2.9c-0.7,0.9-1.6,1.7-2.8,2.3s-2.8,1-4.8,1H32V563.9z M42.7,545.8
	c0-0.4-0.1-0.9-0.2-1.5c-0.1-0.5-0.4-1-0.7-1.4c-0.4-0.4-0.8-0.8-1.5-1.1c-0.6-0.3-1.4-0.4-2.4-0.4H32v8.7h5.9
	c1.7,0,2.9-0.4,3.6-1.2C42.3,548.1,42.7,547.1,42.7,545.8z"/>
<path fill="#333333" d="M70.7,564.5c-0.1,0.2-0.3,0.2-0.7,0.2H58.8c-1.4,0-2.5-0.2-3.4-0.6s-1.6-0.9-2.1-1.6
	c-0.5-0.7-0.9-1.4-1.1-2.2c-0.2-0.8-0.3-1.7-0.3-2.6v-13.5c0-0.9,0.1-1.8,0.4-2.7c0.2-0.9,0.7-1.6,1.2-2.3c0.6-0.7,1.3-1.2,2.2-1.6
	s2-0.6,3.2-0.6h11c0.3,0,0.6,0.1,0.6,0.2c0.1,0.1,0.1,0.4,0.1,0.7v2.5c0,0.3,0,0.6-0.1,0.7c-0.1,0.1-0.3,0.2-0.6,0.2H59.3
	c-1,0-1.7,0.2-2.1,0.7c-0.4,0.4-0.6,1.1-0.6,1.9v4.1h11.9c0.3,0,0.6,0.1,0.6,0.2c0.1,0.1,0.1,0.4,0.1,0.7v2.2c0,0.3,0,0.5-0.1,0.7
	c-0.1,0.1-0.3,0.2-0.6,0.2H56.6v5.7c0,0.8,0.2,1.5,0.6,1.9c0.4,0.4,1.1,0.6,2.1,0.6H70c0.4,0,0.6,0.1,0.7,0.2
	c0.1,0.1,0.1,0.4,0.1,0.8v2.5C70.9,564.1,70.8,564.3,70.7,564.5z"/>
<path fill="#333333" d="M90.2,550c0.7,0.2,1.2,0.5,1.7,0.8c0.4,0.3,0.8,0.7,1.1,1.1c0.3,0.4,0.5,0.9,0.7,1.3c0.2,0.5,0.3,1,0.5,1.6
	l2.4,9.1c0.1,0.1,0.1,0.3,0,0.5c0,0.2-0.2,0.3-0.6,0.3h-3.5c-0.1,0-0.3,0-0.4-0.1c-0.2-0.1-0.3-0.2-0.4-0.5l-2.4-8.6
	c-0.4-1.4-1-2.4-1.8-2.8c-0.8-0.5-1.8-0.7-3.2-0.7h-4.4l0,12c0,0.3-0.1,0.5-0.2,0.5c-0.1,0.1-0.3,0.1-0.6,0.1h-3.3
	c-0.2,0-0.4,0-0.5-0.1c-0.1-0.1-0.2-0.2-0.2-0.5v-26.3c0-0.3,0.1-0.5,0.2-0.5s0.3-0.1,0.5-0.1h3.4c0.3,0,0.4,0,0.6,0.1
	c0.1,0.1,0.1,0.2,0.1,0.5V548h4.2c0.4,0,0.8,0,1.3-0.1c0.4-0.1,0.9-0.2,1.3-0.5c0.4-0.3,0.8-0.6,1.2-1.1c0.4-0.5,0.7-1.2,0.9-2
	l1.7-6.7c0.1-0.3,0.2-0.4,0.3-0.5c0.2-0.1,0.3-0.1,0.5-0.1h3.2c0.3,0,0.5,0.1,0.6,0.3c0,0.2,0,0.4,0,0.5l-1.7,7
	c-0.3,1.1-0.7,2.1-1.2,2.9c-0.5,0.8-1.2,1.5-2.1,2V550z"/>
<path fill="#333333" d="M104.3,539.8c0.1-0.9,0.3-1.6,0.7-2c0.4-0.4,1-0.6,1.8-0.6h12.9c1.7,0,2.5,0.9,2.5,2.6v24.2
	c0,0.3-0.1,0.5-0.2,0.6c-0.1,0.1-0.3,0.1-0.6,0.1h-3.3c-0.3,0-0.5,0-0.6-0.1s-0.2-0.3-0.2-0.6v-22.7h-8.7l-0.2,3.4
	c-0.2,2.9-0.4,5.6-0.6,7.9c-0.2,2.3-0.6,4.3-1.2,6c-0.5,1.7-1.3,3.1-2.4,4.2c-1,1.1-2.5,1.9-4.3,2.5c-0.3,0.1-0.5,0-0.6,0
	c-0.2-0.1-0.3-0.2-0.4-0.5l-0.8-2.3c-0.1-0.2-0.1-0.4,0-0.6c0-0.2,0.2-0.3,0.5-0.4c1.1-0.5,2-1.1,2.6-1.8c0.6-0.7,1.1-1.7,1.4-3
	c0.3-1.2,0.6-2.8,0.8-4.6c0.2-1.8,0.4-4.1,0.6-6.9L104.3,539.8z"/>
<path fill="#333333" d="M142.8,558.7h-10l-1.7,5.4c-0.1,0.2-0.2,0.4-0.3,0.5c-0.1,0.1-0.4,0.2-0.7,0.2h-3.6c-0.3,0-0.5-0.1-0.6-0.3
	c-0.1-0.2-0.1-0.4,0-0.6l8.5-24.9c0.1-0.4,0.3-0.7,0.4-0.9s0.3-0.4,0.5-0.6c0.2-0.1,0.4-0.2,0.7-0.3c0.3-0.1,0.6-0.1,0.9-0.1h1.7
	c0.8,0,1.4,0.1,1.7,0.4c0.3,0.3,0.6,0.8,0.9,1.5l8.5,24.9c0.1,0.2,0.1,0.4,0,0.6c-0.1,0.2-0.2,0.3-0.5,0.3h-3.6
	c-0.3,0-0.5,0-0.7-0.1c-0.2-0.1-0.3-0.2-0.4-0.5L142.8,558.7z M134,554.6h7.6l-2-6.6l-1.7-5.6h-0.2l-1.6,5.5L134,554.6z"/>
<path fill="#333333" d="M175.9,545.7h-0.2l-2.1,5.4l-3.5,8.7c-0.3,0.7-0.6,1.1-0.8,1.4c-0.3,0.2-0.7,0.4-1.4,0.4H166
	c-0.7,0-1.1-0.1-1.4-0.4c-0.3-0.2-0.5-0.7-0.8-1.4l-3.5-8.3l-2.1-5.3H158v17.7c0,0.4-0.1,0.6-0.2,0.7c-0.1,0.1-0.4,0.1-0.7,0.1h-2.8
	c-0.3,0-0.5,0-0.7-0.1s-0.2-0.3-0.2-0.7v-24.4c0-0.8,0.2-1.4,0.5-1.8c0.3-0.4,0.9-0.6,1.8-0.6h1.6c0.7,0,1.2,0.1,1.5,0.4
	c0.3,0.2,0.7,0.7,0.9,1.4l4.7,11.5l2.4,6.1h0.2l2.4-6.1l4.6-11.5c0.3-0.7,0.6-1.2,1-1.4c0.4-0.2,0.9-0.4,1.6-0.4h1.5
	c0.8,0,1.4,0.2,1.8,0.6c0.3,0.4,0.5,1,0.5,1.8v24.4c0,0.4-0.1,0.6-0.2,0.7c-0.1,0.1-0.4,0.1-0.7,0.1h-2.8c-0.3,0-0.5,0-0.6-0.1
	c-0.1-0.1-0.2-0.3-0.2-0.7V545.7z"/>
<path fill="#333333" d="M208,564.6c-0.1,0.1-0.4,0.1-0.7,0.1h-3c-0.3,0-0.5-0.1-0.7-0.2c-0.1-0.1-0.2-0.3-0.2-0.7v-11.6h-12.2v11.6
	c0,0.4-0.1,0.6-0.2,0.7c-0.1,0.1-0.4,0.1-0.7,0.1h-3c-0.3,0-0.5-0.1-0.7-0.2s-0.2-0.3-0.2-0.7V538c0-0.3,0.1-0.6,0.2-0.7
	c0.2-0.1,0.4-0.2,0.7-0.2h3c0.4,0,0.6,0,0.7,0.1c0.1,0.1,0.2,0.3,0.2,0.7v10.2h12.2V538c0-0.3,0.1-0.6,0.2-0.7
	c0.1-0.1,0.4-0.2,0.7-0.2h3c0.4,0,0.6,0,0.7,0.1c0.1,0.1,0.2,0.3,0.2,0.7v25.9C208.2,564.3,208.2,564.5,208,564.6z"/>
<path fill="#333333" d="M237.3,550.8c0,4.6-1,8.1-3,10.6c-2,2.5-5,3.7-9.1,3.7c-4,0-6.9-1.2-8.9-3.6c-2-2.4-3-5.9-3-10.6
	c0-2.3,0.3-4.3,0.9-6c0.6-1.8,1.4-3.2,2.5-4.5c1.1-1.2,2.3-2.2,3.8-2.8c1.5-0.6,3.1-1,4.8-1c2,0,3.7,0.3,5.2,1
	c1.5,0.6,2.8,1.6,3.8,2.8c1,1.2,1.8,2.7,2.3,4.4S237.3,548.6,237.3,550.8z M232.3,551c0-1.3-0.1-2.6-0.3-3.8
	c-0.2-1.2-0.6-2.3-1.1-3.2c-0.5-0.9-1.2-1.6-2.1-2.2c-0.9-0.5-2.1-0.8-3.5-0.8c-1.2,0-2.3,0.3-3.1,0.8c-0.9,0.5-1.6,1.2-2.2,2.1
	c-0.6,0.9-1,1.9-1.3,3.1c-0.3,1.2-0.4,2.4-0.4,3.8c0,1.5,0.1,2.9,0.3,4.1c0.2,1.2,0.6,2.3,1.2,3.2c0.6,0.9,1.3,1.6,2.2,2
	c0.9,0.5,2,0.7,3.4,0.7c1.3,0,2.5-0.3,3.4-0.8c0.9-0.6,1.6-1.3,2.2-2.2c0.6-0.9,0.9-1.9,1.2-3.1C232.2,553.5,232.3,552.3,232.3,551z
	"/>
<path fill="#333333" d="M261.3,564.5c-0.1,0.2-0.3,0.2-0.7,0.2h-11.2c-1.4,0-2.5-0.2-3.4-0.6s-1.6-0.9-2.1-1.6
	c-0.5-0.7-0.9-1.4-1.1-2.2c-0.2-0.8-0.3-1.7-0.3-2.6v-13.5c0-0.9,0.1-1.8,0.4-2.7c0.2-0.9,0.7-1.6,1.2-2.3c0.6-0.7,1.3-1.2,2.2-1.6
	s2-0.6,3.2-0.6h11c0.3,0,0.6,0.1,0.6,0.2c0.1,0.1,0.1,0.4,0.1,0.7v2.5c0,0.3,0,0.6-0.1,0.7c-0.1,0.1-0.3,0.2-0.6,0.2h-10.5
	c-1,0-1.7,0.2-2.1,0.7c-0.4,0.4-0.6,1.1-0.6,1.9v4.1h11.9c0.3,0,0.6,0.1,0.6,0.2c0.1,0.1,0.1,0.4,0.1,0.7v2.2c0,0.3,0,0.5-0.1,0.7
	c-0.1,0.1-0.3,0.2-0.6,0.2h-11.9v5.7c0,0.8,0.2,1.5,0.6,1.9c0.4,0.4,1.1,0.6,2.1,0.6h10.7c0.4,0,0.6,0.1,0.7,0.2
	c0.1,0.1,0.1,0.4,0.1,0.8v2.5C261.5,564.1,261.4,564.3,261.3,564.5z"/>
<path fill="#333333" d="M123.6,583c0.7,0.3,1.4,0.7,1.9,1.2c0.6,0.5,1,1,1.3,1.6c0.3,0.6,0.6,1.2,0.8,1.9c0.2,0.7,0.3,1.4,0.3,2.1
	c0,1.2-0.2,2.4-0.7,3.4c-0.5,1-1.1,1.9-2,2.6c-0.8,0.7-1.8,1.3-2.9,1.7s-2.3,0.6-3.6,0.6h-9.6c-0.8,0-1.4-0.2-1.7-0.5
	c-0.3-0.4-0.5-0.9-0.5-1.7v-23.1c0-0.8,0.2-1.3,0.5-1.7c0.3-0.4,0.9-0.6,1.7-0.6l9.1,0c1.2,0,2.3,0.1,3.4,0.4c1,0.3,1.9,0.7,2.7,1.2
	c0.7,0.6,1.3,1.3,1.8,2.1c0.4,0.9,0.6,1.9,0.6,3.1c0,1.2-0.3,2.3-0.9,3.2s-1.3,1.7-2.2,2.2V583z M111.7,581.3h6.4
	c0.4,0,0.8,0,1.2-0.1c0.4-0.1,0.8-0.3,1.2-0.5c0.4-0.2,0.7-0.6,0.9-1c0.2-0.4,0.4-1,0.4-1.7c0-0.9-0.3-1.7-0.9-2.2
	c-0.6-0.6-1.5-0.8-2.5-0.8h-6.6V581.3z M123,589.5c0-1.3-0.4-2.3-1.2-3.1c-0.8-0.8-2-1.2-3.5-1.2h-6.5v8.6h6.5
	c0.9,0,1.7-0.1,2.3-0.4c0.6-0.3,1.1-0.6,1.5-1c0.4-0.4,0.6-0.9,0.8-1.4C122.9,590.5,123,590,123,589.5z"/>
<path fill="#333333" d="M137.8,597.3c0,0.4-0.1,0.6-0.2,0.7s-0.4,0.1-0.7,0.1h-3c-0.3,0-0.5-0.1-0.7-0.2s-0.2-0.3-0.2-0.7v-24.6
	c0-0.7,0.2-1.3,0.5-1.7c0.3-0.4,0.9-0.6,1.7-0.6h9.4c1.3,0,2.5,0.2,3.6,0.6c1.1,0.4,2,1,2.8,1.7c0.8,0.7,1.4,1.6,1.8,2.7
	c0.4,1,0.6,2.2,0.6,3.4c0,0.7-0.1,1.6-0.3,2.5c-0.2,1-0.7,1.9-1.3,2.9c-0.7,0.9-1.6,1.7-2.8,2.3s-2.8,1-4.8,1h-6.4V597.3z
	 M148.5,579.3c0-0.4-0.1-0.9-0.2-1.5c-0.1-0.5-0.4-1-0.7-1.4c-0.4-0.4-0.8-0.8-1.5-1.1c-0.6-0.3-1.4-0.4-2.4-0.4h-5.8v8.7h5.9
	c1.7,0,2.9-0.4,3.6-1.2C148.1,581.6,148.5,580.5,148.5,579.3z"/>
<path fill="#333333" d="M176.5,597.9c-0.1,0.2-0.3,0.2-0.7,0.2h-11.2c-1.4,0-2.5-0.2-3.4-0.6s-1.6-0.9-2.1-1.6
	c-0.5-0.7-0.9-1.4-1.1-2.2c-0.2-0.8-0.3-1.7-0.3-2.6v-13.5c0-0.9,0.1-1.8,0.4-2.7c0.2-0.9,0.7-1.6,1.2-2.3c0.6-0.7,1.3-1.2,2.2-1.6
	s2-0.6,3.2-0.6h11c0.3,0,0.6,0.1,0.6,0.2c0.1,0.1,0.1,0.4,0.1,0.7v2.5c0,0.3,0,0.6-0.1,0.7c-0.1,0.1-0.3,0.2-0.6,0.2h-10.5
	c-1,0-1.7,0.2-2.1,0.7c-0.4,0.4-0.6,1.1-0.6,1.9v4.1h11.9c0.3,0,0.6,0.1,0.6,0.2c0.1,0.1,0.1,0.4,0.1,0.7v2.2c0,0.3,0,0.5-0.1,0.7
	c-0.1,0.1-0.3,0.2-0.6,0.2h-11.9v5.7c0,0.8,0.2,1.5,0.6,1.9c0.4,0.4,1.1,0.6,2.1,0.6h10.7c0.4,0,0.6,0.1,0.7,0.2
	c0.1,0.1,0.1,0.4,0.1,0.8v2.5C176.7,597.5,176.7,597.8,176.5,597.9z"/>
<path fill="#333333" d="M203.7,579.2h-0.2l-2.1,5.4l-3.5,8.7c-0.3,0.7-0.6,1.1-0.8,1.4c-0.3,0.2-0.7,0.4-1.4,0.4h-1.8
	c-0.7,0-1.1-0.1-1.4-0.4c-0.3-0.2-0.5-0.7-0.8-1.4l-3.5-8.3l-2.1-5.3h-0.2v17.7c0,0.4-0.1,0.6-0.2,0.7c-0.1,0.1-0.4,0.1-0.7,0.1
	h-2.8c-0.3,0-0.5,0-0.7-0.1s-0.2-0.3-0.2-0.7V573c0-0.8,0.2-1.4,0.5-1.8c0.3-0.4,0.9-0.6,1.8-0.6h1.6c0.7,0,1.2,0.1,1.5,0.4
	c0.3,0.2,0.7,0.7,0.9,1.4l4.7,11.5l2.4,6.1h0.2l2.4-6.1l4.6-11.5c0.3-0.7,0.6-1.2,1-1.4c0.4-0.2,0.9-0.4,1.6-0.4h1.5
	c0.8,0,1.4,0.2,1.8,0.6c0.3,0.4,0.5,1,0.5,1.8v24.4c0,0.4-0.1,0.6-0.2,0.7c-0.1,0.1-0.4,0.1-0.7,0.1h-2.8c-0.3,0-0.5,0-0.6-0.1
	c-0.1-0.1-0.2-0.3-0.2-0.7V579.2z"/>
<path fill="#333333" d="M229.1,586.7h-4.6c-1.3,0-2.3,0.3-3.1,0.7s-1.4,1.4-1.8,2.8l-1.9,7.2c-0.1,0.3-0.2,0.5-0.4,0.6
	c-0.2,0.1-0.4,0.1-0.6,0.1h-3.5c-0.3,0-0.5-0.1-0.6-0.3c0-0.2,0-0.4,0-0.6l2.1-7.8c0.3-1,0.6-1.8,1.2-2.5c0.5-0.7,1.3-1.2,2.4-1.6v0
	c-1.5-0.6-2.6-1.5-3.3-2.7c-0.7-1.2-1.1-2.6-1.1-4.2c0-1.2,0.2-2.3,0.6-3.2c0.4-1,1-1.8,1.8-2.5c0.8-0.7,1.7-1.3,2.7-1.7
	c1.1-0.4,2.3-0.6,3.6-0.6h9.2c0.8,0,1.4,0.2,1.7,0.6c0.3,0.4,0.5,0.9,0.5,1.7v24.7c0,0.3-0.1,0.5-0.2,0.5c-0.1,0.1-0.3,0.1-0.6,0.1
	h-3.3c-0.3,0-0.5,0-0.6-0.1c-0.1-0.1-0.2-0.2-0.2-0.5V586.7z M218.7,578.8c0,1.1,0.4,2,1.1,2.8c0.7,0.7,1.9,1.1,3.5,1.1h5.8v-7.8
	H223c-0.9,0-1.6,0.1-2.2,0.4c-0.6,0.3-1,0.6-1.3,1c-0.3,0.4-0.5,0.8-0.6,1.3C218.8,578,218.7,578.4,218.7,578.8z"/>
</svg>
