<?xml version="1.0" encoding="utf-8"?>
<!-- Generator: Adobe Illustrator 17.1.0, SVG Export Plug-In . SVG Version: 6.00 Build 0)  -->
<!DOCTYPE svg PUBLIC "-//W3C//DTD SVG 1.1//EN" "http://www.w3.org/Graphics/SVG/1.1/DTD/svg11.dtd">
<svg version="1.1" id="Layer_1" xmlns="http://www.w3.org/2000/svg" xmlns:xlink="http://www.w3.org/1999/xlink" x="0px" y="0px"
	 viewBox="0 0 595.3 841.9" enable-background="new 0 0 595.3 841.9" xml:space="preserve">
<g>
	<g>
		<path fill="#FFFFFF" d="M535.8,272.1H430.9c8.9-3.3,16.5-6.7,22.2-10c35.6-20.5,47.8-66.1,27.2-101.6
			c-13.8-23.9-38.8-37.2-64.5-37.2c-12.6,0-25.4,3.2-37.1,10c-22.2,12.8-60.5,49.9-81,84.6c-20.6-34.7-58.8-71.8-81-84.6
			c-11.7-6.8-24.5-10-37.1-10c-25.7,0-50.7,13.3-64.5,37.2c-20.5,35.6-8.4,81.1,27.2,101.6c5.7,3.3,13.3,6.7,22.2,10H59.5
			c-16.4,0-29.8,13.3-29.8,29.8v89.3c0,16.4,13.3,29.8,29.8,29.8v267.9c0,16.4,13.3,29.8,29.8,29.8h148.8h119.1H506
			c16.4,0,29.8-13.3,29.8-29.8V420.9c16.4,0,29.8-13.3,29.8-29.8v-89.3C565.5,285.4,552.2,272.1,535.8,272.1z M393.6,159.1
			c6.8-3.9,14.5-6,22.3-6c15.9,0,30.8,8.6,38.7,22.3c12.3,21.3,5,48.7-16.3,61c-16.9,9.7-64.6,23.9-100.9,23.9
			c-13.6,0-21-2.1-24.1-3.4C313.6,236.6,361.7,177.4,393.6,159.1z M208.3,688.8H89.3V420.9h119.1L208.3,688.8L208.3,688.8z
			 M208.3,391.2H89.3H59.5v-89.3h148.8V391.2z M157.1,236.4c-21.3-12.3-28.7-39.7-16.3-61c7.9-13.8,22.8-22.3,38.7-22.3
			c7.8,0,15.5,2.1,22.2,6c31.8,18.4,80,77.5,80.3,97.8c-3,1.4-10.5,3.4-24.1,3.4C221.6,260.3,174,246.1,157.1,236.4z M357.2,688.8
			H238.1V301.9h119.1V688.8z M506,688.8H386.9V420.9H506L506,688.8L506,688.8z M535.8,391.2H506H386.9v-89.3h148.8V391.2z"/>
	</g>
</g>
</svg>
