<?xml version="1.0" encoding="utf-8"?>
<!-- Generator: Adobe Illustrator 17.1.0, SVG Export Plug-In . SVG Version: 6.00 Build 0)  -->
<!DOCTYPE svg PUBLIC "-//W3C//DTD SVG 1.1//EN" "http://www.w3.org/Graphics/SVG/1.1/DTD/svg11.dtd">
<svg version="1.1" id="Layer_1" xmlns="http://www.w3.org/2000/svg" xmlns:xlink="http://www.w3.org/1999/xlink" x="0px" y="0px"
	 viewBox="0 0 595.3 841.9" enable-background="new 0 0 595.3 841.9" xml:space="preserve">
<g>
	<g>
		<g>
			<path fill="#FFFFFF" d="M595,579.6l-22.9-159.2c13.5-5.5,23.1-18.8,23.1-34.3v-88c0-69-56.1-125.1-125.1-125.1H232.4
				c-17.7,0-32.7,11.6-37.9,27.5h-70.2c-6.4,0-11.7,4.8-12.3,11.1h-15c-1.8,0-3.5,0.4-5.2,1.1l-27.3,12.5c-4.4,2-7.2,6.4-7.2,11.3
				v8.6H12.4C5.6,245,0,250.5,0,257.4c0,6.8,5.6,12.4,12.4,12.4h44.8v8.6c0,4.9,2.8,9.3,7.2,11.3l27.3,12.5c1.6,0.7,3.4,1.1,5.2,1.1
				h15c0.7,6.2,5.9,11.1,12.3,11.1h73.3c8.7,19.1,28,32.3,50.3,32.3h42.7c7.5,34.4,44.2,76.4,92.8,76.4c35.4,0,55.4,19.6,61.2,59.8
				c4.3,29.8-0.3,53.3-13.1,68.2c-10.6,12.2-27.2,18.7-48,18.7c-6.8,0-12.4,5.6-12.4,12.4v0v0v74.4c0,6.8,5.6,12.4,12.4,12.4h199.6
				c6.8,0,12.4-5.6,12.4-12.4v-73.9c0-0.2,0-0.3,0-0.5C595.3,581.3,595.2,580.4,595,579.6z M111.8,278.5H99.5l-17.6-8v-26.1l17.6-8
				h12.3V278.5z M192.5,289.5h-55.9v-64.3h55.9V289.5z M370.9,397c-28.7-5.9-48.1-31.4-54.6-50.3h54.6V397z M570.5,644.2H395.7
				v-49.6h174.8L570.5,644.2L570.5,644.2z M570.5,386c0,6.7-5.5,12.2-12.2,12.2c-3.6,0-7,1.6-9.4,4.3c-2.4,2.7-3.4,6.3-2.9,9.9
				l22.6,157.3H447.8c0.8-0.8,1.5-1.6,2.2-2.5c5.6-6.5,10.1-14,13.5-22.4h27.2c6.8,0,12.4-5.6,12.4-12.4s-5.6-12.4-12.4-12.4h-21
				c1.6-12.4,1.4-26.1-0.7-40.8c-3.4-23.8-11.4-42.7-23.8-56.2h31.9c6.8,0,12.4-5.6,12.4-12.4c0-6.8-5.6-12.4-12.4-12.4h-81.5v-64
				c0-6.8-5.6-12.4-12.4-12.4h-81.9h-53.6c-16.8,0-30.5-13.7-30.5-30.5v-78.5c0-8.3,6.8-15.1,15.1-15.1h237.8
				c55.3,0,100.3,45,100.3,100.3L570.5,386L570.5,386z"/>
			<path fill="#FFFFFF" d="M365.3,247.4h0.9c6.8,0,12.4-5.6,12.4-12.4c0-6.8-5.6-12.4-12.4-12.4h-0.9c-6.8,0-12.4,5.6-12.4,12.4
				C352.9,241.8,358.5,247.4,365.3,247.4z"/>
			<path fill="#FFFFFF" d="M470.2,222.6h-68c-6.8,0-12.4,5.6-12.4,12.4c0,6.8,5.6,12.4,12.4,12.4h68c6.8,0,12.4-5.6,12.4-12.4
				C482.6,228.1,477,222.6,470.2,222.6z"/>
			<path fill="#FFFFFF" d="M470.2,272.2H365.3c-6.8,0-12.4,5.6-12.4,12.4c0,6.8,5.6,12.4,12.4,12.4h104.8c6.8,0,12.4-5.6,12.4-12.4
				C482.6,277.8,477,272.2,470.2,272.2z"/>
			<path fill="#FFFFFF" d="M301.4,222.6h-46.9c-6.8,0-12.4,5.6-12.4,12.4c0,6.8,5.6,12.4,12.4,12.4h46.9c6.8,0,12.4-5.6,12.4-12.4
				C313.8,228.1,308.3,222.6,301.4,222.6z"/>
			<path fill="#FFFFFF" d="M301.4,272.2h-46.9c-6.8,0-12.4,5.6-12.4,12.4c0,6.8,5.6,12.4,12.4,12.4h46.9c6.8,0,12.4-5.6,12.4-12.4
				C313.8,277.8,308.3,272.2,301.4,272.2z"/>
			<path fill="#FFFFFF" d="M514,398.3h-0.9c-6.8,0-12.4,5.6-12.4,12.4s5.6,12.4,12.4,12.4h0.9c6.8,0,12.4-5.6,12.4-12.4
				C526.4,403.8,520.8,398.3,514,398.3z"/>
			<path fill="#FFFFFF" d="M470.2,335.3h-37.2c-6.8,0-12.4,5.6-12.4,12.4s5.6,12.4,12.4,12.4h37.2c6.8,0,12.4-5.6,12.4-12.4
				C482.6,340.8,477,335.3,470.2,335.3z"/>
		</g>
	</g>
</g>
</svg>
