<?xml version="1.0" encoding="utf-8"?>
<!-- Generator: Adobe Illustrator 17.1.0, SVG Export Plug-In . SVG Version: 6.00 Build 0)  -->
<!DOCTYPE svg PUBLIC "-//W3C//DTD SVG 1.1//EN" "http://www.w3.org/Graphics/SVG/1.1/DTD/svg11.dtd">
<svg version="1.1" id="Слой_1" xmlns="http://www.w3.org/2000/svg" xmlns:xlink="http://www.w3.org/1999/xlink" x="0px" y="0px"
	 viewBox="0 0 595.3 841.9" enable-background="new 0 0 595.3 841.9" xml:space="preserve">
<g>
	<path fill-rule="evenodd" clip-rule="evenodd" fill="#FFFFFF" d="M492.1,45H16.2h-146.4c-10.1,0-18.3,8.2-18.3,18.3v54.9h-18.3
		c-10.1,0-18.3,8.2-18.3,18.3c0,10.1,8.2,18.3,18.3,18.3h18.3v36.6h-18.3c-10.1,0-18.3,8.2-18.3,18.3c0,10.1,8.2,18.3,18.3,18.3
		h18.3v36.6h-18.3c-10.1,0-18.3,8.2-18.3,18.3c0,10.1,8.2,18.3,18.3,18.3h18.3v36.6h-18.3c-10.1,0-18.3,8.2-18.3,18.3
		c0,10.1,8.2,18.3,18.3,18.3h18.3v36.6h-18.3c-10.1,0-18.3,8.2-18.3,18.3c0,10.1,8.2,18.3,18.3,18.3h18.3v36.6h-18.3
		c-10.1,0-18.3,8.2-18.3,18.3c0,10.1,8.2,18.3,18.3,18.3h18.3v36.6h-18.3c-10.1,0-18.3,8.2-18.3,18.3c0,10.1,8.2,18.3,18.3,18.3
		h18.3v36.6h-18.3c-10.1,0-18.3,8.2-18.3,18.3c0,10.1,8.2,18.3,18.3,18.3h18.3v36.6h-18.3c-10.1,0-18.3,8.2-18.3,18.3
		c0,10.1,8.2,18.3,18.3,18.3h18.3v36.6h-18.3c-10.1,0-18.3,8.2-18.3,18.3c0,10.1,8.2,18.3,18.3,18.3h18.3v54.9
		c0,10.1,8.2,18.3,18.3,18.3H16.2h475.9c10.1,0,18.3-8.2,18.3-18.3V63.3C510.4,53.2,502.2,45,492.1,45L492.1,45z M-2.1,850.3h-109.8
		v-36.6h18.3c10.1,0,18.3-8.2,18.3-18.3c0-10.1-8.2-18.3-18.3-18.3h-18.3v-36.6h18.3c10.1,0,18.3-8.2,18.3-18.3
		c0-10.1-8.2-18.3-18.3-18.3h-18.3v-36.6h18.3c10.1,0,18.3-8.2,18.3-18.3c0-10.1-8.2-18.3-18.3-18.3h-18.3v-36.6h18.3
		c10.1,0,18.3-8.2,18.3-18.3c0-10.1-8.2-18.3-18.3-18.3h-18.3v-36.6h18.3c10.1,0,18.3-8.2,18.3-18.3c0-10.1-8.2-18.3-18.3-18.3
		h-18.3v-36.6h18.3c10.1,0,18.3-8.2,18.3-18.3c0-10.1-8.2-18.3-18.3-18.3h-18.3v-36.6h18.3c10.1,0,18.3-8.2,18.3-18.3
		c0-10.1-8.2-18.3-18.3-18.3h-18.3v-36.6h18.3c10.1,0,18.3-8.2,18.3-18.3c0-10.1-8.2-18.3-18.3-18.3h-18.3V228h18.3
		c10.1,0,18.3-8.2,18.3-18.3c0-10.1-8.2-18.3-18.3-18.3h-18.3v-36.6h18.3c10.1,0,18.3-8.2,18.3-18.3c0-10.1-8.2-18.3-18.3-18.3
		h-18.3V81.6H-2.1V850.3z M473.8,850.3H34.5V81.6h439.2V850.3z"/>
	<path fill-rule="evenodd" clip-rule="evenodd" fill="#FFFFFF" d="M272.5,191.4h-183c-10.1,0-18.3,8.2-18.3,18.3
		c0,10.1,8.2,18.3,18.3,18.3h183c10.1,0,18.3-8.2,18.3-18.3C290.8,199.6,282.6,191.4,272.5,191.4L272.5,191.4z"/>
	<path fill-rule="evenodd" clip-rule="evenodd" fill="#FFFFFF" d="M418.9,264.6h-73.2c-10.1,0-18.3,8.2-18.3,18.3
		c0,10.1,8.2,18.3,18.3,18.3h73.2c10.1,0,18.3-8.2,18.3-18.3C437.2,272.8,429,264.6,418.9,264.6L418.9,264.6z"/>
	<path fill-rule="evenodd" clip-rule="evenodd" fill="#FFFFFF" d="M303.7,270c-0.8-0.9-1.8-1.6-2.8-2.3c-1-0.7-2-1.2-3.2-1.7
		c-1.1-0.5-2.2-0.8-3.4-1.1c-2.4-0.5-4.8-0.5-7.1,0c-1.2,0.3-2.3,0.6-3.4,1.1c-1.1,0.5-2.2,1-3.1,1.7c-1,0.7-2,1.4-2.8,2.3
		c-0.8,0.9-1.6,1.8-2.3,2.8c-0.7,1-1.2,2.1-1.7,3.2c-0.5,1.1-0.8,2.2-1.1,3.4c-0.2,1.2-0.3,2.4-0.3,3.6c0,1.2,0.1,2.4,0.3,3.5
		c0.3,1.2,0.6,2.3,1.1,3.4c0.5,1.1,1,2.2,1.7,3.2c0.7,1,1.4,1.9,2.3,2.8c0.9,0.9,1.8,1.6,2.8,2.3c1,0.7,2,1.2,3.1,1.7
		c1.1,0.5,2.3,0.9,3.4,1c1.2,0.3,2.4,0.4,3.6,0.4s2.4-0.1,3.6-0.4c1.2-0.2,2.3-0.6,3.4-1c1.1-0.5,2.2-1,3.2-1.7c1-0.7,2-1.4,2.8-2.3
		c0.9-0.9,1.6-1.8,2.3-2.8c0.7-1,1.2-2,1.7-3.2c0.5-1.1,0.8-2.2,1-3.4c0.2-1.2,0.4-2.4,0.4-3.5C309.1,278.1,307.1,273.4,303.7,270
		L303.7,270z"/>
	<path fill-rule="evenodd" clip-rule="evenodd" fill="#FFFFFF" d="M235.9,264.6H89.4c-10.1,0-18.3,8.2-18.3,18.3
		c0,10.1,8.2,18.3,18.3,18.3h146.4c10.1,0,18.3-8.2,18.3-18.3C254.2,272.8,246,264.6,235.9,264.6L235.9,264.6z"/>
	<path fill-rule="evenodd" clip-rule="evenodd" fill="#FFFFFF" d="M418.9,337.9H89.4c-10.1,0-18.3,8.2-18.3,18.3
		c0,10.1,8.2,18.3,18.3,18.3h329.4c10.1,0,18.3-8.2,18.3-18.3C437.2,346.1,429,337.9,418.9,337.9L418.9,337.9z"/>
</g>
</svg>
