<?xml version="1.0" encoding="utf-8"?>
<!-- Generator: Adobe Illustrator 17.1.0, SVG Export Plug-In . SVG Version: 6.00 Build 0)  -->
<!DOCTYPE svg PUBLIC "-//W3C//DTD SVG 1.1//EN" "http://www.w3.org/Graphics/SVG/1.1/DTD/svg11.dtd">
<svg version="1.1" id="Capa_1" xmlns="http://www.w3.org/2000/svg" xmlns:xlink="http://www.w3.org/1999/xlink" x="0px" y="0px"
	 viewBox="0 0 595.3 841.9" enable-background="new 0 0 595.3 841.9" xml:space="preserve">
<g>
	<path fill="#FFFFFF" stroke="#FFFFFF" stroke-width="3" stroke-miterlimit="10" d="M472.1,472.3c-67.9,0-123.2,55.2-123.2,123.2
		s55.2,123.2,123.2,123.2s123.2-55.2,123.2-123.2S540,472.3,472.1,472.3z M472.1,698.1c-56.6,0-102.6-46-102.6-102.6
		s46-102.6,102.6-102.6s102.6,46,102.6,102.6S528.7,698.1,472.1,698.1z"/>
	<path fill="#FFFFFF" stroke="#FFFFFF" stroke-width="3" stroke-miterlimit="10" d="M533.7,585.2h-51.3v-51.3
		c0-5.7-4.6-10.3-10.3-10.3s-10.3,4.6-10.3,10.3v61.6c0,5.7,4.6,10.3,10.3,10.3h61.6c5.7,0,10.3-4.6,10.3-10.3
		S539.4,585.2,533.7,585.2z"/>
	<path fill="#FFFFFF" stroke="#FFFFFF" stroke-width="3" stroke-miterlimit="10" d="M277.1,338.8h-20.5h-71.8h-20.5H71.8v92.4v20.5
		v71.8v20.5v92.4h92.4h20.5h92.4v-92.4v-20.5v-71.8H349h20.5h92.4V338.8h-92.4H349H277.1z M164.2,616H92.4v-71.8h71.8V616z
		 M164.2,523.6H92.4v-71.8h71.8V523.6z M164.2,431.2H92.4v-71.8h71.8V431.2z M256.6,616h-71.8v-71.8h71.8V616z M256.6,523.6h-71.8
		v-71.8h71.8V523.6z M256.6,431.2h-71.8v-71.8h71.8V431.2z M349,431.2h-71.8v-71.8H349V431.2z M369.5,359.4h71.8v71.8h-71.8V359.4z"
		/>
	<path fill="#FFFFFF" stroke="#FFFFFF" stroke-width="3" stroke-miterlimit="10" d="M338.7,687.8H20.5V287.5h492.6v133.4
		c0,5.7,4.6,10.3,10.3,10.3c5.7,0,10.3-4.6,10.3-10.3V277.3V174.6c0-5.7-4.6-10.3-10.3-10.3h-51.3v-30.8c0-5.7-4.6-10.3-10.3-10.3
		H390c-5.7,0-10.3,4.6-10.3,10.3v30.8H154v-30.8c0-5.7-4.6-10.3-10.3-10.3H71.8c-5.7,0-10.3,4.6-10.3,10.3v30.8H10.3
		c-5.7,0-10.3,4.6-10.3,10.3v102.6v420.8c0,5.7,4.6,10.3,10.3,10.3h328.4c5.7,0,10.3-4.6,10.3-10.3
		C349,692.4,344.4,687.8,338.7,687.8z M400.3,174.6v-30.8h51.3v30.8v30.8h-51.3V174.6z M82.1,174.6v-30.8h51.3v30.8v30.8H82.1V174.6
		z M20.5,184.9h41.1v30.8c0,5.7,4.6,10.3,10.3,10.3h71.8c5.7,0,10.3-4.6,10.3-10.3v-30.8h225.8v30.8c0,5.7,4.6,10.3,10.3,10.3h71.8
		c5.7,0,10.3-4.6,10.3-10.3v-30.8h41.1V267H20.5V184.9z"/>
</g>
</svg>
