<svg xmlns="http://www.w3.org/2000/svg" viewBox="0 0 96.199999 100.69999" width="96.2" height="100.7"><path d="M88 100.7H8.2C3.7 100.7 0 97 0 92.5V8.2C0 3.7 3.7 0 8.2 0H88c4.5 0 8.2 3.7 8.2 8.2v84.3c-.1 4.6-3.7 8.2-8.2 8.2zM8.1 5C6.3 5 4.8 6.5 4.8 8.3v84.3c0 1.8 1.5 3.3 3.3 3.3h79.8c1.8 0 3.3-1.5 3.3-3.3V8.3c0-1.8-1.5-3.3-3.3-3.3z" fill="#1a9f29"/><path d="M72.7 13.8H23.4c-1.3 0-2.4-1.1-2.4-2.4 0-1.3 1.1-2.4 2.4-2.4h49.3c1.3 0 2.4 1.1 2.4 2.4 0 1.3-1.1 2.4-2.4 2.4z" fill="#f79400"/><path d="M43.4 51.8H17.8V19.7h25.6zM22.6 47h16V24.5h-16zM43.4 87.7H17.8V55.6h25.6zm-20.8-4.8h16V60.4h-16zM76 51.8H50.4V19.7H76zM55.3 47h16V24.5h-16zM76 87.7H50.4V55.6H76zm-20.7-4.8h16V60.4h-16z" fill="#1a9f29"/></svg>