<svg xmlns="http://www.w3.org/2000/svg" viewBox="0 0 95.834719 117" width="95.835" height="117"><path d="M69.128 60h-46.7c-1.3 0-2.4-1.1-2.4-2.4 0-1.3 1.1-2.4 2.4-2.4h46.7c1.3 0 2.4 1.1 2.4 2.4 0 1.4-1.1 2.4-2.4 2.4zM59.628 71.1h-33c-1.3 0-2.4-1.1-2.4-2.4 0-1.3 1.1-2.4 2.4-2.4h33c1.3 0 2.4 1.1 2.4 2.4 0 1.3-1 2.4-2.4 2.4z" fill="#f79400"/><path d="M48.028 81.2h-11.5c-1.3 0-2.4-1.1-2.4-2.4 0-1.3 1.1-2.4 2.4-2.4h11.5c1.3 0 2.4 1.1 2.4 2.4 0 1.3-1.1 2.4-2.4 2.4z" fill="#1a9f29"/><path d="M56.828 91.6h-33c-1.3 0-2.4-1.1-2.4-2.4 0-1.3 1.1-2.4 2.4-2.4h33c1.3 0 2.4 1.1 2.4 2.4 0 1.3-1.1 2.4-2.4 2.4z" fill="#f79400"/><path d="M2.428 117h-.4c-1.3-.2-2.2-1.5-2-2.8l5.8-34.3c.2-1.3 1.5-2.2 2.8-2 1.3.2 2.2 1.5 2 2.8l-5.8 34.3c-.3 1.1-1.3 2-2.4 2z" fill="#1a9f29"/><path d="M90.328 37.5c-.7-9.2-4.9-18.8-12-26.9-.2-.2-.4-.4-.6-.5-5.7-6.5-13.8-10.1-23-10.1-19.5 0-38 16.3-41.4 36.2l-11.3 67h66.2l-1.9 11c-.2 1.3.7 2.6 2 2.8h.4c1.2 0 2.2-.8 2.4-2l2-11.8h17.1l.8 11.5c.1 1.3 1.1 2.2 2.4 2.2h.2c1.3-.1 2.3-1.2 2.2-2.6zm-72.4-.5c3-17.8 19.4-32.2 36.7-32.2 7.9 0 14.8 3.1 19.6 8.7 5.1 6 7 14 5.6 22.7l-7.2 42.7c-.2.3-.3.6-.4 1l-3.1 18.5h-61.4zm56.2 61.4l10.4-61.4c.2-1.1.3-2.2.4-3.3.3 1.4.5 2.8.6 4.1l4.3 60.5h-15.7z" fill="#1a9f29"/><path d="M59.828 49.2h-26.6l12.2-25.1h10zm-18.9-4.8h13.2l-2.7-15.5h-3z" fill="#1a9f29"/></svg>