<svg xmlns="http://www.w3.org/2000/svg" viewBox="0 0 106 120" width="106" height="120"><path d="M106 11.5L24.5 0l-1 .2L1.4 10.6C.6 11 0 11.8 0 12.8V112c0 1.1.7 2.1 1.8 2.3l21.8 5.6v.1h.4v-.1l81.9-13.2V11.5zM4.9 110.1V14.2L23.7 5v109.9zm96.3-7.4l-72.7 11.7V5.4l72.7 10.3z" fill="#1a9f29"/><g fill="#ff9100"><path d="M80.3 31.2c-3.7-4.6-8.9-7.4-14.4-8.1-5.8-.7-11.7 1.3-16 5.3-4.6 4.2-7.2 10.3-7.2 16.7 0 4.2 1.1 8.4 3.1 12 2 3.6 4.8 6.5 8.2 8.6.2.7.3 1.3.5 2s.3 1.3.5 2c.2.9 1 1.5 1.9 1.5h.1c3-.1 6-.3 8.9-.4h.9c2.6-.1 5.1-.3 7.6-.4.8 0 1.6-.7 1.8-1.6.1-.7.3-1.3.4-2 .1-.6.3-1.2.4-1.8 2.8-2 5.1-4.8 6.7-8 1.6-3.2 2.4-6.8 2.4-10.4-.2-5.5-2.2-11-5.8-15.4zM47 45.3c0-5.2 2.1-10.2 5.8-13.6 3.1-2.9 7.1-4.5 11.3-4.5.6 0 1.2 0 1.7.1 4.6.5 8.8 2.8 11.9 6.5 3 3.6 4.6 8.2 4.6 12.9 0 6.3-3.1 12.3-8.1 15.5-.4.3-.8.7-.9 1.3-.1.6-.2 1.1-.4 1.6l-.3 1.5c-2.3.1-4.6.2-7 .2-2.4.1-4.9.2-7.3.2-.1-.6-.3-1.2-.4-1.7-.1-.5-.2-1-.4-1.5-.1-.6-.5-1-.9-1.3-5.8-3.4-9.6-10.1-9.6-17.2zm9.8 25.8zM56.9 78.8l3.9-.3c1.7-.1 3.4-.2 5.1-.4 2.9-.2 5.7-.4 8.4-.6 1-.1 1.9-1 1.9-2.1s-.8-1.9-1.8-1.9h-.7c-2.6.2-5.2.3-7.8.5l-1.3.1c-2.5.1-5.1.3-7.7.5-1.1.1-2 1-2 2.2 0 .5.2 1 .5 1.4.4.4.8.6 1.3.6h.2z"/><path d="M60.5 62.2c.2.9 1 1.6 1.9 1.6h.1c.1 0 .2 0 .3-.1 1-.3 1.7-1.4 1.4-2.5-.3-1.1-.5-2.1-.8-3.2-.2-1-.4-1.9-.7-2.9h5.9c-.2.9-.4 1.9-.7 2.8-.3 1.1-.5 2.2-.8 3.3-.2 1.1.4 2.2 1.4 2.4h.4c.9 0 1.6-.7 1.8-1.6l.2-1.1c.6-2.5 1.1-5 1.7-7.4v-.9-.2l-.1-.1v-.2l-.2-.2s0-.1-.1-.1v-.2h.2l-.1-.1v-.2h-.2l-.2-.1h-.1-.1-.1-.1l-5.7-.1c-.9 0-1.8 0-2.7-.1-.9 0-1.9 0-2.8-.1-.6 0-1.2.3-1.6.8-.4.5-.5 1.1-.4 1.8.8 3 1.5 6.1 2.2 8.7zM75 80l-8.9.8h-.5l-9.2.8-1.6.1v8.7l.1.5c.3 1.6 1 3 2 4l.2.2.2.2c1.2 1 2.7 1.6 4.2 1.6h.9l.5-.1 6.6-.8.5-.1c1.7-.3 3.3-1.2 4.5-2.6l.2-.2.2-.2c1.1-1.5 1.8-3.2 1.8-5v-8zm-2 7.7c0 1.1-.4 2.2-1.1 3.1l-.1.1v.1c-.7.8-1.6 1.3-2.6 1.5l-7.1.9h-.5c-.8 0-1.6-.3-2.2-.8-.6-.5-1-1.3-1.1-2.2v-.1-5.1L73 83.9z"/></g></svg>