<svg xmlns="http://www.w3.org/2000/svg" viewBox="0 0 140.9 74.138105" width="140.9" height="74.138"><path d="M39 60.038l-.1-6.8v-2.4-.4h-9.7v-2.1c-.1-2.7-.1-5.4-.2-8l-.2-10.5 2.1.1c1.7.1 3.3.2 5 .2.9 0 1.8.1 2.7.1v-2.8c0-1.7-.1-3.4-.1-5v-2.2l2.2.2c1.4.1 2.9.2 4.3.3l3.3.3 1.1.1c2.1.2 4.1.3 6.1.5l1.9.1v9.5c.8 0 1.6.1 2.3.1l6 .2v18.7h-8.1-.1v8.9l-1.9.1c-1.2.1-2.4.1-3.7.2-1.1 0-2.3.1-3.4.1-2.3.1-4.7.2-7.1.3zm1.8-13.7h2v9.5c1.8-.1 3.6-.2 5.4-.2 1.1-.1 2.3-.1 3.4-.1.6 0 1.2 0 1.7-.1v-2.6-6.6h8.2v-10.9l-2.2-.1c-1.4-.1-2.8-.1-4.2-.2l-1.9-.1v-1.9-2.3-2.4-2.3-.5c-1.4-.1-2.9-.2-4.3-.3l-1.1-.1c-1.1-.1-2.2-.2-3.4-.3-.7-.1-1.4-.1-2.1-.2v2.7l.1 7.1-2.1-.1c-1.6-.1-3.2-.1-4.8-.2-.9 0-1.9-.1-2.8-.1l.1 6.2c.1 2.1.1 4.2.2 6.3h5.3c1-.2 1.7-.2 2.5-.2z" fill="#f79400"/><g fill="#1a9f29"><path d="M121.6 15.738v-3c0-3.5-2.8-6.6-6.3-7-3.7-.4-6.7 2.4-6.7 6v2.9l-53.6-4.6v-3c0-3.5-2.7-6.6-6.3-7-3.7-.4-6.7 2.4-6.7 6v2.9l-24.9-2.1-.1-.2-16 9c-.6.4-1 1-1 1.7v49.7c0 .9.6 1.6 1.4 1.9l15.5 5.2v-.1.1l124-9v-47.7zm-75.5-9.8c0-1.3 1-2.2 2.3-2 1.5.2 2.7 1.6 2.7 3.1v2.5l-5-.4zm-29.2 64L4 65.638v-47.1l12.9-7.2zm95.7-58.3c0-1.3 1-2.2 2.3-2 1.5.2 2.7 1.6 2.7 3.1v2.5l-5-.4zm24.3 49.7l-116 8.4v-58.7l116 9.9z"/><path d="M128.2 32.238l-53.2-2.3v22.9l53.2-2.1zm-4 14.6l-45.2 1.8v-14.5l45.2 2z"/></g></svg>