<?xml version="1.0" encoding="UTF-8" standalone="no"?>
<!-- Creator: CorelDRAW X7 -->

<svg
   xmlns:dc="http://purl.org/dc/elements/1.1/"
   xmlns:cc="http://creativecommons.org/ns#"
   xmlns:rdf="http://www.w3.org/1999/02/22-rdf-syntax-ns#"
   xmlns:svg="http://www.w3.org/2000/svg"
   xmlns="http://www.w3.org/2000/svg"
   xmlns:sodipodi="http://sodipodi.sourceforge.net/DTD/sodipodi-0.dtd"
   xmlns:inkscape="http://www.inkscape.org/namespaces/inkscape"
   xml:space="preserve"
   width="199.898mm"
   height="326.961mm"
   version="1.1"
   shape-rendering="geometricPrecision"
   text-rendering="geometricPrecision"
   image-rendering="optimizeQuality"
   fill-rule="evenodd"
   clip-rule="evenodd"
   viewBox="0 0 14651 23964"
   id="svg9"
   sodipodi:docname="banner.svg"
   inkscape:version="0.92.1 r"><metadata
     id="metadata15"><rdf:RDF><cc:Work
         rdf:about=""><dc:format>image/svg+xml</dc:format><dc:type
           rdf:resource="http://purl.org/dc/dcmitype/StillImage" /></cc:Work></rdf:RDF></metadata><defs
     id="defs13" /><sodipodi:namedview
     pagecolor="#ffffff"
     bordercolor="#666666"
     borderopacity="1"
     objecttolerance="10"
     gridtolerance="10"
     guidetolerance="10"
     inkscape:pageopacity="0"
     inkscape:pageshadow="2"
     inkscape:window-width="1869"
     inkscape:window-height="1025"
     id="namedview11"
     showgrid="false"
     inkscape:zoom="1.5278071"
     inkscape:cx="129.52652"
     inkscape:cy="633.50119"
     inkscape:window-x="51"
     inkscape:window-y="27"
     inkscape:window-maximized="1"
     inkscape:current-layer="svg9" /><g
     id="Слой_x0020_1"
     style="fill:#3d963f;fill-opacity:0.94117647"><metadata
       id="CorelCorpID_0Corel-Layer" /><g
       id="_893632291184"
       style="fill:#3d963f;fill-opacity:0.94117647"><path
         fill="black"
         d="M14651 12165l-3462 0 -10538 0 0 -8721 4015 0c3,0 7,0 11,0l9974 0 0 -650 -9788 0 -1426 -2622c-4,-4 -4,-7 -7,-11 -44,-73 -110,-121 -183,-146 0,0 0,0 0,0 -4,0 -11,-4 -15,-4 0,0 0,0 0,0 0,0 0,0 0,0l0 0c-29,-7 -58,-11 -87,-11l-776 0c-135,0 -256,84 -303,208l-541 1397c-40,99 -26,212 33,304 62,87 161,142 270,142l1104 0c161,0 297,-117 322,-274l70 -446 797 1466 -3796 0c-179,0 -325,146 -325,326l0 9371c0,179 146,326 325,326l8147 -1 0 10820c0,179 146,325 325,325l2392 0c179,0 325,-146 325,-325l0 -10823 3137 0 0 -651zm-11996 -10768l-348 0 289 -746 176 0 -117 746zm8208 21913l-1737 0 0 -10494 1737 0 0 10494z"
         id="path3"
         style="fill:#3d963f;fill-opacity:0.94117647" /><path
         fill="black"
         d="M903 4274l0 7061c0,179 146,325 326,325l13422 0 0 -650 -13093 0 0 -6410 13093 0 0 -651 -13422 0c-180,0 -326,146 -326,325z"
         id="path5"
         style="fill:#3d963f;fill-opacity:0.94117647" /></g></g></svg>