<svg xmlns="http://www.w3.org/2000/svg" viewBox="0 0 598.3 598.49998" width="598.3" height="598.5"><g stroke-miterlimit="10" fill="#fff" stroke="#fff" stroke-width="3"><path d="M473.6 350.6c-67.9 0-123.2 55.2-123.2 123.2S405.6 597 473.6 597s123.2-55.2 123.2-123.2-55.3-123.2-123.2-123.2zm0 225.8c-56.6 0-102.6-46-102.6-102.6 0-56.6 46-102.6 102.6-102.6 56.6 0 102.6 46 102.6 102.6 0 56.6-46 102.6-102.6 102.6z"/><path d="M535.2 463.5h-51.3v-51.3c0-5.7-4.6-10.3-10.3-10.3-5.7 0-10.3 4.6-10.3 10.3v61.6c0 5.7 4.6 10.3 10.3 10.3h61.6c5.7 0 10.3-4.6 10.3-10.3 0-5.7-4.6-10.3-10.3-10.3zM278.6 217.1H73.3v297.6h205.3V330h184.8V217.1H350.5zM165.7 494.3H93.9v-71.8h71.8zm0-92.4H93.9v-71.8h71.8zm0-92.4H93.9v-71.8h71.8zm92.4 184.8h-71.8v-71.8h71.8zm0-92.4h-71.8v-71.8h71.8zm0-92.4h-71.8v-71.8h71.8zm92.4 0h-71.8v-71.8h71.8zm20.5-71.8h71.8v71.8H371z"/><path d="M340.2 566.1H22V165.8h492.6v133.4c0 5.7 4.6 10.3 10.3 10.3 5.7 0 10.3-4.6 10.3-10.3V52.9c0-5.7-4.6-10.3-10.3-10.3h-51.3V11.8c0-5.7-4.6-10.3-10.3-10.3h-71.8c-5.7 0-10.3 4.6-10.3 10.3v30.8H155.5V11.8c0-5.7-4.6-10.3-10.3-10.3H73.3C67.6 1.5 63 6.1 63 11.8v30.8H11.8c-5.7 0-10.3 4.6-10.3 10.3v523.4c0 5.7 4.6 10.3 10.3 10.3h328.4c5.7 0 10.3-4.6 10.3-10.3 0-5.6-4.6-10.2-10.3-10.2zm61.6-513.2V22.1h51.3v61.6h-51.3zm-318.2 0V22.1h51.3v61.6H83.6zM22 63.2h41.1V94c0 5.7 4.6 10.3 10.3 10.3h71.8c5.7 0 10.3-4.6 10.3-10.3V63.2h225.8V94c0 5.7 4.6 10.3 10.3 10.3h71.8c5.7 0 10.3-4.6 10.3-10.3V63.2h41.1v82.1H22z"/></g></svg>