<svg viewBox="0 0 512 512" xmlns="http://www.w3.org/2000/svg"><circle cx="256" cy="256" r="253.44"/><path d="M350.02 144.066l17.52 17.522c6.047 6.047 6.047 15.852 0 21.9l-183.933 183.93c-6.047 6.05-15.852 6.048-21.9 0l-17.52-17.52c-6.048-6.048-6.048-15.853 0-21.9l183.93-183.934c6.05-6.046 15.854-6.046 21.902.002z" fill="#FFF"/><path d="M367.54 349.9l-17.522 17.52c-6.047 6.048-15.852 6.048-21.9 0L144.186 183.49c-6.047-6.047-6.047-15.852 0-21.9l17.522-17.522c6.047-6.047 15.852-6.047 21.9 0L367.54 328c6.048 6.047 6.048 15.852 0 21.9z" fill="#FFF"/></svg>