<svg xmlns="http://www.w3.org/2000/svg" viewBox="0 0 322.58005 124.69999" width="322.58" height="124.7"><g fill="#1d9f49"><path d="M298.4 33.3l-5-4.3.6-.9c.6-.9 1.2-1.9 1.1-3.2v-.3c-.4-1.3-9.8-6.5-11-6.5h-.2l-.4.1c-1.1.6-2 2-2.5 3.3-1-.3-2.2-.7-3.3-1.2-1.4-.5-2.8-1.1-4.3-1.5-3.6-.9-6.8-1.4-9.8-1.7-1.4-.1-2.9-.2-4.3-.2-5.6 0-11 .8-16.4 2.5-6.7 2.1-11.4 4.9-15.5 7.6-1.1.7-2.2 1.5-3.3 2.4-1.1.9-6.9 5.7-8.7 9.1l-.8 1.5h1.7c2.7-.1 5.7-.1 9.3-.1h11.1c1.8 0 2.3-.2 3.1-1 .2-.2.4-.4.7-.6.5-.4.9-.7 1.3-1 2.6-2 3.7-2.9 7.9-4.7 4.4-1.8 9-2.7 13.7-2.7 6.1 0 12.5 1.6 18.4 4.5 13.7 6.9 21.9 19.5 23.1 35.7 1.1 13.9-2.5 25.7-10.4 34.1-7.8 8.4-19.6 13.2-32.5 13.2-17.4 0-40.8-9.1-49.6-34.8l-2-5.7v6c0 1.2.3 2.3.7 3.3.2.6.4 1.2.5 1.8v.1c.7 2.4 1.6 4.7 2.8 7.2 8.9 18.7 25.5 29.4 45.5 29.4 14.9 0 29.4-6.1 39.7-16.7 10-10.2 15-23.5 14.6-38.4-.5-13.1-6.2-26.5-15.8-36.3zM280.3 10.9c.9 1 3.9 2.5 4.6 2.6l.5.1.4-.4c.3-.3.4-.4.5-.6 1.6.8 3.8 2.2 6 3.5 2.4 1.5 4.8 3 6.7 3.9l-.6 1.6.5.4c1 .9 3.4 2.4 5.1 2.7l.7.1 5.7-9.9-.4-.5c-.4-.6-.8-.9-1-1.1-.3-.2-.4-.3-.7-1.4-2.5-7.5-11-11.6-17.7-11.6h-.4c-1.2 0-1.9 0-2.6-.1-.5-.1-1.1-.1-1.8-.1h-.5l-.3.4c-.9 1.1-4.7 7.4-5.1 9.1l-.1.4.2.4c.1.4.2.5.3.5z"/><path d="M291 75.4l-20.9-4 10.4-30.8-23.7 25.8v15.2M259.1 14h11.6l.3-.7c1.7-4.6.6-7.6-.6-9.4-1.7-2.4-4.8-3.9-8.3-3.9-3.6 0-6.8 1.5-8.5 4-1.2 1.7-2.2 4.7-.6 9.2.3.7.4.8 6.1.8zM322.5 40.7c-.5-4.5-4.5-9.2-9.5-9.2-1.9 0-4.7.8-7.3 4.3l-.1.1c-.4.7-.4.7 5.2 9 1.5 2.1 2.8 4.2 3.1 4.6l.4.7.7-.2c5.3-1.3 8.1-4.7 7.5-9.3z"/></g><path d="M4.8 70.5c0 .4-.1.6-.2.7-.1.1-.4.1-.7.1h-3c-.3 0-.5-.1-.7-.2-.2-.1-.2-.3-.2-.7V45.8c0-.7.2-1.3.5-1.7.3-.4.9-.6 1.7-.6h9.4c1.3 0 2.5.2 3.6.6 1.1.4 2 1 2.8 1.7.8.7 1.4 1.6 1.8 2.7.4 1 .6 2.2.6 3.4 0 .7-.1 1.6-.3 2.5-.2 1-.7 1.9-1.3 2.9-.7.9-1.6 1.7-2.8 2.3-1.2.6-2.8 1-4.8 1H4.8zm10.7-18.1c0-.4-.1-.9-.2-1.5-.1-.5-.4-1-.7-1.4-.4-.4-.8-.8-1.5-1.1-.6-.3-1.4-.4-2.4-.4H4.8v8.7h5.9c1.7 0 2.9-.4 3.6-1.2.8-.8 1.2-1.8 1.2-3.1zM43.5 71.1c-.1.2-.3.2-.7.2H31.6c-1.4 0-2.5-.2-3.4-.6-.9-.4-1.6-.9-2.1-1.6-.5-.7-.9-1.4-1.1-2.2-.2-.8-.3-1.7-.3-2.6V50.8c0-.9.1-1.8.4-2.7.2-.9.7-1.6 1.2-2.3.6-.7 1.3-1.2 2.2-1.6.9-.4 2-.6 3.2-.6h11c.3 0 .6.1.6.2.1.1.1.4.1.7V47c0 .3 0 .6-.1.7-.1.1-.3.2-.6.2H32.1c-1 0-1.7.2-2.1.7-.4.4-.6 1.1-.6 1.9v4.1h11.9c.3 0 .6.1.6.2.1.1.1.4.1.7v2.2c0 .3 0 .5-.1.7-.1.1-.3.2-.6.2H29.4v5.7c0 .8.2 1.5.6 1.9.4.4 1.1.6 2.1.6h10.7c.4 0 .6.1.7.2.1.1.1.4.1.8v2.5c.1.4 0 .6-.1.8zM63 56.6c.7.2 1.2.5 1.7.8.4.3.8.7 1.1 1.1.3.4.5.9.7 1.3.2.5.3 1 .5 1.6l2.4 9.1c.1.1.1.3 0 .5 0 .2-.2.3-.6.3h-3.5c-.1 0-.3 0-.4-.1-.2-.1-.3-.2-.4-.5l-2.4-8.6c-.4-1.4-1-2.4-1.8-2.8-.8-.5-1.8-.7-3.2-.7h-4.4v12c0 .3-.1.5-.2.5-.1.1-.3.1-.6.1h-3.3c-.2 0-.4 0-.5-.1-.1-.1-.2-.2-.2-.5V44.3c0-.3.1-.5.2-.5s.3-.1.5-.1H52c.3 0 .4 0 .6.1.1.1.1.2.1.5v10.3h4.2c.4 0 .8 0 1.3-.1.4-.1.9-.2 1.3-.5s.8-.6 1.2-1.1c.4-.5.7-1.2.9-2l1.7-6.7c.1-.3.2-.4.3-.5.2-.1.3-.1.5-.1h3.2c.3 0 .5.1.6.3v.5l-1.7 7c-.3 1.1-.7 2.1-1.2 2.9-.5.8-1.2 1.5-2.1 2v.3zM77.1 46.4c.1-.9.3-1.6.7-2 .4-.4 1-.6 1.8-.6h12.9c1.7 0 2.5.9 2.5 2.6v24.2c0 .3-.1.5-.2.6-.1.1-.3.1-.6.1h-3.3c-.3 0-.5 0-.6-.1-.1-.1-.2-.3-.2-.6V47.9h-8.7l-.2 3.4c-.2 2.9-.4 5.6-.6 7.9-.2 2.3-.6 4.3-1.2 6-.5 1.7-1.3 3.1-2.4 4.2-1 1.1-2.5 1.9-4.3 2.5-.3.1-.5 0-.6 0-.2-.1-.3-.2-.4-.5l-.8-2.3c-.1-.2-.1-.4 0-.6 0-.2.2-.3.5-.4 1.1-.5 2-1.1 2.6-1.8.6-.7 1.1-1.7 1.4-3 .3-1.2.6-2.8.8-4.6.2-1.8.4-4.1.6-6.9zM115.6 65.3h-10l-1.7 5.4c-.1.2-.2.4-.3.5-.1.1-.4.2-.7.2h-3.6c-.3 0-.5-.1-.6-.3-.1-.2-.1-.4 0-.6l8.5-24.9c.1-.4.3-.7.4-.9.1-.2.3-.4.5-.6.2-.1.4-.2.7-.3.3-.1.6-.1.9-.1h1.7c.8 0 1.4.1 1.7.4.3.3.6.8.9 1.5l8.5 24.9c.1.2.1.4 0 .6-.1.2-.2.3-.5.3h-3.6c-.3 0-.5 0-.7-.1-.2-.1-.3-.2-.4-.5zm-8.8-4.1h7.6l-2-6.6-1.7-5.6h-.2l-1.6 5.5zM148.7 52.3h-.2l-2.1 5.4-3.5 8.7c-.3.7-.6 1.1-.8 1.4-.3.2-.7.4-1.4.4h-1.9c-.7 0-1.1-.1-1.4-.4-.3-.2-.5-.7-.8-1.4l-3.5-8.3-2.1-5.3h-.2v17.7c0 .4-.1.6-.2.7-.1.1-.4.1-.7.1h-2.8c-.3 0-.5 0-.7-.1-.2-.1-.2-.3-.2-.7V46.1c0-.8.2-1.4.5-1.8.3-.4.9-.6 1.8-.6h1.6c.7 0 1.2.1 1.5.4.3.2.7.7.9 1.4l4.7 11.5 2.4 6.1h.2l2.4-6.1 4.6-11.5c.3-.7.6-1.2 1-1.4.4-.2.9-.4 1.6-.4h1.5c.8 0 1.4.2 1.8.6.3.4.5 1 .5 1.8v24.4c0 .4-.1.6-.2.7-.1.1-.4.1-.7.1h-2.8c-.3 0-.5 0-.6-.1-.1-.1-.2-.3-.2-.7zM180.8 71.2c-.1.1-.4.1-.7.1h-3c-.3 0-.5-.1-.7-.2-.1-.1-.2-.3-.2-.7V58.8H164v11.6c0 .4-.1.6-.2.7-.1.1-.4.1-.7.1h-3c-.3 0-.5-.1-.7-.2-.2-.1-.2-.3-.2-.7V44.6c0-.3.1-.6.2-.7.2-.1.4-.2.7-.2h3c.4 0 .6 0 .7.1.1.1.2.3.2.7v10.2h12.2V44.6c0-.3.1-.6.2-.7.1-.1.4-.2.7-.2h3c.4 0 .6 0 .7.1.1.1.2.3.2.7v25.9c0 .5 0 .7-.2.8zM210.1 57.4c0 4.6-1 8.1-3 10.6s-5 3.7-9.1 3.7c-4 0-6.9-1.2-8.9-3.6-2-2.4-3-5.9-3-10.6 0-2.3.3-4.3.9-6 .6-1.8 1.4-3.2 2.5-4.5 1.1-1.2 2.3-2.2 3.8-2.8 1.5-.6 3.1-1 4.8-1 2 0 3.7.3 5.2 1 1.5.6 2.8 1.6 3.8 2.8 1 1.2 1.8 2.7 2.3 4.4.5 1.7.7 3.8.7 6zm-5 .2c0-1.3-.1-2.6-.3-3.8-.2-1.2-.6-2.3-1.1-3.2-.5-.9-1.2-1.6-2.1-2.2-.9-.5-2.1-.8-3.5-.8-1.2 0-2.3.3-3.1.8-.9.5-1.6 1.2-2.2 2.1-.6.9-1 1.9-1.3 3.1-.3 1.2-.4 2.4-.4 3.8 0 1.5.1 2.9.3 4.1.2 1.2.6 2.3 1.2 3.2.6.9 1.3 1.6 2.2 2 .9.5 2 .7 3.4.7 1.3 0 2.5-.3 3.4-.8.9-.6 1.6-1.3 2.2-2.2.6-.9.9-1.9 1.2-3.1 0-1.2.1-2.4.1-3.7zM234.1 71.1c-.1.2-.3.2-.7.2h-11.2c-1.4 0-2.5-.2-3.4-.6-.9-.4-1.6-.9-2.1-1.6-.5-.7-.9-1.4-1.1-2.2-.2-.8-.3-1.7-.3-2.6V50.8c0-.9.1-1.8.4-2.7.2-.9.7-1.6 1.2-2.3.6-.7 1.3-1.2 2.2-1.6.9-.4 2-.6 3.2-.6h11c.3 0 .6.1.6.2.1.1.1.4.1.7V47c0 .3 0 .6-.1.7-.1.1-.3.2-.6.2h-10.5c-1 0-1.7.2-2.1.7-.4.4-.6 1.1-.6 1.9v4.1H232c.3 0 .6.1.6.2.1.1.1.4.1.7v2.2c0 .3 0 .5-.1.7-.1.1-.3.2-.6.2h-11.9v5.7c0 .8.2 1.5.6 1.9.4.4 1.1.6 2.1.6h10.7c.4 0 .6.1.7.2.1.1.1.4.1.8v2.5c0 .4-.1.6-.2.8zM96.4 89.6c.7.3 1.4.7 1.9 1.2.6.5 1 1 1.3 1.6.3.6.6 1.2.8 1.9.2.7.3 1.4.3 2.1 0 1.2-.2 2.4-.7 3.4-.5 1-1.1 1.9-2 2.6-.8.7-1.8 1.3-2.9 1.7-1.1.4-2.3.6-3.6.6h-9.6c-.8 0-1.4-.2-1.7-.5-.3-.4-.5-.9-.5-1.7V79.4c0-.8.2-1.3.5-1.7.3-.4.9-.6 1.7-.6H91c1.2 0 2.3.1 3.4.4 1 .3 1.9.7 2.7 1.2.7.6 1.3 1.3 1.8 2.1.4.9.6 1.9.6 3.1 0 1.2-.3 2.3-.9 3.2-.6.9-1.3 1.7-2.2 2.2zm-11.9-1.7h6.4c.4 0 .8 0 1.2-.1.4-.1.8-.3 1.2-.5.4-.2.7-.6.9-1 .2-.4.4-1 .4-1.7 0-.9-.3-1.7-.9-2.2-.6-.6-1.5-.8-2.5-.8h-6.6v6.3zm11.3 8.2c0-1.3-.4-2.3-1.2-3.1-.8-.8-2-1.2-3.5-1.2h-6.5v8.6h6.5c.9 0 1.7-.1 2.3-.4.6-.3 1.1-.6 1.5-1 .4-.4.6-.9.8-1.4 0-.5.1-1 .1-1.5zM110.6 103.9c0 .4-.1.6-.2.7-.1.1-.4.1-.7.1h-3c-.3 0-.5-.1-.7-.2-.2-.1-.2-.3-.2-.7V79.2c0-.7.2-1.3.5-1.7.3-.4.9-.6 1.7-.6h9.4c1.3 0 2.5.2 3.6.6 1.1.4 2 1 2.8 1.7.8.7 1.4 1.6 1.8 2.7.4 1 .6 2.2.6 3.4 0 .7-.1 1.6-.3 2.5-.2 1-.7 1.9-1.3 2.9-.7.9-1.6 1.7-2.8 2.3-1.2.6-2.8 1-4.8 1h-6.4zm10.7-18c0-.4-.1-.9-.2-1.5-.1-.5-.4-1-.7-1.4-.4-.4-.8-.8-1.5-1.1-.6-.3-1.4-.4-2.4-.4h-5.8v8.7h5.9c1.7 0 2.9-.4 3.6-1.2.7-.8 1.1-1.9 1.1-3.1zM149.3 104.5c-.1.2-.3.2-.7.2h-11.2c-1.4 0-2.5-.2-3.4-.6-.9-.4-1.6-.9-2.1-1.6-.5-.7-.9-1.4-1.1-2.2-.2-.8-.3-1.7-.3-2.6V84.2c0-.9.1-1.8.4-2.7.2-.9.7-1.6 1.2-2.3.6-.7 1.3-1.2 2.2-1.6.9-.4 2-.6 3.2-.6h11c.3 0 .6.1.6.2.1.1.1.4.1.7v2.5c0 .3 0 .6-.1.7-.1.1-.3.2-.6.2H138c-1 0-1.7.2-2.1.7-.4.4-.6 1.1-.6 1.9V88h11.9c.3 0 .6.1.6.2.1.1.1.4.1.7v2.2c0 .3 0 .5-.1.7-.1.1-.3.2-.6.2h-11.9v5.7c0 .8.2 1.5.6 1.9.4.4 1.1.6 2.1.6h10.7c.4 0 .6.1.7.2.1.1.1.4.1.8v2.5c0 .4 0 .7-.2.8zM176.5 85.8h-.2l-2.1 5.4-3.5 8.7c-.3.7-.6 1.1-.8 1.4-.3.2-.7.4-1.4.4h-1.8c-.7 0-1.1-.1-1.4-.4-.3-.2-.5-.7-.8-1.4l-3.5-8.3-2.1-5.3h-.2V104c0 .4-.1.6-.2.7-.1.1-.4.1-.7.1H155c-.3 0-.5 0-.7-.1-.2-.1-.2-.3-.2-.7V79.6c0-.8.2-1.4.5-1.8.3-.4.9-.6 1.8-.6h1.6c.7 0 1.2.1 1.5.4.3.2.7.7.9 1.4l4.7 11.5 2.4 6.1h.2l2.4-6.1 4.6-11.5c.3-.7.6-1.2 1-1.4.4-.2.9-.4 1.6-.4h1.5c.8 0 1.4.2 1.8.6.3.4.5 1 .5 1.8V104c0 .4-.1.6-.2.7-.1.1-.4.1-.7.1h-2.8c-.3 0-.5 0-.6-.1-.1-.1-.2-.3-.2-.7V85.8zM201.9 93.3h-4.6c-1.3 0-2.3.3-3.1.7-.8.4-1.4 1.4-1.8 2.8l-1.9 7.2c-.1.3-.2.5-.4.6-.2.1-.4.1-.6.1H186c-.3 0-.5-.1-.6-.3v-.6l2.1-7.8c.3-1 .6-1.8 1.2-2.5.5-.7 1.3-1.2 2.4-1.6-1.5-.6-2.6-1.5-3.3-2.7-.7-1.2-1.1-2.6-1.1-4.2 0-1.2.2-2.3.6-3.2.4-1 1-1.8 1.8-2.5s1.7-1.3 2.7-1.7c1.1-.4 2.3-.6 3.6-.6h9.2c.8 0 1.4.2 1.7.6.3.4.5.9.5 1.7V104c0 .3-.1.5-.2.5-.1.1-.3.1-.6.1h-3.3c-.3 0-.5 0-.6-.1-.1-.1-.2-.2-.2-.5zm-10.4-7.9c0 1.1.4 2 1.1 2.8.7.7 1.9 1.1 3.5 1.1h5.8v-7.8h-6.1c-.9 0-1.6.1-2.2.4-.6.3-1 .6-1.3 1-.3.4-.5.8-.6 1.3-.1.4-.2.8-.2 1.2z" fill="#333"/></svg>