<svg xmlns="http://www.w3.org/2000/svg" viewBox="0 0 695.50001 841.79996" width="695.5" height="841.8"><g clip-rule="evenodd" fill="#fff" fill-rule="evenodd"><path d="M677.2 0H54.9C44.8 0 36.6 8.2 36.6 18.3v54.9H18.3C8.2 73.2 0 81.4 0 91.5c0 10.1 8.2 18.3 18.3 18.3h18.3v36.6H18.3C8.2 146.4 0 154.6 0 164.7 0 174.8 8.2 183 18.3 183h18.3v36.6H18.3C8.2 219.6 0 227.8 0 237.9c0 10.1 8.2 18.3 18.3 18.3h18.3v36.6H18.3C8.2 292.8 0 301 0 311.1c0 10.1 8.2 18.3 18.3 18.3h18.3V366H18.3C8.2 366 0 374.2 0 384.3c0 10.1 8.2 18.3 18.3 18.3h18.3v36.6H18.3C8.2 439.2 0 447.4 0 457.5c0 10.1 8.2 18.3 18.3 18.3h18.3v36.6H18.3C8.2 512.4 0 520.6 0 530.7 0 540.8 8.2 549 18.3 549h18.3v36.6H18.3C8.2 585.6 0 593.8 0 603.9c0 10.1 8.2 18.3 18.3 18.3h18.3v36.6H18.3C8.2 658.8 0 667 0 677.1c0 10.1 8.2 18.3 18.3 18.3h18.3V732H18.3C8.2 732 0 740.2 0 750.3c0 10.1 8.2 18.3 18.3 18.3h18.3v54.9c0 10.1 8.2 18.3 18.3 18.3h622.3c10.1 0 18.3-8.2 18.3-18.3V18.3c0-10.1-8.2-18.3-18.3-18.3zM183 805.3H73.2v-36.6h18.3c10.1 0 18.3-8.2 18.3-18.3 0-10.1-8.2-18.3-18.3-18.3H73.2v-36.6h18.3c10.1 0 18.3-8.2 18.3-18.3 0-10.1-8.2-18.3-18.3-18.3H73.2v-36.6h18.3c10.1 0 18.3-8.2 18.3-18.3 0-10.1-8.2-18.3-18.3-18.3H73.2v-36.6h18.3c10.1 0 18.3-8.2 18.3-18.3 0-10.1-8.2-18.3-18.3-18.3H73.2v-36.6h18.3c10.1 0 18.3-8.2 18.3-18.3 0-10.1-8.2-18.3-18.3-18.3H73.2v-36.6h18.3c10.1 0 18.3-8.2 18.3-18.3 0-10.1-8.2-18.3-18.3-18.3H73.2v-36.6h18.3c10.1 0 18.3-8.2 18.3-18.3 0-10.1-8.2-18.3-18.3-18.3H73.2v-36.6h18.3c10.1 0 18.3-8.2 18.3-18.3 0-10.1-8.2-18.3-18.3-18.3H73.2V183h18.3c10.1 0 18.3-8.2 18.3-18.3 0-10.1-8.2-18.3-18.3-18.3H73.2v-36.6h18.3c10.1 0 18.3-8.2 18.3-18.3 0-10.1-8.2-18.3-18.3-18.3H73.2V36.6H183zm475.9 0H219.6V36.6h439.2v768.7z"/><path d="M457.6 146.4h-183c-10.1 0-18.3 8.2-18.3 18.3 0 10.1 8.2 18.3 18.3 18.3h183c10.1 0 18.3-8.2 18.3-18.3 0-10.1-8.2-18.3-18.3-18.3zM604 219.6h-73.2c-10.1 0-18.3 8.2-18.3 18.3 0 10.1 8.2 18.3 18.3 18.3H604c10.1 0 18.3-8.2 18.3-18.3 0-10.1-8.2-18.3-18.3-18.3zM488.8 225c-.8-.9-1.8-1.6-2.8-2.3-1-.7-2-1.2-3.2-1.7-1.1-.5-2.2-.8-3.4-1.1-2.4-.5-4.8-.5-7.1 0-1.2.3-2.3.6-3.4 1.1-1.1.5-2.2 1-3.1 1.7-1 .7-2 1.4-2.8 2.3-.8.9-1.6 1.8-2.3 2.8-.7 1-1.2 2.1-1.7 3.2s-.8 2.2-1.1 3.4c-.2 1.2-.3 2.4-.3 3.6 0 1.2.1 2.4.3 3.5.3 1.2.6 2.3 1.1 3.4.5 1.1 1 2.2 1.7 3.2s1.4 1.9 2.3 2.8c.9.9 1.8 1.6 2.8 2.3 1 .7 2 1.2 3.1 1.7s2.3.9 3.4 1c1.2.3 2.4.4 3.6.4 1.2 0 2.4-.1 3.6-.4 1.2-.2 2.3-.6 3.4-1 1.1-.5 2.2-1 3.2-1.7s2-1.4 2.8-2.3c.9-.9 1.6-1.8 2.3-2.8.7-1 1.2-2 1.7-3.2.5-1.1.8-2.2 1-3.4.2-1.2.4-2.4.4-3.5-.1-4.9-2.1-9.6-5.5-13zM421 219.6H274.5c-10.1 0-18.3 8.2-18.3 18.3 0 10.1 8.2 18.3 18.3 18.3h146.4c10.1 0 18.3-8.2 18.3-18.3.1-10.1-8.1-18.3-18.2-18.3zM604 292.9H274.5c-10.1 0-18.3 8.2-18.3 18.3 0 10.1 8.2 18.3 18.3 18.3h329.4c10.1 0 18.3-8.2 18.3-18.3.1-10.1-8.1-18.3-18.2-18.3z"/></g></svg>