<?xml version="1.0" encoding="UTF-8"?><!DOCTYPE svg PUBLIC "-//W3C//DTD SVG 1.1//EN" "http://www.w3.org/Graphics/SVG/1.1/DTD/svg11.dtd"><svg xmlns="http://www.w3.org/2000/svg"><symbol id="arrow-carousel" viewBox="0 0 512 292.62183"><path d="M256 204.975L63 10.875c-14.4-14.5-37.8-14.5-52.2 0-14.4 14.5-14.4 38 0 52.5l217.3 218.5c7.7 7.7 17.9 11.2 27.9 10.7 10.1.5 20.3-3 27.9-10.7l217.3-218.5c14.4-14.5 14.4-38 0-52.5s-37.8-14.5-52.2 0z" fill="#fff" fill-opacity=".941"/></symbol><symbol id="arrow" viewBox="0 0 512 292.62183"><path d="M256 204.975L63 10.875c-14.4-14.5-37.8-14.5-52.2 0-14.4 14.5-14.4 38 0 52.5l217.3 218.5c7.7 7.7 17.9 11.2 27.9 10.7 10.1.5 20.3-3 27.9-10.7l217.3-218.5c14.4-14.5 14.4-38 0-52.5s-37.8-14.5-52.2 0z" fill="#ff9000"/></symbol><symbol id="avto" viewBox="0 0 115.7 71.699995"><g clip-rule="evenodd" fill-rule="evenodd"><path d="M95.8 56.2c-2 0-3.6 1.6-3.6 3.6s1.6 3.6 3.6 3.6 3.6-1.6 3.6-3.6-1.6-3.6-3.6-3.6zm-71.9 0c-2 0-3.6 1.6-3.6 3.6s1.6 3.6 3.6 3.6 3.6-1.6 3.6-3.6-1.6-3.6-3.6-3.6z" fill="#1a9f29"/><path d="M111 32.6l-13.8-6.1L87.1 4.6C85.8 1.8 83 0 80 0H5.9C2.7 0 0 2.6 0 5.9v49.9c0 3.3 2.6 5.9 5.9 5.9h6.3c.9 5.7 5.8 10 11.7 10 5.9 0 10.8-4.3 11.7-10h48.5c.9 5.7 5.8 10 11.7 10 5.9 0 10.8-4.3 11.7-10h2.3c3.2 0 5.9-2.6 5.9-5.9V39.7c0-3-1.9-5.9-4.7-7.1zM87.2 13.7l5.6 12.2H75.7V13.7zM23.9 67.9c-4.5 0-8.1-3.7-8.1-8.1 0-4.5 3.6-8.1 8.1-8.1s8.1 3.7 8.1 8.1c0 4.5-3.6 8.1-8.1 8.1zm71.9 0c-4.5 0-8.1-3.7-8.1-8.1 0-4.5 3.7-8.1 8.1-8.1 4.5 0 8.1 3.7 8.1 8.1 0 4.5-3.6 8.1-8.1 8.1zM111.9 50h-2.1c-1 0-1.9.8-1.9 1.9 0 1 .8 1.9 1.9 1.9h2.1v2.1c0 1.2-1 2.1-2.1 2.1h-2.3c-.9-5.6-5.8-10-11.7-10-5.9 0-10.8 4.3-11.7 10H35.6c-.9-5.6-5.8-10-11.7-10-5.9 0-10.8 4.3-11.7 10H5.9c-1.2 0-2.1-.9-2.1-2.1v-2.1h6.1c1 0 1.9-.9 1.9-1.9 0-1-.9-1.9-1.9-1.9H3.8V5.9c0-1.2 1-2.1 2.1-2.1H80c1.6 0 3.1.9 3.7 2.4l1.8 3.8H67.8c-2.1 0-3.9 1.8-3.9 3.9v8c0 4.3 3.5 7.9 7.9 7.9h23.6L107 35l-.3.2c-1.7 1-2.8 3-2.8 5v3.7c0 1 .8 1.9 1.9 1.9h6.1zM72 13.7v12.2h-.1c-2.3 0-4.1-1.8-4.1-4.1v-8c0-.1.1-.1.1-.1zM111.9 42h-4.3v-1.9c0-.7.4-1.4 1-1.8l2.2-1.3c.7.7 1.1 1.7 1.1 2.7z" fill="#1a9f29"/><path d="M81.8 50H37.9c-1 0-1.9.8-1.9 1.9 0 1 .9 1.9 1.9 1.9h43.9c1 0 1.9-.9 1.9-1.9 0-1.1-.8-1.9-1.9-1.9zM26.9 7.9c-.9 0-1.6.7-1.6 1.6v7h-2v-7c0-.9-.7-1.6-1.6-1.6-.9 0-1.6.7-1.6 1.6v7h-1.9v-7c0-.9-.7-1.6-1.6-1.6-.9 0-1.6.7-1.6 1.6v10.3c0 2.8 2.3 5 5 5h.1v13.9c0 .9.7 1.6 1.6 1.6.9 0 1.6-.7 1.6-1.6V24.9h.1c2.8 0 5.1-2.3 5.1-5V9.6c0-1-.7-1.7-1.6-1.7zm-1.6 11.9c0 1-.8 1.8-1.8 1.8H20c-1 0-1.8-.8-1.8-1.8v-.1h7.1zm8.5 20.6c.9 0 1.6-.7 1.6-1.6v-7h3.2c1 0 1.9-.4 2.6-1.2.7-.8.9-1.7.8-2.7l-2.9-17.1c-.3-1.7-1.7-2.9-3.4-2.9-1.9 0-3.5 1.6-3.5 3.5v27.4c0 .9.7 1.6 1.6 1.6zm1.6-29.1c0-.1.1-.2.3-.2.1 0 .2.1.2.2l2.9 17.1v.1h-3.3V11.3z" fill="#f79400"/></g></symbol><symbol id="beer" viewBox="0 0 27623 29703"><path fill="#EFBB6A" d="M27623 10836v9892c0 2041-1657 3697-3692 3697h-6436l-548-3153h6989c299 0 539-245 539-539v-9897c0-300-240-539-539-539h-8266l-933-3153h9189c2045 0 3697 1651 3697 3692z"/><g fill="#D19B54"><path d="M20933 10297h-5263l-928-3153h6021l55 993zM21706 24420h-4216l-548-3153h4589l5 110 145 2669z"/></g><path fill="#F2F2F2" d="M19606 5493c518-400 848-1028 848-1731 0-1213-983-2191-2190-2191-45 0-95 0-140 5-324-808-1112-1376-2035-1376-724 0-1367 354-1766 893-385-195-814-300-1273-300-603 0-1162 190-1621 509C11085 539 10322 5 9429 5c-604 0-1148 244-1547 639-384-195-818-305-1282-305-1033 0-1936 549-2434 1377-195-55-395-85-609-85-1212 0-2190 983-2190 2190 0 604 244 1153 643 1552l17596 120zm0 0z"/><g fill="#CCC"><path d="M14632 1841c459-319 1018-509 1621-509 459 0 888 110 1272 299 115-159 255-299 409-419-389-608-1067-1012-1845-1012-724 0-1367 354-1766 893-155-75-315-140-484-190 344 234 623 554 793 938zM4575 4355c0-1212 982-2190 2190-2190 209 0 414 30 608 85 499-823 1402-1377 2435-1377 459 0 893 110 1282 304 60-60 120-114 189-164C10890 404 10212 0 9434 0c-604 0-1148 244-1547 639-384-195-818-305-1282-305-1033 0-1936 549-2434 1377-195-55-395-85-609-85-1212 0-2190 983-2190 2190 0 604 244 1153 643 1552l2819 20c-165-304-259-659-259-1033z"/></g><path fill="#D88948" d="M20643 26510H833l135-2464 144-2669 574-10571 150-2669 154-2824h17501l155 2824 144 2669 574 10571 145 2669z"/><path fill="#C4783F" d="M5537 21377l310-10571 80-2669 84-2824H1990l-154 2824-145 2669-579 10571-144 2669-135 2464h4555l70-2464z"/><path fill="#D88948" d="M5024 5313l-814 21197-19 459-878-35 14-424 814-21197z"/><g fill="#C4783F"><path d="M18164 26934l-878 35-20-459-813-21197h883l813 21197zM8491 5313l-359 21197-5 449-883-15 10-434 354-21197zM14233 26944l-883 15-5-449-354-21197h878l354 21197z"/></g><g fill="#EFBB6A"><path d="M20070 8137H1407l-130 2669h18922zM20733 21377H743l-129 2669h20249z"/></g><g fill="#D19B54"><path d="M743 21377l-129 2669h4310l130-2669zM1407 8137l-130 2669h3826l130-2669z"/></g><path fill="#EFBB6A" d="M0 26365h21481v3337H0z"/><path fill="#D19B54" d="M0 26365h6086v3337H0z"/></symbol><symbol id="bukvi" viewBox="0 0 99.100001 91.8"><g fill="#1a9f29"><path d="M61.2 22.9c-.2-.8-.7-3.3-3.6-3.3-2.9 0-3.4 2.5-3.6 3.3L47.6 56h20l-6.3-32.8zm-7.7 28.2l4.2-21.5 4.2 21.5z"/><path d="M99.1 91.5L82.6 15.9C80 4 71.4.8 62.3.2V0H39.8c-9.3.2-20.4 2.2-23.3 15.9L.7 88.3 0 91.8l22-.3h23.8l3.3-16.7h4.2l2.9 16.7h13.1v.1h29.8zM21.2 17C23 8.8 28 5.4 38.9 5c-2.9 2.4-5.1 5.9-6.2 11L17.3 86.8 5.9 87zm24 53l-3.3 16.7H22.3L37.4 17C39.3 8.3 45 4.9 57.6 4.9h.1C70.4 4.9 76 8.3 77.9 17l15.2 69.7H73.4L70.1 70zm15.1 16.6l-2.1-11.8h7.9l2.3 11.8z"/></g></symbol><symbol id="calendar" viewBox="0 0 598.3 598.49998"><g stroke-miterlimit="10" fill="#fff" stroke="#fff" stroke-width="3"><path d="M473.6 350.6c-67.9 0-123.2 55.2-123.2 123.2S405.6 597 473.6 597s123.2-55.2 123.2-123.2-55.3-123.2-123.2-123.2zm0 225.8c-56.6 0-102.6-46-102.6-102.6 0-56.6 46-102.6 102.6-102.6 56.6 0 102.6 46 102.6 102.6 0 56.6-46 102.6-102.6 102.6z"/><path d="M535.2 463.5h-51.3v-51.3c0-5.7-4.6-10.3-10.3-10.3-5.7 0-10.3 4.6-10.3 10.3v61.6c0 5.7 4.6 10.3 10.3 10.3h61.6c5.7 0 10.3-4.6 10.3-10.3 0-5.7-4.6-10.3-10.3-10.3zM278.6 217.1H73.3v297.6h205.3V330h184.8V217.1H350.5zM165.7 494.3H93.9v-71.8h71.8zm0-92.4H93.9v-71.8h71.8zm0-92.4H93.9v-71.8h71.8zm92.4 184.8h-71.8v-71.8h71.8zm0-92.4h-71.8v-71.8h71.8zm0-92.4h-71.8v-71.8h71.8zm92.4 0h-71.8v-71.8h71.8zm20.5-71.8h71.8v71.8H371z"/><path d="M340.2 566.1H22V165.8h492.6v133.4c0 5.7 4.6 10.3 10.3 10.3 5.7 0 10.3-4.6 10.3-10.3V52.9c0-5.7-4.6-10.3-10.3-10.3h-51.3V11.8c0-5.7-4.6-10.3-10.3-10.3h-71.8c-5.7 0-10.3 4.6-10.3 10.3v30.8H155.5V11.8c0-5.7-4.6-10.3-10.3-10.3H73.3C67.6 1.5 63 6.1 63 11.8v30.8H11.8c-5.7 0-10.3 4.6-10.3 10.3v523.4c0 5.7 4.6 10.3 10.3 10.3h328.4c5.7 0 10.3-4.6 10.3-10.3 0-5.6-4.6-10.2-10.3-10.2zm61.6-513.2V22.1h51.3v61.6h-51.3zm-318.2 0V22.1h51.3v61.6H83.6zM22 63.2h41.1V94c0 5.7 4.6 10.3 10.3 10.3h71.8c5.7 0 10.3-4.6 10.3-10.3V63.2h225.8V94c0 5.7 4.6 10.3 10.3 10.3h71.8c5.7 0 10.3-4.6 10.3-10.3V63.2h41.1v82.1H22z"/></g></symbol><symbol id="check" viewBox="0 0 32 32"><path d="M16 0C7.164 0 0 7.164 0 16s7.164 16 16 16 16-7.164 16-16S24.836 0 16 0zm-2.48 23.383L6.158 16.02l2.828-2.828 4.533 4.535 9.617-9.617 2.828 2.828L13.52 23.383z" fill="#ff9000"/></symbol><symbol id="close" viewBox="0 0 384.14999 384.14999"><path d="M373.575 322.675l-130.6-130.6 130.6-130.6c14.1-14.1 14.1-36.8 0-50.9-14.1-14.1-36.8-14.1-50.9 0l-130.6 130.6-130.6-130.6c-14.1-14.1-36.8-14.1-50.9 0-14.1 14.1-14.1 36.8 0 50.9l130.6 130.6-130.6 130.6c-14.1 14.1-14.1 36.8 0 50.9 14.1 14.1 36.8 14.1 50.9 0l130.6-130.6 130.6 130.6c14.1 14.1 36.8 14.1 50.9 0 14-14.1 14-36.9 0-50.9z" fill="#fff"/></symbol><symbol id="clothe" viewBox="0 0 529.70002 548.37151"><path d="M189.8 115.572c.6 1.2 1.1 2.5 1.7 3.7l.1.1c3.8 8.5 7.6 16.9 11.5 25.3 5.2-2.2 10.5-4.4 15.8-6 30-9.7 62.2-9.7 92.1 0 5.3 1.8 10.6 3.8 15.8 6 3.9-8.4 7.7-16.8 11.5-25.3 0-.1.1-.1.1-.1.6-1.2 1.1-2.5 1.7-3.7-48-21.5-102.5-21.5-150.3 0z" fill="#acb3ba"/><path d="M218.8 138.471c21.1 10.2 46.1 17.7 46.1 17.7s24.9-7.6 46.1-17.7c-30.1-9.5-62.2-9.5-92.2 0z" fill="#ced5e0"/><path d="M264.8 108.871c1.8 0 3.2-1.4 3.2-3.2v-9.6c0-16.5-7.4-32.6-20.6-44.3-6-5.4-9.2-13.1-8.7-21.1.8-13.1 11.3-23.6 24.4-24.4 7.3-.5 14.3 2 19.6 7.1 5.3 5 8.3 11.8 8.3 19 0 1.8 1.4 3.2 3.2 3.2 1.8 0 3.2-1.4 3.2-3.2 0-8.9-3.8-17.5-10.3-23.6-6.6-6.1-15.2-9.3-24.2-8.7-16.3 1.1-29.3 14.1-30.2 30.2-.6 10 3.3 19.6 10.7 26.2 11.7 10.5 18.4 24.9 18.4 39.6v9.6c-.1 1.8 1.3 3.2 3 3.2z" fill="#324a5e"/><path d="M81.2 195.571c1.3 2.5 3.9 3.9 6.5 3.9H442c4 0 7.3-3.3 7.3-7.3 0-2.8-1.5-5.2-3.9-6.5l-177.2-96.5c-2.2-1.2-5-1.2-7.1 0l-177.2 96.5c-3.3 1.9-4.7 6.3-2.7 9.9zm183.6-73.8l142.3 63H122.5z" fill="#ffd05b"/><path d="M0 243.672l78 81.1 45.4-35.7v223.6c42.2 22.8 90.2 35.7 141.5 35.7 51.1 0 99.3-12.9 141.4-35.7v-223.6l45.4 35.7 78-81.1-90.9-86.5c-7.9-7.6-18.1-12.6-28.9-14.6l-73-13c.2 3.9-2.1 7.8-7.1 7.8-.7 0-1.3 0-1.8-.2-7 22.4-32.6 39.1-63.1 39.3-30.8-.2-56.6-17.2-63.3-40-.9.6-2.2.9-3.7.9-4.8 0-7.2-3.8-7.2-7.4l-70.9 12.6c-10.9 2-20.9 7-28.9 14.6z" fill="#ff7058"/><path fill="#324a5e" d="M529.6 243.671l-20.9-19.9-79.8 83 22.8 18z"/><g fill="#e6e9ee"><path d="M529.6 243.671l-20.9-19.9-79.8 83 22.8 18zM100.8 306.772l-79.9-83-20.9 19.9 78 81.1z"/></g><path fill="#f1543f" d="M245.8 156.372h37.9v126.7h-37.9z"/><g transform="translate(-32.8 -170.228)" fill="#e6e9ee"><path d="M230.8 347.4l31.8 34.3 35-55s-24.9-7.6-46.1-17.7c-12-5.9-23-12.5-27.2-19.3l-.1-.1c-.8-1.2-1.3-2.5-1.7-3.7l-4.1 10.2c-6.6 16.4-2.8 34.7 12.4 51.3zM297.6 326.6l35 55 31.9-34.3c15.4-16.5 19.1-34.7 12.3-51.4l-4.1-10.2c-.2 1.2-.8 2.5-1.7 3.7 0 .1-.1.1-.1.1-4.3 6.6-15.2 13.3-27.3 19.1-21 10.4-46 18-46 18z"/><circle cx="297.6" cy="397.7" r="9.8"/><circle cx="297.6" cy="434.6" r="9.8"/></g></symbol><symbol id="design" viewBox="0 0 841.92501 841.82499"><g clip-rule="evenodd" fill="#fff" fill-rule="evenodd"><path d="M594.5 368.125c12.6 11.9 28.9 17.9 45.1 17.9 16.9 0 33.8-6.4 46.7-19.3l28.5-28.5 120.9-120.9c8.3-8.3 8.3-21.8 0-30.1l-180.8-181c-8.3-8.3-21.8-8.3-30.2 0l-120.8 120.9-28.6 28.5c-25.2 25.3-25.7 66-1.4 91.8l-45.4 45.4-30.2 30.2-30.4-30.4-24.9-24.9c-13.5-13.5-31.4-20.9-50.5-20.9-1.3 0-2.6 0-3.9.1 1.6-32.8-12.1-68.7-40-96.6-42.9-42.9-165.3-59.1-179.1-60.8-6.5-.8-13 1.4-17.7 6.1-4.6 4.6-6.9 11.2-6.1 17.7 1.7 13.8 18 136.3 60.8 179.1 26.4 26.4 60.1 40.1 91.5 40.1 1.2 0 2.4 0 3.7-.1-1.5 20 5.4 40.6 20.7 55.9l55.2 55.2-271.4 271.4c-4 4-6.2 9.4-6.2 15.1 0 5.7 2.2 11.1 6.2 15.1l90.5 90.4c4.1 4.2 9.6 6.2 15.1 6.2s10.9-2.1 15.1-6.2l60.6-60.6 60.2-60.2c8.3-8.3 8.3-21.8 0-30.1s-21.8-8.3-30.2 0l-45.1 45.1-60.3-60.3 195.7-195.7 60.3 60.3-60.2 60.1c-8.3 8.3-8.3 21.8 0 30.2 8.3 8.3 21.8 8.3 30.2 0l60.1-60.2 210.8 210.9 60.6 60.6c.5.5 1.1 1 1.6 1.4 3.9 3.2 8.7 4.8 13.5 4.8 5.4 0 10.9-2.1 15.1-6.2l90.4-90.4c4-4 6.2-9.4 6.2-15.1 0-5.7-2.2-11.1-6.2-15.1l-271.3-271.3 30.2-30.2zm-452.2 391.9l-30.5 30.5-60.3-60.3 30.4-30.5zm497.5-708.6l150.7 150.7-90.7 90.7-150.7-150.6zm-134.3 134.4l13.5-13.5 150.7 150.7-13.5 13.5c-9.1 9.1-23.9 9.1-33 0l-13.6-13.7-90.4-90.4-13.6-13.6c-9.2-9.1-9.2-23.9-.1-33zm-61.9 152.3l60.3 60.3-15.2 15.2-60.3-60.3zm-306.8-75.7c-20.1-20.1-36.1-79.7-44.4-126.1 46.5 8.2 106 24.2 126.1 44.4 30.6 30.5 37 73.7 14.5 96.3-22.5 22.5-65.7 16-96.2-14.6zm125.6 105.7l-9.8-9.8c-3.5-3.5-5.9-7.7-7.2-12.2-.8-2.7-1.2-5.4-1.2-8.2 0-7.4 2.8-14.7 8.4-20.4l19.6-19.6c5.4-5.4 12.7-8.4 20.4-8.4 7.7 0 14.9 3 20.4 8.4l9.8 9.8zm482.6 362l-60.3 60.3-30.4-30.5 60.3-60.3zm-60.6-60.6l-60.3 60.3-210.7-210.7-90.4-90.5-30.4-30.4 60.3-60.3 30.4 30.4 90.5 90.4zm-210.7-361.5l30.3-30.3 60.3 60.3-30.3 30.3z"/><path d="M298.8 650.425c-.3-1.4-.7-2.7-1.2-4-.5-1.3-1.2-2.5-2-3.7-.8-1.2-1.7-2.3-2.6-3.3-1-1-2.1-1.9-3.3-2.6-1.1-.8-2.4-1.4-3.7-2-1.3-.5-2.6-.9-4-1.2-6.9-1.4-14.3.9-19.2 5.8-4 4-6.2 9.5-6.2 15.1 0 1.4.1 2.8.4 4.2.3 1.4.7 2.7 1.2 4 .5 1.3 1.2 2.5 2 3.7.8 1.2 1.7 2.2 2.6 3.2 4 4 9.5 6.3 15.1 6.3 1.4 0 2.8-.2 4.2-.4 1.4-.3 2.7-.7 4-1.2 1.3-.5 2.5-1.2 3.7-2 1.2-.8 2.3-1.6 3.3-2.6s1.9-2.1 2.6-3.2c.8-1.2 1.4-2.4 2-3.7.5-1.3 1-2.6 1.2-4 .3-1.4.4-2.7.4-4.2-.1-1.4-.3-2.8-.5-4.2z"/></g></symbol><symbol id="drill" viewBox="0 0 512 364.47501"><path d="M503.322 104.135l-8.678-77.234c0-10.414-7.81-18.224-18.224-18.224H208.271v90.251c0 28.637 19.959 53.803 47.729 59.878 42.522 9.546 87.647 9.546 130.169 0l47.729-11.281v137.98c0 12.149-4.339 23.431-13.017 31.241l-3.471 3.471c-6.075 6.075-9.546 14.753-9.546 23.431v5.207c0 8.678 6.942 15.62 15.62 15.62h71.16c9.546 0 17.356-7.81 17.356-17.356V234.305z" fill="#f4ba48"/><path d="M104.136 86.779H8.678C3.471 86.779 0 83.308 0 78.101c0-5.207 3.471-8.678 8.678-8.678h95.458c5.207 0 8.678 3.471 8.678 8.678 0 5.207-3.472 8.678-8.678 8.678" fill="#c3c7cb"/><g fill="#565656"><path d="M173.559 121.491h-43.39c-14.753 0-26.034-11.281-26.034-26.034V60.745c0-14.753 11.281-26.034 26.034-26.034h43.39zM173.559 190.915h34.712V0h-34.712z"/></g><path d="M225.627 364.474h-69.424l8.678-17.356V225.627l-17.356-34.712h86.78l-17.356 34.712v121.492z" fill="#c3c7cb"/><g fill="#565656"><path d="M451.254 52.068h-52.068c-5.207 0-8.678-3.471-8.678-8.678 0-5.207 3.471-8.678 8.678-8.678h52.068c5.207 0 8.678 3.471 8.678 8.678 0 5.207-3.471 8.678-8.678 8.678M451.254 86.779h-52.068c-5.207 0-8.678-3.471-8.678-8.678 0-5.207 3.471-8.678 8.678-8.678h52.068c5.207 0 8.678 3.471 8.678 8.678 0 5.207-3.471 8.678-8.678 8.678M433.898 147.525l-43.39 10.414 17.356 59.01h26.034zM251.661 43.39v69.424h69.424c0-34.713-34.712-69.424-69.424-69.424M477.288 269.017c-5.207 0-8.678 3.471-8.678 8.678 0 5.207 3.471 8.678 8.678 8.678H512v-17.356zM477.288 303.729c-5.207 0-8.678 3.471-8.678 8.678 0 5.207 3.471 8.678 8.678 8.678H512v-17.356z"/></g></symbol><symbol id="gift" viewBox="0 0 535.90004 595.40001"><path d="M506.1 148.8H401.2c8.9-3.3 16.5-6.7 22.2-10 35.6-20.5 47.8-66.1 27.2-101.6C436.8 13.3 411.8 0 386.1 0c-12.6 0-25.4 3.2-37.1 10-22.2 12.8-60.5 49.9-81 84.6-20.6-34.7-58.8-71.8-81-84.6-11.7-6.8-24.5-10-37.1-10-25.7 0-50.7 13.3-64.5 37.2-20.5 35.6-8.4 81.1 27.2 101.6 5.7 3.3 13.3 6.7 22.2 10h-105C13.4 148.8 0 162.1 0 178.6v89.3c0 16.4 13.3 29.8 29.8 29.8v267.9c0 16.4 13.3 29.8 29.8 29.8h416.7c16.4 0 29.8-13.3 29.8-29.8v-268c16.4 0 29.8-13.3 29.8-29.8v-89.3c-.1-16.4-13.4-29.7-29.8-29.7zm-142.2-113c6.8-3.9 14.5-6 22.3-6 15.9 0 30.8 8.6 38.7 22.3 12.3 21.3 5 48.7-16.3 61-16.9 9.7-64.6 23.9-100.9 23.9-13.6 0-21-2.1-24.1-3.4.3-20.3 48.4-79.5 80.3-97.8zM178.6 565.5h-119V297.6h119.1zm0-297.6H29.8v-89.3h148.8zm-51.2-154.8c-21.3-12.3-28.7-39.7-16.3-61 7.9-13.8 22.8-22.3 38.7-22.3 7.8 0 15.5 2.1 22.2 6 31.8 18.4 80 77.5 80.3 97.8-3 1.4-10.5 3.4-24.1 3.4-36.3 0-83.9-14.2-100.8-23.9zm200.1 452.4H208.4V178.6h119.1zm148.8 0H357.2V297.6h119.1zm29.8-297.6H357.2v-89.3H506v89.3z" fill="#fff"/></symbol><symbol id="groceries" viewBox="0 0 42.999489 54.820724"><path d="M5.307 19.914c-.335 0-.663-.17-.852-.476-.614-.995-1.76-2.146-3.078-2.104-.56-.03-1.014-.418-1.03-.97a1 1 0 0 1 .97-1.03c2.106-.063 3.903 1.534 4.84 3.055a.999.999 0 0 1-.849 1.525z" fill="#436b1c"/><path d="M25.774 6.598A3.746 3.746 0 0 0 22.04 3.11h-.018a2.31 2.31 0 0 0-.08-.93C21.674 1.265 20.87.563 19.924.45a2.402 2.402 0 0 0-1.987.68 2.653 2.653 0 0 0-1.787-.7c-1.48 0-2.677 1.2-2.677 2.677v.013a3.478 3.478 0 0 0-3.213 3.467c0 .28.037.55.1.812a4.014 4.014 0 0 0-3.848 4.008c0 .732.2 1.416.54 2.007a2.943 2.943 0 0 0-1.076 2.276c0 .838.355 1.59.917 2.124 2.412-1.97 4.946 4.62 7.93 9.884.99 1.75 11.698-.113 12.55.973.973-.874 1.6-16.094 1.628-17.43a4.82 4.82 0 0 0-3.226-4.645z" fill="#88c057"/><path d="M27.143 26.534l.713-.427a4.165 4.165 0 0 1 4.287 0l.713.427a4.165 4.165 0 0 0 4.287 0l2.015-.896a51.57 51.57 0 0 0 .584-1.69c1.88-6.046 3.09-12.413 3.256-18.764.066-2.554-2.046-6.537-5.555-4.727-3.45 1.778-5.92 8.597-7.655 11.835-2.466 4.6-4.416 9.605-5.805 14.704a4.16 4.16 0 0 0 3.16-.462z" fill="#eeaf4b"/><path d="M1.145 25.507l1.345.807a4.878 4.878 0 0 0 5.02 0l.346-.208a4.165 4.165 0 0 1 4.287 0l.713.427a4.15 4.15 0 0 0 2.53.568c.64-2.066.426-4.65-.566-6.4-3.336-5.884-6.11-4.685-8.78-2.13-.513.49-1.14.85-1.82 1.044-2.93.837-5.09 2.206-3.86 5.934a.703.703 0 0 1 .785-.04z" fill="#ed3f32"/><path d="M29.682 24.357a1 1 0 0 1-.946-1.323 3.772 3.772 0 0 1 4.768-2.35c.92.312 1.92-.182 2.232-1.1a1.001 1.001 0 0 1 1.894.643 3.764 3.764 0 0 1-4.768 2.35 1.766 1.766 0 0 0-2.232 1.1 1 1 0 0 1-.948.68zm2.365-6.967a1 1 0 0 1-.946-1.323c.324-.95.998-1.72 1.898-2.163.9-.444 1.92-.51 2.87-.188.922.314 1.92-.18 2.233-1.1a1 1 0 1 1 1.894.641 3.766 3.766 0 0 1-4.768 2.353 1.753 1.753 0 0 0-1.344.088c-.42.208-.736.567-.888 1.013a.998.998 0 0 1-.947.68zm2.366-6.968a1.002 1.002 0 0 1-.946-1.323 3.306 3.306 0 0 1 4.185-2.064 1.294 1.294 0 0 0 1.65-.811 1 1 0 1 1 1.894.642 3.283 3.283 0 0 1-1.665 1.9 3.283 3.283 0 0 1-2.522.163 1.301 1.301 0 0 0-1.648.814 1 1 0 0 1-.947.678z" fill="#a46f3e"/><path d="M17.46 14.096c-.945 1.257-2.436 2.745-1.862 5.373l1.544 7.064.714-.427a4.165 4.165 0 0 1 4.287 0l.713.427c.58.348 1.127.463 1.127.463a72.207 72.207 0 0 1 4.052-11.18c-.774-1.935-2.427-2.583-3.627-3.246l-.02-.01c-.76-.435-.806-1.474-.235-2.136.225-.26.33-.62.25-.98l-.12-.552a1.134 1.134 0 0 0-1.346-.863L16.86 9.354c-.608.133-.996.74-.863 1.346l.12.553c.08.368.335.653.657.792.74.32 1.19 1.144.812 1.855a1.547 1.547 0 0 1-.126.196z" fill="#dae7ef"/><path d="M23.836 10.9l-6.88 1.503a1.418 1.418 0 0 1-1.682-1.08l-.1-.45a1.42 1.42 0 0 1 1.08-1.684l6.88-1.504a1.418 1.418 0 0 1 1.682 1.08l.1.45a1.42 1.42 0 0 1-1.08 1.684z" fill="#fff"/><path d="M40.906 25.333l-1.745 25.03a4.697 4.697 0 0 1-4.692 4.458H6.398a4.699 4.699 0 0 1-4.694-4.458L0 26.154a.713.713 0 0 1 1.078-.647l1.345.807a4.878 4.878 0 0 0 5.02 0l.346-.208a4.163 4.163 0 0 1 4.286 0l.713.428a4.163 4.163 0 0 0 4.286 0l.713-.428a4.163 4.163 0 0 1 4.286 0l.713.428a4.163 4.163 0 0 0 4.286 0l.713-.428a4.163 4.163 0 0 1 4.286 0l.713.428a4.163 4.163 0 0 0 4.286 0l3.387-1.505a.314.314 0 0 1 .443.303z" fill="#fbd490"/><path d="M12 42H5a1 1 0 1 1 0-2h7a1 1 0 0 1 0 2zm2 4H5a1 1 0 1 1 0-2h9a1 1 0 0 1 0 2zm2 4H5a1 1 0 1 1 0-2h11a1 1 0 0 1 0 2zm6 0h-2a1 1 0 1 1 0-2h2a1 1 0 0 1 0 2z" fill="#e0b877"/></symbol><symbol id="info" viewBox="0 0 2074 4009"><g fill="#fff"><path d="M1940 1327H134c-72 0-134 57-134 134 0 76 57 134 134 134h771v2146H426c-72 0-134 57-134 134 0 76 58 134 134 134h1222c71 0 134-58 134-134 0-77-58-134-134-134h-479V1595h771c72 0 134-58 134-134 0-77-62-134-134-134zM1035 939c258 0 469-211 469-470 0-258-211-469-469-469-259 0-470 211-470 469 0 259 211 470 470 470zm0-676c115 0 205 91 205 206s-91 206-205 206c-115 0-206-91-206-206s95-206 206-206z"/></g></symbol><symbol id="korob" viewBox="0 0 106 120"><path d="M106 11.5L24.5 0l-1 .2L1.4 10.6C.6 11 0 11.8 0 12.8V112c0 1.1.7 2.1 1.8 2.3l21.8 5.6v.1h.4v-.1l81.9-13.2V11.5zM4.9 110.1V14.2L23.7 5v109.9zm96.3-7.4l-72.7 11.7V5.4l72.7 10.3z" fill="#1a9f29"/><g fill="#ff9100"><path d="M80.3 31.2c-3.7-4.6-8.9-7.4-14.4-8.1-5.8-.7-11.7 1.3-16 5.3-4.6 4.2-7.2 10.3-7.2 16.7 0 4.2 1.1 8.4 3.1 12 2 3.6 4.8 6.5 8.2 8.6.2.7.3 1.3.5 2s.3 1.3.5 2c.2.9 1 1.5 1.9 1.5h.1c3-.1 6-.3 8.9-.4h.9c2.6-.1 5.1-.3 7.6-.4.8 0 1.6-.7 1.8-1.6.1-.7.3-1.3.4-2 .1-.6.3-1.2.4-1.8 2.8-2 5.1-4.8 6.7-8 1.6-3.2 2.4-6.8 2.4-10.4-.2-5.5-2.2-11-5.8-15.4zM47 45.3c0-5.2 2.1-10.2 5.8-13.6 3.1-2.9 7.1-4.5 11.3-4.5.6 0 1.2 0 1.7.1 4.6.5 8.8 2.8 11.9 6.5 3 3.6 4.6 8.2 4.6 12.9 0 6.3-3.1 12.3-8.1 15.5-.4.3-.8.7-.9 1.3-.1.6-.2 1.1-.4 1.6l-.3 1.5c-2.3.1-4.6.2-7 .2-2.4.1-4.9.2-7.3.2-.1-.6-.3-1.2-.4-1.7-.1-.5-.2-1-.4-1.5-.1-.6-.5-1-.9-1.3-5.8-3.4-9.6-10.1-9.6-17.2zm9.8 25.8zm.1 7.7l3.9-.3c1.7-.1 3.4-.2 5.1-.4 2.9-.2 5.7-.4 8.4-.6 1-.1 1.9-1 1.9-2.1s-.8-1.9-1.8-1.9h-.7c-2.6.2-5.2.3-7.8.5l-1.3.1c-2.5.1-5.1.3-7.7.5-1.1.1-2 1-2 2.2 0 .5.2 1 .5 1.4.4.4.8.6 1.3.6h.2z"/><path d="M60.5 62.2c.2.9 1 1.6 1.9 1.6h.1c.1 0 .2 0 .3-.1 1-.3 1.7-1.4 1.4-2.5-.3-1.1-.5-2.1-.8-3.2-.2-1-.4-1.9-.7-2.9h5.9c-.2.9-.4 1.9-.7 2.8-.3 1.1-.5 2.2-.8 3.3-.2 1.1.4 2.2 1.4 2.4h.4c.9 0 1.6-.7 1.8-1.6l.2-1.1c.6-2.5 1.1-5 1.7-7.4v-1.1l-.1-.1v-.2l-.2-.2s0-.1-.1-.1v-.2h.2l-.1-.1v-.2h-.2l-.2-.1h-.4l-5.7-.1c-.9 0-1.8 0-2.7-.1-.9 0-1.9 0-2.8-.1-.6 0-1.2.3-1.6.8-.4.5-.5 1.1-.4 1.8.8 3 1.5 6.1 2.2 8.7zM75 80l-8.9.8h-.5l-9.2.8-1.6.1v8.7l.1.5c.3 1.6 1 3 2 4l.2.2.2.2c1.2 1 2.7 1.6 4.2 1.6h.9l.5-.1 6.6-.8.5-.1c1.7-.3 3.3-1.2 4.5-2.6l.2-.2.2-.2c1.1-1.5 1.8-3.2 1.8-5v-8zm-2 7.7c0 1.1-.4 2.2-1.1 3.1l-.1.1v.1c-.7.8-1.6 1.3-2.6 1.5l-7.1.9h-.5c-.8 0-1.6-.3-2.2-.8-.6-.5-1-1.3-1.1-2.2V85.2L73 83.9z"/></g></symbol><symbol id="logo-footer" viewBox="0 0 322.58005 124.69999"><g fill="#1d9f49"><path d="M298.4 33.3l-5-4.3.6-.9c.6-.9 1.2-1.9 1.1-3.2v-.3c-.4-1.3-9.8-6.5-11-6.5h-.2l-.4.1c-1.1.6-2 2-2.5 3.3-1-.3-2.2-.7-3.3-1.2-1.4-.5-2.8-1.1-4.3-1.5-3.6-.9-6.8-1.4-9.8-1.7-1.4-.1-2.9-.2-4.3-.2-5.6 0-11 .8-16.4 2.5-6.7 2.1-11.4 4.9-15.5 7.6-1.1.7-2.2 1.5-3.3 2.4-1.1.9-6.9 5.7-8.7 9.1l-.8 1.5h1.7c2.7-.1 5.7-.1 9.3-.1h11.1c1.8 0 2.3-.2 3.1-1 .2-.2.4-.4.7-.6.5-.4.9-.7 1.3-1 2.6-2 3.7-2.9 7.9-4.7 4.4-1.8 9-2.7 13.7-2.7 6.1 0 12.5 1.6 18.4 4.5 13.7 6.9 21.9 19.5 23.1 35.7 1.1 13.9-2.5 25.7-10.4 34.1-7.8 8.4-19.6 13.2-32.5 13.2-17.4 0-40.8-9.1-49.6-34.8l-2-5.7v6c0 1.2.3 2.3.7 3.3.2.6.4 1.2.5 1.8v.1c.7 2.4 1.6 4.7 2.8 7.2 8.9 18.7 25.5 29.4 45.5 29.4 14.9 0 29.4-6.1 39.7-16.7 10-10.2 15-23.5 14.6-38.4-.5-13.1-6.2-26.5-15.8-36.3zm-18.1-22.4c.9 1 3.9 2.5 4.6 2.6l.5.1.4-.4c.3-.3.4-.4.5-.6 1.6.8 3.8 2.2 6 3.5 2.4 1.5 4.8 3 6.7 3.9l-.6 1.6.5.4c1 .9 3.4 2.4 5.1 2.7l.7.1 5.7-9.9-.4-.5c-.4-.6-.8-.9-1-1.1-.3-.2-.4-.3-.7-1.4-2.5-7.5-11-11.6-17.7-11.6h-.4c-1.2 0-1.9 0-2.6-.1-.5-.1-1.1-.1-1.8-.1h-.5l-.3.4c-.9 1.1-4.7 7.4-5.1 9.1l-.1.4.2.4c.1.4.2.5.3.5z"/><path d="M291 75.4l-20.9-4 10.4-30.8-23.7 25.8v15.2m2.3-67.6h11.6l.3-.7c1.7-4.6.6-7.6-.6-9.4-1.7-2.4-4.8-3.9-8.3-3.9-3.6 0-6.8 1.5-8.5 4-1.2 1.7-2.2 4.7-.6 9.2.3.7.4.8 6.1.8zm63.4 26.7c-.5-4.5-4.5-9.2-9.5-9.2-1.9 0-4.7.8-7.3 4.3l-.1.1c-.4.7-.4.7 5.2 9 1.5 2.1 2.8 4.2 3.1 4.6l.4.7.7-.2c5.3-1.3 8.1-4.7 7.5-9.3z"/></g><path d="M4.8 70.5c0 .4-.1.6-.2.7-.1.1-.4.1-.7.1h-3c-.3 0-.5-.1-.7-.2-.2-.1-.2-.3-.2-.7V45.8c0-.7.2-1.3.5-1.7.3-.4.9-.6 1.7-.6h9.4c1.3 0 2.5.2 3.6.6 1.1.4 2 1 2.8 1.7.8.7 1.4 1.6 1.8 2.7.4 1 .6 2.2.6 3.4 0 .7-.1 1.6-.3 2.5-.2 1-.7 1.9-1.3 2.9-.7.9-1.6 1.7-2.8 2.3-1.2.6-2.8 1-4.8 1H4.8zm10.7-18.1c0-.4-.1-.9-.2-1.5-.1-.5-.4-1-.7-1.4-.4-.4-.8-.8-1.5-1.1-.6-.3-1.4-.4-2.4-.4H4.8v8.7h5.9c1.7 0 2.9-.4 3.6-1.2.8-.8 1.2-1.8 1.2-3.1zm28 18.7c-.1.2-.3.2-.7.2H31.6c-1.4 0-2.5-.2-3.4-.6-.9-.4-1.6-.9-2.1-1.6-.5-.7-.9-1.4-1.1-2.2-.2-.8-.3-1.7-.3-2.6V50.8c0-.9.1-1.8.4-2.7.2-.9.7-1.6 1.2-2.3.6-.7 1.3-1.2 2.2-1.6.9-.4 2-.6 3.2-.6h11c.3 0 .6.1.6.2.1.1.1.4.1.7V47c0 .3 0 .6-.1.7-.1.1-.3.2-.6.2H32.1c-1 0-1.7.2-2.1.7-.4.4-.6 1.1-.6 1.9v4.1h11.9c.3 0 .6.1.6.2.1.1.1.4.1.7v2.2c0 .3 0 .5-.1.7-.1.1-.3.2-.6.2H29.4v5.7c0 .8.2 1.5.6 1.9.4.4 1.1.6 2.1.6h10.7c.4 0 .6.1.7.2.1.1.1.4.1.8v2.5c.1.4 0 .6-.1.8zM63 56.6c.7.2 1.2.5 1.7.8.4.3.8.7 1.1 1.1.3.4.5.9.7 1.3.2.5.3 1 .5 1.6l2.4 9.1c.1.1.1.3 0 .5 0 .2-.2.3-.6.3h-3.5c-.1 0-.3 0-.4-.1-.2-.1-.3-.2-.4-.5l-2.4-8.6c-.4-1.4-1-2.4-1.8-2.8-.8-.5-1.8-.7-3.2-.7h-4.4v12c0 .3-.1.5-.2.5-.1.1-.3.1-.6.1h-3.3c-.2 0-.4 0-.5-.1-.1-.1-.2-.2-.2-.5V44.3c0-.3.1-.5.2-.5s.3-.1.5-.1H52c.3 0 .4 0 .6.1.1.1.1.2.1.5v10.3h4.2c.4 0 .8 0 1.3-.1.4-.1.9-.2 1.3-.5s.8-.6 1.2-1.1c.4-.5.7-1.2.9-2l1.7-6.7c.1-.3.2-.4.3-.5.2-.1.3-.1.5-.1h3.2c.3 0 .5.1.6.3v.5l-1.7 7c-.3 1.1-.7 2.1-1.2 2.9-.5.8-1.2 1.5-2.1 2v.3zm14.1-10.2c.1-.9.3-1.6.7-2 .4-.4 1-.6 1.8-.6h12.9c1.7 0 2.5.9 2.5 2.6v24.2c0 .3-.1.5-.2.6-.1.1-.3.1-.6.1h-3.3c-.3 0-.5 0-.6-.1-.1-.1-.2-.3-.2-.6V47.9h-8.7l-.2 3.4c-.2 2.9-.4 5.6-.6 7.9-.2 2.3-.6 4.3-1.2 6-.5 1.7-1.3 3.1-2.4 4.2-1 1.1-2.5 1.9-4.3 2.5-.3.1-.5 0-.6 0-.2-.1-.3-.2-.4-.5l-.8-2.3c-.1-.2-.1-.4 0-.6 0-.2.2-.3.5-.4 1.1-.5 2-1.1 2.6-1.8.6-.7 1.1-1.7 1.4-3 .3-1.2.6-2.8.8-4.6.2-1.8.4-4.1.6-6.9zm38.5 18.9h-10l-1.7 5.4c-.1.2-.2.4-.3.5-.1.1-.4.2-.7.2h-3.6c-.3 0-.5-.1-.6-.3-.1-.2-.1-.4 0-.6l8.5-24.9c.1-.4.3-.7.4-.9.1-.2.3-.4.5-.6.2-.1.4-.2.7-.3.3-.1.6-.1.9-.1h1.7c.8 0 1.4.1 1.7.4.3.3.6.8.9 1.5l8.5 24.9c.1.2.1.4 0 .6-.1.2-.2.3-.5.3h-3.6c-.3 0-.5 0-.7-.1-.2-.1-.3-.2-.4-.5zm-8.8-4.1h7.6l-2-6.6-1.7-5.6h-.2l-1.6 5.5zm41.9-8.9h-.2l-2.1 5.4-3.5 8.7c-.3.7-.6 1.1-.8 1.4-.3.2-.7.4-1.4.4h-1.9c-.7 0-1.1-.1-1.4-.4-.3-.2-.5-.7-.8-1.4l-3.5-8.3-2.1-5.3h-.2v17.7c0 .4-.1.6-.2.7-.1.1-.4.1-.7.1h-2.8c-.3 0-.5 0-.7-.1-.2-.1-.2-.3-.2-.7V46.1c0-.8.2-1.4.5-1.8.3-.4.9-.6 1.8-.6h1.6c.7 0 1.2.1 1.5.4.3.2.7.7.9 1.4l4.7 11.5 2.4 6.1h.2l2.4-6.1 4.6-11.5c.3-.7.6-1.2 1-1.4.4-.2.9-.4 1.6-.4h1.5c.8 0 1.4.2 1.8.6.3.4.5 1 .5 1.8v24.4c0 .4-.1.6-.2.7-.1.1-.4.1-.7.1h-2.8c-.3 0-.5 0-.6-.1-.1-.1-.2-.3-.2-.7zm32.1 18.9c-.1.1-.4.1-.7.1h-3c-.3 0-.5-.1-.7-.2-.1-.1-.2-.3-.2-.7V58.8H164v11.6c0 .4-.1.6-.2.7-.1.1-.4.1-.7.1h-3c-.3 0-.5-.1-.7-.2-.2-.1-.2-.3-.2-.7V44.6c0-.3.1-.6.2-.7.2-.1.4-.2.7-.2h3c.4 0 .6 0 .7.1.1.1.2.3.2.7v10.2h12.2V44.6c0-.3.1-.6.2-.7.1-.1.4-.2.7-.2h3c.4 0 .6 0 .7.1.1.1.2.3.2.7v25.9c0 .5 0 .7-.2.8zm29.3-13.8c0 4.6-1 8.1-3 10.6s-5 3.7-9.1 3.7c-4 0-6.9-1.2-8.9-3.6-2-2.4-3-5.9-3-10.6 0-2.3.3-4.3.9-6 .6-1.8 1.4-3.2 2.5-4.5 1.1-1.2 2.3-2.2 3.8-2.8 1.5-.6 3.1-1 4.8-1 2 0 3.7.3 5.2 1 1.5.6 2.8 1.6 3.8 2.8 1 1.2 1.8 2.7 2.3 4.4.5 1.7.7 3.8.7 6zm-5 .2c0-1.3-.1-2.6-.3-3.8-.2-1.2-.6-2.3-1.1-3.2-.5-.9-1.2-1.6-2.1-2.2-.9-.5-2.1-.8-3.5-.8-1.2 0-2.3.3-3.1.8-.9.5-1.6 1.2-2.2 2.1-.6.9-1 1.9-1.3 3.1-.3 1.2-.4 2.4-.4 3.8 0 1.5.1 2.9.3 4.1.2 1.2.6 2.3 1.2 3.2.6.9 1.3 1.6 2.2 2 .9.5 2 .7 3.4.7 1.3 0 2.5-.3 3.4-.8.9-.6 1.6-1.3 2.2-2.2.6-.9.9-1.9 1.2-3.1 0-1.2.1-2.4.1-3.7zm29 13.5c-.1.2-.3.2-.7.2h-11.2c-1.4 0-2.5-.2-3.4-.6-.9-.4-1.6-.9-2.1-1.6-.5-.7-.9-1.4-1.1-2.2-.2-.8-.3-1.7-.3-2.6V50.8c0-.9.1-1.8.4-2.7.2-.9.7-1.6 1.2-2.3.6-.7 1.3-1.2 2.2-1.6.9-.4 2-.6 3.2-.6h11c.3 0 .6.1.6.2.1.1.1.4.1.7V47c0 .3 0 .6-.1.7-.1.1-.3.2-.6.2h-10.5c-1 0-1.7.2-2.1.7-.4.4-.6 1.1-.6 1.9v4.1H232c.3 0 .6.1.6.2.1.1.1.4.1.7v2.2c0 .3 0 .5-.1.7-.1.1-.3.2-.6.2h-11.9v5.7c0 .8.2 1.5.6 1.9.4.4 1.1.6 2.1.6h10.7c.4 0 .6.1.7.2.1.1.1.4.1.8v2.5c0 .4-.1.6-.2.8zM96.4 89.6c.7.3 1.4.7 1.9 1.2.6.5 1 1 1.3 1.6.3.6.6 1.2.8 1.9.2.7.3 1.4.3 2.1 0 1.2-.2 2.4-.7 3.4-.5 1-1.1 1.9-2 2.6-.8.7-1.8 1.3-2.9 1.7-1.1.4-2.3.6-3.6.6h-9.6c-.8 0-1.4-.2-1.7-.5-.3-.4-.5-.9-.5-1.7V79.4c0-.8.2-1.3.5-1.7.3-.4.9-.6 1.7-.6H91c1.2 0 2.3.1 3.4.4 1 .3 1.9.7 2.7 1.2.7.6 1.3 1.3 1.8 2.1.4.9.6 1.9.6 3.1 0 1.2-.3 2.3-.9 3.2-.6.9-1.3 1.7-2.2 2.2zm-11.9-1.7h6.4c.4 0 .8 0 1.2-.1.4-.1.8-.3 1.2-.5.4-.2.7-.6.9-1 .2-.4.4-1 .4-1.7 0-.9-.3-1.7-.9-2.2-.6-.6-1.5-.8-2.5-.8h-6.6v6.3zm11.3 8.2c0-1.3-.4-2.3-1.2-3.1-.8-.8-2-1.2-3.5-1.2h-6.5v8.6h6.5c.9 0 1.7-.1 2.3-.4.6-.3 1.1-.6 1.5-1 .4-.4.6-.9.8-1.4 0-.5.1-1 .1-1.5zm14.8 7.8c0 .4-.1.6-.2.7-.1.1-.4.1-.7.1h-3c-.3 0-.5-.1-.7-.2-.2-.1-.2-.3-.2-.7V79.2c0-.7.2-1.3.5-1.7.3-.4.9-.6 1.7-.6h9.4c1.3 0 2.5.2 3.6.6 1.1.4 2 1 2.8 1.7.8.7 1.4 1.6 1.8 2.7.4 1 .6 2.2.6 3.4 0 .7-.1 1.6-.3 2.5-.2 1-.7 1.9-1.3 2.9-.7.9-1.6 1.7-2.8 2.3-1.2.6-2.8 1-4.8 1h-6.4zm10.7-18c0-.4-.1-.9-.2-1.5-.1-.5-.4-1-.7-1.4-.4-.4-.8-.8-1.5-1.1-.6-.3-1.4-.4-2.4-.4h-5.8v8.7h5.9c1.7 0 2.9-.4 3.6-1.2.7-.8 1.1-1.9 1.1-3.1zm28 18.6c-.1.2-.3.2-.7.2h-11.2c-1.4 0-2.5-.2-3.4-.6-.9-.4-1.6-.9-2.1-1.6-.5-.7-.9-1.4-1.1-2.2-.2-.8-.3-1.7-.3-2.6V84.2c0-.9.1-1.8.4-2.7.2-.9.7-1.6 1.2-2.3.6-.7 1.3-1.2 2.2-1.6.9-.4 2-.6 3.2-.6h11c.3 0 .6.1.6.2.1.1.1.4.1.7v2.5c0 .3 0 .6-.1.7-.1.1-.3.2-.6.2H138c-1 0-1.7.2-2.1.7-.4.4-.6 1.1-.6 1.9V88h11.9c.3 0 .6.1.6.2.1.1.1.4.1.7v2.2c0 .3 0 .5-.1.7-.1.1-.3.2-.6.2h-11.9v5.7c0 .8.2 1.5.6 1.9.4.4 1.1.6 2.1.6h10.7c.4 0 .6.1.7.2.1.1.1.4.1.8v2.5c0 .4 0 .7-.2.8zm27.2-18.7h-.2l-2.1 5.4-3.5 8.7c-.3.7-.6 1.1-.8 1.4-.3.2-.7.4-1.4.4h-1.8c-.7 0-1.1-.1-1.4-.4-.3-.2-.5-.7-.8-1.4l-3.5-8.3-2.1-5.3h-.2V104c0 .4-.1.6-.2.7-.1.1-.4.1-.7.1H155c-.3 0-.5 0-.7-.1-.2-.1-.2-.3-.2-.7V79.6c0-.8.2-1.4.5-1.8.3-.4.9-.6 1.8-.6h1.6c.7 0 1.2.1 1.5.4.3.2.7.7.9 1.4l4.7 11.5 2.4 6.1h.2l2.4-6.1 4.6-11.5c.3-.7.6-1.2 1-1.4.4-.2.9-.4 1.6-.4h1.5c.8 0 1.4.2 1.8.6.3.4.5 1 .5 1.8V104c0 .4-.1.6-.2.7-.1.1-.4.1-.7.1h-2.8c-.3 0-.5 0-.6-.1-.1-.1-.2-.3-.2-.7V85.8zm25.4 7.5h-4.6c-1.3 0-2.3.3-3.1.7-.8.4-1.4 1.4-1.8 2.8l-1.9 7.2c-.1.3-.2.5-.4.6-.2.1-.4.1-.6.1H186c-.3 0-.5-.1-.6-.3v-.6l2.1-7.8c.3-1 .6-1.8 1.2-2.5.5-.7 1.3-1.2 2.4-1.6-1.5-.6-2.6-1.5-3.3-2.7-.7-1.2-1.1-2.6-1.1-4.2 0-1.2.2-2.3.6-3.2.4-1 1-1.8 1.8-2.5s1.7-1.3 2.7-1.7c1.1-.4 2.3-.6 3.6-.6h9.2c.8 0 1.4.2 1.7.6.3.4.5.9.5 1.7V104c0 .3-.1.5-.2.5-.1.1-.3.1-.6.1h-3.3c-.3 0-.5 0-.6-.1-.1-.1-.2-.2-.2-.5zm-10.4-7.9c0 1.1.4 2 1.1 2.8.7.7 1.9 1.1 3.5 1.1h5.8v-7.8h-6.1c-.9 0-1.6.1-2.2.4-.6.3-1 .6-1.3 1-.3.4-.5.8-.6 1.3-.1.4-.2.8-.2 1.2z" fill="#fff"/></symbol><symbol id="logo" viewBox="0 0 322.58005 124.69999"><g fill="#1d9f49"><path d="M298.4 33.3l-5-4.3.6-.9c.6-.9 1.2-1.9 1.1-3.2v-.3c-.4-1.3-9.8-6.5-11-6.5h-.2l-.4.1c-1.1.6-2 2-2.5 3.3-1-.3-2.2-.7-3.3-1.2-1.4-.5-2.8-1.1-4.3-1.5-3.6-.9-6.8-1.4-9.8-1.7-1.4-.1-2.9-.2-4.3-.2-5.6 0-11 .8-16.4 2.5-6.7 2.1-11.4 4.9-15.5 7.6-1.1.7-2.2 1.5-3.3 2.4-1.1.9-6.9 5.7-8.7 9.1l-.8 1.5h1.7c2.7-.1 5.7-.1 9.3-.1h11.1c1.8 0 2.3-.2 3.1-1 .2-.2.4-.4.7-.6.5-.4.9-.7 1.3-1 2.6-2 3.7-2.9 7.9-4.7 4.4-1.8 9-2.7 13.7-2.7 6.1 0 12.5 1.6 18.4 4.5 13.7 6.9 21.9 19.5 23.1 35.7 1.1 13.9-2.5 25.7-10.4 34.1-7.8 8.4-19.6 13.2-32.5 13.2-17.4 0-40.8-9.1-49.6-34.8l-2-5.7v6c0 1.2.3 2.3.7 3.3.2.6.4 1.2.5 1.8v.1c.7 2.4 1.6 4.7 2.8 7.2 8.9 18.7 25.5 29.4 45.5 29.4 14.9 0 29.4-6.1 39.7-16.7 10-10.2 15-23.5 14.6-38.4-.5-13.1-6.2-26.5-15.8-36.3zm-18.1-22.4c.9 1 3.9 2.5 4.6 2.6l.5.1.4-.4c.3-.3.4-.4.5-.6 1.6.8 3.8 2.2 6 3.5 2.4 1.5 4.8 3 6.7 3.9l-.6 1.6.5.4c1 .9 3.4 2.4 5.1 2.7l.7.1 5.7-9.9-.4-.5c-.4-.6-.8-.9-1-1.1-.3-.2-.4-.3-.7-1.4-2.5-7.5-11-11.6-17.7-11.6h-.4c-1.2 0-1.9 0-2.6-.1-.5-.1-1.1-.1-1.8-.1h-.5l-.3.4c-.9 1.1-4.7 7.4-5.1 9.1l-.1.4.2.4c.1.4.2.5.3.5z"/><path d="M291 75.4l-20.9-4 10.4-30.8-23.7 25.8v15.2m2.3-67.6h11.6l.3-.7c1.7-4.6.6-7.6-.6-9.4-1.7-2.4-4.8-3.9-8.3-3.9-3.6 0-6.8 1.5-8.5 4-1.2 1.7-2.2 4.7-.6 9.2.3.7.4.8 6.1.8zm63.4 26.7c-.5-4.5-4.5-9.2-9.5-9.2-1.9 0-4.7.8-7.3 4.3l-.1.1c-.4.7-.4.7 5.2 9 1.5 2.1 2.8 4.2 3.1 4.6l.4.7.7-.2c5.3-1.3 8.1-4.7 7.5-9.3z"/></g><path d="M4.8 70.5c0 .4-.1.6-.2.7-.1.1-.4.1-.7.1h-3c-.3 0-.5-.1-.7-.2-.2-.1-.2-.3-.2-.7V45.8c0-.7.2-1.3.5-1.7.3-.4.9-.6 1.7-.6h9.4c1.3 0 2.5.2 3.6.6 1.1.4 2 1 2.8 1.7.8.7 1.4 1.6 1.8 2.7.4 1 .6 2.2.6 3.4 0 .7-.1 1.6-.3 2.5-.2 1-.7 1.9-1.3 2.9-.7.9-1.6 1.7-2.8 2.3-1.2.6-2.8 1-4.8 1H4.8zm10.7-18.1c0-.4-.1-.9-.2-1.5-.1-.5-.4-1-.7-1.4-.4-.4-.8-.8-1.5-1.1-.6-.3-1.4-.4-2.4-.4H4.8v8.7h5.9c1.7 0 2.9-.4 3.6-1.2.8-.8 1.2-1.8 1.2-3.1zm28 18.7c-.1.2-.3.2-.7.2H31.6c-1.4 0-2.5-.2-3.4-.6-.9-.4-1.6-.9-2.1-1.6-.5-.7-.9-1.4-1.1-2.2-.2-.8-.3-1.7-.3-2.6V50.8c0-.9.1-1.8.4-2.7.2-.9.7-1.6 1.2-2.3.6-.7 1.3-1.2 2.2-1.6.9-.4 2-.6 3.2-.6h11c.3 0 .6.1.6.2.1.1.1.4.1.7V47c0 .3 0 .6-.1.7-.1.1-.3.2-.6.2H32.1c-1 0-1.7.2-2.1.7-.4.4-.6 1.1-.6 1.9v4.1h11.9c.3 0 .6.1.6.2.1.1.1.4.1.7v2.2c0 .3 0 .5-.1.7-.1.1-.3.2-.6.2H29.4v5.7c0 .8.2 1.5.6 1.9.4.4 1.1.6 2.1.6h10.7c.4 0 .6.1.7.2.1.1.1.4.1.8v2.5c.1.4 0 .6-.1.8zM63 56.6c.7.2 1.2.5 1.7.8.4.3.8.7 1.1 1.1.3.4.5.9.7 1.3.2.5.3 1 .5 1.6l2.4 9.1c.1.1.1.3 0 .5 0 .2-.2.3-.6.3h-3.5c-.1 0-.3 0-.4-.1-.2-.1-.3-.2-.4-.5l-2.4-8.6c-.4-1.4-1-2.4-1.8-2.8-.8-.5-1.8-.7-3.2-.7h-4.4v12c0 .3-.1.5-.2.5-.1.1-.3.1-.6.1h-3.3c-.2 0-.4 0-.5-.1-.1-.1-.2-.2-.2-.5V44.3c0-.3.1-.5.2-.5s.3-.1.5-.1H52c.3 0 .4 0 .6.1.1.1.1.2.1.5v10.3h4.2c.4 0 .8 0 1.3-.1.4-.1.9-.2 1.3-.5s.8-.6 1.2-1.1c.4-.5.7-1.2.9-2l1.7-6.7c.1-.3.2-.4.3-.5.2-.1.3-.1.5-.1h3.2c.3 0 .5.1.6.3v.5l-1.7 7c-.3 1.1-.7 2.1-1.2 2.9-.5.8-1.2 1.5-2.1 2v.3zm14.1-10.2c.1-.9.3-1.6.7-2 .4-.4 1-.6 1.8-.6h12.9c1.7 0 2.5.9 2.5 2.6v24.2c0 .3-.1.5-.2.6-.1.1-.3.1-.6.1h-3.3c-.3 0-.5 0-.6-.1-.1-.1-.2-.3-.2-.6V47.9h-8.7l-.2 3.4c-.2 2.9-.4 5.6-.6 7.9-.2 2.3-.6 4.3-1.2 6-.5 1.7-1.3 3.1-2.4 4.2-1 1.1-2.5 1.9-4.3 2.5-.3.1-.5 0-.6 0-.2-.1-.3-.2-.4-.5l-.8-2.3c-.1-.2-.1-.4 0-.6 0-.2.2-.3.5-.4 1.1-.5 2-1.1 2.6-1.8.6-.7 1.1-1.7 1.4-3 .3-1.2.6-2.8.8-4.6.2-1.8.4-4.1.6-6.9zm38.5 18.9h-10l-1.7 5.4c-.1.2-.2.4-.3.5-.1.1-.4.2-.7.2h-3.6c-.3 0-.5-.1-.6-.3-.1-.2-.1-.4 0-.6l8.5-24.9c.1-.4.3-.7.4-.9.1-.2.3-.4.5-.6.2-.1.4-.2.7-.3.3-.1.6-.1.9-.1h1.7c.8 0 1.4.1 1.7.4.3.3.6.8.9 1.5l8.5 24.9c.1.2.1.4 0 .6-.1.2-.2.3-.5.3h-3.6c-.3 0-.5 0-.7-.1-.2-.1-.3-.2-.4-.5zm-8.8-4.1h7.6l-2-6.6-1.7-5.6h-.2l-1.6 5.5zm41.9-8.9h-.2l-2.1 5.4-3.5 8.7c-.3.7-.6 1.1-.8 1.4-.3.2-.7.4-1.4.4h-1.9c-.7 0-1.1-.1-1.4-.4-.3-.2-.5-.7-.8-1.4l-3.5-8.3-2.1-5.3h-.2v17.7c0 .4-.1.6-.2.7-.1.1-.4.1-.7.1h-2.8c-.3 0-.5 0-.7-.1-.2-.1-.2-.3-.2-.7V46.1c0-.8.2-1.4.5-1.8.3-.4.9-.6 1.8-.6h1.6c.7 0 1.2.1 1.5.4.3.2.7.7.9 1.4l4.7 11.5 2.4 6.1h.2l2.4-6.1 4.6-11.5c.3-.7.6-1.2 1-1.4.4-.2.9-.4 1.6-.4h1.5c.8 0 1.4.2 1.8.6.3.4.5 1 .5 1.8v24.4c0 .4-.1.6-.2.7-.1.1-.4.1-.7.1h-2.8c-.3 0-.5 0-.6-.1-.1-.1-.2-.3-.2-.7zm32.1 18.9c-.1.1-.4.1-.7.1h-3c-.3 0-.5-.1-.7-.2-.1-.1-.2-.3-.2-.7V58.8H164v11.6c0 .4-.1.6-.2.7-.1.1-.4.1-.7.1h-3c-.3 0-.5-.1-.7-.2-.2-.1-.2-.3-.2-.7V44.6c0-.3.1-.6.2-.7.2-.1.4-.2.7-.2h3c.4 0 .6 0 .7.1.1.1.2.3.2.7v10.2h12.2V44.6c0-.3.1-.6.2-.7.1-.1.4-.2.7-.2h3c.4 0 .6 0 .7.1.1.1.2.3.2.7v25.9c0 .5 0 .7-.2.8zm29.3-13.8c0 4.6-1 8.1-3 10.6s-5 3.7-9.1 3.7c-4 0-6.9-1.2-8.9-3.6-2-2.4-3-5.9-3-10.6 0-2.3.3-4.3.9-6 .6-1.8 1.4-3.2 2.5-4.5 1.1-1.2 2.3-2.2 3.8-2.8 1.5-.6 3.1-1 4.8-1 2 0 3.7.3 5.2 1 1.5.6 2.8 1.6 3.8 2.8 1 1.2 1.8 2.7 2.3 4.4.5 1.7.7 3.8.7 6zm-5 .2c0-1.3-.1-2.6-.3-3.8-.2-1.2-.6-2.3-1.1-3.2-.5-.9-1.2-1.6-2.1-2.2-.9-.5-2.1-.8-3.5-.8-1.2 0-2.3.3-3.1.8-.9.5-1.6 1.2-2.2 2.1-.6.9-1 1.9-1.3 3.1-.3 1.2-.4 2.4-.4 3.8 0 1.5.1 2.9.3 4.1.2 1.2.6 2.3 1.2 3.2.6.9 1.3 1.6 2.2 2 .9.5 2 .7 3.4.7 1.3 0 2.5-.3 3.4-.8.9-.6 1.6-1.3 2.2-2.2.6-.9.9-1.9 1.2-3.1 0-1.2.1-2.4.1-3.7zm29 13.5c-.1.2-.3.2-.7.2h-11.2c-1.4 0-2.5-.2-3.4-.6-.9-.4-1.6-.9-2.1-1.6-.5-.7-.9-1.4-1.1-2.2-.2-.8-.3-1.7-.3-2.6V50.8c0-.9.1-1.8.4-2.7.2-.9.7-1.6 1.2-2.3.6-.7 1.3-1.2 2.2-1.6.9-.4 2-.6 3.2-.6h11c.3 0 .6.1.6.2.1.1.1.4.1.7V47c0 .3 0 .6-.1.7-.1.1-.3.2-.6.2h-10.5c-1 0-1.7.2-2.1.7-.4.4-.6 1.1-.6 1.9v4.1H232c.3 0 .6.1.6.2.1.1.1.4.1.7v2.2c0 .3 0 .5-.1.7-.1.1-.3.2-.6.2h-11.9v5.7c0 .8.2 1.5.6 1.9.4.4 1.1.6 2.1.6h10.7c.4 0 .6.1.7.2.1.1.1.4.1.8v2.5c0 .4-.1.6-.2.8zM96.4 89.6c.7.3 1.4.7 1.9 1.2.6.5 1 1 1.3 1.6.3.6.6 1.2.8 1.9.2.7.3 1.4.3 2.1 0 1.2-.2 2.4-.7 3.4-.5 1-1.1 1.9-2 2.6-.8.7-1.8 1.3-2.9 1.7-1.1.4-2.3.6-3.6.6h-9.6c-.8 0-1.4-.2-1.7-.5-.3-.4-.5-.9-.5-1.7V79.4c0-.8.2-1.3.5-1.7.3-.4.9-.6 1.7-.6H91c1.2 0 2.3.1 3.4.4 1 .3 1.9.7 2.7 1.2.7.6 1.3 1.3 1.8 2.1.4.9.6 1.9.6 3.1 0 1.2-.3 2.3-.9 3.2-.6.9-1.3 1.7-2.2 2.2zm-11.9-1.7h6.4c.4 0 .8 0 1.2-.1.4-.1.8-.3 1.2-.5.4-.2.7-.6.9-1 .2-.4.4-1 .4-1.7 0-.9-.3-1.7-.9-2.2-.6-.6-1.5-.8-2.5-.8h-6.6v6.3zm11.3 8.2c0-1.3-.4-2.3-1.2-3.1-.8-.8-2-1.2-3.5-1.2h-6.5v8.6h6.5c.9 0 1.7-.1 2.3-.4.6-.3 1.1-.6 1.5-1 .4-.4.6-.9.8-1.4 0-.5.1-1 .1-1.5zm14.8 7.8c0 .4-.1.6-.2.7-.1.1-.4.1-.7.1h-3c-.3 0-.5-.1-.7-.2-.2-.1-.2-.3-.2-.7V79.2c0-.7.2-1.3.5-1.7.3-.4.9-.6 1.7-.6h9.4c1.3 0 2.5.2 3.6.6 1.1.4 2 1 2.8 1.7.8.7 1.4 1.6 1.8 2.7.4 1 .6 2.2.6 3.4 0 .7-.1 1.6-.3 2.5-.2 1-.7 1.9-1.3 2.9-.7.9-1.6 1.7-2.8 2.3-1.2.6-2.8 1-4.8 1h-6.4zm10.7-18c0-.4-.1-.9-.2-1.5-.1-.5-.4-1-.7-1.4-.4-.4-.8-.8-1.5-1.1-.6-.3-1.4-.4-2.4-.4h-5.8v8.7h5.9c1.7 0 2.9-.4 3.6-1.2.7-.8 1.1-1.9 1.1-3.1zm28 18.6c-.1.2-.3.2-.7.2h-11.2c-1.4 0-2.5-.2-3.4-.6-.9-.4-1.6-.9-2.1-1.6-.5-.7-.9-1.4-1.1-2.2-.2-.8-.3-1.7-.3-2.6V84.2c0-.9.1-1.8.4-2.7.2-.9.7-1.6 1.2-2.3.6-.7 1.3-1.2 2.2-1.6.9-.4 2-.6 3.2-.6h11c.3 0 .6.1.6.2.1.1.1.4.1.7v2.5c0 .3 0 .6-.1.7-.1.1-.3.2-.6.2H138c-1 0-1.7.2-2.1.7-.4.4-.6 1.1-.6 1.9V88h11.9c.3 0 .6.1.6.2.1.1.1.4.1.7v2.2c0 .3 0 .5-.1.7-.1.1-.3.2-.6.2h-11.9v5.7c0 .8.2 1.5.6 1.9.4.4 1.1.6 2.1.6h10.7c.4 0 .6.1.7.2.1.1.1.4.1.8v2.5c0 .4 0 .7-.2.8zm27.2-18.7h-.2l-2.1 5.4-3.5 8.7c-.3.7-.6 1.1-.8 1.4-.3.2-.7.4-1.4.4h-1.8c-.7 0-1.1-.1-1.4-.4-.3-.2-.5-.7-.8-1.4l-3.5-8.3-2.1-5.3h-.2V104c0 .4-.1.6-.2.7-.1.1-.4.1-.7.1H155c-.3 0-.5 0-.7-.1-.2-.1-.2-.3-.2-.7V79.6c0-.8.2-1.4.5-1.8.3-.4.9-.6 1.8-.6h1.6c.7 0 1.2.1 1.5.4.3.2.7.7.9 1.4l4.7 11.5 2.4 6.1h.2l2.4-6.1 4.6-11.5c.3-.7.6-1.2 1-1.4.4-.2.9-.4 1.6-.4h1.5c.8 0 1.4.2 1.8.6.3.4.5 1 .5 1.8V104c0 .4-.1.6-.2.7-.1.1-.4.1-.7.1h-2.8c-.3 0-.5 0-.6-.1-.1-.1-.2-.3-.2-.7V85.8zm25.4 7.5h-4.6c-1.3 0-2.3.3-3.1.7-.8.4-1.4 1.4-1.8 2.8l-1.9 7.2c-.1.3-.2.5-.4.6-.2.1-.4.1-.6.1H186c-.3 0-.5-.1-.6-.3v-.6l2.1-7.8c.3-1 .6-1.8 1.2-2.5.5-.7 1.3-1.2 2.4-1.6-1.5-.6-2.6-1.5-3.3-2.7-.7-1.2-1.1-2.6-1.1-4.2 0-1.2.2-2.3.6-3.2.4-1 1-1.8 1.8-2.5s1.7-1.3 2.7-1.7c1.1-.4 2.3-.6 3.6-.6h9.2c.8 0 1.4.2 1.7.6.3.4.5.9.5 1.7V104c0 .3-.1.5-.2.5-.1.1-.3.1-.6.1h-3.3c-.3 0-.5 0-.6-.1-.1-.1-.2-.2-.2-.5zm-10.4-7.9c0 1.1.4 2 1.1 2.8.7.7 1.9 1.1 3.5 1.1h5.8v-7.8h-6.1c-.9 0-1.6.1-2.2.4-.6.3-1 .6-1.3 1-.3.4-.5.8-.6 1.3-.1.4-.2.8-.2 1.2z" fill="#333"/></symbol><symbol id="mail-circle" viewBox="0 0 60 60"><title/><g fill="none" fill-rule="evenodd"><path d="M30 60c16.569 0 30-13.431 30-30C60 13.431 46.569 0 30 0 13.431 0 0 13.431 0 30c0 16.569 13.431 30 30 30z" fill="#ff9000"/><path d="M30 33.462l17.308-15H12.692l17.308 15zm-4.675-1.66L30 35.637l4.602-3.837 12.706 10.891H12.692l12.633-10.89zm-13.787 9.736V19.615l12.693 10.962-12.693 10.961zm36.924 0V19.615L35.769 30.577l12.693 10.961z" fill="#FFF"/></g></symbol><symbol id="mail" viewBox="0 0 512 512"><g fill="#1A9F29"><path d="M496.6 76.8c-12.6-12.6-29.3-19.6-47.1-19.6H62.6C25.9 57.2-4 87.1-4 123.8v264.4c0 36.7 29.9 66.6 66.6 66.6h386.8c36.7 0 66.6-29.9 66.6-66.6V123.9c.1-17.8-6.8-34.5-19.4-47.1zm-464 47.1c0-16.5 13.5-30 30-30h386.8c16.5 0 30 13.5 30 30v266.9c-1.3 15.4-14.2 27.5-29.9 27.5H62.6c-16.5 0-30-13.5-30-30V123.9z"/><path d="M61.2 143.4l123.4 110.3-123 115.1c-7.3 6.9-7.7 18.5-.8 25.9 3.5 3.7 8.4 5.8 13.4 5.8 4.6 0 9.1-1.7 12.5-4.9l125.4-117.3 32 28.6c3.4 3 7.7 4.6 12.2 4.6 4.5 0 9-1.7 12.2-4.7l33-29.5 124.6 118.4c3.4 3.2 7.9 5 12.6 5 5 0 9.7-2 13.3-5.7 3.3-3.5 5.1-8.2 5-13.1-.1-4.9-2.1-9.5-5.7-12.8L328.8 252.8l122-109.4c7.4-6.8 8-18.4 1.3-25.9-3.5-3.8-8.4-6-13.6-6-4.5 0-8.9 1.7-12.2 4.7l-170 152.6-30-26.8-1.1-1.1c-.8-.8-1.7-1.5-2.6-2.3L85.6 116c-3.4-3-7.7-4.7-12.2-4.7-5.2 0-10.2 2.2-13.7 6.2-3.3 3.7-4.9 8.4-4.6 13.3.3 4.8 2.5 9.3 6.1 12.6z"/></g></symbol><symbol id="map" viewBox="0 0 595.20002 595.29997"><ellipse cx="297.6" cy="513.2" rx="297.6" ry="82.1" fill="#393"/><path d="M427.7 54.6c-72.8-72.8-191-72.8-263.8 0-65.6 65.6-73 189.2-17.3 263.5l149.2 215.6L445 318.2c55.8-74.3 48.4-197.9-17.3-263.6zM297.6 246.3c-34 0-61.6-27.6-61.6-61.6s27.6-61.6 61.6-61.6 61.6 27.6 61.6 61.6-27.5 61.6-61.6 61.6z" fill="#f48b00"/></symbol><symbol id="meal" viewBox="0 0 503.32263 512"><path d="M497.25 348.559c6.717-5.571 8.079-15.447 2.994-22.537-10.873-15.143-19.89-18.744-57.665 1.119l-75.273 46.011c-23.005 12.227-83.369 8.678-109.412 8.678 0 0 61.457 4.165 36.933-32.447-12.201-18.206-33.237-28.542-55.148-28.542h-33.853c-19.734 0-39.198-5.866-54.949-17.746-36.769-27.717-107.485 26.667-107.485 26.667v156.203h121.492c17.33 0 34.642-1.31 51.773-3.914l113.109-17.2c3.862 0 7.611-.451 11.238-1.258l.174-.026c9.155-1.284 17.521-5.918 24.203-12.314z" fill="#fdc693"/><path fill="#556080" d="M43.389 303.729H0V512h43.389z"/><path d="M149.977 416.542a8.676 8.676 0 0 1-8.678-8.678c0-21.738 16.219-34.712 43.39-34.712h84.332a8.676 8.676 0 0 1 8.678 8.678 8.676 8.676 0 0 1-8.678 8.678h-84.332c-26.034 0-26.034 13.06-26.034 17.356a8.675 8.675 0 0 1-8.678 8.678" fill="#f9a571"/><g fill="#cad3db"><path d="M65.704 269.017h371.92l30.989-43.39H34.715zM251.664 43.39a8.676 8.676 0 0 1-8.678-8.678V8.678A8.676 8.676 0 0 1 251.664 0a8.676 8.676 0 0 1 8.678 8.678v26.034a8.676 8.676 0 0 1-8.678 8.678"/><path d="M277.698 17.356H225.63a8.676 8.676 0 0 1-8.678-8.678A8.676 8.676 0 0 1 225.63 0h52.068a8.676 8.676 0 0 1 8.678 8.678 8.676 8.676 0 0 1-8.678 8.678"/></g><path d="M442.579 225.627c0-105.437-85.478-190.915-190.915-190.915S60.749 120.19 60.749 225.627z" fill="#e6eef3"/><path d="M116.418 156.199a8.612 8.612 0 0 1-4.348-1.172c-4.148-2.404-5.563-7.715-3.15-11.854 29.479-50.844 84.176-82.432 142.744-82.432a8.676 8.676 0 0 1 8.678 8.678 8.67 8.67 0 0 1-8.678 8.678c-52.398 0-101.341 28.273-127.731 73.771a8.668 8.668 0 0 1-7.515 4.331" fill="#cad3db"/></symbol><symbol id="note" viewBox="0 0 695.50001 841.79996"><g clip-rule="evenodd" fill="#fff" fill-rule="evenodd"><path d="M677.2 0H54.9C44.8 0 36.6 8.2 36.6 18.3v54.9H18.3C8.2 73.2 0 81.4 0 91.5c0 10.1 8.2 18.3 18.3 18.3h18.3v36.6H18.3C8.2 146.4 0 154.6 0 164.7 0 174.8 8.2 183 18.3 183h18.3v36.6H18.3C8.2 219.6 0 227.8 0 237.9c0 10.1 8.2 18.3 18.3 18.3h18.3v36.6H18.3C8.2 292.8 0 301 0 311.1c0 10.1 8.2 18.3 18.3 18.3h18.3V366H18.3C8.2 366 0 374.2 0 384.3c0 10.1 8.2 18.3 18.3 18.3h18.3v36.6H18.3C8.2 439.2 0 447.4 0 457.5c0 10.1 8.2 18.3 18.3 18.3h18.3v36.6H18.3C8.2 512.4 0 520.6 0 530.7 0 540.8 8.2 549 18.3 549h18.3v36.6H18.3C8.2 585.6 0 593.8 0 603.9c0 10.1 8.2 18.3 18.3 18.3h18.3v36.6H18.3C8.2 658.8 0 667 0 677.1c0 10.1 8.2 18.3 18.3 18.3h18.3V732H18.3C8.2 732 0 740.2 0 750.3c0 10.1 8.2 18.3 18.3 18.3h18.3v54.9c0 10.1 8.2 18.3 18.3 18.3h622.3c10.1 0 18.3-8.2 18.3-18.3V18.3c0-10.1-8.2-18.3-18.3-18.3zM183 805.3H73.2v-36.6h18.3c10.1 0 18.3-8.2 18.3-18.3 0-10.1-8.2-18.3-18.3-18.3H73.2v-36.6h18.3c10.1 0 18.3-8.2 18.3-18.3 0-10.1-8.2-18.3-18.3-18.3H73.2v-36.6h18.3c10.1 0 18.3-8.2 18.3-18.3 0-10.1-8.2-18.3-18.3-18.3H73.2v-36.6h18.3c10.1 0 18.3-8.2 18.3-18.3 0-10.1-8.2-18.3-18.3-18.3H73.2v-36.6h18.3c10.1 0 18.3-8.2 18.3-18.3 0-10.1-8.2-18.3-18.3-18.3H73.2v-36.6h18.3c10.1 0 18.3-8.2 18.3-18.3 0-10.1-8.2-18.3-18.3-18.3H73.2v-36.6h18.3c10.1 0 18.3-8.2 18.3-18.3 0-10.1-8.2-18.3-18.3-18.3H73.2v-36.6h18.3c10.1 0 18.3-8.2 18.3-18.3 0-10.1-8.2-18.3-18.3-18.3H73.2V183h18.3c10.1 0 18.3-8.2 18.3-18.3 0-10.1-8.2-18.3-18.3-18.3H73.2v-36.6h18.3c10.1 0 18.3-8.2 18.3-18.3 0-10.1-8.2-18.3-18.3-18.3H73.2V36.6H183zm475.9 0H219.6V36.6h439.2v768.7z"/><path d="M457.6 146.4h-183c-10.1 0-18.3 8.2-18.3 18.3 0 10.1 8.2 18.3 18.3 18.3h183c10.1 0 18.3-8.2 18.3-18.3 0-10.1-8.2-18.3-18.3-18.3zM604 219.6h-73.2c-10.1 0-18.3 8.2-18.3 18.3 0 10.1 8.2 18.3 18.3 18.3H604c10.1 0 18.3-8.2 18.3-18.3 0-10.1-8.2-18.3-18.3-18.3zM488.8 225c-.8-.9-1.8-1.6-2.8-2.3-1-.7-2-1.2-3.2-1.7-1.1-.5-2.2-.8-3.4-1.1-2.4-.5-4.8-.5-7.1 0-1.2.3-2.3.6-3.4 1.1-1.1.5-2.2 1-3.1 1.7-1 .7-2 1.4-2.8 2.3-.8.9-1.6 1.8-2.3 2.8-.7 1-1.2 2.1-1.7 3.2s-.8 2.2-1.1 3.4c-.2 1.2-.3 2.4-.3 3.6 0 1.2.1 2.4.3 3.5.3 1.2.6 2.3 1.1 3.4.5 1.1 1 2.2 1.7 3.2s1.4 1.9 2.3 2.8c.9.9 1.8 1.6 2.8 2.3 1 .7 2 1.2 3.1 1.7s2.3.9 3.4 1c1.2.3 2.4.4 3.6.4 1.2 0 2.4-.1 3.6-.4 1.2-.2 2.3-.6 3.4-1 1.1-.5 2.2-1 3.2-1.7s2-1.4 2.8-2.3c.9-.9 1.6-1.8 2.3-2.8.7-1 1.2-2 1.7-3.2.5-1.1.8-2.2 1-3.4.2-1.2.4-2.4.4-3.5-.1-4.9-2.1-9.6-5.5-13zm-67.8-5.4H274.5c-10.1 0-18.3 8.2-18.3 18.3 0 10.1 8.2 18.3 18.3 18.3h146.4c10.1 0 18.3-8.2 18.3-18.3.1-10.1-8.1-18.3-18.2-18.3zm183 73.3H274.5c-10.1 0-18.3 8.2-18.3 18.3 0 10.1 8.2 18.3 18.3 18.3h329.4c10.1 0 18.3-8.2 18.3-18.3.1-10.1-8.1-18.3-18.2-18.3z"/></g></symbol><symbol id="perfume" viewBox="0 0 503.98207 511.99702"><path d="M387.244 156.698c-16.2-30.319-40.822-55.084-71.205-71.62-30.553-16.63-66.259-23.452-100.738-20.418l-12.929-7.232 12.929-11.357c38.093-3.349 75.782 4.502 109.522 22.867 33.544 18.257 61.302 46.458 79.198 79.949l-5.017 11.247z" fill="#e0273d"/><path d="M319.25 79.035c-31.561-17.179-68.251-24.56-103.949-22.155v7.779c34.478-3.035 70.184 3.789 100.738 20.418 30.383 16.537 55.005 41.302 71.205 71.62l6.997-3.258c-17.363-31.415-43.226-57.116-74.991-74.404z" fill="#ed4850"/><path d="M442.547 177.315l-13.824-29.018c-2.537-5.326-8.91-7.586-14.236-5.049l-8.554 4.075c-.026.012-.051.02-.077.032l-27.385 13.051c-5.326 2.537-7.586 8.91-5.049 14.236l13.824 29.018 46.671-22.238-.012-.026z" fill="#6149aa"/><path d="M428.722 148.296c-2.537-5.326-8.91-7.586-14.236-5.049l-15.484 7.376c5.087-1.794 10.809.505 13.181 5.482l13.824 29.018 16.539-7.81z" fill="#4a4087"/><path d="M215.826 34.177a9.486 9.486 0 0 0-9.487-9.487H187.35h.001-19.211a9.486 9.486 0 0 0-9.487 9.487v99.768h57.174V34.177z" fill="#58595b"/><path d="M206.337 24.689h-18.989a9.486 9.486 0 0 1 9.487 9.487v99.768h18.989V34.177c.002-5.24-4.247-9.488-9.487-9.488z" fill="#414042"/><path d="M243.593 132.839h-35.776.001-76.936c-6.766 0-12.251 5.485-12.251 12.251v50.638c0 6.766 5.485 12.251 12.251 12.251H243.592c6.766 0 12.251-5.485 12.251-12.251V145.09c.001-6.765-5.484-12.251-12.25-12.251z" fill="#ed4850"/><path d="M243.593 132.839h-35.776c6.766 0 12.251 5.485 12.251 12.251v50.638c0 6.766-5.485 12.251-12.251 12.251h35.776c6.766 0 12.251-5.485 12.251-12.251V145.09c0-6.765-5.485-12.251-12.251-12.251z" fill="#e0273d"/><path d="M187.29 170.41c-11.32 0-22.369 1.147-33.055 3.3-.168.031-.342.049-.507.083-75.886 15.529-132.971 82.674-132.971 163.15 0 56.693 28.337 107.406 71.612 137.482H282.21c43.276-30.075 71.613-80.788 71.613-137.482.001-91.974-74.558-166.533-166.533-166.533z" fill="#f2ba43"/><path d="M187.29 170.41a167.28 167.28 0 0 0-34.329 3.55c75.503 15.824 132.205 82.779 132.205 162.983 0 56.693-28.338 107.406-71.613 137.482h68.659c43.275-30.075 71.613-80.788 71.613-137.482-.001-91.974-74.56-166.533-166.535-166.533z" fill="#eda21d"/><g fill="#ed4850"><path d="M151.337 379.549h71.907c16.392-11.392 27.125-30.356 27.125-51.83 0-34.837-28.241-63.077-63.077-63.077s-63.077 28.241-63.077 63.077c-.002 21.474 10.731 40.438 27.122 51.83zM281.916 473.78H92.561c-10.499 0-19.011 8.512-19.011 19.011v.195c0 10.499 8.512 19.011 19.011 19.011h189.355c10.499 0 19.011-8.512 19.011-19.011v-.195c0-10.499-8.511-19.011-19.011-19.011z"/></g><path d="M281.916 473.78h-67.381c10.499 0 19.011 8.512 19.011 19.011v.195c0 10.499-8.512 19.011-19.011 19.011h67.381c10.499 0 19.011-8.512 19.011-19.011v-.195c0-10.499-8.512-19.011-19.011-19.011z" fill="#e0273d"/><g transform="translate(-4.008)" fill="#d1d3d4"><path d="M108.172 68.7a9.19 9.19 0 0 0-9.187-9.119h-.071l-40.13.306a9.19 9.19 0 0 0 .068 18.377h.071l40.13-.306a9.19 9.19 0 0 0 9.119-9.258z"/><circle cx="26.562" cy="69.327" r="9.188"/><circle cx="17.371" cy="19.636" r="9.188"/><circle cx="13.196" cy="127.949" r="9.188"/><path d="M91.602 32.018l19.645 9.992a9.19 9.19 0 0 0 12.356-4.024c2.301-4.523.499-10.056-4.025-12.355l-19.645-9.992c-4.522-2.3-10.056-.5-12.355 4.025-2.3 4.522-.499 10.055 4.024 12.354z"/><circle cx="66.986" cy="9.188" r="9.188"/><path d="M126.979 94.694a9.187 9.187 0 0 0-12.925-1.338l-17.108 13.896a9.188 9.188 0 0 0 5.8 16.32 9.152 9.152 0 0 0 5.789-2.057l17.106-13.896c3.939-3.199 4.538-8.985 1.338-12.925z"/><circle cx="77.67" cy="134.748" r="9.188"/></g><circle cx="187.243" cy="60.138" r="9.188" fill="#f2ba43"/><path d="M497.496 209.099c-10.797-22.665-32.749-36.403-56.152-37.812-.334-.023-.657-.058-1.001-.072-10.551-.475-21.368 1.56-31.569 6.418-33.19 15.811-47.277 55.533-31.466 88.722 6.407 13.451 16.742 23.764 28.979 30.221.131.07.261.124.392.19 17.885 9.29 39.754 10.39 59.351 1.055 33.188-15.811 47.277-55.532 31.466-88.722z" fill="#f474fb"/><path d="M497.496 209.099c-10.951-22.988-33.376-36.801-57.153-37.874 12.234 6.458 22.569 16.768 28.975 30.217 15.811 33.188 1.724 72.911-31.466 88.722a66.26 66.26 0 0 1-31.569 6.409c17.957 9.478 40.006 10.652 59.746 1.248 33.189-15.811 47.277-55.532 31.467-88.722z" fill="#e45acd"/></symbol><symbol id="plotter" viewBox="0 0 242.60001 168.39999"><path d="M193.5 23.5h28c2.3 0 4.2-1.9 4.2-4.2 0-2.3-1.9-4.2-4.2-4.2h-28c-2.3 0-4.2 1.9-4.2 4.2 0 2.3 1.9 4.2 4.2 4.2zm-118 35.4h80.6c2.3 0 4.2-1.9 4.2-4.2 0-2.3-1.9-4.2-4.2-4.2H75.5c-2.3 0-4.2 1.8-4.2 4.2 0 2.3 1.9 4.2 4.2 4.2zm7.1 17.2H149c1.9 0 3.4-1.9 3.4-4.2 0-2.3-1.6-4.2-3.4-4.2H82.6c-1.9 0-3.4 1.9-3.4 4.2-.1 2.3 1.5 4.2 3.4 4.2zm-7.1 17.3h80.6c2.3 0 4.2-1.9 4.2-4.2 0-2.3-1.9-4.2-4.2-4.2H75.5c-2.3 0-4.2 1.8-4.2 4.2 0 2.3 1.9 4.2 4.2 4.2zm11.8 17.2h56.8c1.6 0 2.9-1.9 2.9-4.2 0-2.3-1.3-4.2-2.9-4.2H87.3c-1.6 0-2.9 1.9-2.9 4.2 0 2.3 1.3 4.2 2.9 4.2zm-11.8 17.3h80.6c2.3 0 4.2-1.9 4.2-4.2 0-2.3-1.9-4.2-4.2-4.2H75.5c-2.3 0-4.2 1.9-4.2 4.2 0 2.3 1.9 4.2 4.2 4.2zM19.8 24.5h14.3c2.5 0 4.5-2 4.5-4.5s-2-4.5-4.5-4.5H19.8c-2.5 0-4.5 2-4.5 4.5-.1 2.5 2 4.5 4.5 4.5z" clip-rule="evenodd" fill="#f89803" fill-rule="evenodd"/><path d="M226.8 0H15.9C7.1 0 0 7.1 0 15.9v26.8c0 8.8 7.1 15.9 15.9 15.9h4.2v26.5h12.2v47.5h17.1c-.9 7.9-2.5 14.4-4.8 23.5-.6 2.2-1.1 4.5-1.8 7l-1.3 5.3h147.3l-1.7-5.5c-.9-3.1-1.8-5.9-2.6-8.4-2.7-8.7-4.5-14.5-5.5-21.8h21.1V85.2h22.4V58.7h4.3c8.7 0 15.8-7.1 15.8-15.9V16c0-8.9-7.1-16-15.8-16zM28.7 58.6h21.4v18H28.7zm12.1 65.5v-39h9.3v33.2c0 2.1 0 4-.1 5.8zm11.6 35.7c.1-.6.3-1.1.4-1.6 3.6-14.1 5.7-22.6 5.7-39.9V39.8h111.2v77.8c0 18.2 2.4 25.7 6.7 39.4.3.9.6 1.9.9 2.8zm139.3-35.7h-13.3c-.1-2-.1-4.2-.1-6.5V85.1h13.4zM214 76.6h-35.7v-18H214zm20.1-33.9c0 4.1-3.3 7.4-7.3 7.4h-48.5V39.2h4.4c2.3 0 4.1-1.8 4.1-4.1S185 31 182.7 31H46.5c-2.2 0-4.1 1.8-4.1 4.1s1.8 4.1 4.1 4.1h3.6v10.9H16c-4.1 0-7.4-3.3-7.4-7.4V15.9c0-4.1 3.3-7.4 7.4-7.4h210.8c4 0 7.3 3.3 7.3 7.4z" clip-rule="evenodd" fill="#1a9f29" fill-rule="evenodd"/></symbol><symbol id="plus" viewBox="0 0 512 512"><path d="M258.577.023C257.722.011 256.855 0 256 0s-1.722.011-2.577.023C113.225 1.395 0 115.476 0 256s113.225 254.605 253.423 255.977c.855.011 1.722.022 2.577.022s1.722-.011 2.577-.022c108.769-1.766 219.035-115.7 219.035-255.977S367.346 1.789 258.577.023z" fill="#fd7"/><path d="M311.427 325.734c0-7.87 6.439-14.309 14.309-14.309h81.935c7.87 0 14.309-6.439 14.309-14.309v-82.234c0-7.87-6.439-14.309-14.309-14.309h-81.935c-7.87 0-14.309-6.439-14.309-14.309V104.33c0-7.87-6.439-14.309-14.309-14.309h-82.236c-7.87 0-14.309 6.439-14.309 14.309v81.935c0 7.87-6.439 14.309-14.309 14.309h-81.932c-7.87 0-14.309 6.439-14.309 14.309v82.236c0 7.87 6.439 14.309 14.309 14.309h81.935c7.87 0 14.309 6.439 14.309 14.309v81.935c0 7.87 6.439 14.309 14.309 14.309h82.236c7.87 0 14.309-6.439 14.309-14.309v-81.938h-.003z" fill="#ff7a2f"/><path d="M258.577.023C398.775 1.395 512 115.476 512 256S398.775 510.605 258.577 511.978C367.346 510.211 455.106 396.277 455.106 256S367.346 1.789 258.577.023z" fill="#ffcc3d"/></symbol><symbol id="printer" viewBox="0 0 52 52"><g fill="#fff"><path d="M11.96 50h28.09V32H11.96v18zm6.854-13.003h14.189v2H18.814v-2zm0 6h14.189v2H18.814v-2zM16 20h20v-.003h1.003v-2H36V2H16v15.997h-.997v2H16z"/><path d="M43.03 10H38v5.997h1.003v6H38V22H14v-.003h-.997v-6H14V10H8.97C5.13 10 2 13.12 2 16.97V40h7.96V30h32.09v10H50V16.97A6.97 6.97 0 0 0 43.03 10z"/></g></symbol><symbol id="production" viewBox="0 0 595.40004 495.99999"><g fill="#fff"><path d="M595 406.6l-22.9-159.2c13.5-5.5 23.1-18.8 23.1-34.3v-88C595.2 56.1 539.1 0 470.1 0H232.4c-17.7 0-32.7 11.6-37.9 27.5h-70.2c-6.4 0-11.7 4.8-12.3 11.1H97c-1.8 0-3.5.4-5.2 1.1L64.5 52.2c-4.4 2-7.2 6.4-7.2 11.3v8.6H12.4C5.6 72 0 77.5 0 84.4c0 6.8 5.6 12.4 12.4 12.4h44.8v8.6c0 4.9 2.8 9.3 7.2 11.3l27.3 12.5c1.6.7 3.4 1.1 5.2 1.1h15c.7 6.2 5.9 11.1 12.3 11.1h73.3c8.7 19.1 28 32.3 50.3 32.3h42.7c7.5 34.4 44.2 76.4 92.8 76.4 35.4 0 55.4 19.6 61.2 59.8 4.3 29.8-.3 53.3-13.1 68.2-10.6 12.2-27.2 18.7-48 18.7-6.8 0-12.4 5.6-12.4 12.4v74.4c0 6.8 5.6 12.4 12.4 12.4H583c6.8 0 12.4-5.6 12.4-12.4v-74.4c-.1-.9-.2-1.8-.4-2.6zM111.8 105.5H99.5l-17.6-8V71.4l17.6-8h12.3zm80.7 11h-55.9V52.2h55.9zM370.9 224c-28.7-5.9-48.1-31.4-54.6-50.3h54.6zm199.6 247.2H395.7v-49.6h174.8zm0-258.2c0 6.7-5.5 12.2-12.2 12.2-3.6 0-7 1.6-9.4 4.3-2.4 2.7-3.4 6.3-2.9 9.9l22.6 157.3H447.8c.8-.8 1.5-1.6 2.2-2.5 5.6-6.5 10.1-14 13.5-22.4h27.2c6.8 0 12.4-5.6 12.4-12.4 0-6.8-5.6-12.4-12.4-12.4h-21c1.6-12.4 1.4-26.1-.7-40.8-3.4-23.8-11.4-42.7-23.8-56.2h31.9c6.8 0 12.4-5.6 12.4-12.4 0-6.8-5.6-12.4-12.4-12.4h-81.5v-64c0-6.8-5.6-12.4-12.4-12.4H247.7c-16.8 0-30.5-13.7-30.5-30.5V39.8c0-8.3 6.8-15.1 15.1-15.1h237.8c55.3 0 100.3 45 100.3 100.3z"/><path d="M365.3 74.4h.9c6.8 0 12.4-5.6 12.4-12.4 0-6.8-5.6-12.4-12.4-12.4h-.9c-6.8 0-12.4 5.6-12.4 12.4 0 6.8 5.6 12.4 12.4 12.4zm104.9-24.8h-68c-6.8 0-12.4 5.6-12.4 12.4 0 6.8 5.6 12.4 12.4 12.4h68c6.8 0 12.4-5.6 12.4-12.4 0-6.9-5.6-12.4-12.4-12.4zm0 49.6H365.3c-6.8 0-12.4 5.6-12.4 12.4 0 6.8 5.6 12.4 12.4 12.4h104.8c6.8 0 12.4-5.6 12.4-12.4.1-6.8-5.5-12.4-12.3-12.4zM301.4 49.6h-46.9c-6.8 0-12.4 5.6-12.4 12.4 0 6.8 5.6 12.4 12.4 12.4h46.9c6.8 0 12.4-5.6 12.4-12.4 0-6.9-5.5-12.4-12.4-12.4zm0 49.6h-46.9c-6.8 0-12.4 5.6-12.4 12.4 0 6.8 5.6 12.4 12.4 12.4h46.9c6.8 0 12.4-5.6 12.4-12.4 0-6.8-5.5-12.4-12.4-12.4zM514 225.3h-.9c-6.8 0-12.4 5.6-12.4 12.4 0 6.8 5.6 12.4 12.4 12.4h.9c6.8 0 12.4-5.6 12.4-12.4 0-6.9-5.6-12.4-12.4-12.4zm-43.8-63H433c-6.8 0-12.4 5.6-12.4 12.4 0 6.8 5.6 12.4 12.4 12.4h37.2c6.8 0 12.4-5.6 12.4-12.4 0-6.9-5.6-12.4-12.4-12.4z"/></g></symbol><symbol id="salon" viewBox="0 0 561.85005 566.59996"><path d="M426.1 153.5c-18.8-35.3-47.5-64-82.8-83.3-35.5-19.3-77-27.3-117.1-23.7l-15-8.4 15-13.2c44.3-3.9 88.1 5.2 127.3 26.6 39 21.2 71.3 54 92.1 93l-5.8 13.1z" fill="#e0273d"/><path d="M347 63.2c-36.7-20-79.4-28.6-120.9-25.8v9c40.1-3.5 81.6 4.4 117.1 23.7 35.3 19.2 64 48 82.8 83.3l8.1-3.8C414 113.2 384 83.3 347 63.2z" fill="#ed4850"/><path d="M490.4 177.5l-16.1-33.7c-2.9-6.2-10.4-8.8-16.6-5.9l-9.9 4.7h-.1l-31.8 15.2c-6.2 2.9-8.8 10.4-5.9 16.6l16.1 33.7 54.3-25.9z" fill="#3fb64c"/><path d="M474.3 143.7c-2.9-6.2-10.4-8.8-16.6-5.9l-18 8.6c5.9-2.1 12.6.6 15.3 6.4l16.1 33.7 19.2-9.1z" fill="#2d9632"/><path d="M226.8 11c0-6.1-4.9-11-11-11H171.4c-6.1 0-11 4.9-11 11v116h66.4z" fill="#58595b"/><path d="M215.8 0h-22.1c6.1 0 11 4.9 11 11v116h22.1V11c0-6.1-4.9-11-11-11z" fill="#414042"/><path d="M259.1 125.8H128c-7.9 0-14.2 6.4-14.2 14.2v58.9c0 7.9 6.4 14.2 14.2 14.2h131.1c7.9 0 14.2-6.4 14.2-14.2V140c0-7.9-6.4-14.2-14.2-14.2z" fill="#ff7f00"/><path d="M259.1 125.8h-41.6c7.9 0 14.2 6.4 14.2 14.2v58.9c0 7.9-6.4 14.2-14.2 14.2h41.6c7.9 0 14.2-6.4 14.2-14.2V140c0-7.9-6.4-14.2-14.2-14.2z" fill="#d36122"/><path d="M193.6 169.4c-13.2 0-26 1.3-38.4 3.8-.2 0-.4.1-.6.1C66.4 191.4 0 269.5 0 363.1 0 429 32.9 488 83.3 522.9H304c50.3-35 83.3-93.9 83.3-159.8-.1-107-86.7-193.7-193.7-193.7z" fill="#f2ba43"/><path d="M193.6 169.4c-13.7 0-27 1.4-39.9 4.1 87.8 18.4 153.7 96.2 153.7 189.5 0 65.9-32.9 124.9-83.3 159.8h79.8c50.3-35 83.3-93.9 83.3-159.8 0-106.9-86.6-193.6-193.6-193.6z" fill="#eda21d"/><g fill="#ff7f00"><path d="M151.8 412.6h83.6c19.1-13.2 31.5-35.3 31.5-60.3 0-40.5-32.8-73.3-73.3-73.3s-73.3 32.8-73.3 73.3c0 25 12.5 47 31.5 60.3zM303.6 522.2H83.5c-12.2 0-22.1 9.9-22.1 22.1v.2c0 12.2 9.9 22.1 22.1 22.1H303.6c12.2 0 22.1-9.9 22.1-22.1v-.2c0-12.3-9.9-22.1-22.1-22.1z"/></g><path d="M303.6 522.2h-78.3c12.2 0 22.1 9.9 22.1 22.1v.2c0 12.2-9.9 22.1-22.1 22.1h78.3c12.2 0 22.1-9.9 22.1-22.1v-.2c0-12.3-9.9-22.1-22.1-22.1z" fill="#d36122"/><circle cx="193.6" cy="41.2" r="10.7" fill="#f2ba43"/><path d="M554.3 214.4c-12.6-26.4-38.1-42.3-65.3-44-.4 0-.8-.1-1.2-.1-12.3-.6-24.8 1.8-36.7 7.5-38.6 18.4-55 64.6-36.6 103.2 7.4 15.6 19.5 27.6 33.7 35.1.2.1.3.1.5.2 20.8 10.8 46.2 12.1 69 1.2 38.6-18.3 55-64.5 36.6-103.1z" fill="#3fb64c"/><path d="M554.3 214.4c-12.7-26.7-38.8-42.8-66.4-44 14.2 7.5 26.2 19.5 33.7 35.1 18.4 38.6 2 84.8-36.6 103.2-11.9 5.7-24.4 8-36.7 7.5 20.9 11 46.5 12.4 69.5 1.5 38.5-18.5 54.9-64.7 36.5-103.3z" fill="#2d9632"/></symbol><symbol id="search" viewBox="0 0 16 16"><path d="M15.7 14.3l-3.105-3.105A6.966 6.966 0 0 0 14 7a7 7 0 1 0-7 7 6.96 6.96 0 0 0 4.194-1.405L14.3 15.7c.184.184.38.3.7.3a1 1 0 0 0 1-1 .926.926 0 0 0-.3-.7zM2 7c0-2.762 2.238-5 5-5s5 2.238 5 5-2.238 5-5 5-5-2.238-5-5z" fill="#fff"/></symbol><symbol id="showcase" viewBox="0 0 136.80001 118.69999"><path d="M136.7 118.7H.1V97.6h136.5v21.1zM4.9 113.9h126.9v-11.5H4.9z" fill="#1a9f29"/><path d="M120.1 41H16.7v49.9h103.4zM21.5 86.1V45.9h24.7v40.2zm29.5 0V45.9h29.9v40.2zm34.7 0V45.9h29.6v40.2z" fill="#f79400"/><path d="M136.8 0H.2v.1H0v102.3h136.5v-79c.1-.5.1-1.1.1-1.7V0zM5.2 4.9h17.1v16.9c0 4.7-3.8 8.5-8.5 8.5s-8.6-3.8-8.6-8.5zm21.9 0h17.1v16.9c0 4.7-3.8 8.5-8.5 8.5s-8.6-3.8-8.6-8.5zm22 0h17.1v16.9c0 4.7-3.8 8.5-8.5 8.5s-8.6-3.8-8.6-8.5zm21.9 0h17.1v16.9c0 4.7-3.8 8.5-8.5 8.5s-8.5-3.8-8.5-8.5V4.9zm22 0h17.1v16.9c0 4.7-3.8 8.5-8.5 8.5s-8.5-3.8-8.5-8.5V4.9zm21.9 0h17v18.2c-.6 4.1-4.2 7.2-8.4 7.2-4.7 0-8.5-3.8-8.5-8.5V4.9zM4.9 97.6V31.9c2.4 2.1 5.4 3.3 8.8 3.3 4.5 0 8.5-2.3 10.9-5.7 2.4 3.5 6.4 5.7 11 5.7 4.5 0 8.6-2.3 11-5.8 2.4 3.5 6.4 5.8 11 5.8 4.5 0 8.5-2.3 11-5.7 2.4 3.5 6.4 5.7 11 5.7s8.6-2.3 11-5.8c2.4 3.5 6.4 5.8 11 5.8 4.5 0 8.5-2.3 11-5.7 2.4 3.5 6.4 5.7 11 5.7 3.2 0 6.1-1.1 8.4-3v65.4z" fill="#1a9f29"/></symbol><symbol id="shtender" viewBox="0 0 95.834719 117"><path d="M69.128 60h-46.7c-1.3 0-2.4-1.1-2.4-2.4 0-1.3 1.1-2.4 2.4-2.4h46.7c1.3 0 2.4 1.1 2.4 2.4 0 1.4-1.1 2.4-2.4 2.4zm-9.5 11.1h-33c-1.3 0-2.4-1.1-2.4-2.4 0-1.3 1.1-2.4 2.4-2.4h33c1.3 0 2.4 1.1 2.4 2.4 0 1.3-1 2.4-2.4 2.4z" fill="#f79400"/><path d="M48.028 81.2h-11.5c-1.3 0-2.4-1.1-2.4-2.4 0-1.3 1.1-2.4 2.4-2.4h11.5c1.3 0 2.4 1.1 2.4 2.4 0 1.3-1.1 2.4-2.4 2.4z" fill="#1a9f29"/><path d="M56.828 91.6h-33c-1.3 0-2.4-1.1-2.4-2.4 0-1.3 1.1-2.4 2.4-2.4h33c1.3 0 2.4 1.1 2.4 2.4 0 1.3-1.1 2.4-2.4 2.4z" fill="#f79400"/><path d="M2.428 117h-.4c-1.3-.2-2.2-1.5-2-2.8l5.8-34.3c.2-1.3 1.5-2.2 2.8-2 1.3.2 2.2 1.5 2 2.8l-5.8 34.3c-.3 1.1-1.3 2-2.4 2z" fill="#1a9f29"/><path d="M90.328 37.5c-.7-9.2-4.9-18.8-12-26.9-.2-.2-.4-.4-.6-.5-5.7-6.5-13.8-10.1-23-10.1-19.5 0-38 16.3-41.4 36.2l-11.3 67h66.2l-1.9 11c-.2 1.3.7 2.6 2 2.8h.4c1.2 0 2.2-.8 2.4-2l2-11.8h17.1l.8 11.5c.1 1.3 1.1 2.2 2.4 2.2h.2c1.3-.1 2.3-1.2 2.2-2.6zm-72.4-.5c3-17.8 19.4-32.2 36.7-32.2 7.9 0 14.8 3.1 19.6 8.7 5.1 6 7 14 5.6 22.7l-7.2 42.7c-.2.3-.3.6-.4 1l-3.1 18.5h-61.4zm56.2 61.4l10.4-61.4c.2-1.1.3-2.2.4-3.3.3 1.4.5 2.8.6 4.1l4.3 60.5h-15.7z" fill="#1a9f29"/><path d="M59.828 49.2h-26.6l12.2-25.1h10zm-18.9-4.8h13.2l-2.7-15.5h-3z" fill="#1a9f29"/></symbol><symbol id="signboard" viewBox="0 0 140.9 74.138105"><path d="M39 60.038l-.1-6.8v-2.8h-9.7v-2.1c-.1-2.7-.1-5.4-.2-8l-.2-10.5 2.1.1c1.7.1 3.3.2 5 .2.9 0 1.8.1 2.7.1v-2.8c0-1.7-.1-3.4-.1-5v-2.2l2.2.2c1.4.1 2.9.2 4.3.3l3.3.3 1.1.1c2.1.2 4.1.3 6.1.5l1.9.1v9.5c.8 0 1.6.1 2.3.1l6 .2v18.7h-8.2v8.9l-1.9.1c-1.2.1-2.4.1-3.7.2-1.1 0-2.3.1-3.4.1-2.3.1-4.7.2-7.1.3zm1.8-13.7h2v9.5c1.8-.1 3.6-.2 5.4-.2 1.1-.1 2.3-.1 3.4-.1.6 0 1.2 0 1.7-.1v-9.2h8.2v-10.9l-2.2-.1c-1.4-.1-2.8-.1-4.2-.2l-1.9-.1V25.538c-1.4-.1-2.9-.2-4.3-.3l-1.1-.1c-1.1-.1-2.2-.2-3.4-.3-.7-.1-1.4-.1-2.1-.2v2.7l.1 7.1-2.1-.1c-1.6-.1-3.2-.1-4.8-.2-.9 0-1.9-.1-2.8-.1l.1 6.2c.1 2.1.1 4.2.2 6.3h5.3c1-.2 1.7-.2 2.5-.2z" fill="#f79400"/><g fill="#1a9f29"><path d="M121.6 15.738v-3c0-3.5-2.8-6.6-6.3-7-3.7-.4-6.7 2.4-6.7 6v2.9l-53.6-4.6v-3c0-3.5-2.7-6.6-6.3-7-3.7-.4-6.7 2.4-6.7 6v2.9l-24.9-2.1-.1-.2-16 9c-.6.4-1 1-1 1.7v49.7c0 .9.6 1.6 1.4 1.9l15.5 5.2v-.1.1l124-9v-47.7zm-75.5-9.8c0-1.3 1-2.2 2.3-2 1.5.2 2.7 1.6 2.7 3.1v2.5l-5-.4zm-29.2 64L4 65.638v-47.1l12.9-7.2zm95.7-58.3c0-1.3 1-2.2 2.3-2 1.5.2 2.7 1.6 2.7 3.1v2.5l-5-.4zm24.3 49.7l-116 8.4v-58.7l116 9.9z"/><path d="M128.2 32.238l-53.2-2.3v22.9l53.2-2.1zm-4 14.6l-45.2 1.8v-14.5l45.2 2z"/></g></symbol><symbol id="stend" viewBox="0 0 96.199999 100.69999"><path d="M88 100.7H8.2C3.7 100.7 0 97 0 92.5V8.2C0 3.7 3.7 0 8.2 0H88c4.5 0 8.2 3.7 8.2 8.2v84.3c-.1 4.6-3.7 8.2-8.2 8.2zM8.1 5C6.3 5 4.8 6.5 4.8 8.3v84.3c0 1.8 1.5 3.3 3.3 3.3h79.8c1.8 0 3.3-1.5 3.3-3.3V8.3c0-1.8-1.5-3.3-3.3-3.3z" fill="#1a9f29"/><path d="M72.7 13.8H23.4c-1.3 0-2.4-1.1-2.4-2.4 0-1.3 1.1-2.4 2.4-2.4h49.3c1.3 0 2.4 1.1 2.4 2.4 0 1.3-1.1 2.4-2.4 2.4z" fill="#f79400"/><path d="M43.4 51.8H17.8V19.7h25.6zM22.6 47h16V24.5h-16zm20.8 40.7H17.8V55.6h25.6zm-20.8-4.8h16V60.4h-16zM76 51.8H50.4V19.7H76zM55.3 47h16V24.5h-16zM76 87.7H50.4V55.6H76zm-20.7-4.8h16V60.4h-16z" fill="#1a9f29"/></symbol><symbol id="tablichka" viewBox="0 0 177.60001 113.3"><path d="M89.4 94.9c-22.7 0-45.6-6.9-65.7-20.6-1.3-.9-1.6-2.6-.7-3.8.9-1.3 2.6-1.6 3.8-.7 38.6 26.4 87.7 26.2 125.1-.5 1.2-.9 3-.6 3.8.6.9 1.2.6 3-.6 3.8-19.8 14.2-42.7 21.2-65.7 21.2z" fill="#1a9f29"/><path d="M168.3 33.2h-28.5C136.5 14.5 114.9 0 88.8 0s-47.7 14.5-51 33.2H9.3c-5.1 0-9.3 4.5-9.3 10v34.9c0 4.7 3.3 6.7 5.9 8.4l1.8 1.2c23.4 16.8 51.2 25.6 80.2 25.6s58.2-9.1 82-25.6c.6-.4 1.1-.7 1.7-1.1 2.7-1.7 6-3.7 6-8.5V43.2c0-5.5-4.2-10-9.3-10zM88.8 5.5c25.3 0 45.9 14.7 45.9 32.7 0 18-20.6 32.7-45.9 32.7-25.4 0-46-14.7-46-32.7 0-18 20.6-32.7 46-32.7zm83.3 72.6c0 1.5-.9 2.2-3.4 3.8-.7.4-1.3.8-2 1.3-22.9 15.9-50.9 24.6-78.9 24.6-27.9 0-54.5-8.5-77-24.6-.7-.5-1.4-1-2.1-1.4-2.5-1.5-3.3-2.2-3.3-3.7V43.2c0-2.5 1.8-4.5 3.8-4.5h28.1c.4 20.8 23.3 37.6 51.5 37.6 28.1 0 51-16.8 51.4-37.6h28.1c2.1 0 3.8 2.1 3.8 4.5z" fill="#1a9f29"/><path d="M86.8 55.2c-.1.1-.3.2-.7.2H68.6c-.4 0-.6-.1-.7-.2-.1-.1-.2-.4-.2-.8v-3.1c0-.4.1-.6.2-.8.1-.1.3-.2.7-.2h5.7V27.1l-5.6.9c-.4.1-.6 0-.7-.1-.1-.1-.2-.3-.2-.6v-2.9c0-.3.1-.5.2-.7.1-.2.3-.3.7-.5l7.9-2.2c.9-.3 1.7-.3 2.4 0s1.1.9 1.1 1.9v27.4h6c.4 0 .6.1.7.2.1.1.2.4.2.8v3.1c-.1.4-.1.7-.2.8zm24.5-33.7c.7 0 1.3.2 1.8.5s.7.9.7 1.7v1.4c0 .5-.1 1-.2 1.5s-.3 1-.6 1.5L98.7 54.6c-.2.4-.4.6-.6.7-.2.1-.5.2-1 .2h-4.3c-.3 0-.5-.1-.7-.4-.2-.3-.1-.5 0-.9L107 26.6H89.9c-.4 0-.6-.1-.7-.2-.1-.2-.2-.4-.2-.8v-3.1c0-.4.1-.7.2-.8.1-.2.4-.2.7-.2z" fill="#ff9000"/></symbol><symbol id="taxi" viewBox="0 0 512 398.22198"><path d="M296.825 0h-81.65c-9.269 0-17.18 6.702-18.705 15.846l-6.841 41.043H322.37l-6.841-41.043C314.005 6.702 306.094 0 296.825 0z" fill="#ffdc64"/><g fill="#e1a546"><path d="M18.963 132.741H66.37v18.963H18.963zM445.63 132.741h47.407v18.963H445.63z"/></g><g fill="#ffc850"><path d="M397.262 47.407H114.738a28.444 28.444 0 0 0-26.732 18.724l-31.117 85.573v28.444h398.222v-28.444l-31.117-85.573a28.445 28.445 0 0 0-26.732-18.724zM18.963 113.778h9.481c10.473 0 18.963 8.489 18.963 18.963 0 10.473-8.489 18.963-18.963 18.963h-9.481C8.489 151.704 0 143.214 0 132.741c0-10.474 8.489-18.963 18.963-18.963zM483.556 113.778h9.481c10.473 0 18.963 8.489 18.963 18.963 0 10.473-8.489 18.963-18.963 18.963h-9.481c-10.474 0-18.963-8.489-18.963-18.963s8.489-18.963 18.963-18.963z"/></g><path d="M397.262 66.37a9.508 9.508 0 0 1 8.91 6.241l29.976 82.433v6.14H75.852v-6.14l29.976-82.433a9.51 9.51 0 0 1 8.91-6.241h282.524" fill="#707487"/><g fill="#5b5d6e"><path d="M284.444 66.37H114.738a9.508 9.508 0 0 0-8.91 6.241l-29.976 82.433v6.14H189.63zM18.963 312.889v75.852a9.481 9.481 0 0 0 9.481 9.481h28.444a9.481 9.481 0 0 0 9.481-9.481v-75.852z"/></g><path d="M18.963 350.573c7.948 6.016 17.73 9.723 28.444 9.723H66.37v-47.407H18.963z" fill="#464655"/><path d="M493.037 312.889v75.852a9.481 9.481 0 0 1-9.481 9.481h-28.444a9.481 9.481 0 0 1-9.481-9.481v-75.852z" fill="#5b5d6e"/><path d="M493.037 350.573c-7.948 6.016-17.73 9.723-28.444 9.723H445.63v-47.407h47.407z" fill="#464655"/><path d="M484.725 188.723l-29.614-37.019H56.889l-29.615 37.019a37.92 37.92 0 0 0-8.311 23.692v100.474c0 15.71 12.735 28.444 28.444 28.444h417.185c15.71 0 28.444-12.735 28.444-28.444V212.415a37.913 37.913 0 0 0-8.311-23.692z" fill="#ffdc64"/><path d="M94.815 274.963c-5.236 0-9.481-4.245-9.481-9.482v-53.067c0-8.613 2.111-16.967 5.984-23.692l21.323-37.019H56.889l-29.615 37.019a37.925 37.925 0 0 0-8.311 23.692v100.474c0 15.71 12.735 28.444 28.444 28.444h417.185c15.71 0 28.444-12.735 28.444-28.444v-37.926H94.815z" fill="#ffc850"/><path d="M159.106 256h193.786a9.48 9.48 0 0 0 9.198-7.182l4.741-18.963c1.496-5.984-3.031-11.781-9.198-11.781H154.366c-6.169 0-10.694 5.797-9.198 11.781l4.741 18.963a9.48 9.48 0 0 0 9.197 7.182z" fill="#5b5d6e"/><g transform="translate(0 -56.889)" fill="#fff"><circle cx="85.333" cy="355.556" r="14.222"/><circle cx="426.667" cy="355.556" r="14.222"/><circle cx="80.593" cy="289.185" r="28.444"/><circle cx="431.407" cy="289.185" r="28.444"/></g><path d="M360.296 303.407H151.704a9.481 9.481 0 0 0-9.481 9.481v28.444h227.556v-28.444a9.483 9.483 0 0 0-9.483-9.481z" fill="#464655"/><path d="M284.444 37.926h-56.889a9.481 9.481 0 0 1 0-18.962h56.889a9.481 9.481 0 0 1 9.481 9.481c.001 5.235-4.244 9.481-9.481 9.481z" fill="#5b5d6e"/></symbol><symbol id="tel" viewBox="0 0 30469 30504"><g fill="#1A9F29"><path d="M24145 18520c-690-713-1520-1096-2407-1096-882 0-1723 377-2430 1085l-1770 1763c-23-11-40-23-63-35-53-29-105-52-157-81l-6-6c-214-110-423-208-580-313-1821-1154-3474-2662-5058-4611-678-859-1160-1589-1519-2320 388-366 759-743 1113-1102l134-134 267-267 261-261c1467-1467 1467-3445 0-4912l-1712-1712c-191-191-388-388-574-585l-6-6c-371-383-771-789-1189-1178-684-678-1508-1032-2378-1032-876 0-1705 360-2413 1032L1506 4919C636 5789 137 6856 27 8086c-156 1902 395 3665 824 4826 1038 2795 2581 5371 4866 8114 2785 3324 6137 5951 9960 7796 1484 702 3462 1525 5661 1670h5c145 6 285 12 412 12 1566 0 2883-568 3916-1688l40-41 6-11c0-6 6-6 6-12 284-342 615-661 963-997l87-82c330-313 591-574 829-823 696-719 1061-1566 1061-2448 0-893-377-1734-1084-2436l-3434-3446zm1775 6479h-226v250c-157 162-319 325-493 487l-140 139c-400 383-829 807-1229 1276-563 598-1195 859-2054 859-87 0-179 0-261-6-1792-116-3474-824-4738-1427-3498-1694-6566-4095-9119-7140-2111-2529-3520-4884-4448-7396-563-1496-772-2650-679-3747 52-643 290-1154 748-1606l2135-2135c232-214 464-330 673-330 255 0 481 174 626 319l29 29c360 336 702 684 1114 1108 98 104 197 203 301 307 99 99 198 203 296 302l1717 1716c505 505 505 865 0 1369-64 64-122 122-180 186-122 122-232 238-354 348l-5 6c-557 568-1033 1044-1555 1508l-6 6c-11 11-40 34-63 63-737 754-488 1549-407 1810l24 64 11 29c453 1102 1097 2152 2083 3399l23 29c1757 2163 3608 3846 5649 5133 273 174 546 308 807 441 214 110 423 209 585 313l35 23c18 12 41 29 70 41 267 133 533 197 800 197 458 0 876-185 1242-551l2146-2146c133-133 388-354 661-354 278 0 516 227 603 325l3480 3480c435 447 470 824 99 1276zM16367 7871c1554 261 2970 998 4106 2129 1126 1125 1862 2546 2129 4106 99 604 621 1044 1236 1044 69 0 127-5 179-11l29-6c679-110 1143-760 1033-1444-354-2071-1328-3956-2825-5453-1496-1496-3381-2476-5458-2830-70-12-139-17-203-17-609 0-1131 435-1235 1038-58 336 17 673 208 945 192 267 476 447 801 499z"/><path d="M30450 13439c-574-3358-2158-6409-4582-8839-2425-2425-5482-4008-8834-4583-70-11-145-17-215-17-603 0-1119 435-1224 1038v6c-110 690 337 1323 1027 1444 2831 482 5418 1822 7482 3881 2060 2059 3399 4646 3881 7482 98 603 620 1044 1235 1044 70 0 128-6 180-11l23-6c331-52 621-226 818-499 192-278 267-615 209-940z"/></g></symbol><symbol id="trubka" viewBox="0 0 512 512"><g fill="#FFF"><path d="M389.3 338.7c-16.7-16.5-37.6-16.5-54.2 0-12.7 12.6-25.4 25.1-37.8 37.9-3.4 3.5-6.3 4.3-10.4 1.9-8.2-4.5-16.9-8.1-24.8-13-36.8-23.1-67.5-52.8-94.8-86.3-13.5-16.6-25.6-34.4-34-54.4-1.7-4-1.4-6.7 1.9-10 12.7-12.3 25-24.8 37.5-37.4 17.4-17.5 17.4-37.9-.1-55.5-9.9-10-19.8-19.8-29.7-29.8-10.2-10.2-20.3-20.6-30.7-30.7-16.7-16.3-37.6-16.3-54.2.1C45 74 32.8 86.9 19.8 99.3 7.7 110.7 1.7 124.7.4 141c-2 26.5 4.5 51.6 13.6 76 18.8 50.5 47.3 95.4 81.9 136.5 46.8 55.5 102.6 99.5 168 131.3 29.4 14.3 59.9 25.3 93 27.1 22.8 1.3 42.6-4.5 58.5-22.3 10.9-12.1 23.1-23.2 34.6-34.8 17-17.3 17.2-38.1.2-55.2-20.2-20.4-40.6-40.7-60.9-60.9zM368.9 253.8l39.3-6.7c-6.2-36.1-23.2-68.8-49.1-94.8-27.4-27.4-62-44.6-100.1-50l-5.5 39.5c29.5 4.2 56.4 17.5 77.6 38.7 19.9 20 33 45.4 37.8 73.3zM430.4 82.9C385 37.5 327.6 8.8 264.2 0l-5.5 39.5C313.4 47.2 363 72 402.3 111.1c37.2 37.2 61.6 84.2 70.4 135.8l39.3-6.7c-10.3-59.8-38.6-114.2-81.6-157.3z"/></g></symbol><symbol id="watch" viewBox="0 0 625.90089 841.9"><g clip-rule="evenodd" fill="#fff" fill-rule="evenodd"><path d="M607 362.9h-50c-4.8-22.7-12.3-44.5-22.3-64.9l39.5-39.5c7.4-7.4 7.4-19.4 0-26.8l-55.4-55.4c-3.5-3.5-8.4-5.6-13.4-5.6s-9.8 2-13.4 5.6l-29.3 29.3c-4.3-3.7-8.8-7.2-13.3-10.6V18.9c0-10.5-8.5-18.9-18.9-18.9h-293c-10.5 0-18.9 8.5-18.9 18.9v172.5C46.8 242.5 0 326.4 0 420.9s46.9 178.4 118.7 229.5V823c0 10.5 8.5 18.9 18.9 18.9h292.9c10.5 0 18.9-8.5 18.9-18.9V646.8c54.1-40.3 93.2-99.5 107.6-167.8h50c10.4 0 18.9-8.5 18.9-18.9v-78.3c.1-10.5-8.4-18.9-18.9-18.9zm-450.5-325h255.1v32.7h-156c-10.5 0-18.9 8.5-18.9 18.9 0 10.5 8.5 18.9 18.9 18.9h155.9v62.7c-28.8-15.1-59.9-24.9-92.1-29.2-.9-.1-1.7-.3-2.6-.3-1.4-.2-2.8-.3-4.2-.5-1.2-.1-2.5-.3-3.8-.4-1.2-.1-2.5-.2-3.8-.3-1.4-.1-2.9-.2-4.4-.3-1.1-.1-2.3-.1-3.4-.2l-5.1-.3c-.9 0-1.8-.1-2.7-.1-2.6-.1-5.3-.1-7.9-.1-2.6 0-5.2 0-7.8.1-.8 0-1.6.1-2.4.1-1.8.1-3.5.1-5.3.2-1 .1-1.9.1-2.9.2l-4.8.3c-1 .1-2.1.2-3.1.3-1.5.1-3 .3-4.5.5-1.1.1-2.2.3-3.2.4-1.4.2-2.9.4-4.3.6-1.1.2-2.2.3-3.3.5-1.4.2-2.7.4-4.1.7-1.2.2-2.4.4-3.5.6-1.1.2-2.3.4-3.4.6-5.6 1.1-11.1 2.3-16.6 3.7-.3.1-.7.1-1 .2-2 .5-4 1.1-6 1.6-.3.1-.5.1-.8.2-2.2.6-4.3 1.2-6.4 1.9-14.2 4.4-28 9.9-41.4 16.6V37.9zm255 766.1h-255v-42.2h155.9c10.5 0 18.9-8.5 18.9-18.9 0-10.4-8.5-18.9-18.9-18.9H156.5v-50.7c13.4 6.6 27.2 12.2 41.4 16.6 2.1.7 4.2 1.3 6.3 1.9.3.1.5.1.8.2 2 .6 4 1.1 6 1.6.3.1.7.2 1 .3 5.5 1.4 11.1 2.6 16.7 3.7 1.1.2 2.3.4 3.4.7 1.2.2 2.4.4 3.5.6 1.4.2 2.7.5 4.1.7 1.1.2 2.2.3 3.3.5 1.5.2 2.9.4 4.4.6 1.1.1 2.1.3 3.2.4 1.5.2 3 .3 4.6.5 1 .1 2.1.2 3.1.3l4.8.3c1 .1 1.9.1 2.9.2 1.8.1 3.5.1 5.3.2.8 0 1.6.1 2.5.1 2.6.1 5.2.1 7.7.1 2.6 0 5.3-.1 7.9-.1.9 0 1.8-.1 2.7-.1 1.7-.1 3.4-.1 5.1-.2 1.1-.1 2.3-.1 3.4-.2 1.5-.1 2.9-.2 4.4-.3 1.2-.1 2.5-.2 3.7-.3 1.3-.1 2.5-.3 3.8-.4 1.4-.2 2.8-.3 4.2-.5.9-.1 1.8-.3 2.6-.4 32.2-4.3 63.3-14.2 92.1-29.2V804zM525 429.1c0 .7-.1 1.3-.1 2-.1 2.6-.2 5.1-.4 7.7v.5c-.2 2.7-.5 5.4-.8 8.1-.1.7-.1 1.4-.2 2.1-.3 2.1-.5 4.2-.8 6.3-14.1 97.7-86.3 176.8-180.3 201.1-.1 0-.3.1-.4.1-3.2.8-6.4 1.6-9.7 2.3-.9.2-1.8.4-2.6.5-1.4.3-2.9.6-4.3.9-1.5.3-3 .5-4.6.8-1.6.3-3.1.5-4.7.7-1.8.3-3.6.5-5.4.7-1 .1-2 .2-2.9.3-2.5.3-5 .5-7.6.7-.3 0-.7.1-1.1.1-2.4.2-4.8.3-7.3.4-.7 0-1.5.1-2.2.1-2.7.1-5.5.2-8.2.2-2.7 0-5.3-.1-8-.1-.7 0-1.4-.1-2.2-.1-2.2-.1-4.4-.2-6.6-.4-.5 0-1-.1-1.4-.1-2.6-.2-5.2-.4-7.7-.7-.7-.1-1.4-.2-2.1-.2-2-.2-4-.5-5.9-.8-.8-.1-1.5-.2-2.3-.3-2.4-.4-4.8-.8-7.3-1.2-.9-.2-1.7-.3-2.6-.5-1.6-.3-3.2-.6-4.8-1-1.1-.2-2.2-.5-3.3-.7-1.5-.3-2.9-.7-4.4-1-2-.5-4.1-1-6.1-1.6-.9-.3-1.8-.5-2.7-.8-1.6-.5-3.1-.9-4.7-1.4-.4-.1-.8-.3-1.2-.4-98.5-31.2-170.3-123.6-170.3-232.5s71.8-201.2 170.5-232.4c.4-.1.8-.3 1.2-.4 1.6-.5 3.1-1 4.7-1.4.9-.3 1.8-.5 2.7-.7 2-.6 4-1.1 6.1-1.6 1.5-.4 2.9-.7 4.4-1.1 1.1-.3 2.2-.5 3.3-.7 1.6-.3 3.2-.7 4.8-1 .9-.2 1.7-.3 2.6-.5 2.4-.5 4.8-.9 7.2-1.2.8-.1 1.5-.2 2.3-.3 2-.3 3.9-.5 5.9-.7l2.1-.3c2.6-.3 5.1-.5 7.7-.7.5 0 1-.1 1.4-.1 2.2-.1 4.4-.3 6.6-.3.7 0 1.4-.1 2.2-.1 2.6-.1 5.3-.1 8-.1s5.5.1 8.2.1c.7 0 1.5.1 2.2.1 2.4.1 4.8.2 7.3.4.4 0 .7.1 1.1.1 2.6.2 5.1.4 7.6.7 1 .1 2 .2 2.9.3 1.8.2 3.6.5 5.4.7 1.6.2 3.1.5 4.7.7 1.5.3 3.1.5 4.6.8 1.4.3 2.9.5 4.3.8.9.2 1.8.4 2.6.5 3.3.7 6.5 1.4 9.7 2.3.1 0 .3.1.4.1 94 24.3 166.2 103.4 180.3 201.1.3 2.1.6 4.2.8 6.3.1.7.2 1.4.2 2.2.3 2.7.6 5.4.8 8.1v.5c.2 2.6.3 5.1.4 7.7 0 .7.1 1.3.1 2 .1 2.7.1 5.5.1 8.2 0 2.7-.1 5.4-.2 8.1zM515.3 264c-7.6-11.3-16-22-25.1-32.1l15.4-15.4 28.6 28.6zm72.8 177.2h-25.8c0-.3 0-.7.1-1 .2-2.6.3-5.2.4-7.8 0-.8.1-1.5.1-2.3.1-3 .2-6.1.2-9.1 0-3.1-.1-6.1-.2-9.1 0-.8-.1-1.5-.1-2.3-.1-2.6-.2-5.2-.4-7.8 0-.3 0-.7-.1-1H588v40.4z"/><path d="M281.5 211.9c-115.3 0-209 93.7-209 209s93.8 209 209 209 209-93.8 209-209-93.8-209-209-209zm0 380.2c-94.4 0-171.2-76.8-171.2-171.1s76.8-171.1 171.2-171.1c94.4 0 171.1 76.8 171.1 171.1s-76.7 171.1-171.1 171.1z"/><path d="M373.9 405.3h-73.4v-92.5c0-10.5-8.5-18.9-18.9-18.9-10.5 0-18.9 8.5-18.9 18.9v111.4c0 10.5 8.5 18.9 18.9 18.9H374c10.5 0 19-8.5 19-18.9 0-10.4-8.7-18.9-19.1-18.9zm13.9 333.9c-.3-1.2-.6-2.4-1.1-3.6-.5-1.1-1.1-2.2-1.8-3.3-.7-1-1.5-2-2.3-2.9-.9-.9-1.8-1.6-2.9-2.3-1-.7-2.1-1.3-3.3-1.8-1.1-.5-2.3-.9-3.5-1.1-2.4-.5-5-.5-7.4 0-1.2.3-2.4.6-3.5 1.1-1.2.5-2.2 1-3.3 1.8-1 .7-2 1.5-2.9 2.3-.9.9-1.7 1.8-2.4 2.9-.7 1-1.2 2.1-1.7 3.3-.5 1.2-.9 2.4-1.1 3.6-.3 1.2-.4 2.4-.4 3.7 0 1.2.1 2.5.4 3.7.2 1.2.6 2.4 1.1 3.5.5 1.2 1 2.2 1.7 3.3.7 1 1.5 2 2.4 2.9.9.9 1.8 1.7 2.9 2.4 1 .7 2.1 1.3 3.3 1.7 1.1.5 2.3.9 3.5 1.1 1.2.3 2.5.4 3.7.4 1.2 0 2.5-.1 3.7-.4 1.2-.2 2.4-.6 3.5-1.1 1.2-.5 2.3-1 3.3-1.7s2-1.5 2.9-2.4c.9-.9 1.6-1.8 2.3-2.9.7-1 1.3-2.1 1.8-3.3.5-1.1.9-2.3 1.1-3.5.3-1.2.4-2.5.4-3.7 0-1.3-.2-2.5-.4-3.7zM217.4 85.9c-.2-1.2-.6-2.4-1.1-3.5-.5-1.2-1-2.2-1.8-3.3-.7-1-1.5-2-2.4-2.9-4.4-4.4-10.9-6.4-17.1-5.2-1.2.2-2.4.6-3.5 1.1-1.2.5-2.3 1-3.3 1.7s-2 1.5-2.9 2.4c-.9.9-1.7 1.8-2.4 2.9-.7 1-1.3 2.1-1.8 3.3-.5 1.1-.9 2.3-1.1 3.5-.2 1.2-.4 2.5-.4 3.7 0 1.2.1 2.5.4 3.7.2 1.2.6 2.4 1.1 3.5.5 1.1 1.1 2.2 1.8 3.3.7 1 1.5 2 2.4 2.9.9.9 1.8 1.7 2.9 2.4 1 .7 2.1 1.2 3.3 1.7 1.1.5 2.3.9 3.5 1.1 1.2.3 2.5.4 3.7.4 1.2 0 2.5-.1 3.7-.4 1.2-.2 2.4-.6 3.5-1.1 1.2-.5 2.3-1 3.3-1.7s2-1.5 2.9-2.4c.9-.9 1.7-1.8 2.4-2.9.7-1 1.3-2.1 1.8-3.3.5-1.1.9-2.3 1.1-3.5.2-1.2.4-2.5.4-3.7-.1-1.3-.2-2.5-.4-3.7z"/></g></symbol></svg>