<?xml version="1.0" encoding="UTF-8" standalone="no"?>
<!-- Generator: Adobe Illustrator 17.1.0, SVG Export Plug-In . SVG Version: 6.00 Build 0)  -->

<svg
   xmlns:dc="http://purl.org/dc/elements/1.1/"
   xmlns:cc="http://creativecommons.org/ns#"
   xmlns:rdf="http://www.w3.org/1999/02/22-rdf-syntax-ns#"
   xmlns:svg="http://www.w3.org/2000/svg"
   xmlns="http://www.w3.org/2000/svg"
   xmlns:sodipodi="http://sodipodi.sourceforge.net/DTD/sodipodi-0.dtd"
   xmlns:inkscape="http://www.inkscape.org/namespaces/inkscape"
   version="1.1"
   id="Layer_1"
   x="0px"
   y="0px"
   viewBox="0 0 115.7 71.699995"
   enable-background="new 0 0 595.3 841.9"
   xml:space="preserve"
   sodipodi:docname="avto_brendirovanie.svg"
   width="115.7"
   height="71.699997"
   inkscape:version="0.92.1 r"><metadata
     id="metadata21"><rdf:RDF><cc:Work
         rdf:about=""><dc:format>image/svg+xml</dc:format><dc:type
           rdf:resource="http://purl.org/dc/dcmitype/StillImage" /><dc:title></dc:title></cc:Work></rdf:RDF></metadata><defs
     id="defs19" /><sodipodi:namedview
     pagecolor="#ffffff"
     bordercolor="#666666"
     borderopacity="1"
     objecttolerance="10"
     gridtolerance="10"
     guidetolerance="10"
     inkscape:pageopacity="0"
     inkscape:pageshadow="2"
     inkscape:window-width="776"
     inkscape:window-height="480"
     id="namedview17"
     showgrid="false"
     fit-margin-top="0"
     fit-margin-left="0"
     fit-margin-right="0"
     fit-margin-bottom="0"
     inkscape:zoom="0.28031832"
     inkscape:cx="57.849994"
     inkscape:cy="35.849988"
     inkscape:window-x="51"
     inkscape:window-y="27"
     inkscape:window-maximized="0"
     inkscape:current-layer="Layer_1" /><g
     id="g14"
     transform="translate(-239.8,-385.1)"><path
       d="m 335.6,441.3 c -2,0 -3.6,1.6 -3.6,3.6 0,2 1.6,3.6 3.6,3.6 2,0 3.6,-1.6 3.6,-3.6 0,-2 -1.6,-3.6 -3.6,-3.6 z"
       id="path2"
       inkscape:connector-curvature="0"
       style="clip-rule:evenodd;fill:#1a9f29;fill-rule:evenodd" /><path
       d="m 263.7,441.3 c -2,0 -3.6,1.6 -3.6,3.6 0,2 1.6,3.6 3.6,3.6 2,0 3.6,-1.6 3.6,-3.6 0,-2 -1.6,-3.6 -3.6,-3.6 z"
       id="path4"
       inkscape:connector-curvature="0"
       style="clip-rule:evenodd;fill:#1a9f29;fill-rule:evenodd" /><path
       d="M 350.8,417.7 337,411.6 326.9,389.7 c -1.3,-2.8 -4.1,-4.6 -7.1,-4.6 h -74.1 c -3.2,0 -5.9,2.6 -5.9,5.9 v 49.9 c 0,3.3 2.6,5.9 5.9,5.9 h 6.3 c 0.9,5.7 5.8,10 11.7,10 5.9,0 10.8,-4.3 11.7,-10 h 48.5 c 0.9,5.7 5.8,10 11.7,10 5.9,0 10.8,-4.3 11.7,-10 h 2.3 c 3.2,0 5.9,-2.6 5.9,-5.9 v -16.1 c 0,-3 -1.9,-5.9 -4.7,-7.1 z M 327,398.8 332.6,411 H 315.5 V 398.8 Z M 263.7,453 c -4.5,0 -8.1,-3.7 -8.1,-8.1 0,-4.5 3.6,-8.1 8.1,-8.1 4.5,0 8.1,3.7 8.1,8.1 0,4.5 -3.6,8.1 -8.1,8.1 z m 71.9,0 c -4.5,0 -8.1,-3.7 -8.1,-8.1 0,-4.5 3.7,-8.1 8.1,-8.1 4.5,0 8.1,3.7 8.1,8.1 0,4.5 -3.6,8.1 -8.1,8.1 z m 16.1,-17.9 h -2.1 c -1,0 -1.9,0.8 -1.9,1.9 0,1 0.8,1.9 1.9,1.9 h 2.1 v 2.1 c 0,1.2 -1,2.1 -2.1,2.1 h -2.3 c -0.9,-5.6 -5.8,-10 -11.7,-10 -5.9,0 -10.8,4.3 -11.7,10 h -48.5 c -0.9,-5.6 -5.8,-10 -11.7,-10 -5.9,0 -10.8,4.3 -11.7,10 h -6.3 c -1.2,0 -2.1,-0.9 -2.1,-2.1 v -2.1 h 6.1 c 1,0 1.9,-0.9 1.9,-1.9 0,-1 -0.9,-1.9 -1.9,-1.9 h -6.1 V 391 c 0,-1.2 1,-2.1 2.1,-2.1 h 74.1 c 1.6,0 3.1,0.9 3.7,2.4 l 1.8,3.8 h -17.7 c -2.1,0 -3.9,1.8 -3.9,3.9 v 8 c 0,4.3 3.5,7.9 7.9,7.9 h 23.6 l 11.6,5.2 -0.3,0.2 c -1.7,1 -2.8,3 -2.8,5 v 3.7 c 0,1 0.8,1.9 1.9,1.9 h 6.1 z M 311.8,398.8 V 411 h -0.1 c -2.3,0 -4.1,-1.8 -4.1,-4.1 v -8 c 0,-0.1 0.1,-0.1 0.1,-0.1 z m 39.9,28.3 h -4.3 v -1.9 c 0,-0.7 0.4,-1.4 1,-1.8 l 2.2,-1.3 c 0.7,0.7 1.1,1.7 1.1,2.7 z"
       id="path6"
       inkscape:connector-curvature="0"
       style="clip-rule:evenodd;fill:#1a9f29;fill-rule:evenodd" /><path
       d="m 321.6,435.1 h -43.9 c -1,0 -1.9,0.8 -1.9,1.9 0,1 0.9,1.9 1.9,1.9 h 43.9 c 1,0 1.9,-0.9 1.9,-1.9 0,-1.1 -0.8,-1.9 -1.9,-1.9 z"
       id="path8"
       inkscape:connector-curvature="0"
       style="clip-rule:evenodd;fill:#f79400;fill-rule:evenodd" /><path
       d="m 266.7,393 c -0.9,0 -1.6,0.7 -1.6,1.6 v 7 h -2 v -7 c 0,-0.9 -0.7,-1.6 -1.6,-1.6 -0.9,0 -1.6,0.7 -1.6,1.6 v 7 H 258 v -7 c 0,-0.9 -0.7,-1.6 -1.6,-1.6 -0.9,0 -1.6,0.7 -1.6,1.6 v 10.3 c 0,2.8 2.3,5 5,5 h 0.1 v 13.9 c 0,0.9 0.7,1.6 1.6,1.6 0.9,0 1.6,-0.7 1.6,-1.6 V 410 h 0.1 c 2.8,0 5.1,-2.3 5.1,-5 v -10.3 c 0,-1 -0.7,-1.7 -1.6,-1.7 z m -1.6,11.9 c 0,1 -0.8,1.8 -1.8,1.8 h -3.5 c -1,0 -1.8,-0.8 -1.8,-1.8 v -0.1 h 7.1 z"
       id="path10"
       inkscape:connector-curvature="0"
       style="clip-rule:evenodd;fill:#f79400;fill-rule:evenodd" /><path
       d="m 273.6,425.5 c 0.9,0 1.6,-0.7 1.6,-1.6 v -7 h 3.2 c 1,0 1.9,-0.4 2.6,-1.2 0.7,-0.8 0.9,-1.7 0.8,-2.7 l -2.9,-17.1 c -0.3,-1.7 -1.7,-2.9 -3.4,-2.9 -1.9,0 -3.5,1.6 -3.5,3.5 v 27.4 c 0,0.9 0.7,1.6 1.6,1.6 z m 1.6,-29.1 c 0,-0.1 0.1,-0.2 0.3,-0.2 0.1,0 0.2,0.1 0.2,0.2 l 2.9,17.1 c 0,0 0,0.1 0,0.1 0,0 -0.1,0 -0.1,0 h -3.2 v -17.2 z"
       id="path12"
       inkscape:connector-curvature="0"
       style="clip-rule:evenodd;fill:#f79400;fill-rule:evenodd" /></g></svg>