<?xml version="1.0" encoding="UTF-8" standalone="no"?>
<!-- Generator: Adobe Illustrator 17.1.0, SVG Export Plug-In . SVG Version: 6.00 Build 0)  -->

<svg
   xmlns:dc="http://purl.org/dc/elements/1.1/"
   xmlns:cc="http://creativecommons.org/ns#"
   xmlns:rdf="http://www.w3.org/1999/02/22-rdf-syntax-ns#"
   xmlns:svg="http://www.w3.org/2000/svg"
   xmlns="http://www.w3.org/2000/svg"
   xmlns:sodipodi="http://sodipodi.sourceforge.net/DTD/sodipodi-0.dtd"
   xmlns:inkscape="http://www.inkscape.org/namespaces/inkscape"
   version="1.1"
   id="Слой_1"
   x="0px"
   y="0px"
   viewBox="0 0 99.100001 91.8"
   enable-background="new 0 0 595.3 841.9"
   xml:space="preserve"
   sodipodi:docname="bukvi.svg"
   width="99.099998"
   height="91.800003"
   inkscape:version="0.92.1 r"><metadata
     id="metadata13"><rdf:RDF><cc:Work
         rdf:about=""><dc:format>image/svg+xml</dc:format><dc:type
           rdf:resource="http://purl.org/dc/dcmitype/StillImage" /><dc:title></dc:title></cc:Work></rdf:RDF></metadata><defs
     id="defs11" /><sodipodi:namedview
     pagecolor="#ffffff"
     bordercolor="#666666"
     borderopacity="1"
     objecttolerance="10"
     gridtolerance="10"
     guidetolerance="10"
     inkscape:pageopacity="0"
     inkscape:pageshadow="2"
     inkscape:window-width="776"
     inkscape:window-height="480"
     id="namedview9"
     showgrid="false"
     fit-margin-top="0"
     fit-margin-left="0"
     fit-margin-right="0"
     fit-margin-bottom="0"
     inkscape:zoom="0.28031832"
     inkscape:cx="49.549994"
     inkscape:cy="46.849988"
     inkscape:window-x="51"
     inkscape:window-y="27"
     inkscape:window-maximized="0"
     inkscape:current-layer="Слой_1" /><g
     id="g6"
     transform="translate(-248.1,-376)"><path
       d="m 309.3,398.9 c -0.2,-0.8 -0.7,-3.3 -3.6,-3.3 -2.9,0 -3.4,2.5 -3.6,3.3 l -6.4,33.1 h 20 l -6.3,-32.8 z m -7.7,28.2 4.2,-21.5 4.2,21.5 z"
       id="path2"
       inkscape:connector-curvature="0"
       style="fill:#1a9f29" /><path
       d="M 347.2,467.5 330.7,391.9 C 328.1,380 319.5,376.8 310.4,376.2 V 376 c -1.4,0 -3,0 -4.6,0 0,0 -0.1,0 -0.1,0 0,0 -0.1,0 -0.1,0 -7.9,0 -17.4,0 -17.7,0 -9.3,0.2 -20.4,2.2 -23.3,15.9 l -15.8,72.4 -0.7,3.5 22,-0.3 h 23.8 l 3.3,-16.7 h 4.2 l 2.9,16.7 h 13.1 v 0.1 h 29.8 z M 269.3,393 c 1.8,-8.2 6.8,-11.6 17.7,-12 -2.9,2.4 -5.1,5.9 -6.2,11 L 265.4,462.8 254,463 Z m 24,53 -3.3,16.7 h -18 v 0 h -1.6 L 285.5,393 c 1.9,-8.7 7.6,-12.1 20.2,-12.1 0,0 0,0 0.1,0 12.7,0 18.3,3.4 20.2,12.1 l 15.2,69.7 H 321.5 L 318.2,446 Z m 15.1,16.6 -2.1,-11.8 h 7.9 l 2.3,11.8 z"
       id="path4"
       inkscape:connector-curvature="0"
       style="fill:#1a9f29" /></g></svg>