<?xml version="1.0" encoding="UTF-8" standalone="no"?>
<!-- Generator: Adobe Illustrator 17.1.0, SVG Export Plug-In . SVG Version: 6.00 Build 0)  -->

<svg
   xmlns:dc="http://purl.org/dc/elements/1.1/"
   xmlns:cc="http://creativecommons.org/ns#"
   xmlns:rdf="http://www.w3.org/1999/02/22-rdf-syntax-ns#"
   xmlns:svg="http://www.w3.org/2000/svg"
   xmlns="http://www.w3.org/2000/svg"
   xmlns:sodipodi="http://sodipodi.sourceforge.net/DTD/sodipodi-0.dtd"
   xmlns:inkscape="http://www.inkscape.org/namespaces/inkscape"
   version="1.1"
   id="Слой_1"
   x="0px"
   y="0px"
   viewBox="0 0 96.199999 100.69999"
   enable-background="new 0 0 595.3 841.9"
   xml:space="preserve"
   sodipodi:docname="info_stend.svg"
   width="96.199997"
   height="100.7"
   inkscape:version="0.92.1 r"><metadata
     id="metadata33"><rdf:RDF><cc:Work
         rdf:about=""><dc:format>image/svg+xml</dc:format><dc:type
           rdf:resource="http://purl.org/dc/dcmitype/StillImage" /><dc:title></dc:title></cc:Work></rdf:RDF></metadata><defs
     id="defs31" /><sodipodi:namedview
     pagecolor="#ffffff"
     bordercolor="#666666"
     borderopacity="1"
     objecttolerance="10"
     gridtolerance="10"
     guidetolerance="10"
     inkscape:pageopacity="0"
     inkscape:pageshadow="2"
     inkscape:window-width="776"
     inkscape:window-height="480"
     id="namedview29"
     showgrid="false"
     fit-margin-top="0"
     fit-margin-left="0"
     fit-margin-right="0"
     fit-margin-bottom="0"
     inkscape:zoom="0.28031832"
     inkscape:cx="48.049994"
     inkscape:cy="51.249988"
     inkscape:window-x="51"
     inkscape:window-y="27"
     inkscape:window-maximized="0"
     inkscape:current-layer="Слой_1" /><g
     id="g26"
     transform="translate(-249.6,-371.5)"><g
       id="g4"><path
         d="m 337.6,472.2 h -79.8 c -4.5,0 -8.2,-3.7 -8.2,-8.2 v -84.3 c 0,-4.5 3.7,-8.2 8.2,-8.2 h 79.8 c 4.5,0 8.2,3.7 8.2,8.2 V 464 c -0.1,4.6 -3.7,8.2 -8.2,8.2 z m -79.9,-95.7 c -1.8,0 -3.3,1.5 -3.3,3.3 v 84.3 c 0,1.8 1.5,3.3 3.3,3.3 h 79.8 c 1.8,0 3.3,-1.5 3.3,-3.3 v -84.3 c 0,-1.8 -1.5,-3.3 -3.3,-3.3 z"
         id="path2"
         inkscape:connector-curvature="0"
         style="fill:#1a9f29" /></g><g
       id="g8"><path
         d="M 322.3,385.3 H 273 c -1.3,0 -2.4,-1.1 -2.4,-2.4 0,-1.3 1.1,-2.4 2.4,-2.4 h 49.3 c 1.3,0 2.4,1.1 2.4,2.4 0,1.3 -1.1,2.4 -2.4,2.4 z"
         id="path6"
         inkscape:connector-curvature="0"
         style="fill:#f79400" /></g><g
       id="g12"><path
         d="M 293,423.3 H 267.4 V 391.2 H 293 Z m -20.8,-4.8 h 16 V 396 h -16 z"
         id="path10"
         inkscape:connector-curvature="0"
         style="fill:#1a9f29" /></g><g
       id="g16"><path
         d="M 293,459.2 H 267.4 V 427.1 H 293 Z m -20.8,-4.8 h 16 v -22.5 h -16 z"
         id="path14"
         inkscape:connector-curvature="0"
         style="fill:#1a9f29" /></g><g
       id="g20"><path
         d="M 325.6,423.3 H 300 v -32.1 h 25.6 z m -20.7,-4.8 h 16 V 396 h -16 z"
         id="path18"
         inkscape:connector-curvature="0"
         style="fill:#1a9f29" /></g><g
       id="g24"><path
         d="M 325.6,459.2 H 300 v -32.1 h 25.6 z m -20.7,-4.8 h 16 v -22.5 h -16 z"
         id="path22"
         inkscape:connector-curvature="0"
         style="fill:#1a9f29" /></g></g></svg>