<?xml version="1.0" encoding="UTF-8" standalone="no"?>
<!-- Generator: Adobe Illustrator 17.1.0, SVG Export Plug-In . SVG Version: 6.00 Build 0)  -->

<svg
   xmlns:dc="http://purl.org/dc/elements/1.1/"
   xmlns:cc="http://creativecommons.org/ns#"
   xmlns:rdf="http://www.w3.org/1999/02/22-rdf-syntax-ns#"
   xmlns:svg="http://www.w3.org/2000/svg"
   xmlns="http://www.w3.org/2000/svg"
   xmlns:sodipodi="http://sodipodi.sourceforge.net/DTD/sodipodi-0.dtd"
   xmlns:inkscape="http://www.inkscape.org/namespaces/inkscape"
   version="1.1"
   id="Слой_1"
   x="0px"
   y="0px"
   viewBox="0 0 242.60001 168.39999"
   enable-background="new 0 0 595.3 841.9"
   xml:space="preserve"
   sodipodi:docname="plotter.svg"
   width="242.60001"
   height="168.39999"
   inkscape:version="0.92.1 r"><metadata
     id="metadata37"><rdf:RDF><cc:Work
         rdf:about=""><dc:format>image/svg+xml</dc:format><dc:type
           rdf:resource="http://purl.org/dc/dcmitype/StillImage" /><dc:title></dc:title></cc:Work></rdf:RDF></metadata><defs
     id="defs35" /><sodipodi:namedview
     pagecolor="#ffffff"
     bordercolor="#666666"
     borderopacity="1"
     objecttolerance="10"
     gridtolerance="10"
     guidetolerance="10"
     inkscape:pageopacity="0"
     inkscape:pageshadow="2"
     inkscape:window-width="776"
     inkscape:window-height="480"
     id="namedview33"
     showgrid="false"
     fit-margin-top="0"
     fit-margin-left="0"
     fit-margin-right="0"
     fit-margin-bottom="0"
     inkscape:zoom="0.28031832"
     inkscape:cx="121.34999"
     inkscape:cy="85.249988"
     inkscape:window-x="1102"
     inkscape:window-y="211"
     inkscape:window-maximized="0"
     inkscape:current-layer="Слой_1" /><g
     id="g4"
     transform="translate(-176.3,-337.8)"><path
       d="m 369.8,361.3 h 28 c 2.3,0 4.2,-1.9 4.2,-4.2 0,-2.3 -1.9,-4.2 -4.2,-4.2 h -28 c -2.3,0 -4.2,1.9 -4.2,4.2 0,2.3 1.9,4.2 4.2,4.2 z"
       id="path2"
       inkscape:connector-curvature="0"
       style="clip-rule:evenodd;fill:#f89803;fill-rule:evenodd" /></g><g
     id="g8"
     transform="translate(-176.3,-337.8)"><path
       d="m 251.8,396.7 h 80.6 c 2.3,0 4.2,-1.9 4.2,-4.2 0,-2.3 -1.9,-4.2 -4.2,-4.2 h -80.6 c -2.3,0 -4.2,1.8 -4.2,4.2 0,2.3 1.9,4.2 4.2,4.2 z"
       id="path6"
       inkscape:connector-curvature="0"
       style="clip-rule:evenodd;fill:#f89803;fill-rule:evenodd" /></g><g
     id="g12"
     transform="translate(-176.3,-337.8)"><path
       d="m 258.9,413.9 h 66.4 c 1.9,0 3.4,-1.9 3.4,-4.2 0,-2.3 -1.6,-4.2 -3.4,-4.2 h -66.4 c -1.9,0 -3.4,1.9 -3.4,4.2 -0.1,2.3 1.5,4.2 3.4,4.2 z"
       id="path10"
       inkscape:connector-curvature="0"
       style="clip-rule:evenodd;fill:#f89803;fill-rule:evenodd" /></g><g
     id="g16"
     transform="translate(-176.3,-337.8)"><path
       d="m 251.8,431.2 h 80.6 c 2.3,0 4.2,-1.9 4.2,-4.2 0,-2.3 -1.9,-4.2 -4.2,-4.2 h -80.6 c -2.3,0 -4.2,1.8 -4.2,4.2 0,2.3 1.9,4.2 4.2,4.2 z"
       id="path14"
       inkscape:connector-curvature="0"
       style="clip-rule:evenodd;fill:#f89803;fill-rule:evenodd" /></g><g
     id="g20"
     transform="translate(-176.3,-337.8)"><path
       d="m 263.6,448.4 h 56.8 c 1.6,0 2.9,-1.9 2.9,-4.2 0,-2.3 -1.3,-4.2 -2.9,-4.2 h -56.8 c -1.6,0 -2.9,1.9 -2.9,4.2 0,2.3 1.3,4.2 2.9,4.2 z"
       id="path18"
       inkscape:connector-curvature="0"
       style="clip-rule:evenodd;fill:#f89803;fill-rule:evenodd" /></g><g
     id="g24"
     transform="translate(-176.3,-337.8)"><path
       d="m 251.8,465.7 h 80.6 c 2.3,0 4.2,-1.9 4.2,-4.2 0,-2.3 -1.9,-4.2 -4.2,-4.2 h -80.6 c -2.3,0 -4.2,1.9 -4.2,4.2 0,2.3 1.9,4.2 4.2,4.2 z"
       id="path22"
       inkscape:connector-curvature="0"
       style="clip-rule:evenodd;fill:#f89803;fill-rule:evenodd" /></g><g
     id="g28"
     transform="translate(-176.3,-337.8)"><path
       d="m 196.1,362.3 h 14.3 c 2.5,0 4.5,-2 4.5,-4.5 0,-2.5 -2,-4.5 -4.5,-4.5 h -14.3 c -2.5,0 -4.5,2 -4.5,4.5 -0.1,2.5 2,4.5 4.5,4.5 z"
       id="path26"
       inkscape:connector-curvature="0"
       style="clip-rule:evenodd;fill:#f89803;fill-rule:evenodd" /></g><path
     d="M 226.8,0 H 15.9 C 7.1,0 0,7.1 0,15.9 v 26.8 c 0,8.8 7.1,15.9 15.9,15.9 h 4.2 v 26.5 h 12.2 v 47.5 h 17.1 c -0.9,7.9 -2.5,14.4 -4.8,23.5 -0.6,2.2 -1.1,4.5 -1.8,7 l -1.3,5.3 h 147.3 l -1.7,-5.5 c -0.9,-3.1 -1.8,-5.9 -2.6,-8.4 -2.7,-8.7 -4.5,-14.5 -5.5,-21.8 h 21.1 V 85.2 h 22.4 V 58.7 h 4.3 c 8.7,0 15.8,-7.1 15.8,-15.9 V 16 C 242.6,7.1 235.5,0 226.8,0 Z M 28.7,58.6 h 21.4 v 18 H 28.7 Z m 12.1,65.5 v -39 h 9.3 v 33.2 c 0,2.1 0,4 -0.1,5.8 z m 11.6,35.7 c 0.1,-0.6 0.3,-1.1 0.4,-1.6 3.6,-14.1 5.7,-22.6 5.7,-39.9 V 85.1 58.6 50.1 39.8 h 111.2 v 10.3 8.5 26.5 32.5 c 0,18.2 2.4,25.7 6.7,39.4 0.3,0.9 0.6,1.9 0.9,2.8 z m 139.3,-35.7 h -13.3 c -0.1,-2 -0.1,-4.2 -0.1,-6.5 V 85.1 h 13.4 z M 214,76.6 h -35.7 v -18 H 214 Z m 20.1,-33.9 c 0,4.1 -3.3,7.4 -7.3,7.4 h -4.3 v 0 H 178.3 V 39.2 h 4.4 c 2.3,0 4.1,-1.8 4.1,-4.1 0,-2.3 -1.8,-4.1 -4.1,-4.1 H 46.5 c -2.2,0 -4.1,1.8 -4.1,4.1 0,2.3 1.8,4.1 4.1,4.1 h 3.6 V 50.1 H 20.2 v 0 H 16 c -4.1,0 -7.4,-3.3 -7.4,-7.4 V 15.9 c 0,-4.1 3.3,-7.4 7.4,-7.4 h 210.8 c 4,0 7.3,3.3 7.3,7.4 z"
     id="path30"
     inkscape:connector-curvature="0"
     style="clip-rule:evenodd;fill:#1a9f29;fill-rule:evenodd" /></svg>