<?xml version="1.0" encoding="UTF-8" standalone="no"?>
<!-- Generator: Adobe Illustrator 17.1.0, SVG Export Plug-In . SVG Version: 6.00 Build 0)  -->

<svg
   xmlns:dc="http://purl.org/dc/elements/1.1/"
   xmlns:cc="http://creativecommons.org/ns#"
   xmlns:rdf="http://www.w3.org/1999/02/22-rdf-syntax-ns#"
   xmlns:svg="http://www.w3.org/2000/svg"
   xmlns="http://www.w3.org/2000/svg"
   xmlns:sodipodi="http://sodipodi.sourceforge.net/DTD/sodipodi-0.dtd"
   xmlns:inkscape="http://www.inkscape.org/namespaces/inkscape"
   version="1.1"
   id="Слой_1"
   x="0px"
   y="0px"
   viewBox="0 0 95.834719 117"
   enable-background="new 0 0 595.3 841.9"
   xml:space="preserve"
   sodipodi:docname="shtender.svg"
   width="95.834717"
   height="117"
   inkscape:version="0.92.1 r"><metadata
     id="metadata33"><rdf:RDF><cc:Work
         rdf:about=""><dc:format>image/svg+xml</dc:format><dc:type
           rdf:resource="http://purl.org/dc/dcmitype/StillImage" /><dc:title></dc:title></cc:Work></rdf:RDF></metadata><defs
     id="defs31" /><sodipodi:namedview
     pagecolor="#ffffff"
     bordercolor="#666666"
     borderopacity="1"
     objecttolerance="10"
     gridtolerance="10"
     guidetolerance="10"
     inkscape:pageopacity="0"
     inkscape:pageshadow="2"
     inkscape:window-width="776"
     inkscape:window-height="480"
     id="namedview29"
     showgrid="false"
     fit-margin-top="0"
     fit-margin-left="0"
     fit-margin-right="0"
     fit-margin-bottom="0"
     inkscape:zoom="0.28031832"
     inkscape:cx="47.877817"
     inkscape:cy="59.549988"
     inkscape:window-x="51"
     inkscape:window-y="27"
     inkscape:window-maximized="0"
     inkscape:current-layer="Слой_1" /><g
     id="g4"
     transform="translate(-249.77218,-363.5)"><path
       d="m 318.9,423.5 h -46.7 c -1.3,0 -2.4,-1.1 -2.4,-2.4 0,-1.3 1.1,-2.4 2.4,-2.4 h 46.7 c 1.3,0 2.4,1.1 2.4,2.4 0,1.4 -1.1,2.4 -2.4,2.4 z"
       id="path2"
       inkscape:connector-curvature="0"
       style="fill:#f79400" /></g><g
     id="g8"
     transform="translate(-249.77218,-363.5)"><path
       d="m 309.4,434.6 h -33 c -1.3,0 -2.4,-1.1 -2.4,-2.4 0,-1.3 1.1,-2.4 2.4,-2.4 h 33 c 1.3,0 2.4,1.1 2.4,2.4 0,1.3 -1,2.4 -2.4,2.4 z"
       id="path6"
       inkscape:connector-curvature="0"
       style="fill:#f79400" /></g><g
     id="g12"
     transform="translate(-249.77218,-363.5)"><path
       d="m 297.8,444.7 h -11.5 c -1.3,0 -2.4,-1.1 -2.4,-2.4 0,-1.3 1.1,-2.4 2.4,-2.4 h 11.5 c 1.3,0 2.4,1.1 2.4,2.4 0,1.3 -1.1,2.4 -2.4,2.4 z"
       id="path10"
       inkscape:connector-curvature="0"
       style="fill:#1a9f29" /></g><g
     id="g16"
     transform="translate(-249.77218,-363.5)"><path
       d="m 306.6,455.1 h -33 c -1.3,0 -2.4,-1.1 -2.4,-2.4 0,-1.3 1.1,-2.4 2.4,-2.4 h 33 c 1.3,0 2.4,1.1 2.4,2.4 0,1.3 -1.1,2.4 -2.4,2.4 z"
       id="path14"
       inkscape:connector-curvature="0"
       style="fill:#f79400" /></g><g
     id="g20"
     transform="translate(-249.77218,-363.5)"><path
       d="m 252.2,480.5 c -0.1,0 -0.3,0 -0.4,0 -1.3,-0.2 -2.2,-1.5 -2,-2.8 l 5.8,-34.3 c 0.2,-1.3 1.5,-2.2 2.8,-2 1.3,0.2 2.2,1.5 2,2.8 l -5.8,34.3 c -0.3,1.1 -1.3,2 -2.4,2 z"
       id="path18"
       inkscape:connector-curvature="0"
       style="fill:#1a9f29" /></g><path
     d="m 90.327823,37.5 c -0.7,-9.2 -4.9,-18.8 -12,-26.9 -0.2,-0.2 -0.4,-0.4 -0.6,-0.5 -5.7,-6.5 -13.8,-10.1 -23,-10.1 -19.5,0 -38,16.3 -41.4,36.2 l -11.3000001,67 H 68.227823 l -1.9,11 c -0.2,1.3 0.7,2.6 2,2.8 0.1,0 0.3,0 0.4,0 1.2,0 2.2,-0.8 2.4,-2 l 2,-11.8 h 17.1 l 0.8,11.5 c 0.1,1.3 1.1,2.2 2.4,2.2 0.1,0 0.1,0 0.2,0 1.3,-0.1 2.3,-1.2 2.2,-2.6 z m -72.4,-0.5 c 3,-17.8 19.4,-32.2 36.7,-32.2 7.9,0 14.8,3.1 19.6,8.7 5.1,6 7,14 5.6,22.7 l -7.2,42.7 c -0.2,0.3 -0.3,0.6 -0.4,1 l -3.1,18.5 H 7.7278229 Z m 56.2,61.4 10.4,-61.4 c 0.2,-1.1 0.3,-2.2 0.4,-3.3 0.3,1.4 0.5,2.8 0.6,4.1 l 4.3,60.5 h -15.7 z"
     id="path22"
     inkscape:connector-curvature="0"
     style="fill:#1a9f29" /><g
     id="g26"
     transform="translate(-249.77218,-363.5)"><path
       d="M 309.6,412.7 H 283 l 12.2,-25.1 h 10 z m -18.9,-4.8 h 13.2 l -2.7,-15.5 h -3 z"
       id="path24"
       inkscape:connector-curvature="0"
       style="fill:#1a9f29" /></g></svg>