<?xml version="1.0" encoding="UTF-8" standalone="no"?>
<!-- Generator: Adobe Illustrator 17.1.0, SVG Export Plug-In . SVG Version: 6.00 Build 0)  -->

<svg
   xmlns:dc="http://purl.org/dc/elements/1.1/"
   xmlns:cc="http://creativecommons.org/ns#"
   xmlns:rdf="http://www.w3.org/1999/02/22-rdf-syntax-ns#"
   xmlns:svg="http://www.w3.org/2000/svg"
   xmlns="http://www.w3.org/2000/svg"
   xmlns:sodipodi="http://sodipodi.sourceforge.net/DTD/sodipodi-0.dtd"
   xmlns:inkscape="http://www.inkscape.org/namespaces/inkscape"
   version="1.1"
   id="Слой_1"
   x="0px"
   y="0px"
   viewBox="0 0 106 120"
   enable-background="new 0 0 595.3 841.9"
   xml:space="preserve"
   sodipodi:docname="svet_korob.svg"
   width="106"
   height="120"
   inkscape:version="0.92.1 r"><metadata
     id="metadata19"><rdf:RDF><cc:Work
         rdf:about=""><dc:format>image/svg+xml</dc:format><dc:type
           rdf:resource="http://purl.org/dc/dcmitype/StillImage" /><dc:title></dc:title></cc:Work></rdf:RDF></metadata><defs
     id="defs17" /><sodipodi:namedview
     pagecolor="#ffffff"
     bordercolor="#666666"
     borderopacity="1"
     objecttolerance="10"
     gridtolerance="10"
     guidetolerance="10"
     inkscape:pageopacity="0"
     inkscape:pageshadow="2"
     inkscape:window-width="776"
     inkscape:window-height="480"
     id="namedview15"
     showgrid="false"
     fit-margin-top="0"
     fit-margin-left="0"
     fit-margin-right="0"
     fit-margin-bottom="0"
     inkscape:zoom="0.28031832"
     inkscape:cx="-438.25468"
     inkscape:cy="11.249988"
     inkscape:window-x="51"
     inkscape:window-y="27"
     inkscape:window-maximized="0"
     inkscape:current-layer="Слой_1" /><path
     d="M 106,11.5 24.5,0 23.5,0.2 1.4,10.6 C 0.6,11 0,11.8 0,12.8 V 112 c 0,1.1 0.7,2.1 1.8,2.3 l 21.8,5.6 v 0.1 h 0.2 0.2 v -0.1 l 81.9,-13.2 V 11.5 Z M 4.9,110.1 V 14.2 L 23.7,5 v 109.9 z m 96.3,-7.4 -72.7,11.7 V 5.4 l 72.7,10.3 z"
     id="path2"
     inkscape:connector-curvature="0"
     style="fill:#1a9f29" /><g
     id="g12"
     transform="translate(-375.6,-312.2)"><path
       d="m 455.9,343.4 c -3.7,-4.6 -8.9,-7.4 -14.4,-8.1 -5.8,-0.7 -11.7,1.3 -16,5.3 -4.6,4.2 -7.2,10.3 -7.2,16.7 0,4.2 1.1,8.4 3.1,12 2,3.6 4.8,6.5 8.2,8.6 0.2,0.7 0.3,1.3 0.5,2 0.2,0.7 0.3,1.3 0.5,2 0.2,0.9 1,1.5 1.9,1.5 h 0.1 c 3,-0.1 6,-0.3 8.9,-0.4 h 0.9 c 2.6,-0.1 5.1,-0.3 7.6,-0.4 0.8,0 1.6,-0.7 1.8,-1.6 0.1,-0.7 0.3,-1.3 0.4,-2 0.1,-0.6 0.3,-1.2 0.4,-1.8 2.8,-2 5.1,-4.8 6.7,-8 1.6,-3.2 2.4,-6.8 2.4,-10.4 -0.2,-5.5 -2.2,-11 -5.8,-15.4 z m -33.3,14.1 c 0,-5.2 2.1,-10.2 5.8,-13.6 3.1,-2.9 7.1,-4.5 11.3,-4.5 0.6,0 1.2,0 1.7,0.1 4.6,0.5 8.8,2.8 11.9,6.5 3,3.6 4.6,8.2 4.6,12.9 0,6.3 -3.1,12.3 -8.1,15.5 -0.4,0.3 -0.8,0.7 -0.9,1.3 -0.1,0.6 -0.2,1.1 -0.4,1.6 -0.1,0.5 -0.2,1 -0.3,1.5 -2.3,0.1 -4.6,0.2 -7,0.2 -2.4,0.1 -4.9,0.2 -7.3,0.2 -0.1,-0.6 -0.3,-1.2 -0.4,-1.7 -0.1,-0.5 -0.2,-1 -0.4,-1.5 -0.1,-0.6 -0.5,-1 -0.9,-1.3 -5.8,-3.4 -9.6,-10.1 -9.6,-17.2 z m 9.8,25.8 c 0,0 0,0 0,0 z"
       id="path4"
       inkscape:connector-curvature="0"
       style="fill:#ff9100" /><path
       d="m 432.5,391 c 1.3,-0.1 2.6,-0.2 3.9,-0.3 1.7,-0.1 3.4,-0.2 5.1,-0.4 2.9,-0.2 5.7,-0.4 8.4,-0.6 1,-0.1 1.9,-1 1.9,-2.1 0,-1.1 -0.8,-1.9 -1.8,-1.9 h -0.7 c -2.6,0.2 -5.2,0.3 -7.8,0.5 l -1.3,0.1 c -2.5,0.1 -5.1,0.3 -7.7,0.5 -1.1,0.1 -2,1 -2,2.2 0,0.5 0.2,1 0.5,1.4 0.4,0.4 0.8,0.6 1.3,0.6 0,0 0.1,0 0.2,0 z"
       id="path6"
       inkscape:connector-curvature="0"
       style="fill:#ff9100" /><path
       d="m 436.1,374.4 c 0.2,0.9 1,1.6 1.9,1.6 v 0 0 c 0,0 0.1,0 0.1,0 0.1,0 0.2,0 0.3,-0.1 1,-0.3 1.7,-1.4 1.4,-2.5 -0.3,-1.1 -0.5,-2.1 -0.8,-3.2 -0.2,-1 -0.4,-1.9 -0.7,-2.9 1,0 2,0 3,0 1,0 1.9,0 2.9,0 -0.2,0.9 -0.4,1.9 -0.7,2.8 -0.3,1.1 -0.5,2.2 -0.8,3.3 -0.2,1.1 0.4,2.2 1.4,2.4 0.2,0 0.3,0 0.4,0 0.9,0 1.6,-0.7 1.8,-1.6 l 0.2,-1.1 c 0.6,-2.5 1.1,-5 1.7,-7.4 v -0.1 -0.8 0 c 0,0 0,-0.1 0,-0.1 v -0.1 0 l -0.1,-0.1 v 0 c 0,0 0,-0.1 0,-0.1 v -0.1 0 l -0.2,-0.2 c 0,0 0,-0.1 -0.1,-0.1 v -0.2 h 0.2 l -0.1,-0.1 v -0.2 h -0.2 c 0,0 0,0 0,0 l -0.2,-0.1 h -0.1 c 0,0 -0.1,0 -0.1,0 0,0 -0.1,0 -0.1,0 0,0 -0.1,0 -0.1,0 l -5.7,-0.1 c -0.9,0 -1.8,0 -2.7,-0.1 -0.9,0 -1.9,0 -2.8,-0.1 -0.6,0 -1.2,0.3 -1.6,0.8 -0.4,0.5 -0.5,1.1 -0.4,1.8 0.8,3 1.5,6.1 2.2,8.7 z"
       id="path8"
       inkscape:connector-curvature="0"
       style="fill:#ff9100" /><path
       d="m 450.6,392.2 -8.9,0.8 v 0 h -0.5 v 0 l -9.2,0.8 -1.6,0.1 v 8.1 0 c 0,0.2 0,0.4 0,0.6 v 0 l 0.1,0.5 v 0 c 0.3,1.6 1,3 2,4 v 0 l 0.2,0.2 c 0,0 0,0 0,0 v 0 c 0,0 0,0 0,0 l 0.2,0.2 v 0 c 1.2,1 2.7,1.6 4.2,1.6 h 0.5 v 0 c 0.1,0 0.3,0 0.4,0 v 0 l 0.5,-0.1 v 0 l 6.6,-0.8 v 0 l 0.5,-0.1 v 0 c 1.7,-0.3 3.3,-1.2 4.5,-2.6 v 0 l 0.2,-0.2 c 0,0 0,0 0,0 l 0.2,-0.2 v 0 c 1.1,-1.5 1.8,-3.2 1.8,-5 v -8 z m -2,7.7 c 0,1.1 -0.4,2.2 -1.1,3.1 l -0.1,0.1 v 0.1 c -0.7,0.8 -1.6,1.3 -2.6,1.5 l -7.1,0.9 c -0.1,0 -0.2,0 -0.3,0 -0.1,0 -0.2,0 -0.2,0 -0.8,0 -1.6,-0.3 -2.2,-0.8 v 0 c -0.6,-0.5 -1,-1.3 -1.1,-2.2 v -0.1 c 0,-0.2 0,-0.4 0,-0.5 v -4.6 l 14.7,-1.3 z"
       id="path10"
       inkscape:connector-curvature="0"
       style="fill:#ff9100" /></g></svg>