<?xml version="1.0" encoding="UTF-8" standalone="no"?>
<!-- Generator: Adobe Illustrator 17.1.0, SVG Export Plug-In . SVG Version: 6.00 Build 0)  -->

<svg
   xmlns:dc="http://purl.org/dc/elements/1.1/"
   xmlns:cc="http://creativecommons.org/ns#"
   xmlns:rdf="http://www.w3.org/1999/02/22-rdf-syntax-ns#"
   xmlns:svg="http://www.w3.org/2000/svg"
   xmlns="http://www.w3.org/2000/svg"
   xmlns:sodipodi="http://sodipodi.sourceforge.net/DTD/sodipodi-0.dtd"
   xmlns:inkscape="http://www.inkscape.org/namespaces/inkscape"
   version="1.1"
   id="Слой_1"
   x="0px"
   y="0px"
   viewBox="0 0 177.60001 113.3"
   enable-background="new 0 0 595.3 841.9"
   xml:space="preserve"
   sodipodi:docname="tablichka.svg"
   width="177.60001"
   height="113.3"
   inkscape:version="0.92.1 r"><metadata
     id="metadata17"><rdf:RDF><cc:Work
         rdf:about=""><dc:format>image/svg+xml</dc:format><dc:type
           rdf:resource="http://purl.org/dc/dcmitype/StillImage" /><dc:title></dc:title></cc:Work></rdf:RDF></metadata><defs
     id="defs15" /><sodipodi:namedview
     pagecolor="#ffffff"
     bordercolor="#666666"
     borderopacity="1"
     objecttolerance="10"
     gridtolerance="10"
     guidetolerance="10"
     inkscape:pageopacity="0"
     inkscape:pageshadow="2"
     inkscape:window-width="776"
     inkscape:window-height="480"
     id="namedview13"
     showgrid="false"
     fit-margin-top="0"
     fit-margin-left="0"
     fit-margin-right="0"
     fit-margin-bottom="0"
     inkscape:zoom="0.28031832"
     inkscape:cx="88.749994"
     inkscape:cy="53.649988"
     inkscape:window-x="51"
     inkscape:window-y="27"
     inkscape:window-maximized="0"
     inkscape:current-layer="Слой_1" /><g
     id="g4"
     transform="translate(-208.9,-361.3)"><path
       d="m 298.3,456.2 c -22.7,0 -45.6,-6.9 -65.7,-20.6 -1.3,-0.9 -1.6,-2.6 -0.7,-3.8 0.9,-1.3 2.6,-1.6 3.8,-0.7 38.6,26.4 87.7,26.2 125.1,-0.5 1.2,-0.9 3,-0.6 3.8,0.6 0.9,1.2 0.6,3 -0.6,3.8 -19.8,14.2 -42.7,21.2 -65.7,21.2 z"
       id="path2"
       inkscape:connector-curvature="0"
       style="fill:#1a9f29" /></g><path
     d="M 168.3,33.2 H 139.8 C 136.5,14.5 114.9,0 88.8,0 62.7,0 41.1,14.5 37.8,33.2 H 9.3 C 4.2,33.2 0,37.7 0,43.2 v 34.9 c 0,4.7 3.3,6.7 5.9,8.4 0.6,0.4 1.2,0.8 1.8,1.2 23.4,16.8 51.2,25.6 80.2,25.6 29,0 58.2,-9.1 82,-25.6 0.6,-0.4 1.1,-0.7 1.7,-1.1 2.7,-1.7 6,-3.7 6,-8.5 V 43.2 c 0,-5.5 -4.2,-10 -9.3,-10 z M 88.8,5.5 c 25.3,0 45.9,14.7 45.9,32.7 0,18 -20.6,32.7 -45.9,32.7 -25.4,0 -46,-14.7 -46,-32.7 0,-18 20.6,-32.7 46,-32.7 z m 83.3,72.6 c 0,1.5 -0.9,2.2 -3.4,3.8 -0.7,0.4 -1.3,0.8 -2,1.3 -22.9,15.9 -50.9,24.6 -78.9,24.6 -27.9,0 -54.5,-8.5 -77,-24.6 C 10.1,82.7 9.4,82.2 8.7,81.8 6.2,80.3 5.4,79.6 5.4,78.1 V 43.2 c 0,-2.5 1.8,-4.5 3.8,-4.5 h 28.1 c 0.4,20.8 23.3,37.6 51.5,37.6 28.1,0 51,-16.8 51.4,-37.6 h 28.1 c 2.1,0 3.8,2.1 3.8,4.5 z"
     id="path6"
     inkscape:connector-curvature="0"
     style="fill:#1a9f29" /><path
     d="m 86.8,55.2 c -0.1,0.1 -0.3,0.2 -0.7,0.2 H 68.6 c -0.4,0 -0.6,-0.1 -0.7,-0.2 -0.1,-0.1 -0.2,-0.4 -0.2,-0.8 v -3.1 c 0,-0.4 0.1,-0.6 0.2,-0.8 0.1,-0.1 0.3,-0.2 0.7,-0.2 h 5.7 V 27.1 L 68.7,28 c -0.4,0.1 -0.6,0 -0.7,-0.1 -0.1,-0.1 -0.2,-0.3 -0.2,-0.6 v -2.9 c 0,-0.3 0.1,-0.5 0.2,-0.7 0.1,-0.2 0.3,-0.3 0.7,-0.5 L 76.6,21 c 0.9,-0.3 1.7,-0.3 2.4,0 0.7,0.3 1.1,0.9 1.1,1.9 v 27.4 h 6 c 0.4,0 0.6,0.1 0.7,0.2 0.1,0.1 0.2,0.4 0.2,0.8 v 3.1 c -0.1,0.4 -0.1,0.7 -0.2,0.8 z"
     id="path8"
     inkscape:connector-curvature="0"
     style="fill:#ff9000" /><path
     d="m 111.3,21.5 c 0.7,0 1.3,0.2 1.8,0.5 0.5,0.3 0.7,0.9 0.7,1.7 v 1.4 c 0,0.5 -0.1,1 -0.2,1.5 -0.1,0.5 -0.3,1 -0.6,1.5 L 98.7,54.6 c -0.2,0.4 -0.4,0.6 -0.6,0.7 -0.2,0.1 -0.5,0.2 -1,0.2 h -4.3 c -0.3,0 -0.5,-0.1 -0.7,-0.4 -0.2,-0.3 -0.1,-0.5 0,-0.9 L 107,26.6 H 89.9 c -0.4,0 -0.6,-0.1 -0.7,-0.2 C 89.1,26.2 89,26 89,25.6 v -3.1 c 0,-0.4 0.1,-0.7 0.2,-0.8 0.1,-0.2 0.4,-0.2 0.7,-0.2 z"
     id="path10"
     inkscape:connector-curvature="0"
     style="fill:#ff9000" /></svg>