<?xml version="1.0" encoding="UTF-8" standalone="no"?>
<!-- Generator: Adobe Illustrator 17.1.0, SVG Export Plug-In . SVG Version: 6.00 Build 0)  -->

<svg
   xmlns:dc="http://purl.org/dc/elements/1.1/"
   xmlns:cc="http://creativecommons.org/ns#"
   xmlns:rdf="http://www.w3.org/1999/02/22-rdf-syntax-ns#"
   xmlns:svg="http://www.w3.org/2000/svg"
   xmlns="http://www.w3.org/2000/svg"
   xmlns:sodipodi="http://sodipodi.sourceforge.net/DTD/sodipodi-0.dtd"
   xmlns:inkscape="http://www.inkscape.org/namespaces/inkscape"
   version="1.1"
   id="Слой_1"
   x="0px"
   y="0px"
   viewBox="0 0 136.80001 118.69999"
   enable-background="new 0 0 595.3 841.9"
   xml:space="preserve"
   sodipodi:docname="vitriny.svg"
   width="136.8"
   height="118.7"
   inkscape:version="0.92.1 r"><metadata
     id="metadata15"><rdf:RDF><cc:Work
         rdf:about=""><dc:format>image/svg+xml</dc:format><dc:type
           rdf:resource="http://purl.org/dc/dcmitype/StillImage" /><dc:title></dc:title></cc:Work></rdf:RDF></metadata><defs
     id="defs13" /><sodipodi:namedview
     pagecolor="#ffffff"
     bordercolor="#666666"
     borderopacity="1"
     objecttolerance="10"
     gridtolerance="10"
     guidetolerance="10"
     inkscape:pageopacity="0"
     inkscape:pageshadow="2"
     inkscape:window-width="776"
     inkscape:window-height="480"
     id="namedview11"
     showgrid="false"
     fit-margin-top="0"
     fit-margin-left="0"
     fit-margin-right="0"
     fit-margin-bottom="0"
     inkscape:zoom="0.28031832"
     inkscape:cx="-62.550006"
     inkscape:cy="200.34999"
     inkscape:window-x="51"
     inkscape:window-y="27"
     inkscape:window-maximized="0"
     inkscape:current-layer="Слой_1" /><g
     id="g4"
     transform="translate(-360.2,-502.6)"><path
       d="M 496.9,621.3 H 360.3 v -21.1 h 136.5 v 21.1 z M 365.1,616.5 H 492 V 605 H 365.1 Z"
       id="path2"
       inkscape:connector-curvature="0"
       style="fill:#1a9f29" /></g><path
     d="M 120.1,41 H 80.9 46.2 16.7 v 49.9 h 29.5 34.7 39.2 v 0 z M 21.5,86.1 V 45.9 h 24.7 v 40.2 z m 29.5,0 V 45.9 h 29.9 v 40.2 z m 34.7,0 V 45.9 h 29.6 v 40.2 z"
     id="path6"
     inkscape:connector-curvature="0"
     style="fill:#f79400" /><path
     d="M 136.8,0 H 114.8 110 92.8 88.1 70.9 66.1 48.9 44.1 26.9 22.1 0.2 V 0.1 H 0 v 102.3 h 136.5 v -79 c 0.1,-0.5 0.1,-1.1 0.1,-1.7 V 0 Z M 5.2,4.9 h 17.1 v 16.9 c 0,4.7 -3.8,8.5 -8.5,8.5 -4.7,0 -8.6,-3.8 -8.6,-8.5 z m 21.9,0 h 17.1 v 16.9 c 0,4.7 -3.8,8.5 -8.5,8.5 -4.7,0 -8.6,-3.8 -8.6,-8.5 z m 22,0 h 17.1 v 16.9 c 0,4.7 -3.8,8.5 -8.5,8.5 -4.7,0 -8.6,-3.8 -8.6,-8.5 z m 21.9,0 h 17.1 v 16.9 c 0,4.7 -3.8,8.5 -8.5,8.5 -4.7,0 -8.5,-3.8 -8.5,-8.5 V 4.9 Z m 22,0 h 17.1 v 16.9 c 0,4.7 -3.8,8.5 -8.5,8.5 -4.7,0 -8.5,-3.8 -8.5,-8.5 V 4.9 Z m 21.9,0 h 17 v 18.2 c -0.6,4.1 -4.2,7.2 -8.4,7.2 -4.7,0 -8.5,-3.8 -8.5,-8.5 V 4.9 Z M 4.9,97.6 V 31.9 c 2.4,2.1 5.4,3.3 8.8,3.3 4.5,0 8.5,-2.3 10.9,-5.7 2.4,3.5 6.4,5.7 11,5.7 4.5,0 8.6,-2.3 11,-5.8 2.4,3.5 6.4,5.8 11,5.8 4.5,0 8.5,-2.3 11,-5.7 2.4,3.5 6.4,5.7 11,5.7 4.6,0 8.6,-2.3 11,-5.8 2.4,3.5 6.4,5.8 11,5.8 4.5,0 8.5,-2.3 11,-5.7 2.4,3.5 6.4,5.7 11,5.7 3.2,0 6.1,-1.1 8.4,-3 v 65.4 z"
     id="path8"
     inkscape:connector-curvature="0"
     style="fill:#1a9f29" /></svg>