<?xml version="1.0" encoding="UTF-8" standalone="no"?>
<!-- Generator: Adobe Illustrator 17.1.0, SVG Export Plug-In . SVG Version: 6.00 Build 0)  -->

<svg
   xmlns:dc="http://purl.org/dc/elements/1.1/"
   xmlns:cc="http://creativecommons.org/ns#"
   xmlns:rdf="http://www.w3.org/1999/02/22-rdf-syntax-ns#"
   xmlns:svg="http://www.w3.org/2000/svg"
   xmlns="http://www.w3.org/2000/svg"
   xmlns:sodipodi="http://sodipodi.sourceforge.net/DTD/sodipodi-0.dtd"
   xmlns:inkscape="http://www.inkscape.org/namespaces/inkscape"
   version="1.1"
   id="Слой_1"
   x="0px"
   y="0px"
   viewBox="0 0 140.9 74.138105"
   enable-background="new 0 0 595.3 841.9"
   xml:space="preserve"
   sodipodi:docname="viveski.svg"
   width="140.89999"
   height="74.138107"
   inkscape:version="0.92.1 r"><metadata
     id="metadata17"><rdf:RDF><cc:Work
         rdf:about=""><dc:format>image/svg+xml</dc:format><dc:type
           rdf:resource="http://purl.org/dc/dcmitype/StillImage" /><dc:title></dc:title></cc:Work></rdf:RDF></metadata><defs
     id="defs15" /><sodipodi:namedview
     pagecolor="#ffffff"
     bordercolor="#666666"
     borderopacity="1"
     objecttolerance="10"
     gridtolerance="10"
     guidetolerance="10"
     inkscape:pageopacity="0"
     inkscape:pageshadow="2"
     inkscape:window-width="776"
     inkscape:window-height="480"
     id="namedview13"
     showgrid="false"
     fit-margin-top="0"
     fit-margin-left="0"
     fit-margin-right="0"
     fit-margin-bottom="0"
     inkscape:zoom="0.28031832"
     inkscape:cx="-125.05001"
     inkscape:cy="203.64999"
     inkscape:window-x="51"
     inkscape:window-y="27"
     inkscape:window-maximized="0"
     inkscape:current-layer="Слой_1" /><g
     id="g4"
     transform="translate(-422.7,-550.46189)"><path
       d="m 461.7,610.5 -0.1,-6.8 c 0,-0.8 0,-1.6 0,-2.4 0,-0.1 0,-0.3 0,-0.4 -0.1,0 -0.3,0 -0.4,0 -0.8,0 -1.6,0 -2.4,0 -1.6,0 -3.2,0 -4.9,0 h -2 v -2.1 c -0.1,-2.7 -0.1,-5.4 -0.2,-8 l -0.2,-10.5 2.1,0.1 c 1.7,0.1 3.3,0.2 5,0.2 0.9,0 1.8,0.1 2.7,0.1 v -2.8 c 0,-1.7 -0.1,-3.4 -0.1,-5 v -2.2 l 2.2,0.2 c 1.4,0.1 2.9,0.2 4.3,0.3 1.1,0.1 2.2,0.2 3.3,0.3 l 1.1,0.1 c 2.1,0.2 4.1,0.3 6.1,0.5 l 1.9,0.1 v 1.9 c 0,0.8 0,1.6 0,2.4 0,0.8 0,1.6 0,2.4 0,0.8 0,1.6 0,2.3 0,0.2 0,0.3 0,0.5 0.8,0 1.6,0.1 2.3,0.1 l 6,0.2 v 1.9 16.8 h -2 c -0.7,0 -1.3,0 -2,0 -1.4,0 -2.7,0 -4.1,0 0,0 -0.1,0 -0.1,0 0,0.9 0,1.7 0,2.5 0,1.6 0,3 0,4.5 v 1.9 l -1.9,0.1 c -1.2,0.1 -2.4,0.1 -3.7,0.2 -1.1,0 -2.3,0.1 -3.4,0.1 -2.3,0.1 -4.7,0.2 -7.1,0.3 z m 1.8,-13.7 h 2 v 2 c 0,0.8 0,1.6 0,2.4 0,0.8 0,1.6 0,2.4 v 2.7 c 1.8,-0.1 3.6,-0.2 5.4,-0.2 1.1,-0.1 2.3,-0.1 3.4,-0.1 0.6,0 1.2,0 1.7,-0.1 0,-0.9 0,-1.7 0,-2.6 0,-1.5 0,-3 0,-4.6 v -2 h 2 c 0.7,0 1.4,0 2.1,0 1.4,0 2.7,0 4.1,0 0,0 0,0 0,0 v -10.9 l -2.2,-0.1 c -1.4,-0.1 -2.8,-0.1 -4.2,-0.2 l -1.9,-0.1 v -1.9 c 0,-0.8 0,-1.6 0,-2.3 0,-0.8 0,-1.6 0,-2.4 0,-0.8 0,-1.5 0,-2.3 0,-0.2 0,-0.4 0,-0.5 -1.4,-0.1 -2.9,-0.2 -4.3,-0.3 l -1.1,-0.1 c -1.1,-0.1 -2.2,-0.2 -3.4,-0.3 -0.7,-0.1 -1.4,-0.1 -2.1,-0.2 0,0.9 0,1.8 0,2.7 l 0.1,7.1 -2.1,-0.1 c -1.6,-0.1 -3.2,-0.1 -4.8,-0.2 -0.9,0 -1.9,-0.1 -2.8,-0.1 l 0.1,6.2 c 0.1,2.1 0.1,4.2 0.2,6.3 1,0 1.9,0 2.9,0 0.8,0 1.6,0 2.4,0 1,-0.2 1.7,-0.2 2.5,-0.2 z"
       id="path2"
       inkscape:connector-curvature="0"
       style="fill:#f79400" /></g><g
     id="g10"
     transform="translate(-422.7,-550.46189)"><path
       d="m 544.3,566.2 v -3 c 0,-3.5 -2.8,-6.6 -6.3,-7 -3.7,-0.4 -6.7,2.4 -6.7,6 v 2.9 l -53.6,-4.6 v -3 c 0,-3.5 -2.7,-6.6 -6.3,-7 -3.7,-0.4 -6.7,2.4 -6.7,6 v 2.9 l -24.9,-2.1 -0.1,-0.2 -16,9 c -0.6,0.4 -1,1 -1,1.7 v 49.7 c 0,0.9 0.6,1.6 1.4,1.9 l 15.5,5.2 v -0.1 0.1 l 124,-9 v -47.7 z m -75.5,-9.8 c 0,-1.3 1,-2.2 2.3,-2 1.5,0.2 2.7,1.6 2.7,3.1 v 2.5 l -5,-0.4 z m -29.2,64 -12.9,-4.3 V 569 l 12.9,-7.2 z m 95.7,-58.3 c 0,-1.3 1,-2.2 2.3,-2 1.5,0.2 2.7,1.6 2.7,3.1 v 2.5 l -5,-0.4 z m 24.3,49.7 -116,8.4 v -58.7 l 116,9.9 z"
       id="path6"
       inkscape:connector-curvature="0"
       style="fill:#1a9f29" /><path
       d="m 550.9,582.7 -53.2,-2.3 v 22.9 l 53.2,-2.1 z m -4,14.6 -45.2,1.8 v -14.5 l 45.2,2 z"
       id="path8"
       inkscape:connector-curvature="0"
       style="fill:#1a9f29" /></g></svg>