<?xml version="1.0"?>
<!--Icons from directory ""-->
<svg xmlns="http://www.w3.org/2000/svg" width="300" height="5079" viewBox="0 0 300 5079"><svg xmlns:rdf="http://www.w3.org/1999/02/22-rdf-syntax-ns#" xmlns:cc="http://creativecommons.org/ns#" xmlns:dc="http://purl.org/dc/elements/1.1/" id="avto" enable-background="new 0 0 595.3 841.9" xml:space="preserve" viewBox="0 0 115.7 71.699995" height="72" width="116" version="1.1" y="0" x="0px"><g id="avto-g14" fill-rule="evenodd" clip-rule="evenodd" transform="translate(-239.8,-385.1)"><g fill="#1a9f29"><path id="avto-path2" d="m335.6 441.3c-2 0-3.6 1.6-3.6 3.6s1.6 3.6 3.6 3.6 3.6-1.6 3.6-3.6-1.6-3.6-3.6-3.6z"/><path id="avto-path4" d="m263.7 441.3c-2 0-3.6 1.6-3.6 3.6s1.6 3.6 3.6 3.6 3.6-1.6 3.6-3.6-1.6-3.6-3.6-3.6z"/><path id="avto-path6" d="m350.8 417.7-13.8-6.1-10.1-21.9c-1.3-2.8-4.1-4.6-7.1-4.6h-74.1c-3.2 0-5.9 2.6-5.9 5.9v49.9c0 3.3 2.6 5.9 5.9 5.9h6.3c0.9 5.7 5.8 10 11.7 10s10.8-4.3 11.7-10h48.5c0.9 5.7 5.8 10 11.7 10s10.8-4.3 11.7-10h2.3c3.2 0 5.9-2.6 5.9-5.9v-16.1c0-3-1.9-5.9-4.7-7.1zm-23.8-18.9 5.6 12.2h-17.1v-12.2zm-63.3 54.2c-4.5 0-8.1-3.7-8.1-8.1 0-4.5 3.6-8.1 8.1-8.1s8.1 3.7 8.1 8.1c0 4.5-3.6 8.1-8.1 8.1zm71.9 0c-4.5 0-8.1-3.7-8.1-8.1 0-4.5 3.7-8.1 8.1-8.1 4.5 0 8.1 3.7 8.1 8.1 0 4.5-3.6 8.1-8.1 8.1zm16.1-17.9h-2.1c-1 0-1.9 0.8-1.9 1.9 0 1 0.8 1.9 1.9 1.9h2.1v2.1c0 1.2-1 2.1-2.1 2.1h-2.3c-0.9-5.6-5.8-10-11.7-10s-10.8 4.3-11.7 10h-48.5c-0.9-5.6-5.8-10-11.7-10s-10.8 4.3-11.7 10h-6.3c-1.2 0-2.1-0.9-2.1-2.1v-2.1h6.1c1 0 1.9-0.9 1.9-1.9s-0.9-1.9-1.9-1.9h-6.1v-44.1c0-1.2 1-2.1 2.1-2.1h74.1c1.6 0 3.1 0.9 3.7 2.4l1.8 3.8h-17.7c-2.1 0-3.9 1.8-3.9 3.9v8c0 4.3 3.5 7.9 7.9 7.9h23.6l11.6 5.2-0.3 0.2c-1.7 1-2.8 3-2.8 5v3.7c0 1 0.8 1.9 1.9 1.9h6.1zm-39.9-36.3v12.2h-0.1c-2.3 0-4.1-1.8-4.1-4.1v-8c0-0.1 0.1-0.1 0.1-0.1zm39.9 28.3h-4.3v-1.9c0-0.7 0.4-1.4 1-1.8l2.2-1.3c0.7 0.7 1.1 1.7 1.1 2.7z"/></g><g fill="#f79400"><path id="avto-path8" d="m321.6 435.1h-43.9c-1 0-1.9 0.8-1.9 1.9 0 1 0.9 1.9 1.9 1.9h43.9c1 0 1.9-0.9 1.9-1.9 0-1.1-0.8-1.9-1.9-1.9z"/><path id="avto-path10" d="m266.7 393c-0.9 0-1.6 0.7-1.6 1.6v7h-2v-7c0-0.9-0.7-1.6-1.6-1.6s-1.6 0.7-1.6 1.6v7h-1.9v-7c0-0.9-0.7-1.6-1.6-1.6s-1.6 0.7-1.6 1.6v10.3c0 2.8 2.3 5 5 5h0.1v13.9c0 0.9 0.7 1.6 1.6 1.6s1.6-0.7 1.6-1.6v-13.8h0.1c2.8 0 5.1-2.3 5.1-5v-10.3c0-1-0.7-1.7-1.6-1.7zm-1.6 11.9c0 1-0.8 1.8-1.8 1.8h-3.5c-1 0-1.8-0.8-1.8-1.8v-0.1h7.1z"/><path id="avto-path12" d="m273.6 425.5c0.9 0 1.6-0.7 1.6-1.6v-7h3.2c1 0 1.9-0.4 2.6-1.2s0.9-1.7 0.8-2.7l-2.9-17.1c-0.3-1.7-1.7-2.9-3.4-2.9-1.9 0-3.5 1.6-3.5 3.5v27.4c0 0.9 0.7 1.6 1.6 1.6zm1.6-29.1c0-0.1 0.1-0.2 0.3-0.2 0.1 0 0.2 0.1 0.2 0.2l2.9 17.1v0.1h-0.1-3.2v-17.2z"/></g></g></svg><svg xmlns:rdf="http://www.w3.org/1999/02/22-rdf-syntax-ns#" xmlns:cc="http://creativecommons.org/ns#" xmlns:dc="http://purl.org/dc/elements/1.1/" id="bukvi" enable-background="new 0 0 595.3 841.9" xml:space="preserve" viewBox="0 0 99.100001 91.8" height="92" width="99" version="1.1" y="72" x="0px"><g id="bukvi-g6" fill="#1a9f29" transform="translate(-248.1,-376)"><path id="bukvi-path2" d="m309.3 398.9c-0.2-0.8-0.7-3.3-3.6-3.3s-3.4 2.5-3.6 3.3l-6.4 33.1h20l-6.3-32.8zm-7.7 28.2 4.2-21.5 4.2 21.5z"/><path id="bukvi-path4" d="m347.2 467.5-16.5-75.6c-2.6-11.9-11.2-15.1-20.3-15.7v-0.2h-4.6-0.1-0.1-17.7c-9.3 0.2-20.4 2.2-23.3 15.9l-15.8 72.4-0.7 3.5 22-0.3h23.8l3.3-16.7h4.2l2.9 16.7h13.1v0.1h29.8zm-77.9-74.5c1.8-8.2 6.8-11.6 17.7-12-2.9 2.4-5.1 5.9-6.2 11l-15.4 70.8-11.4 0.2zm24 53-3.3 16.7h-19.6l15.1-69.7c1.9-8.7 7.6-12.1 20.2-12.1h0.1c12.7 0 18.3 3.4 20.2 12.1l15.2 69.7h-19.7l-3.3-16.7zm15.1 16.6-2.1-11.8h7.9l2.3 11.8z"/></g></svg><svg xmlns:rdf="http://www.w3.org/1999/02/22-rdf-syntax-ns#" xmlns:cc="http://creativecommons.org/ns#" xmlns:dc="http://purl.org/dc/elements/1.1/" id="chasy" enable-background="new 0 0 595.3 841.9" xml:space="preserve" viewBox="0 0 625.90089 841.9" height="300" width="223.04038004751" version="1.1" y="164" x="0px"><g id="chasy-g12" fill-rule="evenodd" fill="#fff" clip-rule="evenodd" transform="translate(15.3,-1)"><path id="chasy-path2" d="m591.7 363.9h-50c-4.8-22.7-12.3-44.5-22.3-64.9l39.5-39.5c7.4-7.4 7.4-19.4 0-26.8l-55.4-55.4c-3.5-3.5-8.4-5.6-13.4-5.6s-9.8 2-13.4 5.6l-29.3 29.3c-4.3-3.7-8.8-7.2-13.3-10.6v-176.1c0-10.5-8.5-18.9-18.9-18.9h-293c-10.5 0-18.9 8.5-18.9 18.9v172.5c-71.8 51.1-118.6 135-118.6 229.5s46.9 178.4 118.7 229.5v172.6c0 10.5 8.5 18.9 18.9 18.9h292.9c10.5 0 18.9-8.5 18.9-18.9v-176.2c54.1-40.3 93.2-99.5 107.6-167.8h50c10.4 0 18.9-8.5 18.9-18.9v-78.3c0.1-10.5-8.4-18.9-18.9-18.9zm-450.5-325h255.1v32.7h-156c-10.5 0-18.9 8.5-18.9 18.9 0 10.5 8.5 18.9 18.9 18.9h155.9v62.7c-28.8-15.1-59.9-24.9-92.1-29.2-0.9-0.1-1.7-0.3-2.6-0.3-1.4-0.2-2.8-0.3-4.2-0.5-1.2-0.1-2.5-0.3-3.8-0.4-1.2-0.1-2.5-0.2-3.8-0.3-1.4-0.1-2.9-0.2-4.4-0.3-1.1-0.1-2.3-0.1-3.4-0.2l-5.1-0.3c-0.9 0-1.8-0.1-2.7-0.1-2.6-0.1-5.3-0.1-7.9-0.1s-5.2 0-7.8 0.1c-0.8 0-1.6 0.1-2.4 0.1-1.8 0.1-3.5 0.1-5.3 0.2-1 0.1-1.9 0.1-2.9 0.2l-4.8 0.3c-1 0.1-2.1 0.2-3.1 0.3-1.5 0.1-3 0.3-4.5 0.5-1.1 0.1-2.2 0.3-3.2 0.4-1.4 0.2-2.9 0.4-4.3 0.6-1.1 0.2-2.2 0.3-3.3 0.5-1.4 0.2-2.7 0.4-4.1 0.7-1.2 0.2-2.4 0.4-3.5 0.6s-2.3 0.4-3.4 0.6c-5.6 1.1-11.1 2.3-16.6 3.7-0.3 0.1-0.7 0.1-1 0.2-2 0.5-4 1.1-6 1.6-0.3 0.1-0.5 0.1-0.8 0.2-2.2 0.6-4.3 1.2-6.4 1.9-14.2 4.4-28 9.9-41.4 16.6v-130.8zm255 766.1h-255v-42.2h155.9c10.5 0 18.9-8.5 18.9-18.9s-8.5-18.9-18.9-18.9h-155.9v-50.7c13.4 6.6 27.2 12.2 41.4 16.6 2.1 0.7 4.2 1.3 6.3 1.9 0.3 0.1 0.5 0.1 0.8 0.2 2 0.6 4 1.1 6 1.6 0.3 0.1 0.7 0.2 1 0.3 5.5 1.4 11.1 2.6 16.7 3.7 1.1 0.2 2.3 0.4 3.4 0.7 1.2 0.2 2.4 0.4 3.5 0.6 1.4 0.2 2.7 0.5 4.1 0.7 1.1 0.2 2.2 0.3 3.3 0.5 1.5 0.2 2.9 0.4 4.4 0.6 1.1 0.1 2.1 0.3 3.2 0.4 1.5 0.2 3 0.3 4.6 0.5 1 0.1 2.1 0.2 3.1 0.3l4.8 0.3c1 0.1 1.9 0.1 2.9 0.2 1.8 0.1 3.5 0.1 5.3 0.2 0.8 0 1.6 0.1 2.5 0.1 2.6 0.1 5.2 0.1 7.7 0.1 2.6 0 5.3-0.1 7.9-0.1 0.9 0 1.8-0.1 2.7-0.1 1.7-0.1 3.4-0.1 5.1-0.2 1.1-0.1 2.3-0.1 3.4-0.2 1.5-0.1 2.9-0.2 4.4-0.3 1.2-0.1 2.5-0.2 3.7-0.3 1.3-0.1 2.5-0.3 3.8-0.4 1.4-0.2 2.8-0.3 4.2-0.5 0.9-0.1 1.8-0.3 2.6-0.4 32.2-4.3 63.3-14.2 92.1-29.2v132.9zm113.5-374.9c0 0.7-0.1 1.3-0.1 2-0.1 2.6-0.2 5.1-0.4 7.7v0.5c-0.2 2.7-0.5 5.4-0.8 8.1-0.1 0.7-0.1 1.4-0.2 2.1-0.3 2.1-0.5 4.2-0.8 6.3-14.1 97.7-86.3 176.8-180.3 201.1-0.1 0-0.3 0.1-0.4 0.1-3.2 0.8-6.4 1.6-9.7 2.3-0.9 0.2-1.8 0.4-2.6 0.5-1.4 0.3-2.9 0.6-4.3 0.9-1.5 0.3-3 0.5-4.6 0.8s-3.1 0.5-4.7 0.7c-1.8 0.3-3.6 0.5-5.4 0.7-1 0.1-2 0.2-2.9 0.3-2.5 0.3-5 0.5-7.6 0.7-0.3 0-0.7 0.1-1.1 0.1-2.4 0.2-4.8 0.3-7.3 0.4-0.7 0-1.5 0.1-2.2 0.1-2.7 0.1-5.5 0.2-8.2 0.2s-5.3-0.1-8-0.1c-0.7 0-1.4-0.1-2.2-0.1-2.2-0.1-4.4-0.2-6.6-0.4-0.5 0-1-0.1-1.4-0.1-2.6-0.2-5.2-0.4-7.7-0.7-0.7-0.1-1.4-0.2-2.1-0.2-2-0.2-4-0.5-5.9-0.8-0.8-0.1-1.5-0.2-2.3-0.3-2.4-0.4-4.8-0.8-7.3-1.2-0.9-0.2-1.7-0.3-2.6-0.5-1.6-0.3-3.2-0.6-4.8-1-1.1-0.2-2.2-0.5-3.3-0.7-1.5-0.3-2.9-0.7-4.4-1-2-0.5-4.1-1-6.1-1.6-0.9-0.3-1.8-0.5-2.7-0.8-1.6-0.5-3.1-0.9-4.7-1.4-0.4-0.1-0.8-0.3-1.2-0.4-98.5-31.2-170.3-123.6-170.3-232.5s71.8-201.2 170.5-232.4c0.4-0.1 0.8-0.3 1.2-0.4 1.6-0.5 3.1-1 4.7-1.4 0.9-0.3 1.8-0.5 2.7-0.7 2-0.6 4-1.1 6.1-1.6 1.5-0.4 2.9-0.7 4.4-1.1 1.1-0.3 2.2-0.5 3.3-0.7 1.6-0.3 3.2-0.7 4.8-1 0.9-0.2 1.7-0.3 2.6-0.5 2.4-0.5 4.8-0.9 7.2-1.2 0.8-0.1 1.5-0.2 2.3-0.3 2-0.3 3.9-0.5 5.9-0.7l2.1-0.3c2.6-0.3 5.1-0.5 7.7-0.7 0.5 0 1-0.1 1.4-0.1 2.2-0.1 4.4-0.3 6.6-0.3 0.7 0 1.4-0.1 2.2-0.1 2.6-0.1 5.3-0.1 8-0.1s5.5 0.1 8.2 0.1c0.7 0 1.5 0.1 2.2 0.1 2.4 0.1 4.8 0.2 7.3 0.4 0.4 0 0.7 0.1 1.1 0.1 2.6 0.2 5.1 0.4 7.6 0.7 1 0.1 2 0.2 2.9 0.3 1.8 0.2 3.6 0.5 5.4 0.7 1.6 0.2 3.1 0.5 4.7 0.7 1.5 0.3 3.1 0.5 4.6 0.8 1.4 0.3 2.9 0.5 4.3 0.8 0.9 0.2 1.8 0.4 2.6 0.5 3.3 0.7 6.5 1.4 9.7 2.3 0.1 0 0.3 0.1 0.4 0.1 94 24.3 166.2 103.4 180.3 201.1 0.3 2.1 0.6 4.2 0.8 6.3 0.1 0.7 0.2 1.4 0.2 2.2 0.3 2.7 0.6 5.4 0.8 8.1v0.5c0.2 2.6 0.3 5.1 0.4 7.7 0 0.7 0.1 1.3 0.1 2 0.1 2.7 0.1 5.5 0.1 8.2s-0.1 5.4-0.2 8.1zm-9.7-165.1c-7.6-11.3-16-22-25.1-32.1l15.4-15.4 28.6 28.6zm72.8 177.2h-25.8c0-0.3 0-0.7 0.1-1 0.2-2.6 0.3-5.2 0.4-7.8 0-0.8 0.1-1.5 0.1-2.3 0.1-3 0.2-6.1 0.2-9.1 0-3.1-0.1-6.1-0.2-9.1 0-0.8-0.1-1.5-0.1-2.3-0.1-2.6-0.2-5.2-0.4-7.8 0-0.3 0-0.7-0.1-1h25.7v40.4z"/><path id="chasy-path4" d="m266.2 212.9c-115.3 0-209 93.7-209 209s93.8 209 209 209 209-93.8 209-209-93.8-209-209-209zm0 380.2c-94.4 0-171.2-76.8-171.2-171.1s76.8-171.1 171.2-171.1 171.1 76.8 171.1 171.1-76.7 171.1-171.1 171.1z"/><path id="chasy-path6" d="m358.6 406.3h-73.4v-92.5c0-10.5-8.5-18.9-18.9-18.9-10.5 0-18.9 8.5-18.9 18.9v111.4c0 10.5 8.5 18.9 18.9 18.9h92.4c10.5 0 19-8.5 19-18.9s-8.7-18.9-19.1-18.9z"/><path id="chasy-path8" d="m372.5 740.2c-0.3-1.2-0.6-2.4-1.1-3.6-0.5-1.1-1.1-2.2-1.8-3.3-0.7-1-1.5-2-2.3-2.9-0.9-0.9-1.8-1.6-2.9-2.3-1-0.7-2.1-1.3-3.3-1.8-1.1-0.5-2.3-0.9-3.5-1.1-2.4-0.5-5-0.5-7.4 0-1.2 0.3-2.4 0.6-3.5 1.1-1.2 0.5-2.2 1-3.3 1.8-1 0.7-2 1.5-2.9 2.3-0.9 0.9-1.7 1.8-2.4 2.9-0.7 1-1.2 2.1-1.7 3.3s-0.9 2.4-1.1 3.6c-0.3 1.2-0.4 2.4-0.4 3.7 0 1.2 0.1 2.5 0.4 3.7 0.2 1.2 0.6 2.4 1.1 3.5 0.5 1.2 1 2.2 1.7 3.3 0.7 1 1.5 2 2.4 2.9s1.8 1.7 2.9 2.4c1 0.7 2.1 1.3 3.3 1.7 1.1 0.5 2.3 0.9 3.5 1.1 1.2 0.3 2.5 0.4 3.7 0.4s2.5-0.1 3.7-0.4c1.2-0.2 2.4-0.6 3.5-1.1 1.2-0.5 2.3-1 3.3-1.7s2-1.5 2.9-2.4 1.6-1.8 2.3-2.9c0.7-1 1.3-2.1 1.8-3.3 0.5-1.1 0.9-2.3 1.1-3.5 0.3-1.2 0.4-2.5 0.4-3.7 0-1.3-0.2-2.5-0.4-3.7z"/><path id="chasy-path10" d="m202.1 86.9c-0.2-1.2-0.6-2.4-1.1-3.5-0.5-1.2-1-2.2-1.8-3.3-0.7-1-1.5-2-2.4-2.9-4.4-4.4-10.9-6.4-17.1-5.2-1.2 0.2-2.4 0.6-3.5 1.1-1.2 0.5-2.3 1-3.3 1.7s-2 1.5-2.9 2.4-1.7 1.8-2.4 2.9c-0.7 1-1.3 2.1-1.8 3.3-0.5 1.1-0.9 2.3-1.1 3.5s-0.4 2.5-0.4 3.7 0.1 2.5 0.4 3.7c0.2 1.2 0.6 2.4 1.1 3.5s1.1 2.2 1.8 3.3c0.7 1 1.5 2 2.4 2.9s1.8 1.7 2.9 2.4c1 0.7 2.1 1.2 3.3 1.7 1.1 0.5 2.3 0.9 3.5 1.1 1.2 0.3 2.5 0.4 3.7 0.4s2.5-0.1 3.7-0.4c1.2-0.2 2.4-0.6 3.5-1.1 1.2-0.5 2.3-1 3.3-1.7s2-1.5 2.9-2.4 1.7-1.8 2.4-2.9c0.7-1 1.3-2.1 1.8-3.3 0.5-1.1 0.9-2.3 1.1-3.5s0.4-2.5 0.4-3.7c-0.1-1.3-0.2-2.5-0.4-3.7z"/></g></svg><svg xmlns:rdf="http://www.w3.org/1999/02/22-rdf-syntax-ns#" xmlns:cc="http://creativecommons.org/ns#" xmlns:dc="http://purl.org/dc/elements/1.1/" id="disayn_maket" enable-background="new 0 0 595.3 841.9" xml:space="preserve" viewBox="0 0 841.92501 841.82499" height="300" width="300" version="1.1" y="464" x="0px"><g id="disayn_maket-g6" fill-rule="evenodd" fill="#fff" clip-rule="evenodd" transform="translate(-202.6 -500.98)"><path id="disayn_maket-path2" d="m797.1 869.1c12.6 11.9 28.9 17.9 45.1 17.9 16.9 0 33.8-6.4 46.7-19.3l28.5-28.5 120.9-120.9c8.3-8.3 8.3-21.8 0-30.1l-180.8-181c-8.3-8.3-21.8-8.3-30.2 0l-120.8 120.9-28.6 28.5c-25.2 25.3-25.7 66-1.4 91.8l-45.4 45.4-30.2 30.2-30.4-30.4-24.9-24.9c-13.5-13.5-31.4-20.9-50.5-20.9-1.3 0-2.6 0-3.9 0.1 1.6-32.8-12.1-68.7-40-96.6-42.9-42.9-165.3-59.1-179.1-60.8-6.5-0.8-13 1.4-17.7 6.1-4.6 4.6-6.9 11.2-6.1 17.7 1.7 13.8 18 136.3 60.8 179.1 26.4 26.4 60.1 40.1 91.5 40.1 1.2 0 2.4 0 3.7-0.1-1.5 20 5.4 40.6 20.7 55.9l55.2 55.2-271.4 271.4c-4 4-6.2 9.4-6.2 15.1s2.2 11.1 6.2 15.1l90.5 90.4c4.1 4.2 9.6 6.2 15.1 6.2s10.9-2.1 15.1-6.2l60.6-60.6 60.2-60.2c8.3-8.3 8.3-21.8 0-30.1s-21.8-8.3-30.2 0l-45.1 45.1-60.3-60.3 195.7-195.7 60.3 60.3-60.2 60.1c-8.3 8.3-8.3 21.8 0 30.2 8.3 8.3 21.8 8.3 30.2 0l60.1-60.2 210.8 210.9 60.6 60.6c0.5 0.5 1.1 1 1.6 1.4 3.9 3.2 8.7 4.8 13.5 4.8 5.4 0 10.9-2.1 15.1-6.2l90.4-90.4c4-4 6.2-9.4 6.2-15.1s-2.2-11.1-6.2-15.1l-271.3-271.3 30.2-30.2zm-452.2 391.9-30.5 30.5-60.3-60.3 30.4-30.5zm497.5-708.6 150.7 150.7-90.7 90.7-150.7-150.6zm-134.3 134.4 13.5-13.5 150.7 150.7-13.5 13.5c-9.1 9.1-23.9 9.1-33 0l-13.6-13.7-90.4-90.4-13.6-13.6c-9.2-9.1-9.2-23.9-0.1-33zm-61.9 152.3 60.3 60.3-15.2 15.2l-60.3-60.3zm-306.8-75.7c-20.1-20.1-36.1-79.7-44.4-126.1 46.5 8.2 106 24.2 126.1 44.4 30.6 30.5 37 73.7 14.5 96.3-22.5 22.5-65.7 16-96.2-14.6zm125.6 105.7-9.8-9.8c-3.5-3.5-5.9-7.7-7.2-12.2-0.8-2.7-1.2-5.4-1.2-8.2 0-7.4 2.8-14.7 8.4-20.4l19.6-19.6c5.4-5.4 12.7-8.4 20.4-8.4s14.9 3 20.4 8.4l9.8 9.8zm482.6 362-60.3 60.3-30.4-30.5 60.3-60.3zm-60.6-60.6-60.3 60.3-210.7-210.7l-90.4-90.5-30.4-30.4 60.3-60.3 30.4 30.4 90.5 90.4zm-210.7-361.5l30.3-30.3 60.3 60.3-30.3 30.3z"/><path id="disayn_maket-path4" d="m501.4 1151.4c-0.3-1.4-0.7-2.7-1.2-4s-1.2-2.5-2-3.7-1.7-2.3-2.6-3.3c-1-1-2.1-1.9-3.3-2.6-1.1-0.8-2.4-1.4-3.7-2-1.3-0.5-2.6-0.9-4-1.2-6.9-1.4-14.3 0.9-19.2 5.8-4 4-6.2 9.5-6.2 15.1 0 1.4 0.1 2.8 0.4 4.2s0.7 2.7 1.2 4 1.2 2.5 2 3.7 1.7 2.2 2.6 3.2c4 4 9.5 6.3 15.1 6.3 1.4 0 2.8-0.2 4.2-0.4 1.4-0.3 2.7-0.7 4-1.2s2.5-1.2 3.7-2 2.3-1.6 3.3-2.6 1.9-2.1 2.6-3.2c0.8-1.2 1.4-2.4 2-3.7 0.5-1.3 1-2.6 1.2-4 0.3-1.4 0.4-2.7 0.4-4.2-0.1-1.4-0.3-2.8-0.5-4.2z"/></g></svg><svg xmlns:rdf="http://www.w3.org/1999/02/22-rdf-syntax-ns#" xmlns:cc="http://creativecommons.org/ns#" xmlns:dc="http://purl.org/dc/elements/1.1/" id="drill" xml:space="preserve" viewBox="0 0 512 364.47501" height="213" width="300" version="1.1" y="764" x="0px"><path id="drill-path2" fill="#f4ba48" d="m503.32 104.14-8.678-77.234c0-10.414-7.81-18.224-18.224-18.224h-268.15v90.251c0 28.637 19.959 53.803 47.729 59.878 42.522 9.546 87.647 9.546 130.17 0l47.729-11.281v137.98c0 12.149-4.339 23.431-13.017 31.241l-3.471 3.471c-6.075 6.075-9.546 14.753-9.546 23.431v5.207c0 8.678 6.942 15.62 15.62 15.62h71.16c9.546 0 17.356-7.81 17.356-17.356v-112.82z"/><path id="drill-path4" fill="#c3c7cb" d="m104.14 86.779h-95.462c-5.207 0-8.678-3.471-8.678-8.678s3.471-8.678 8.678-8.678h95.458c5.207 0 8.678 3.471 8.678 8.678s-3.472 8.678-8.678 8.678"/><g id="drill-g10" fill="#565656" transform="translate(0,-73.763)"><path id="drill-path6" d="m173.56 195.25h-43.39c-14.753 0-26.034-11.281-26.034-26.034v-34.712c0-14.753 11.281-26.034 26.034-26.034h43.39z"/><path id="drill-path8" d="m173.56 264.68h34.712v-190.92h-34.712z"/></g><path id="drill-path12" fill="#c3c7cb" d="m225.63 364.47h-69.424l8.678-17.356v-121.48l-17.356-34.712h86.78l-17.356 34.712v121.49z"/><g id="drill-g26" fill="#565656" transform="translate(0,-73.763)"><path id="drill-path14" d="m451.25 125.83h-52.068c-5.207 0-8.678-3.471-8.678-8.678s3.471-8.678 8.678-8.678h52.068c5.207 0 8.678 3.471 8.678 8.678s-3.471 8.678-8.678 8.678"/><path id="drill-path16" d="m451.25 160.54h-52.068c-5.207 0-8.678-3.471-8.678-8.678s3.471-8.678 8.678-8.678h52.068c5.207 0 8.678 3.471 8.678 8.678s-3.471 8.678-8.678 8.678"/><path id="drill-path18" d="m433.9 221.29-43.39 10.414 17.356 59.01h26.034z"/><path id="drill-path20" d="m251.66 117.15v69.424h69.424c0-34.713-34.712-69.424-69.424-69.424"/><path id="drill-path22" d="m477.29 342.78c-5.207 0-8.678 3.471-8.678 8.678s3.471 8.678 8.678 8.678h34.71v-17.36z"/><path id="drill-path24" d="m477.29 377.49c-5.207 0-8.678 3.471-8.678 8.678s3.471 8.678 8.678 8.678h34.71v-17.356z"/></g></svg><svg xmlns:rdf="http://www.w3.org/1999/02/22-rdf-syntax-ns#" xmlns:cc="http://creativecommons.org/ns#" xmlns:dc="http://purl.org/dc/elements/1.1/" id="groceries" xml:space="preserve" viewBox="0 0 42.999489 54.820724" height="55" width="43" version="1.1" y="977" x="0px"><g id="groceries-g34" transform="translate(-5.91 .00072571)"><path id="groceries-path2" fill="#436b1c" d="m11.217 19.913c-0.335 0-0.663-0.169-0.852-0.476-0.614-0.995-1.761-2.146-3.078-2.104-0.56-0.03-1.014-0.418-1.03-0.969-0.017-0.553 0.417-1.014 0.969-1.031 2.107-0.063 3.904 1.534 4.841 3.055 0.29 0.47 0.144 1.086-0.326 1.376-0.163 0.101-0.345 0.149-0.524 0.149z"/><g id="groceries-g6"><path id="groceries-path4" fill="#88c057" d="m31.684 6.597c-0.134-1.948-1.753-3.488-3.735-3.488-0.006 0-0.011 0.001-0.017 0.001 0.035-0.295 0.015-0.607-0.08-0.932-0.268-0.914-1.072-1.616-2.018-1.729-0.776-0.092-1.488 0.186-1.987 0.679-0.475-0.429-1.097-0.697-1.787-0.697-1.479 0-2.677 1.199-2.677 2.677 0 0.005 0.001 0.009 0.001 0.014-1.797 0.136-3.214 1.635-3.214 3.467 0 0.28 0.037 0.551 0.099 0.812-2.139 0.089-3.847 1.847-3.847 4.008 0 0.732 0.199 1.416 0.541 2.007-0.657 0.54-1.077 1.359-1.077 2.276 0 0.838 0.355 1.589 0.917 2.124 2.412-1.971 4.946 4.621 7.93 9.884 0.991 1.748 11.698-0.114 12.551 0.972 0.972-0.874 1.6-16.094 1.627-17.431 0.042-2.145-1.32-3.975-3.227-4.644z"/></g><path id="groceries-path8" fill="#eeaf4b" d="m33.053 26.533 0.713-0.427c1.32-0.792 2.968-0.792 4.287 0l0.713 0.427c1.32 0.792 2.968 0.792 4.287 0l2.015-0.896c0.296-0.826 0.502-1.424 0.584-1.689 1.88-6.047 3.091-12.414 3.256-18.765 0.066-2.554-2.046-6.537-5.555-4.727-3.449 1.778-5.919 8.597-7.655 11.835-2.466 4.601-4.416 9.605-5.805 14.704 1.058 0.267 2.196 0.116 3.16-0.462z"/><path id="groceries-path10" fill="#ed3f32" d="m7.055 25.506 1.345 0.807c1.545 0.927 3.475 0.927 5.02 0l0.346-0.208c1.32-0.792 2.968-0.792 4.287 0l0.713 0.427c0.775 0.465 1.663 0.649 2.531 0.568 0.64-2.067 0.425-4.651-0.567-6.4-3.336-5.885-6.111-4.686-8.781-2.131-0.512 0.49-1.138 0.849-1.82 1.044-2.928 0.837-5.089 2.206-3.86 5.934 0.217-0.158 0.519-0.201 0.786-0.041z"/><g fill="#a46f3e"><path id="groceries-path12" d="m35.592 24.356c-0.106 0-0.215-0.017-0.321-0.053-0.523-0.178-0.803-0.746-0.625-1.269 0.667-1.962 2.809-3.012 4.768-2.352 0.919 0.313 1.92-0.181 2.232-1.1 0.177-0.523 0.743-0.805 1.269-0.626 0.523 0.178 0.803 0.746 0.625 1.269-0.666 1.963-2.806 3.017-4.768 2.352-0.918-0.312-1.919 0.183-2.232 1.1-0.143 0.418-0.532 0.679-0.948 0.679z"/><path id="groceries-path14" d="m37.957 17.389c-0.106 0-0.215-0.017-0.321-0.053-0.523-0.178-0.803-0.746-0.625-1.269 0.323-0.951 0.997-1.72 1.897-2.164s1.919-0.511 2.871-0.188c0.921 0.314 1.92-0.181 2.232-1.101 0.177-0.524 0.745-0.805 1.268-0.626 0.523 0.178 0.803 0.746 0.625 1.269-0.666 1.964-2.806 3.016-4.768 2.353-0.445-0.152-0.923-0.121-1.344 0.087s-0.736 0.567-0.888 1.013c-0.141 0.417-0.53 0.679-0.947 0.679z"/><path id="groceries-path16" d="m40.323 10.421c-0.106 0-0.215-0.017-0.322-0.053-0.523-0.178-0.803-0.746-0.625-1.269 0.584-1.722 2.463-2.646 4.185-2.064 0.33 0.112 0.682 0.09 0.993-0.063s0.544-0.419 0.656-0.748c0.177-0.523 0.744-0.804 1.269-0.626 0.523 0.178 0.803 0.746 0.625 1.269-0.284 0.835-0.875 1.51-1.665 1.899-0.791 0.39-1.686 0.447-2.521 0.164-0.678-0.231-1.418 0.134-1.648 0.813-0.142 0.416-0.531 0.678-0.947 0.678z"/></g><g id="groceries-g20"><path id="groceries-path18" fill="#dae7ef" d="m23.37 14.095c-0.945 1.257-2.436 2.745-1.862 5.373l1.544 7.065h0.001l0.713-0.427c1.32-0.792 2.968-0.792 4.287 0l0.713 0.427c0.58 0.348 1.127 0.463 1.127 0.463 1.042-3.823 2.399-7.593 4.052-11.179-0.774-1.936-2.427-2.584-3.627-3.247-0.007-0.004-0.014-0.008-0.02-0.011-0.759-0.435-0.806-1.474-0.235-2.136 0.225-0.261 0.329-0.62 0.251-0.98l-0.121-0.552c-0.133-0.608-0.739-0.996-1.346-0.863l-6.077 1.326c-0.608 0.133-0.996 0.739-0.863 1.346l0.121 0.552c0.08 0.368 0.334 0.653 0.656 0.792 0.739 0.319 1.19 1.144 0.812 1.855-0.036 0.067-0.078 0.132-0.126 0.196z"/></g><path id="groceries-path22" fill="#fff" d="m29.746 10.899-6.879 1.503c-0.759 0.166-1.517-0.32-1.683-1.079l-0.099-0.452c-0.166-0.759 0.32-1.517 1.079-1.683l6.879-1.503c0.759-0.166 1.517 0.32 1.683 1.079l0.099 0.452c0.166 0.76-0.32 1.517-1.079 1.683z"/><path id="groceries-path24" fill="#fbd490" d="m46.816 25.332-1.745 25.029c-0.128 2.499-2.191 4.459-4.693 4.459h-28.071c-2.502 0-4.565-1.96-4.693-4.459l-1.703-24.208c-0.029-0.569 0.588-0.94 1.077-0.647l1.345 0.807c1.545 0.927 3.475 0.927 5.02 0l0.346-0.208c1.32-0.792 2.968-0.792 4.287 0l0.713 0.428c1.32 0.792 2.968 0.792 4.287 0l0.713-0.428c1.32-0.792 2.968-0.792 4.287 0l0.713 0.428c1.32 0.792 2.968 0.792 4.287 0l0.713-0.428c1.32-0.792 2.968-0.792 4.287 0l0.713 0.428c1.32 0.792 2.968 0.792 4.287 0l3.387-1.505c0.215-0.096 0.455 0.069 0.443 0.304z"/><g fill="#e0b877"><path id="groceries-path26" d="m17.91 42h-7c-0.552 0-1-0.447-1-1s0.448-1 1-1h7c0.552 0 1 0.447 1 1s-0.448 1-1 1z"/><path id="groceries-path28" d="m19.91 46h-9c-0.552 0-1-0.447-1-1s0.448-1 1-1h9c0.552 0 1 0.447 1 1s-0.448 1-1 1z"/><path id="groceries-path30" d="m21.91 50h-11c-0.552 0-1-0.447-1-1s0.448-1 1-1h11c0.552 0 1 0.447 1 1s-0.448 1-1 1z"/><path id="groceries-path32" d="m27.91 50h-2c-0.552 0-1-0.447-1-1s0.448-1 1-1h2c0.552 0 1 0.447 1 1s-0.448 1-1 1z"/></g></g></svg><svg xmlns:xlink="http://www.w3.org/1999/xlink" id="health-clinic" style="enable-background:new 0 0 512 512" xml:space="preserve" viewBox="0 0 512 512" version="1.1" y="1032" x="0px" width="32" height="32"><path d="m258.58 0.023c-0.86-0.012-1.72-0.023-2.58-0.023-0.855 0-1.722 0.011-2.577 0.023-140.2 1.372-253.42 115.46-253.42 255.98s113.22 254.6 253.42 255.98c0.855 0.011 1.722 0.022 2.577 0.022s1.722-0.011 2.577-0.022c108.77-1.77 219.03-115.7 219.03-255.98s-110.26-254.21-219.03-255.98z" fill="#fd7"/><path d="m311.43 325.73c0-7.87 6.439-14.309 14.309-14.309h81.935c7.87 0 14.309-6.439 14.309-14.309v-82.234c0-7.87-6.439-14.309-14.309-14.309h-81.935c-7.87 0-14.309-6.439-14.309-14.309v-81.934c0-7.87-6.439-14.309-14.309-14.309h-82.236c-7.87 0-14.309 6.439-14.309 14.309v81.935c0 7.87-6.439 14.309-14.309 14.309h-81.932c-7.87 0-14.309 6.439-14.309 14.309v82.236c0 7.87 6.439 14.309 14.309 14.309h81.935c7.87 0 14.309 6.439 14.309 14.309v81.935c0 7.87 6.439 14.309 14.309 14.309h82.236c7.87 0 14.309-6.439 14.309-14.309v-81.938z" fill="#FF7A2F"/><path d="m258.58 0.023c140.2 1.372 253.42 115.46 253.42 255.98s-113.22 254.6-253.42 255.98c108.77-1.77 196.53-115.7 196.53-255.98s-87.76-254.21-196.53-255.98z" fill="#FFCC3D"/></svg><svg xmlns:rdf="http://www.w3.org/1999/02/22-rdf-syntax-ns#" xmlns:cc="http://creativecommons.org/ns#" xmlns:dc="http://purl.org/dc/elements/1.1/" id="korob" enable-background="new 0 0 595.3 841.9" xml:space="preserve" viewBox="0 0 106 120" height="120" width="106" version="1.1" y="1064" x="0px"><path id="korob-path2" fill="#1a9f29" d="m106 11.5-81.5-11.5-1 0.2-22.1 10.4c-0.8 0.4-1.4 1.2-1.4 2.2v99.2c0 1.1 0.7 2.1 1.8 2.3l21.8 5.6v0.1h0.4v-0.1l81.9-13.2v-95.2zm-101.1 98.6v-95.9l18.8-9.2v109.9zm96.3-7.4-72.7 11.7v-109l72.7 10.3z"/><g id="korob-g12" fill="#ff9100" transform="translate(-375.6,-312.2)"><path id="korob-path4" d="m455.9 343.4c-3.7-4.6-8.9-7.4-14.4-8.1-5.8-0.7-11.7 1.3-16 5.3-4.6 4.2-7.2 10.3-7.2 16.7 0 4.2 1.1 8.4 3.1 12s4.8 6.5 8.2 8.6c0.2 0.7 0.3 1.3 0.5 2s0.3 1.3 0.5 2c0.2 0.9 1 1.5 1.9 1.5h0.1c3-0.1 6-0.3 8.9-0.4h0.9c2.6-0.1 5.1-0.3 7.6-0.4 0.8 0 1.6-0.7 1.8-1.6 0.1-0.7 0.3-1.3 0.4-2 0.1-0.6 0.3-1.2 0.4-1.8 2.8-2 5.1-4.8 6.7-8s2.4-6.8 2.4-10.4c-0.2-5.5-2.2-11-5.8-15.4zm-33.3 14.1c0-5.2 2.1-10.2 5.8-13.6 3.1-2.9 7.1-4.5 11.3-4.5 0.6 0 1.2 0 1.7 0.1 4.6 0.5 8.8 2.8 11.9 6.5 3 3.6 4.6 8.2 4.6 12.9 0 6.3-3.1 12.3-8.1 15.5-0.4 0.3-0.8 0.7-0.9 1.3s-0.2 1.1-0.4 1.6l-0.3 1.5c-2.3 0.1-4.6 0.2-7 0.2-2.4 0.1-4.9 0.2-7.3 0.2-0.1-0.6-0.3-1.2-0.4-1.7s-0.2-1-0.4-1.5c-0.1-0.6-0.5-1-0.9-1.3-5.8-3.4-9.6-10.1-9.6-17.2zm9.8 25.8z"/><path id="korob-path6" d="m432.5 391l3.9-0.3c1.7-0.1 3.4-0.2 5.1-0.4 2.9-0.2 5.7-0.4 8.4-0.6 1-0.1 1.9-1 1.9-2.1s-0.8-1.9-1.8-1.9h-0.7c-2.6 0.2-5.2 0.3-7.8 0.5l-1.3 0.1c-2.5 0.1-5.1 0.3-7.7 0.5-1.1 0.1-2 1-2 2.2 0 0.5 0.2 1 0.5 1.4 0.4 0.4 0.8 0.6 1.3 0.6h0.2z"/><path id="korob-path8" d="m436.1 374.4c0.2 0.9 1 1.6 1.9 1.6h0.1c0.1 0 0.2 0 0.3-0.1 1-0.3 1.7-1.4 1.4-2.5s-0.5-2.1-0.8-3.2c-0.2-1-0.4-1.9-0.7-2.9h3 2.9c-0.2 0.9-0.4 1.9-0.7 2.8-0.3 1.1-0.5 2.2-0.8 3.3-0.2 1.1 0.4 2.2 1.4 2.4h0.4c0.9 0 1.6-0.7 1.8-1.6l0.2-1.1c0.6-2.5 1.1-5 1.7-7.4v-0.9-0.1-0.1l-0.1-0.1v-0.1-0.1l-0.2-0.2s0-0.1-0.1-0.1v-0.2h0.2l-0.1-0.1v-0.2h-0.2l-0.2-0.1h-0.1-0.1-0.1-0.1l-5.7-0.1c-0.9 0-1.8 0-2.7-0.1-0.9 0-1.9 0-2.8-0.1-0.6 0-1.2 0.3-1.6 0.8s-0.5 1.1-0.4 1.8c0.8 3 1.5 6.1 2.2 8.7z"/><path id="korob-path10" d="m450.6 392.2-8.9 0.8h-0.5l-9.2 0.8-1.6 0.1v8.1 0.6l0.1 0.5c0.3 1.6 1 3 2 4l0.2 0.2 0.2 0.2c1.2 1 2.7 1.6 4.2 1.6h0.5 0.4l0.5-0.1 6.6-0.8 0.5-0.1c1.7-0.3 3.3-1.2 4.5-2.6l0.2-0.2 0.2-0.2c1.1-1.5 1.8-3.2 1.8-5v-8zm-2 7.7c0 1.1-0.4 2.2-1.1 3.1l-0.1 0.1v0.1c-0.7 0.8-1.6 1.3-2.6 1.5l-7.1 0.9h-0.3-0.2c-0.8 0-1.6-0.3-2.2-0.8s-1-1.3-1.1-2.2v-0.1-0.5-4.6l14.7-1.3z"/></g></svg><svg xmlns:rdf="http://www.w3.org/1999/02/22-rdf-syntax-ns#" xmlns:cc="http://creativecommons.org/ns#" xmlns:dc="http://purl.org/dc/elements/1.1/" id="logo" enable-background="new 0 0 595.3 841.9" xml:space="preserve" viewBox="0 0 322.58005 124.69999" height="116" width="300" version="1.1" y="1184" x="0px"><g id="logo-g12" fill="#1d9f49" transform="translate(-27.2,-493.4)"><path id="logo-path2" d="m325.6 526.7-5-4.3l0.6-0.9c0.6-0.9 1.2-1.9 1.1-3.2v-0.3c-0.4-1.3-9.8-6.5-11-6.5h-0.2l-0.4 0.1c-1.1 0.6-2 2-2.5 3.3-1-0.3-2.2-0.7-3.3-1.2-1.4-0.5-2.8-1.1-4.3-1.5-3.6-0.9-6.8-1.4-9.8-1.7-1.4-0.1-2.9-0.2-4.3-0.2-5.6 0-11 0.8-16.4 2.5-6.7 2.1-11.4 4.9-15.5 7.6-1.1 0.7-2.2 1.5-3.3 2.4s-6.9 5.7-8.7 9.1l-0.8 1.5h1.7c2.7-0.1 5.7-0.1 9.3-0.1h7.1 4c1.8 0 2.3-0.2 3.1-1 0.2-0.2 0.4-0.4 0.7-0.6 0.5-0.4 0.9-0.7 1.3-1 2.6-2 3.7-2.9 7.9-4.7 4.4-1.8 9-2.7 13.7-2.7 6.1 0 12.5 1.6 18.4 4.5 13.7 6.9 21.9 19.5 23.1 35.7 1.1 13.9-2.5 25.7-10.4 34.1-7.8 8.4-19.6 13.2-32.5 13.2-17.4 0-40.8-9.1-49.6-34.8l-2-5.7v6c0 1.2 0.3 2.3 0.7 3.3 0.2 0.6 0.4 1.2 0.5 1.8v0.1c0.7 2.4 1.6 4.7 2.8 7.2 8.9 18.7 25.5 29.4 45.5 29.4 14.9 0 29.4-6.1 39.7-16.7 10-10.2 15-23.5 14.6-38.4-0.5-13.1-6.2-26.5-15.8-36.3z"/><path id="logo-path4" d="m307.5 504.3c0.9 1 3.9 2.5 4.6 2.6l0.5 0.1 0.4-0.4c0.3-0.3 0.4-0.4 0.5-0.6 1.6 0.8 3.8 2.2 6 3.5 2.4 1.5 4.8 3 6.7 3.9l-0.6 1.6 0.5 0.4c1 0.9 3.4 2.4 5.1 2.7l0.7 0.1 5.7-9.9-0.4-0.5c-0.4-0.6-0.8-0.9-1-1.1-0.3-0.2-0.4-0.3-0.7-1.4-2.5-7.5-11-11.6-17.7-11.6h-0.4c-1.2 0-1.9 0-2.6-0.1-0.5-0.1-1.1-0.1-1.8-0.1h-0.5l-0.3 0.4c-0.9 1.1-4.7 7.4-5.1 9.1l-0.1 0.4 0.2 0.4c0.1 0.4 0.2 0.5 0.3 0.5z"/><polygon id="logo-polygon6" points="318.2 568.8 297.3 564.8 307.7 534 284 559.8 284 575"/><path id="logo-path8" d="m286.3 507.4h6 4.9 0.7l0.3-0.7c1.7-4.6 0.6-7.6-0.6-9.4-1.7-2.4-4.8-3.9-8.3-3.9-3.6 0-6.8 1.5-8.5 4-1.2 1.7-2.2 4.7-0.6 9.2 0.3 0.7 0.4 0.8 6.1 0.8z"/><path id="logo-path10" d="m349.7 534.1c-0.5-4.5-4.5-9.2-9.5-9.2-1.9 0-4.7 0.8-7.3 4.3l-0.1 0.1c-0.4 0.7-0.4 0.7 5.2 9 1.5 2.1 2.8 4.2 3.1 4.6l0.4 0.7 0.7-0.2c5.3-1.3 8.1-4.7 7.5-9.3z"/></g><g fill="#333"><path id="logo-path14" d="m4.8 70.5c0 0.4-0.1 0.6-0.2 0.7s-0.4 0.1-0.7 0.1h-3c-0.3 0-0.5-0.1-0.7-0.2s-0.2-0.3-0.2-0.7v-24.6c0-0.7 0.2-1.3 0.5-1.7s0.9-0.6 1.7-0.6h9.4c1.3 0 2.5 0.2 3.6 0.6s2 1 2.8 1.7 1.4 1.6 1.8 2.7c0.4 1 0.6 2.2 0.6 3.4 0 0.7-0.1 1.6-0.3 2.5-0.2 1-0.7 1.9-1.3 2.9-0.7 0.9-1.6 1.7-2.8 2.3s-2.8 1-4.8 1h-6.4zm10.7-18.1c0-0.4-0.1-0.9-0.2-1.5-0.1-0.5-0.4-1-0.7-1.4-0.4-0.4-0.8-0.8-1.5-1.1-0.6-0.3-1.4-0.4-2.4-0.4h-5.9v8.7h5.9c1.7 0 2.9-0.4 3.6-1.2 0.8-0.8 1.2-1.8 1.2-3.1z"/><path id="logo-path16" d="m43.5 71.1c-0.1 0.2-0.3 0.2-0.7 0.2h-11.2c-1.4 0-2.5-0.2-3.4-0.6s-1.6-0.9-2.1-1.6-0.9-1.4-1.1-2.2-0.3-1.7-0.3-2.6v-13.5c0-0.9 0.1-1.8 0.4-2.7 0.2-0.9 0.7-1.6 1.2-2.3 0.6-0.7 1.3-1.2 2.2-1.6s2-0.6 3.2-0.6h11c0.3 0 0.6 0.1 0.6 0.2 0.1 0.1 0.1 0.4 0.1 0.7v2.5c0 0.3 0 0.6-0.1 0.7s-0.3 0.2-0.6 0.2h-10.6c-1 0-1.7 0.2-2.1 0.7-0.4 0.4-0.6 1.1-0.6 1.9v4.1h11.9c0.3 0 0.6 0.1 0.6 0.2 0.1 0.1 0.1 0.4 0.1 0.7v2.2c0 0.3 0 0.5-0.1 0.7-0.1 0.1-0.3 0.2-0.6 0.2h-11.9v5.7c0 0.8 0.2 1.5 0.6 1.9s1.1 0.6 2.1 0.6h10.7c0.4 0 0.6 0.1 0.7 0.2s0.1 0.4 0.1 0.8v2.5c0.1 0.4 0 0.6-0.1 0.8z"/><path id="logo-path18" d="m63 56.6c0.7 0.2 1.2 0.5 1.7 0.8 0.4 0.3 0.8 0.7 1.1 1.1s0.5 0.9 0.7 1.3c0.2 0.5 0.3 1 0.5 1.6l2.4 9.1c0.1 0.1 0.1 0.3 0 0.5 0 0.2-0.2 0.3-0.6 0.3h-3.5c-0.1 0-0.3 0-0.4-0.1-0.2-0.1-0.3-0.2-0.4-0.5l-2.4-8.6c-0.4-1.4-1-2.4-1.8-2.8-0.8-0.5-1.8-0.7-3.2-0.7h-4.4v12c0 0.3-0.1 0.5-0.2 0.5-0.1 0.1-0.3 0.1-0.6 0.1h-3.3c-0.2 0-0.4 0-0.5-0.1s-0.2-0.2-0.2-0.5v-26.3c0-0.3 0.1-0.5 0.2-0.5s0.3-0.1 0.5-0.1h3.4c0.3 0 0.4 0 0.6 0.1 0.1 0.1 0.1 0.2 0.1 0.5v10.3h4.2c0.4 0 0.8 0 1.3-0.1 0.4-0.1 0.9-0.2 1.3-0.5s0.8-0.6 1.2-1.1 0.7-1.2 0.9-2l1.7-6.7c0.1-0.3 0.2-0.4 0.3-0.5 0.2-0.1 0.3-0.1 0.5-0.1h3.2c0.3 0 0.5 0.1 0.6 0.3v0.5l-1.7 7c-0.3 1.1-0.7 2.1-1.2 2.9s-1.2 1.5-2.1 2v0.3z"/><path id="logo-path20" d="m77.1 46.4c0.1-0.9 0.3-1.6 0.7-2s1-0.6 1.8-0.6h12.9c1.7 0 2.5 0.9 2.5 2.6v24.2c0 0.3-0.1 0.5-0.2 0.6s-0.3 0.1-0.6 0.1h-3.3c-0.3 0-0.5 0-0.6-0.1s-0.2-0.3-0.2-0.6v-22.7h-8.7l-0.2 3.4c-0.2 2.9-0.4 5.6-0.6 7.9s-0.6 4.3-1.2 6c-0.5 1.7-1.3 3.1-2.4 4.2-1 1.1-2.5 1.9-4.3 2.5-0.3 0.1-0.5 0-0.6 0-0.2-0.1-0.3-0.2-0.4-0.5l-0.8-2.3c-0.1-0.2-0.1-0.4 0-0.6 0-0.2 0.2-0.3 0.5-0.4 1.1-0.5 2-1.1 2.6-1.8s1.1-1.7 1.4-3c0.3-1.2 0.6-2.8 0.8-4.6s0.4-4.1 0.6-6.9z"/><path id="logo-path22" d="m115.6 65.3h-10l-1.7 5.4c-0.1 0.2-0.2 0.4-0.3 0.5s-0.4 0.2-0.7 0.2h-3.6c-0.3 0-0.5-0.1-0.6-0.3s-0.1-0.4 0-0.6l8.5-24.9c0.1-0.4 0.3-0.7 0.4-0.9s0.3-0.4 0.5-0.6c0.2-0.1 0.4-0.2 0.7-0.3s0.6-0.1 0.9-0.1h1.7c0.8 0 1.4 0.1 1.7 0.4s0.6 0.8 0.9 1.5l8.5 24.9c0.1 0.2 0.1 0.4 0 0.6s-0.2 0.3-0.5 0.3h-3.6c-0.3 0-0.5 0-0.7-0.1s-0.3-0.2-0.4-0.5zm-8.8-4.1h7.6l-2-6.6-1.7-5.6h-0.2l-1.6 5.5z"/><path id="logo-path24" d="m148.7 52.3h-0.2l-2.1 5.4-3.5 8.7c-0.3 0.7-0.6 1.1-0.8 1.4-0.3 0.2-0.7 0.4-1.4 0.4h-1.9c-0.7 0-1.1-0.1-1.4-0.4-0.3-0.2-0.5-0.7-0.8-1.4l-3.5-8.3-2.1-5.3h-0.2v17.7c0 0.4-0.1 0.6-0.2 0.7s-0.4 0.1-0.7 0.1h-2.8c-0.3 0-0.5 0-0.7-0.1s-0.2-0.3-0.2-0.7v-24.4c0-0.8 0.2-1.4 0.5-1.8s0.9-0.6 1.8-0.6h1.6c0.7 0 1.2 0.1 1.5 0.4 0.3 0.2 0.7 0.7 0.9 1.4l4.7 11.5 2.4 6.1h0.2l2.4-6.1 4.6-11.5c0.3-0.7 0.6-1.2 1-1.4s0.9-0.4 1.6-0.4h1.5c0.8 0 1.4 0.2 1.8 0.6 0.3 0.4 0.5 1 0.5 1.8v24.4c0 0.4-0.1 0.6-0.2 0.7s-0.4 0.1-0.7 0.1h-2.8c-0.3 0-0.5 0-0.6-0.1s-0.2-0.3-0.2-0.7z"/><path id="logo-path26" d="m180.8 71.2c-0.1 0.1-0.4 0.1-0.7 0.1h-3c-0.3 0-0.5-0.1-0.7-0.2-0.1-0.1-0.2-0.3-0.2-0.7v-11.6h-12.2v11.6c0 0.4-0.1 0.6-0.2 0.7s-0.4 0.1-0.7 0.1h-3c-0.3 0-0.5-0.1-0.7-0.2s-0.2-0.3-0.2-0.7v-25.7c0-0.3 0.1-0.6 0.2-0.7 0.2-0.1 0.4-0.2 0.7-0.2h3c0.4 0 0.6 0 0.7 0.1s0.2 0.3 0.2 0.7v10.2h12.2v-10.1c0-0.3 0.1-0.6 0.2-0.7s0.4-0.2 0.7-0.2h3c0.4 0 0.6 0 0.7 0.1s0.2 0.3 0.2 0.7v25.9c0 0.5 0 0.7-0.2 0.8z"/><path id="logo-path28" d="m210.1 57.4c0 4.6-1 8.1-3 10.6s-5 3.7-9.1 3.7c-4 0-6.9-1.2-8.9-3.6s-3-5.9-3-10.6c0-2.3 0.3-4.3 0.9-6 0.6-1.8 1.4-3.2 2.5-4.5 1.1-1.2 2.3-2.2 3.8-2.8s3.1-1 4.8-1c2 0 3.7 0.3 5.2 1 1.5 0.6 2.8 1.6 3.8 2.8s1.8 2.7 2.3 4.4 0.7 3.8 0.7 6zm-5 0.2c0-1.3-0.1-2.6-0.3-3.8s-0.6-2.3-1.1-3.2-1.2-1.6-2.1-2.2c-0.9-0.5-2.1-0.8-3.5-0.8-1.2 0-2.3 0.3-3.1 0.8-0.9 0.5-1.6 1.2-2.2 2.1s-1 1.9-1.3 3.1-0.4 2.4-0.4 3.8c0 1.5 0.1 2.9 0.3 4.1s0.6 2.3 1.2 3.2 1.3 1.6 2.2 2c0.9 0.5 2 0.7 3.4 0.7 1.3 0 2.5-0.3 3.4-0.8 0.9-0.6 1.6-1.3 2.2-2.2s0.9-1.9 1.2-3.1c0-1.2 0.1-2.4 0.1-3.7z"/><path id="logo-path30" d="m234.1 71.1c-0.1 0.2-0.3 0.2-0.7 0.2h-11.2c-1.4 0-2.5-0.2-3.4-0.6s-1.6-0.9-2.1-1.6-0.9-1.4-1.1-2.2-0.3-1.7-0.3-2.6v-13.5c0-0.9 0.1-1.8 0.4-2.7 0.2-0.9 0.7-1.6 1.2-2.3 0.6-0.7 1.3-1.2 2.2-1.6s2-0.6 3.2-0.6h11c0.3 0 0.6 0.1 0.6 0.2 0.1 0.1 0.1 0.4 0.1 0.7v2.5c0 0.3 0 0.6-0.1 0.7s-0.3 0.2-0.6 0.2h-10.5c-1 0-1.7 0.2-2.1 0.7-0.4 0.4-0.6 1.1-0.6 1.9v4.1h11.9c0.3 0 0.6 0.1 0.6 0.2 0.1 0.1 0.1 0.4 0.1 0.7v2.2c0 0.3 0 0.5-0.1 0.7-0.1 0.1-0.3 0.2-0.6 0.2h-11.9v5.7c0 0.8 0.2 1.5 0.6 1.9s1.1 0.6 2.1 0.6h10.7c0.4 0 0.6 0.1 0.7 0.2s0.1 0.4 0.1 0.8v2.5c0 0.4-0.1 0.6-0.2 0.8z"/><path id="logo-path32" d="m96.4 89.6c0.7 0.3 1.4 0.7 1.9 1.2 0.6 0.5 1 1 1.3 1.6s0.6 1.2 0.8 1.9 0.3 1.4 0.3 2.1c0 1.2-0.2 2.4-0.7 3.4s-1.1 1.9-2 2.6c-0.8 0.7-1.8 1.3-2.9 1.7s-2.3 0.6-3.6 0.6h-9.6c-0.8 0-1.4-0.2-1.7-0.5-0.3-0.4-0.5-0.9-0.5-1.7v-23.1c0-0.8 0.2-1.3 0.5-1.7s0.9-0.6 1.7-0.6h9.1c1.2 0 2.3 0.1 3.4 0.4 1 0.3 1.9 0.7 2.7 1.2 0.7 0.6 1.3 1.3 1.8 2.1 0.4 0.9 0.6 1.9 0.6 3.1s-0.3 2.3-0.9 3.2-1.3 1.7-2.2 2.2zm-11.9-1.7h6.4c0.4 0 0.8 0 1.2-0.1s0.8-0.3 1.2-0.5 0.7-0.6 0.9-1 0.4-1 0.4-1.7c0-0.9-0.3-1.7-0.9-2.2-0.6-0.6-1.5-0.8-2.5-0.8h-6.6v6.3zm11.3 8.2c0-1.3-0.4-2.3-1.2-3.1s-2-1.2-3.5-1.2h-6.5v8.6h6.5c0.9 0 1.7-0.1 2.3-0.4s1.1-0.6 1.5-1 0.6-0.9 0.8-1.4c0-0.5 0.1-1 0.1-1.5z"/><path id="logo-path34" d="m110.6 103.9c0 0.4-0.1 0.6-0.2 0.7s-0.4 0.1-0.7 0.1h-3c-0.3 0-0.5-0.1-0.7-0.2s-0.2-0.3-0.2-0.7v-24.6c0-0.7 0.2-1.3 0.5-1.7s0.9-0.6 1.7-0.6h9.4c1.3 0 2.5 0.2 3.6 0.6s2 1 2.8 1.7 1.4 1.6 1.8 2.7c0.4 1 0.6 2.2 0.6 3.4 0 0.7-0.1 1.6-0.3 2.5-0.2 1-0.7 1.9-1.3 2.9-0.7 0.9-1.6 1.7-2.8 2.3s-2.8 1-4.8 1h-6.4zm10.7-18c0-0.4-0.1-0.9-0.2-1.5-0.1-0.5-0.4-1-0.7-1.4-0.4-0.4-0.8-0.8-1.5-1.1-0.6-0.3-1.4-0.4-2.4-0.4h-5.8v8.7h5.9c1.7 0 2.9-0.4 3.6-1.2s1.1-1.9 1.1-3.1z"/><path id="logo-path36" d="m149.3 104.5c-0.1 0.2-0.3 0.2-0.7 0.2h-11.2c-1.4 0-2.5-0.2-3.4-0.6s-1.6-0.9-2.1-1.6-0.9-1.4-1.1-2.2-0.3-1.7-0.3-2.6v-13.5c0-0.9 0.1-1.8 0.4-2.7 0.2-0.9 0.7-1.6 1.2-2.3 0.6-0.7 1.3-1.2 2.2-1.6s2-0.6 3.2-0.6h11c0.3 0 0.6 0.1 0.6 0.2 0.1 0.1 0.1 0.4 0.1 0.7v2.5c0 0.3 0 0.6-0.1 0.7s-0.3 0.2-0.6 0.2h-10.5c-1 0-1.7 0.2-2.1 0.7-0.4 0.4-0.6 1.1-0.6 1.9v4.1h11.9c0.3 0 0.6 0.1 0.6 0.2 0.1 0.1 0.1 0.4 0.1 0.7v2.2c0 0.3 0 0.5-0.1 0.7-0.1 0.1-0.3 0.2-0.6 0.2h-11.9v5.7c0 0.8 0.2 1.5 0.6 1.9s1.1 0.6 2.1 0.6h10.7c0.4 0 0.6 0.1 0.7 0.2s0.1 0.4 0.1 0.8v2.5c0 0.4 0 0.7-0.2 0.8z"/><path id="logo-path38" d="m176.5 85.8h-0.2l-2.1 5.4-3.5 8.7c-0.3 0.7-0.6 1.1-0.8 1.4-0.3 0.2-0.7 0.4-1.4 0.4h-1.8c-0.7 0-1.1-0.1-1.4-0.4-0.3-0.2-0.5-0.7-0.8-1.4l-3.5-8.3-2.1-5.3h-0.2v17.7c0 0.4-0.1 0.6-0.2 0.7s-0.4 0.1-0.7 0.1h-2.8c-0.3 0-0.5 0-0.7-0.1s-0.2-0.3-0.2-0.7v-24.4c0-0.8 0.2-1.4 0.5-1.8s0.9-0.6 1.8-0.6h1.6c0.7 0 1.2 0.1 1.5 0.4 0.3 0.2 0.7 0.7 0.9 1.4l4.7 11.5 2.4 6.1h0.2l2.4-6.1 4.6-11.5c0.3-0.7 0.6-1.2 1-1.4s0.9-0.4 1.6-0.4h1.5c0.8 0 1.4 0.2 1.8 0.6 0.3 0.4 0.5 1 0.5 1.8v24.4c0 0.4-0.1 0.6-0.2 0.7s-0.4 0.1-0.7 0.1h-2.8c-0.3 0-0.5 0-0.6-0.1s-0.2-0.3-0.2-0.7v-18.2z"/><path id="logo-path40" d="m201.9 93.3h-4.6c-1.3 0-2.3 0.3-3.1 0.7s-1.4 1.4-1.8 2.8l-1.9 7.2c-0.1 0.3-0.2 0.5-0.4 0.6s-0.4 0.1-0.6 0.1h-3.5c-0.3 0-0.5-0.1-0.6-0.3v-0.6l2.1-7.8c0.3-1 0.6-1.8 1.2-2.5 0.5-0.7 1.3-1.2 2.4-1.6-1.5-0.6-2.6-1.5-3.3-2.7s-1.1-2.6-1.1-4.2c0-1.2 0.2-2.3 0.6-3.2 0.4-1 1-1.8 1.8-2.5s1.7-1.3 2.7-1.7c1.1-0.4 2.3-0.6 3.6-0.6h9.2c0.8 0 1.4 0.2 1.7 0.6s0.5 0.9 0.5 1.7v24.7c0 0.3-0.1 0.5-0.2 0.5-0.1 0.1-0.3 0.1-0.6 0.1h-3.3c-0.3 0-0.5 0-0.6-0.1s-0.2-0.2-0.2-0.5zm-10.4-7.9c0 1.1 0.4 2 1.1 2.8 0.7 0.7 1.9 1.1 3.5 1.1h5.8v-7.8h-6.1c-0.9 0-1.6 0.1-2.2 0.4s-1 0.6-1.3 1-0.5 0.8-0.6 1.3c-0.1 0.4-0.2 0.8-0.2 1.2z"/></g></svg><svg width="300" viewBox="0 0 595.20002 595.29997" height="300" id="map" y="1300"><ellipse cy="513.2" cx="297.6" rx="297.6" ry="82.1" fill="#393"/><path d="m427.7 54.6c-72.8-72.8-191-72.8-263.8 0-65.6 65.6-73 189.2-17.3 263.5l149.2 215.6 149.2-215.5c55.8-74.3 48.4-197.9-17.3-263.6zm-130.1 191.7c-34 0-61.6-27.6-61.6-61.6s27.6-61.6 61.6-61.6 61.6 27.6 61.6 61.6-27.5 61.6-61.6 61.6z" fill="#f48b00"/></svg><svg xmlns:rdf="http://www.w3.org/1999/02/22-rdf-syntax-ns#" xmlns:cc="http://creativecommons.org/ns#" xmlns:dc="http://purl.org/dc/elements/1.1/" id="meal" xml:space="preserve" viewBox="0 0 503.32263 512" height="300" width="294.7265625" version="1.1" y="1600" x="0px"><g id="meal-g20" transform="translate(-4.339)"><path id="meal-path2" fill="#fdc693" d="m501.59 348.56c6.717-5.571 8.079-15.447 2.994-22.537-10.873-15.143-19.89-18.744-57.665 1.119l-75.273 46.011c-23.005 12.227-83.369 8.678-109.41 8.678 0 0 61.457 4.165 36.933-32.447-12.201-18.206-33.237-28.542-55.148-28.542h-33.853c-19.734 0-39.198-5.866-54.949-17.746-36.769-27.717-107.48 26.667-107.48 26.667v156.2h121.49c17.33 0 34.642-1.31 51.773-3.914l113.11-17.2c3.862 0 7.611-0.451 11.238-1.258 0.061-0.009 0.113-0.017 0.174-0.026 9.155-1.284 17.521-5.918 24.203-12.314z"/><polygon id="meal-polygon4" points="47.728 303.73 4.339 303.73 4.339 512 47.728 512" fill="#556080"/><path id="meal-path6" fill="#f9a571" d="m154.32 416.54c-4.799 0-8.678-3.888-8.678-8.678 0-21.738 16.219-34.712 43.39-34.712h84.332c4.799 0 8.678 3.888 8.678 8.678s-3.879 8.678-8.678 8.678h-84.332c-26.034 0-26.034 13.06-26.034 17.356 0 4.791-3.879 8.678-8.678 8.678"/><g id="meal-g14" fill="#cad3db"><polygon id="meal-polygon8" points="70.043 269.02 441.96 269.02 472.95 225.63 39.054 225.63"/><path id="meal-path10" d="m256 43.39c-4.799 0-8.678-3.888-8.678-8.678v-26.034c0-4.79 3.879-8.678 8.678-8.678s8.678 3.888 8.678 8.678v26.034c0 4.79-3.879 8.678-8.678 8.678"/><path id="meal-path12" d="m282.04 17.356h-52.068c-4.799 0-8.678-3.888-8.678-8.678s3.879-8.678 8.678-8.678h52.068c4.799 0 8.678 3.888 8.678 8.678s-3.879 8.678-8.678 8.678"/></g><path id="meal-path16" fill="#e6eef3" d="m446.92 225.63c0-105.44-85.48-190.92-190.92-190.92-105.43 0.002-190.91 85.48-190.91 190.92z"/><path id="meal-path18" fill="#cad3db" d="m120.76 156.2c-1.475 0-2.977-0.373-4.348-1.172-4.148-2.404-5.563-7.715-3.15-11.854 29.479-50.844 84.176-82.432 142.74-82.432 4.799 0 8.678 3.888 8.678 8.678 0 4.799-3.879 8.678-8.678 8.678-52.398 0-101.34 28.273-127.73 73.771-1.605 2.778-4.521 4.331-7.515 4.331"/></g></svg><svg xmlns:rdf="http://www.w3.org/1999/02/22-rdf-syntax-ns#" xmlns:cc="http://creativecommons.org/ns#" xmlns:dc="http://purl.org/dc/elements/1.1/" id="odezhda" enable-background="new 0 0 595.3 841.9" xml:space="preserve" viewBox="0 0 529.70002 548.37151" height="300" width="290.14598540146" version="1.1" y="1900" x="0px"><path id="odezhda-path2" fill="#acb3ba" d="m189.8 115.57c0.6 1.2 1.1 2.5 1.7 3.7l0.1 0.1c3.8 8.5 7.6 16.9 11.5 25.3 5.2-2.2 10.5-4.4 15.8-6 30-9.7 62.2-9.7 92.1 0 5.3 1.8 10.6 3.8 15.8 6 3.9-8.4 7.7-16.8 11.5-25.3 0-0.1 0.1-0.1 0.1-0.1 0.6-1.2 1.1-2.5 1.7-3.7-48-21.5-102.5-21.5-150.3 0z"/><path id="odezhda-path4" fill="#ced5e0" d="m218.8 138.47c21.1 10.2 46.1 17.7 46.1 17.7s24.9-7.6 46.1-17.7c-30.1-9.5-62.2-9.5-92.2 0z"/><path id="odezhda-path6" fill="#324a5e" d="m264.8 108.87c1.8 0 3.2-1.4 3.2-3.2v-9.6c0-16.5-7.4-32.6-20.6-44.3-6-5.4-9.2-13.1-8.7-21.1 0.8-13.1 11.3-23.6 24.4-24.4 7.3-0.5 14.3 2 19.6 7.1 5.3 5 8.3 11.8 8.3 19 0 1.8 1.4 3.2 3.2 3.2s3.2-1.4 3.2-3.2c0-8.9-3.8-17.5-10.3-23.6-6.6-6.1-15.2-9.3-24.2-8.7-16.3 1.1015-29.3 14.102-30.2 30.202-0.6 10 3.3 19.6 10.7 26.2 11.7 10.5 18.4 24.9 18.4 39.6v9.6c-0.1 1.8 1.3 3.2 3 3.2z"/><path id="odezhda-path8" fill="#ffd05b" d="m81.2 195.57c1.3 2.5 3.9 3.9 6.5 3.9h354.3c4 0 7.3-3.3 7.3-7.3 0-2.8-1.5-5.2-3.9-6.5l-177.2-96.498c-2.2-1.2-5-1.2-7.1 0l-177.2 96.498c-3.3 1.9-4.7 6.3-2.7 9.9zm183.6-73.8 142.3 63h-284.6z"/><path id="odezhda-path10" fill="#ff7058" d="m0 243.67 78 81.1 45.4-35.7v223.6c42.2 22.8 90.2 35.7 141.5 35.7 51.1 0 99.3-12.9 141.4-35.7v-223.6l45.4 35.7 78-81.1-90.9-86.5c-7.9-7.6-18.1-12.6-28.9-14.6l-73-13c0.2 3.9-2.1 7.8-7.1 7.8-0.7 0-1.3 0-1.8-0.2-7 22.4-32.6 39.1-63.1 39.3-30.8-0.2-56.6-17.2-63.3-40-0.9 0.6-2.2 0.9-3.7 0.9-4.8 0-7.2-3.8-7.2-7.4l-70.9 12.6c-10.9 2-20.9 7-28.9 14.6z"/><polygon id="odezhda-polygon12" points="562.4 413.9 541.5 394 461.7 477 484.5 495" fill="#324a5e" transform="translate(-32.8 -170.23)"/><g id="odezhda-g18" fill="#e6e9ee" transform="translate(-32.8 -170.23)"><polygon id="odezhda-polygon14" points="562.4 413.9 541.5 394 461.7 477 484.5 495"/><polygon id="odezhda-polygon16" points="133.6 477 53.7 394 32.8 413.9 110.8 495"/></g><rect id="odezhda-rect20" height="126.7" width="37.9" y="156.37" x="245.8" fill="#f1543f"/><g id="odezhda-g30" fill="#e6e9ee" transform="translate(-32.8 -170.23)"><path id="odezhda-path22" d="m230.8 347.4 31.8 34.3 35-55s-24.9-7.6-46.1-17.7c-12-5.9-23-12.5-27.2-19.3l-0.1-0.1c-0.8-1.2-1.3-2.5-1.7-3.7l-4.1 10.2c-6.6 16.4-2.8 34.7 12.4 51.3z"/><path id="odezhda-path24" d="m297.6 326.6 35 55 31.9-34.3c15.4-16.5 19.1-34.7 12.3-51.4l-4.1-10.2c-0.2 1.2-0.8 2.5-1.7 3.7 0 0.1-0.1 0.1-0.1 0.1-4.3 6.6-15.2 13.3-27.3 19.1-21 10.4-46 18-46 18z"/><circle id="odezhda-circle26" cy="397.7" cx="297.6" r="9.8"/><circle id="odezhda-circle28" cy="434.6" cx="297.6" r="9.8"/></g></svg><svg xmlns:rdf="http://www.w3.org/1999/02/22-rdf-syntax-ns#" xmlns:cc="http://creativecommons.org/ns#" xmlns:dc="http://purl.org/dc/elements/1.1/" id="perfume" xml:space="preserve" viewBox="0 0 503.98207 511.99702" height="300" width="295.3125" version="1.1" y="2200" x="0px"><path id="perfume-path2" fill="#e0273d" d="m387.24 156.7c-16.2-30.32-40.82-55.09-71.2-71.622-30.55-16.63-66.26-23.452-100.74-20.418l-12.929-7.232 12.929-11.357c38.093-3.349 75.782 4.502 109.52 22.867 33.544 18.257 61.302 46.458 79.198 79.949l-5.017 11.247z"/><path id="perfume-path4" fill="#ed4850" d="m319.25 79.035c-31.56-17.179-68.25-24.56-103.95-22.155v7.779c34.478-3.035 70.184 3.789 100.74 20.418 30.383 16.537 55.005 41.302 71.205 71.62l6.997-3.258c-17.36-31.42-43.22-57.117-74.99-74.405z"/><path id="perfume-path6" fill="#6149aa" d="m442.55 177.32-13.824-29.018c-2.537-5.326-8.91-7.586-14.236-5.049l-8.554 4.075c-0.026 0.012-0.051 0.02-0.077 0.032l-27.385 13.051c-5.326 2.537-7.586 8.91-5.049 14.236l13.824 29.018 46.671-22.238-0.012-0.026z"/><path id="perfume-path8" fill="#4a4087" d="m428.72 148.3c-2.537-5.326-8.91-7.586-14.236-5.049l-15.484 7.376c5.087-1.794 10.809 0.505 13.181 5.482l13.824 29.018 16.539-7.81z"/><path id="perfume-path10" fill="#58595b" d="m215.83 34.177c0-5.24-4.247-9.487-9.487-9.487h-18.989 0.001-19.211c-5.24 0-9.487 4.247-9.487 9.487v99.768h57.174v-99.763z"/><path id="perfume-path12" fill="#414042" d="m206.34 24.689h-18.989c5.24 0 9.487 4.247 9.487 9.487v99.768h18.989v-99.763c0.002-5.24-4.247-9.488-9.487-9.488z"/><path id="perfume-path14" fill="#ed4850" d="m243.59 132.84h-35.776 0.001-76.936c-6.766 0-12.251 5.485-12.251 12.251v50.638c0 6.766 5.485 12.251 12.251 12.251h112.71c6.766 0 12.251-5.485 12.251-12.251v-50.64c0.001-6.765-5.484-12.251-12.25-12.251z"/><path id="perfume-path16" fill="#e0273d" d="m243.59 132.84h-35.776c6.766 0 12.251 5.485 12.251 12.251v50.638c0 6.766-5.485 12.251-12.251 12.251h35.776c6.766 0 12.251-5.485 12.251-12.251v-50.64c0-6.765-5.485-12.251-12.251-12.251z"/><path id="perfume-path18" fill="#f2ba43" d="m187.29 170.41c-11.32 0-22.369 1.147-33.055 3.3-0.168 0.031-0.342 0.049-0.507 0.083-75.886 15.529-132.97 82.674-132.97 163.15 0 56.693 28.337 107.41 71.612 137.48h189.84c43.28-30.07 71.61-80.78 71.61-137.48 0-91.97-74.56-166.53-166.53-166.53z"/><path id="perfume-path20" fill="#eda21d" d="m187.29 170.41c-11.768 0-23.25 1.229-34.329 3.55 75.503 15.824 132.2 82.779 132.2 162.98 0 56.693-28.338 107.41-71.613 137.48h68.659c43.28-30.07 71.61-80.78 71.61-137.48 0-91.97-74.56-166.53-166.53-166.53z"/><g id="perfume-g26" fill="#ed4850" transform="translate(-4.008)"><path id="perfume-path22" d="m155.34 379.55h71.907c16.392-11.392 27.125-30.356 27.125-51.83 0-34.837-28.241-63.077-63.077-63.077s-63.077 28.241-63.077 63.077c-0.002 21.474 10.731 40.438 27.122 51.83z"/><path id="perfume-path24" d="m285.92 473.78h-189.35c-10.499 0-19.011 8.512-19.011 19.011v0.195c0 10.499 8.512 19.011 19.011 19.011h189.35c10.499 0 19.011-8.512 19.011-19.011v-0.195c0-10.499-8.511-19.011-19.011-19.011z"/></g><path id="perfume-path28" fill="#e0273d" d="m281.92 473.78h-67.381c10.499 0 19.011 8.512 19.011 19.011v0.195c0 10.499-8.512 19.011-19.011 19.011h67.381c10.499 0 19.011-8.512 19.011-19.011v-0.195c0-10.499-8.512-19.011-19.011-19.011z"/><g id="perfume-g46" fill="#d1d3d4" transform="translate(-4.008)"><path id="perfume-path30" d="m108.17 68.7c-0.039-5.051-4.145-9.119-9.187-9.119h-0.071l-40.13 0.306c-5.074 0.039-9.157 4.184-9.119 9.258 0.039 5.051 4.145 9.119 9.187 9.119h0.071l40.13-0.306c5.075-0.039 9.157-4.184 9.119-9.258z"/><circle id="perfume-circle32" cy="69.327" cx="26.562" r="9.188"/><circle id="perfume-circle34" cy="19.636" cx="17.371" r="9.188"/><circle id="perfume-circle36" cy="127.95" cx="13.196" r="9.188"/><path id="perfume-path38" d="m91.602 32.018 19.645 9.992c1.334 0.679 2.757 1 4.159 1 3.347 0 6.575-1.836 8.197-5.024 2.301-4.523 0.499-10.056-4.025-12.355l-19.647-9.992c-4.522-2.3-10.056-0.5-12.355 4.025-2.3 4.522-0.499 10.055 4.024 12.354z"/><circle id="perfume-circle40" cy="9.188" cx="66.986" r="9.188"/><path id="perfume-path42" d="m126.98 94.694c-3.199-3.939-8.986-4.538-12.925-1.338l-17.108 13.896c-3.939 3.2-4.538 8.986-1.338 12.925 1.816 2.236 4.466 3.395 7.138 3.395 2.036 0 4.085-0.673 5.789-2.057l17.106-13.896c3.939-3.199 4.538-8.985 1.338-12.925z"/><circle id="perfume-circle44" cy="134.75" cx="77.67" r="9.188"/></g><circle id="perfume-circle48" cy="60.138" cx="187.24" r="9.188" fill="#f2ba43"/><path id="perfume-path50" fill="#f474fb" d="m497.5 209.1c-10.797-22.665-32.749-36.403-56.152-37.812-0.334-0.023-0.657-0.058-1.001-0.072-10.551-0.475-21.368 1.56-31.569 6.418-33.19 15.811-47.277 55.533-31.466 88.722 6.407 13.451 16.742 23.764 28.979 30.221 0.131 0.07 0.261 0.124 0.392 0.19 17.885 9.29 39.754 10.39 59.351 1.055 33.188-15.811 47.277-55.532 31.466-88.722z"/><path id="perfume-path52" fill="#e45acd" d="m497.5 209.1c-10.951-22.988-33.376-36.801-57.153-37.874 12.234 6.458 22.569 16.768 28.975 30.217 15.811 33.188 1.724 72.911-31.466 88.722-10.2 4.86-21.018 6.884-31.569 6.409 17.957 9.478 40.006 10.652 59.746 1.248 33.189-15.811 47.277-55.532 31.467-88.722z"/></svg><svg xmlns:rdf="http://www.w3.org/1999/02/22-rdf-syntax-ns#" xmlns:cc="http://creativecommons.org/ns#" xmlns:dc="http://purl.org/dc/elements/1.1/" id="plotter" enable-background="new 0 0 595.3 841.9" xml:space="preserve" viewBox="0 0 242.60001 168.39999" height="168" width="243" version="1.1" y="2500" x="0px"><g id="plotter-g4" transform="translate(-176.3,-337.8)"><path id="plotter-path2" d="m369.8 361.3h28c2.3 0 4.2-1.9 4.2-4.2s-1.9-4.2-4.2-4.2h-28c-2.3 0-4.2 1.9-4.2 4.2s1.9 4.2 4.2 4.2z" fill-rule="evenodd" clip-rule="evenodd" fill="#f89803"/></g><g id="plotter-g8" transform="translate(-176.3,-337.8)"><path id="plotter-path6" d="m251.8 396.7h80.6c2.3 0 4.2-1.9 4.2-4.2s-1.9-4.2-4.2-4.2h-80.6c-2.3 0-4.2 1.8-4.2 4.2 0 2.3 1.9 4.2 4.2 4.2z" fill-rule="evenodd" clip-rule="evenodd" fill="#f89803"/></g><g id="plotter-g12" transform="translate(-176.3,-337.8)"><path id="plotter-path10" d="m258.9 413.9h66.4c1.9 0 3.4-1.9 3.4-4.2s-1.6-4.2-3.4-4.2h-66.4c-1.9 0-3.4 1.9-3.4 4.2-0.1 2.3 1.5 4.2 3.4 4.2z" fill-rule="evenodd" clip-rule="evenodd" fill="#f89803"/></g><g id="plotter-g16" transform="translate(-176.3,-337.8)"><path id="plotter-path14" d="m251.8 431.2h80.6c2.3 0 4.2-1.9 4.2-4.2s-1.9-4.2-4.2-4.2h-80.6c-2.3 0-4.2 1.8-4.2 4.2 0 2.3 1.9 4.2 4.2 4.2z" fill-rule="evenodd" clip-rule="evenodd" fill="#f89803"/></g><g id="plotter-g20" transform="translate(-176.3,-337.8)"><path id="plotter-path18" d="m263.6 448.4h56.8c1.6 0 2.9-1.9 2.9-4.2s-1.3-4.2-2.9-4.2h-56.8c-1.6 0-2.9 1.9-2.9 4.2s1.3 4.2 2.9 4.2z" fill-rule="evenodd" clip-rule="evenodd" fill="#f89803"/></g><g id="plotter-g24" transform="translate(-176.3,-337.8)"><path id="plotter-path22" d="m251.8 465.7h80.6c2.3 0 4.2-1.9 4.2-4.2s-1.9-4.2-4.2-4.2h-80.6c-2.3 0-4.2 1.9-4.2 4.2s1.9 4.2 4.2 4.2z" fill-rule="evenodd" clip-rule="evenodd" fill="#f89803"/></g><g id="plotter-g28" transform="translate(-176.3,-337.8)"><path id="plotter-path26" d="m196.1 362.3h14.3c2.5 0 4.5-2 4.5-4.5s-2-4.5-4.5-4.5h-14.3c-2.5 0-4.5 2-4.5 4.5-0.1 2.5 2 4.5 4.5 4.5z" fill-rule="evenodd" clip-rule="evenodd" fill="#f89803"/></g><path id="plotter-path30" d="m226.8 0h-210.9c-8.8 0-15.9 7.1-15.9 15.9v26.8c0 8.8 7.1 15.9 15.9 15.9h4.2v26.5h12.2v47.5h17.1c-0.9 7.9-2.5 14.4-4.8 23.5-0.6 2.2-1.1 4.5-1.8 7l-1.3 5.3h147.3l-1.7-5.5c-0.9-3.1-1.8-5.9-2.6-8.4-2.7-8.7-4.5-14.5-5.5-21.8h21.1v-47.5h22.4v-26.5h4.3c8.7 0 15.8-7.1 15.8-15.9v-26.8c0-8.9-7.1-16-15.8-16zm-198.1 58.6h21.4v18h-21.4zm12.1 65.5v-39h9.3v33.2c0 2.1 0 4-0.1 5.8zm11.6 35.7c0.1-0.6 0.3-1.1 0.4-1.6 3.6-14.1 5.7-22.6 5.7-39.9v-78.5h111.2v77.8c0 18.2 2.4 25.7 6.7 39.4 0.3 0.9 0.6 1.9 0.9 2.8zm139.3-35.7h-13.3c-0.1-2-0.1-4.2-0.1-6.5v-32.5h13.4zm22.3-47.5h-35.7v-18h35.7zm20.1-33.9c0 4.1-3.3 7.4-7.3 7.4h-48.5v-10.9h4.4c2.3 0 4.1-1.8 4.1-4.1s-1.8-4.1-4.1-4.1h-136.2c-2.2 0-4.1 1.8-4.1 4.1s1.8 4.1 4.1 4.1h3.6v10.9h-34.1c-4.1 0-7.4-3.3-7.4-7.4v-26.8c0-4.1 3.3-7.4 7.4-7.4h210.8c4 0 7.3 3.3 7.3 7.4z" fill-rule="evenodd" clip-rule="evenodd" fill="#1a9f29"/></svg><svg xmlns:rdf="http://www.w3.org/1999/02/22-rdf-syntax-ns#" xmlns:cc="http://creativecommons.org/ns#" xmlns:dc="http://purl.org/dc/elements/1.1/" id="podarok" enable-background="new 0 0 595.3 841.9" xml:space="preserve" viewBox="0 0 535.90004 595.40001" height="300" width="270.25210084034" version="1.1" y="2668" x="0px"><g id="podarok-g6" transform="translate(-29.7,-123.3)"><g id="podarok-g4"><path id="podarok-path2" fill="#fff" d="m535.8 272.1h-104.9c8.9-3.3 16.5-6.7 22.2-10 35.6-20.5 47.8-66.1 27.2-101.6-13.8-23.9-38.8-37.2-64.5-37.2-12.6 0-25.4 3.2-37.1 10-22.2 12.8-60.5 49.9-81 84.6-20.6-34.7-58.8-71.8-81-84.6-11.7-6.8-24.5-10-37.1-10-25.7 0-50.7 13.3-64.5 37.2-20.5 35.6-8.4 81.1 27.2 101.6 5.7 3.3 13.3 6.7 22.2 10h-105c-16.4 0-29.8 13.3-29.8 29.8v89.3c0 16.4 13.3 29.8 29.8 29.8v267.9c0 16.4 13.3 29.8 29.8 29.8h416.7c16.4 0 29.8-13.3 29.8-29.8v-268c16.4 0 29.8-13.3 29.8-29.8v-89.3c-0.1-16.4-13.4-29.7-29.8-29.7zm-142.2-113c6.8-3.9 14.5-6 22.3-6 15.9 0 30.8 8.6 38.7 22.3 12.3 21.3 5 48.7-16.3 61-16.9 9.7-64.6 23.9-100.9 23.9-13.6 0-21-2.1-24.1-3.4 0.3-20.3 48.4-79.5 80.3-97.8zm-185.3 529.7h-119v-267.9h119.1zm0-297.6h-148.8v-89.3h148.8zm-51.2-154.8c-21.3-12.3-28.7-39.7-16.3-61 7.9-13.8 22.8-22.3 38.7-22.3 7.8 0 15.5 2.1 22.2 6 31.8 18.4 80 77.5 80.3 97.8-3 1.4-10.5 3.4-24.1 3.4-36.3 0-83.9-14.2-100.8-23.9zm200.1 452.4h-119.1v-386.9h119.1zm148.8 0h-119.1v-267.9h119.1zm29.8-297.6h-148.9v-89.3h148.8v89.3z"/></g></g></svg><svg xmlns:rdf="http://www.w3.org/1999/02/22-rdf-syntax-ns#" xmlns:cc="http://creativecommons.org/ns#" xmlns:dc="http://purl.org/dc/elements/1.1/" id="proizvodstvo" enable-background="new 0 0 595.3 841.9" xml:space="preserve" viewBox="0 0 595.40004 495.99999" height="250" width="300" version="1.1" y="2968" x="0px"><g id="proizvodstvo-g22" transform="translate(0,-173)"><g id="proizvodstvo-g20"><g id="proizvodstvo-g18" fill="#fff"><path id="proizvodstvo-path2" d="m595 579.6-22.9-159.2c13.5-5.5 23.1-18.8 23.1-34.3v-88c0-69-56.1-125.1-125.1-125.1h-237.7c-17.7 0-32.7 11.6-37.9 27.5h-70.2c-6.4 0-11.7 4.8-12.3 11.1h-15c-1.8 0-3.5 0.4-5.2 1.1l-27.3 12.5c-4.4 2-7.2 6.4-7.2 11.3v8.6h-44.9c-6.8-0.1-12.4 5.4-12.4 12.3 0 6.8 5.6 12.4 12.4 12.4h44.8v8.6c0 4.9 2.8 9.3 7.2 11.3l27.3 12.5c1.6 0.7 3.4 1.1 5.2 1.1h15c0.7 6.2 5.9 11.1 12.3 11.1h73.3c8.7 19.1 28 32.3 50.3 32.3h42.7c7.5 34.4 44.2 76.4 92.8 76.4 35.4 0 55.4 19.6 61.2 59.8 4.3 29.8-0.3 53.3-13.1 68.2-10.6 12.2-27.2 18.7-48 18.7-6.8 0-12.4 5.6-12.4 12.4v74.4c0 6.8 5.6 12.4 12.4 12.4h199.6c6.8 0 12.4-5.6 12.4-12.4v-73.9-0.5c-0.1-0.9-0.2-1.8-0.4-2.6zm-483.2-301.1h-12.3l-17.6-8v-26.1l17.6-8h12.3zm80.7 11h-55.9v-64.3h55.9zm178.4 107.5c-28.7-5.9-48.1-31.4-54.6-50.3h54.6zm199.6 247.2h-174.8v-49.6h174.8zm0-258.2c0 6.7-5.5 12.2-12.2 12.2-3.6 0-7 1.6-9.4 4.3s-3.4 6.3-2.9 9.9l22.6 157.3h-120.8c0.8-0.8 1.5-1.6 2.2-2.5 5.6-6.5 10.1-14 13.5-22.4h27.2c6.8 0 12.4-5.6 12.4-12.4s-5.6-12.4-12.4-12.4h-21c1.6-12.4 1.4-26.1-0.7-40.8-3.4-23.8-11.4-42.7-23.8-56.2h31.9c6.8 0 12.4-5.6 12.4-12.4s-5.6-12.4-12.4-12.4h-81.5v-64c0-6.8-5.6-12.4-12.4-12.4h-135.5c-16.8 0-30.5-13.7-30.5-30.5v-78.5c0-8.3 6.8-15.1 15.1-15.1h237.8c55.3 0 100.3 45 100.3 100.3z"/><path id="proizvodstvo-path4" d="m365.3 247.4h0.9c6.8 0 12.4-5.6 12.4-12.4s-5.6-12.4-12.4-12.4h-0.9c-6.8 0-12.4 5.6-12.4 12.4s5.6 12.4 12.4 12.4z"/><path id="proizvodstvo-path6" d="m470.2 222.6h-68c-6.8 0-12.4 5.6-12.4 12.4s5.6 12.4 12.4 12.4h68c6.8 0 12.4-5.6 12.4-12.4 0-6.9-5.6-12.4-12.4-12.4z"/><path id="proizvodstvo-path8" d="m470.2 272.2h-104.9c-6.8 0-12.4 5.6-12.4 12.4s5.6 12.4 12.4 12.4h104.8c6.8 0 12.4-5.6 12.4-12.4 0.1-6.8-5.5-12.4-12.3-12.4z"/><path id="proizvodstvo-path10" d="m301.4 222.6h-46.9c-6.8 0-12.4 5.6-12.4 12.4s5.6 12.4 12.4 12.4h46.9c6.8 0 12.4-5.6 12.4-12.4 0-6.9-5.5-12.4-12.4-12.4z"/><path id="proizvodstvo-path12" d="m301.4 272.2h-46.9c-6.8 0-12.4 5.6-12.4 12.4s5.6 12.4 12.4 12.4h46.9c6.8 0 12.4-5.6 12.4-12.4s-5.5-12.4-12.4-12.4z"/><path id="proizvodstvo-path14" d="m514 398.3h-0.9c-6.8 0-12.4 5.6-12.4 12.4s5.6 12.4 12.4 12.4h0.9c6.8 0 12.4-5.6 12.4-12.4 0-6.9-5.6-12.4-12.4-12.4z"/><path id="proizvodstvo-path16" d="m470.2 335.3h-37.2c-6.8 0-12.4 5.6-12.4 12.4s5.6 12.4 12.4 12.4h37.2c6.8 0 12.4-5.6 12.4-12.4 0-6.9-5.6-12.4-12.4-12.4z"/></g></g></g></svg><svg xmlns:rdf="http://www.w3.org/1999/02/22-rdf-syntax-ns#" xmlns:cc="http://creativecommons.org/ns#" xmlns:dc="http://purl.org/dc/elements/1.1/" id="salon" enable-background="new 0 0 595.3 841.9" xml:space="preserve" viewBox="0 0 561.85005 566.59996" height="300" width="297.3544973545" version="1.1" y="3218" x="0px"><path id="salon-path2" fill="#e0273d" d="m426.1 153.5c-18.8-35.3-47.5-64-82.8-83.3-35.5-19.3-77-27.3-117.1-23.7l-15-8.4 15-13.2c44.3-3.9 88.1 5.2 127.3 26.6 39 21.2 71.3 54 92.1 93l-5.8 13.1z"/><path id="salon-path4" fill="#ed4850" d="m347 63.2c-36.7-20-79.4-28.6-120.9-25.8v9c40.1-3.5 81.6 4.4 117.1 23.7 35.3 19.2 64 48 82.8 83.3l8.1-3.8c-20.1-36.4-50.1-66.3-87.1-86.4z"/><path id="salon-path6" fill="#3fb64c" d="m490.4 177.5-16.1-33.7c-2.9-6.2-10.4-8.8-16.6-5.9l-9.9 4.7h-0.1l-31.8 15.2c-6.2 2.9-8.8 10.4-5.9 16.6l16.1 33.7 54.3-25.9z"/><path id="salon-path8" fill="#2d9632" d="m474.3 143.7c-2.9-6.2-10.4-8.8-16.6-5.9l-18 8.6c5.9-2.1 12.6 0.6 15.3 6.4l16.1 33.7 19.2-9.1z"/><path id="salon-path10" fill="#58595b" d="m226.8 11c0-6.1-4.9-11-11-11h-44.4c-6.1 0-11 4.9-11 11v116h66.4z"/><path id="salon-path12" fill="#414042" d="m215.8 0h-22.1c6.1 0 11 4.9 11 11v116h22.1v-116c0-6.1-4.9-11-11-11z"/><path id="salon-path14" fill="#ff7f00" d="m259.1 125.8h-131.1c-7.9 0-14.2 6.4-14.2 14.2v58.9c0 7.9 6.4 14.2 14.2 14.2h131.1c7.9 0 14.2-6.4 14.2-14.2v-58.9c0-7.9-6.4-14.2-14.2-14.2z"/><path id="salon-path16" fill="#d36122" d="m259.1 125.8h-41.6c7.9 0 14.2 6.4 14.2 14.2v58.9c0 7.9-6.4 14.2-14.2 14.2h41.6c7.9 0 14.2-6.4 14.2-14.2v-58.9c0-7.9-6.4-14.2-14.2-14.2z"/><path id="salon-path18" fill="#f2ba43" d="m193.6 169.4c-13.2 0-26 1.3-38.4 3.8-0.2 0-0.4 0.1-0.6 0.1-88.2 18.1-154.6 96.2-154.6 189.8 0 65.9 32.9 124.9 83.3 159.8h220.7c50.3-35 83.3-93.9 83.3-159.8-0.1-107-86.7-193.7-193.7-193.7z"/><path id="salon-path20" fill="#eda21d" d="m193.6 169.4c-13.7 0-27 1.4-39.9 4.1 87.8 18.4 153.7 96.2 153.7 189.5 0 65.9-32.9 124.9-83.3 159.8h79.8c50.3-35 83.3-93.9 83.3-159.8 0-106.9-86.6-193.6-193.6-193.6z"/><g id="salon-g26" fill="#ff7f00" transform="translate(-28.8,-152)"><path id="salon-path22" d="m180.6 564.6h83.6c19.1-13.2 31.5-35.3 31.5-60.3 0-40.5-32.8-73.3-73.3-73.3s-73.3 32.8-73.3 73.3c0 25 12.5 47 31.5 60.3z"/><path id="salon-path24" d="m332.4 674.2h-220.1c-12.2 0-22.1 9.9-22.1 22.1v0.2c0 12.2 9.9 22.1 22.1 22.1h220.1c12.2 0 22.1-9.9 22.1-22.1v-0.2c0-12.3-9.9-22.1-22.1-22.1z"/></g><path id="salon-path28" fill="#d36122" d="m303.6 522.2h-78.3c12.2 0 22.1 9.9 22.1 22.1v0.2c0 12.2-9.9 22.1-22.1 22.1h78.3c12.2 0 22.1-9.9 22.1-22.1v-0.2c0-12.3-9.9-22.1-22.1-22.1z"/><circle id="salon-circle30" cy="41.2" cx="193.6" r="10.7" fill="#f2ba43"/><path id="salon-path32" fill="#3fb64c" d="m554.3 214.4c-12.6-26.4-38.1-42.3-65.3-44-0.4 0-0.8-0.1-1.2-0.1-12.3-0.6-24.8 1.8-36.7 7.5-38.6 18.4-55 64.6-36.6 103.2 7.4 15.6 19.5 27.6 33.7 35.1 0.2 0.1 0.3 0.1 0.5 0.2 20.8 10.8 46.2 12.1 69 1.2 38.6-18.3 55-64.5 36.6-103.1z"/><path id="salon-path34" fill="#2d9632" d="m554.3 214.4c-12.7-26.7-38.8-42.8-66.4-44 14.2 7.5 26.2 19.5 33.7 35.1 18.4 38.6 2 84.8-36.6 103.2-11.9 5.7-24.4 8-36.7 7.5 20.9 11 46.5 12.4 69.5 1.5 38.5-18.5 54.9-64.7 36.5-103.3z"/></svg><svg xmlns:rdf="http://www.w3.org/1999/02/22-rdf-syntax-ns#" xmlns:cc="http://creativecommons.org/ns#" xmlns:dc="http://purl.org/dc/elements/1.1/" id="shtender" enable-background="new 0 0 595.3 841.9" xml:space="preserve" viewBox="0 0 95.834719 117" height="117" width="96" version="1.1" y="3518" x="0px"><g id="shtender-g4" transform="translate(-249.77 -363.5)"><path id="shtender-path2" fill="#f79400" d="m318.9 423.5h-46.7c-1.3 0-2.4-1.1-2.4-2.4s1.1-2.4 2.4-2.4h46.7c1.3 0 2.4 1.1 2.4 2.4 0 1.4-1.1 2.4-2.4 2.4z"/></g><g id="shtender-g8" transform="translate(-249.77 -363.5)"><path id="shtender-path6" fill="#f79400" d="m309.4 434.6h-33c-1.3 0-2.4-1.1-2.4-2.4s1.1-2.4 2.4-2.4h33c1.3 0 2.4 1.1 2.4 2.4s-1 2.4-2.4 2.4z"/></g><g id="shtender-g12" transform="translate(-249.77 -363.5)"><path id="shtender-path10" fill="#1a9f29" d="m297.8 444.7h-11.5c-1.3 0-2.4-1.1-2.4-2.4s1.1-2.4 2.4-2.4h11.5c1.3 0 2.4 1.1 2.4 2.4s-1.1 2.4-2.4 2.4z"/></g><g id="shtender-g16" transform="translate(-249.77 -363.5)"><path id="shtender-path14" fill="#f79400" d="m306.6 455.1h-33c-1.3 0-2.4-1.1-2.4-2.4s1.1-2.4 2.4-2.4h33c1.3 0 2.4 1.1 2.4 2.4s-1.1 2.4-2.4 2.4z"/></g><g id="shtender-g20" transform="translate(-249.77 -363.5)"><path id="shtender-path18" fill="#1a9f29" d="m252.2 480.5h-0.4c-1.3-0.2-2.2-1.5-2-2.8l5.8-34.3c0.2-1.3 1.5-2.2 2.8-2s2.2 1.5 2 2.8l-5.8 34.3c-0.3 1.1-1.3 2-2.4 2z"/></g><path id="shtender-path22" fill="#1a9f29" d="m90.328 37.5c-0.7-9.2-4.9-18.8-12-26.9-0.2-0.2-0.4-0.4-0.6-0.5-5.7-6.5-13.8-10.1-23-10.1-19.5 0-38 16.3-41.4 36.2l-11.3 67h66.2l-1.9 11c-0.2 1.3 0.7 2.6 2 2.8h0.4c1.2 0 2.2-0.8 2.4-2l2-11.8h17.1l0.8 11.5c0.1 1.3 1.1 2.2 2.4 2.2h0.2c1.3-0.1 2.3-1.2 2.2-2.6zm-72.4-0.5c3-17.8 19.4-32.2 36.7-32.2 7.9 0 14.8 3.1 19.6 8.7 5.1 6 7 14 5.6 22.7l-7.2 42.7c-0.2 0.3-0.3 0.6-0.4 1l-3.1 18.5h-61.4zm56.2 61.4 10.4-61.4c0.2-1.1 0.3-2.2 0.4-3.3 0.3 1.4 0.5 2.8 0.6 4.1l4.3 60.5h-15.7z"/><g id="shtender-g26" transform="translate(-249.77 -363.5)"><path id="shtender-path24" fill="#1a9f29" d="m309.6 412.7h-26.6l12.2-25.1h10zm-18.9-4.8h13.2l-2.7-15.5h-3z"/></g></svg><svg xmlns:rdf="http://www.w3.org/1999/02/22-rdf-syntax-ns#" xmlns:cc="http://creativecommons.org/ns#" xmlns:dc="http://purl.org/dc/elements/1.1/" id="soglasovanie" enable-background="new 0 0 595.3 841.9" xml:space="preserve" viewBox="0 0 695.50001 841.79996" height="300" width="247.9809976247" version="1.1" y="3635" x="0px"><g id="soglasovanie-g14" fill-rule="evenodd" fill="#fff" clip-rule="evenodd" transform="translate(185.1,-45)"><path id="soglasovanie-path2" d="m492.1 45h-622.3c-10.1 0-18.3 8.2-18.3 18.3v54.9h-18.3c-10.1 0-18.3 8.2-18.3 18.3s8.2 18.3 18.3 18.3h18.3v36.6h-18.3c-10.1 0-18.3 8.2-18.3 18.3s8.2 18.3 18.3 18.3h18.3v36.6h-18.3c-10.1 0-18.3 8.2-18.3 18.3s8.2 18.3 18.3 18.3h18.3v36.6h-18.3c-10.1 0-18.3 8.2-18.3 18.3s8.2 18.3 18.3 18.3h18.3v36.6h-18.3c-10.1 0-18.3 8.2-18.3 18.3s8.2 18.3 18.3 18.3h18.3v36.6h-18.3c-10.1 0-18.3 8.2-18.3 18.3s8.2 18.3 18.3 18.3h18.3v36.6h-18.3c-10.1 0-18.3 8.2-18.3 18.3s8.2 18.3 18.3 18.3h18.3v36.6h-18.3c-10.1 0-18.3 8.2-18.3 18.3s8.2 18.3 18.3 18.3h18.3v36.6h-18.3c-10.1 0-18.3 8.2-18.3 18.3s8.2 18.3 18.3 18.3h18.3v36.6h-18.3c-10.1 0-18.3 8.2-18.3 18.3s8.2 18.3 18.3 18.3h18.3v54.9c0 10.1 8.2 18.3 18.3 18.3h622.3c10.1 0 18.3-8.2 18.3-18.3v-805.2c0-10.1-8.2-18.3-18.3-18.3zm-494.2 805.3h-109.8v-36.6h18.3c10.1 0 18.3-8.2 18.3-18.3s-8.2-18.3-18.3-18.3h-18.3v-36.6h18.3c10.1 0 18.3-8.2 18.3-18.3s-8.2-18.3-18.3-18.3h-18.3v-36.6h18.3c10.1 0 18.3-8.2 18.3-18.3s-8.2-18.3-18.3-18.3h-18.3v-36.6h18.3c10.1 0 18.3-8.2 18.3-18.3s-8.2-18.3-18.3-18.3h-18.3v-36.6h18.3c10.1 0 18.3-8.2 18.3-18.3s-8.2-18.3-18.3-18.3h-18.3v-36.6h18.3c10.1 0 18.3-8.2 18.3-18.3s-8.2-18.3-18.3-18.3h-18.3v-36.6h18.3c10.1 0 18.3-8.2 18.3-18.3s-8.2-18.3-18.3-18.3h-18.3v-36.6h18.3c10.1 0 18.3-8.2 18.3-18.3s-8.2-18.3-18.3-18.3h-18.3v-36.7h18.3c10.1 0 18.3-8.2 18.3-18.3s-8.2-18.3-18.3-18.3h-18.3v-36.6h18.3c10.1 0 18.3-8.2 18.3-18.3s-8.2-18.3-18.3-18.3h-18.3v-36.6h109.8zm475.9 0h-439.3v-768.7h439.2v768.7z"/><path id="soglasovanie-path4" d="m272.5 191.4h-183c-10.1 0-18.3 8.2-18.3 18.3s8.2 18.3 18.3 18.3h183c10.1 0 18.3-8.2 18.3-18.3s-8.2-18.3-18.3-18.3z"/><path id="soglasovanie-path6" d="m418.9 264.6h-73.2c-10.1 0-18.3 8.2-18.3 18.3s8.2 18.3 18.3 18.3h73.2c10.1 0 18.3-8.2 18.3-18.3s-8.2-18.3-18.3-18.3z"/><path id="soglasovanie-path8" d="m303.7 270c-0.8-0.9-1.8-1.6-2.8-2.3s-2-1.2-3.2-1.7c-1.1-0.5-2.2-0.8-3.4-1.1-2.4-0.5-4.8-0.5-7.1 0-1.2 0.3-2.3 0.6-3.4 1.1s-2.2 1-3.1 1.7c-1 0.7-2 1.4-2.8 2.3s-1.6 1.8-2.3 2.8-1.2 2.1-1.7 3.2-0.8 2.2-1.1 3.4c-0.2 1.2-0.3 2.4-0.3 3.6s0.1 2.4 0.3 3.5c0.3 1.2 0.6 2.3 1.1 3.4s1 2.2 1.7 3.2 1.4 1.9 2.3 2.8 1.8 1.6 2.8 2.3 2 1.2 3.1 1.7 2.3 0.9 3.4 1c1.2 0.3 2.4 0.4 3.6 0.4s2.4-0.1 3.6-0.4c1.2-0.2 2.3-0.6 3.4-1 1.1-0.5 2.2-1 3.2-1.7s2-1.4 2.8-2.3c0.9-0.9 1.6-1.8 2.3-2.8s1.2-2 1.7-3.2c0.5-1.1 0.8-2.2 1-3.4s0.4-2.4 0.4-3.5c-0.1-4.9-2.1-9.6-5.5-13z"/><path id="soglasovanie-path10" d="m235.9 264.6h-146.5c-10.1 0-18.3 8.2-18.3 18.3s8.2 18.3 18.3 18.3h146.4c10.1 0 18.3-8.2 18.3-18.3 0.1-10.1-8.1-18.3-18.2-18.3z"/><path id="soglasovanie-path12" d="m418.9 337.9h-329.5c-10.1 0-18.3 8.2-18.3 18.3s8.2 18.3 18.3 18.3h329.4c10.1 0 18.3-8.2 18.3-18.3 0.1-10.1-8.1-18.3-18.2-18.3z"/></g></svg><svg xmlns:rdf="http://www.w3.org/1999/02/22-rdf-syntax-ns#" xmlns:cc="http://creativecommons.org/ns#" xmlns:dc="http://purl.org/dc/elements/1.1/" id="sroki" enable-background="new 0 0 595.3 841.9" xml:space="preserve" viewBox="0 0 598.3 598.49998" height="300" width="299.49916527546" version="1.1" y="3935" x="0px"><g id="sroki-g10" transform="translate(1.5,-121.7)" stroke="#fff" stroke-miterlimit="10" stroke-width="3" fill="#fff"><path id="sroki-path2" d="m472.1 472.3c-67.9 0-123.2 55.2-123.2 123.2s55.2 123.2 123.2 123.2 123.2-55.2 123.2-123.2-55.3-123.2-123.2-123.2zm0 225.8c-56.6 0-102.6-46-102.6-102.6s46-102.6 102.6-102.6 102.6 46 102.6 102.6-46 102.6-102.6 102.6z"/><path id="sroki-path4" d="m533.7 585.2h-51.3v-51.3c0-5.7-4.6-10.3-10.3-10.3s-10.3 4.6-10.3 10.3v61.6c0 5.7 4.6 10.3 10.3 10.3h61.6c5.7 0 10.3-4.6 10.3-10.3s-4.6-10.3-10.3-10.3z"/><path id="sroki-path6" d="m277.1 338.8h-205.3v297.6h205.3v-184.7h184.8v-112.9h-112.9zm-112.9 277.2h-71.8v-71.8h71.8zm0-92.4h-71.8v-71.8h71.8zm0-92.4h-71.8v-71.8h71.8zm92.4 184.8h-71.8v-71.8h71.8zm0-92.4h-71.8v-71.8h71.8zm0-92.4h-71.8v-71.8h71.8zm92.4 0h-71.8v-71.8h71.8zm20.5-71.8h71.8v71.8h-71.8z"/><path id="sroki-path8" d="m338.7 687.8h-318.2v-400.3h492.6v133.4c0 5.7 4.6 10.3 10.3 10.3s10.3-4.6 10.3-10.3v-246.3c0-5.7-4.6-10.3-10.3-10.3h-51.3v-30.8c0-5.7-4.6-10.3-10.3-10.3h-71.8c-5.7 0-10.3 4.6-10.3 10.3v30.8h-225.7v-30.8c0-5.7-4.6-10.3-10.3-10.3h-71.9c-5.7 0-10.3 4.6-10.3 10.3v30.8h-51.2c-5.7 0-10.3 4.6-10.3 10.3v523.4c0 5.7 4.6 10.3 10.3 10.3h328.4c5.7 0 10.3-4.6 10.3-10.3 0-5.6-4.6-10.2-10.3-10.2zm61.6-513.2v-30.8h51.3v61.6h-51.3zm-318.2 0v-30.8h51.3v61.6h-51.3zm-61.6 10.3h41.1v30.8c0 5.7 4.6 10.3 10.3 10.3h71.8c5.7 0 10.3-4.6 10.3-10.3v-30.8h225.8v30.8c0 5.7 4.6 10.3 10.3 10.3h71.8c5.7 0 10.3-4.6 10.3-10.3v-30.8h41.1v82.1h-492.8z"/></g></svg><svg xmlns:rdf="http://www.w3.org/1999/02/22-rdf-syntax-ns#" xmlns:cc="http://creativecommons.org/ns#" xmlns:dc="http://purl.org/dc/elements/1.1/" id="stend" enable-background="new 0 0 595.3 841.9" xml:space="preserve" viewBox="0 0 96.199999 100.69999" height="101" width="96" version="1.1" y="4235" x="0px"><g id="stend-g26" transform="translate(-249.6,-371.5)"><g id="stend-g4"><path id="stend-path2" fill="#1a9f29" d="m337.6 472.2h-79.8c-4.5 0-8.2-3.7-8.2-8.2v-84.3c0-4.5 3.7-8.2 8.2-8.2h79.8c4.5 0 8.2 3.7 8.2 8.2v84.3c-0.1 4.6-3.7 8.2-8.2 8.2zm-79.9-95.7c-1.8 0-3.3 1.5-3.3 3.3v84.3c0 1.8 1.5 3.3 3.3 3.3h79.8c1.8 0 3.3-1.5 3.3-3.3v-84.3c0-1.8-1.5-3.3-3.3-3.3z"/></g><g id="stend-g8"><path id="stend-path6" fill="#f79400" d="m322.3 385.3h-49.3c-1.3 0-2.4-1.1-2.4-2.4s1.1-2.4 2.4-2.4h49.3c1.3 0 2.4 1.1 2.4 2.4s-1.1 2.4-2.4 2.4z"/></g><g id="stend-g12"><path id="stend-path10" fill="#1a9f29" d="m293 423.3h-25.6v-32.1h25.6zm-20.8-4.8h16v-22.5h-16z"/></g><g id="stend-g16"><path id="stend-path14" fill="#1a9f29" d="m293 459.2h-25.6v-32.1h25.6zm-20.8-4.8h16v-22.5h-16z"/></g><g id="stend-g20"><path id="stend-path18" fill="#1a9f29" d="m325.6 423.3h-25.6v-32.1h25.6zm-20.7-4.8h16v-22.5h-16z"/></g><g id="stend-g24"><path id="stend-path22" fill="#1a9f29" d="m325.6 459.2h-25.6v-32.1h25.6zm-20.7-4.8h16v-22.5h-16z"/></g></g></svg><svg xmlns:rdf="http://www.w3.org/1999/02/22-rdf-syntax-ns#" xmlns:cc="http://creativecommons.org/ns#" xmlns:dc="http://purl.org/dc/elements/1.1/" id="strelka" enable-background="new 0 0 512 512" xml:space="preserve" viewBox="0 0 512 292.62183" height="172" width="300" version="1.1" y="4336" x="0px"><g id="strelka-Rounded_Rectangle_33_copy_4_1_" transform="translate(0 -109.72)"><path id="strelka-path2" fill="#ff9000" d="m256 314.7-193-194.1c-14.4-14.5-37.8-14.5-52.2 0s-14.4 38 0 52.5l217.3 218.5c7.7 7.7 17.9 11.2 27.9 10.7 10.1 0.5 20.3-3 27.9-10.7l217.3-218.5c14.4-14.5 14.4-38 0-52.5s-37.8-14.5-52.2 0z"/></g></svg><svg xmlns:rdf="http://www.w3.org/1999/02/22-rdf-syntax-ns#" xmlns:cc="http://creativecommons.org/ns#" xmlns:dc="http://purl.org/dc/elements/1.1/" id="tablichka" enable-background="new 0 0 595.3 841.9" xml:space="preserve" viewBox="0 0 177.60001 113.3" height="113" width="178" version="1.1" y="4508" x="0px"><g id="tablichka-g4" transform="translate(-208.9,-361.3)"><path id="tablichka-path2" fill="#1a9f29" d="m298.3 456.2c-22.7 0-45.6-6.9-65.7-20.6-1.3-0.9-1.6-2.6-0.7-3.8 0.9-1.3 2.6-1.6 3.8-0.7 38.6 26.4 87.7 26.2 125.1-0.5 1.2-0.9 3-0.6 3.8 0.6 0.9 1.2 0.6 3-0.6 3.8-19.8 14.2-42.7 21.2-65.7 21.2z"/></g><path id="tablichka-path6" fill="#1a9f29" d="m168.3 33.2h-28.5c-3.3-18.7-24.9-33.2-51-33.2s-47.7 14.5-51 33.2h-28.5c-5.1 0-9.3 4.5-9.3 10v34.9c0 4.7 3.3 6.7 5.9 8.4l1.8 1.2c23.4 16.8 51.2 25.6 80.2 25.6s58.2-9.1 82-25.6c0.6-0.4 1.1-0.7 1.7-1.1 2.7-1.7 6-3.7 6-8.5v-34.9c0-5.5-4.2-10-9.3-10zm-79.5-27.7c25.3 0 45.9 14.7 45.9 32.7s-20.6 32.7-45.9 32.7c-25.4 0-46-14.7-46-32.7s20.6-32.7 46-32.7zm83.3 72.6c0 1.5-0.9 2.2-3.4 3.8-0.7 0.4-1.3 0.8-2 1.3-22.9 15.9-50.9 24.6-78.9 24.6-27.9 0-54.5-8.5-77-24.6-0.7-0.5-1.4-1-2.1-1.4-2.5-1.5-3.3-2.2-3.3-3.7v-34.9c0-2.5 1.8-4.5 3.8-4.5h28.1c0.4 20.8 23.3 37.6 51.5 37.6 28.1 0 51-16.8 51.4-37.6h28.1c2.1 0 3.8 2.1 3.8 4.5z"/><path id="tablichka-path8" fill="#ff9000" d="m86.8 55.2c-0.1 0.1-0.3 0.2-0.7 0.2h-17.5c-0.4 0-0.6-0.1-0.7-0.2s-0.2-0.4-0.2-0.8v-3.1c0-0.4 0.1-0.6 0.2-0.8 0.1-0.1 0.3-0.2 0.7-0.2h5.7v-23.2l-5.6 0.9c-0.4 0.1-0.6 0-0.7-0.1s-0.2-0.3-0.2-0.6v-2.9c0-0.3 0.1-0.5 0.2-0.7s0.3-0.3 0.7-0.5l7.9-2.2c0.9-0.3 1.7-0.3 2.4 0s1.1 0.9 1.1 1.9v27.4h6c0.4 0 0.6 0.1 0.7 0.2s0.2 0.4 0.2 0.8v3.1c-0.1 0.4-0.1 0.7-0.2 0.8z"/><path id="tablichka-path10" fill="#ff9000" d="m111.3 21.5c0.7 0 1.3 0.2 1.8 0.5s0.7 0.9 0.7 1.7v1.4c0 0.5-0.1 1-0.2 1.5s-0.3 1-0.6 1.5l-14.3 26.5c-0.2 0.4-0.4 0.6-0.6 0.7s-0.5 0.2-1 0.2h-4.3c-0.3 0-0.5-0.1-0.7-0.4s-0.1-0.5 0-0.9l14.9-27.6h-17.1c-0.4 0-0.6-0.1-0.7-0.2-0.1-0.2-0.2-0.4-0.2-0.8v-3.1c0-0.4 0.1-0.7 0.2-0.8 0.1-0.2 0.4-0.2 0.7-0.2z"/></svg><svg xmlns:rdf="http://www.w3.org/1999/02/22-rdf-syntax-ns#" xmlns:cc="http://creativecommons.org/ns#" xmlns:dc="http://purl.org/dc/elements/1.1/" id="taxi" xml:space="preserve" viewBox="0 0 512 398.22198" height="233" width="300" version="1.1" y="4621" x="0px"><path id="taxi-path2" fill="#ffdc64" d="m296.82 0h-81.65c-9.269 0-17.18 6.702-18.705 15.846l-6.841 41.043h132.75l-6.84-41.043c-1.53-9.144-9.44-15.846-18.71-15.846z"/><g id="taxi-g8" fill="#e1a546" transform="translate(0,-56.889)"><rect id="taxi-rect4" height="18.963" width="47.407" y="189.63" x="18.963"/><rect id="taxi-rect6" height="18.963" width="47.407" y="189.63" x="445.63"/></g><g id="taxi-g16" fill="#ffc850" transform="translate(0,-56.889)"><path id="taxi-path10" d="m397.26 104.3h-282.52c-11.961 0-22.644 7.482-26.732 18.724l-31.117 85.573v28.444h398.22v-28.44l-31.12-85.57c-4.088-11.242-14.772-18.724-26.732-18.724z"/><path id="taxi-path12" d="m18.963 170.67h9.481c10.473 0 18.963 8.489 18.963 18.963 0 10.473-8.489 18.963-18.963 18.963h-9.481c-10.474 0-18.963-8.49-18.963-18.96 0-10.474 8.489-18.963 18.963-18.963z"/><path id="taxi-path14" d="m483.56 170.67h9.481c10.473 0 18.963 8.489 18.963 18.963 0 10.473-8.489 18.963-18.963 18.963h-9.481c-10.474 0-18.963-8.489-18.963-18.963s8.489-18.963 18.963-18.963z"/></g><path id="taxi-path18" fill="#707487" d="m397.26 66.37c3.973 0 7.553 2.508 8.91 6.241l29.976 82.433v6.14h-360.3v-6.14l29.976-82.433c1.358-3.733 4.937-6.241 8.91-6.241h282.52"/><g id="taxi-g24" fill="#5b5d6e" transform="translate(0,-56.889)"><path id="taxi-path20" d="m284.44 123.26h-169.7c-3.973 0-7.553 2.508-8.91 6.241l-29.976 82.433v6.14h113.78z"/><path id="taxi-path22" d="m18.963 369.78v75.852c0 5.236 4.245 9.481 9.481 9.481h28.444c5.236 0 9.481-4.245 9.481-9.481v-75.852z"/></g><path id="taxi-path26" fill="#464655" d="m18.963 350.57c7.948 6.016 17.73 9.723 28.444 9.723h18.963v-47.4h-47.407z"/><path id="taxi-path28" fill="#5b5d6e" d="m493.04 312.89v75.852c0 5.236-4.245 9.481-9.481 9.481h-28.444c-5.236 0-9.481-4.245-9.481-9.481v-75.852z"/><path id="taxi-path30" fill="#464655" d="m493.04 350.57c-7.948 6.016-17.73 9.723-28.444 9.723h-18.97v-47.407h47.407z"/><path id="taxi-path32" fill="#ffdc64" d="m484.72 188.72-29.61-37.02h-398.22l-29.615 37.019c-5.38 6.724-8.311 15.079-8.311 23.692v100.47c0 15.71 12.735 28.444 28.444 28.444h417.18c15.71 0 28.444-12.735 28.444-28.444v-100.46c0.001-8.613-2.931-16.969-8.311-23.692z"/><path id="taxi-path34" fill="#ffc850" d="m94.815 274.96c-5.236 0-9.481-4.245-9.481-9.482v-53.067c0-8.613 2.111-16.967 5.984-23.692l21.323-37.019h-55.751l-29.615 37.019c-5.38 6.725-8.311 15.08-8.311 23.692v100.47c0 15.71 12.735 28.444 28.444 28.444h417.18c15.71 0 28.444-12.735 28.444-28.444v-37.92h-398.22z"/><path id="taxi-path36" fill="#5b5d6e" d="m159.11 256h193.79c4.351 0 8.143-2.961 9.198-7.182l4.741-18.963c1.496-5.984-3.031-11.781-9.198-11.781h-203.27c-6.169 0-10.694 5.797-9.198 11.781l4.741 18.963c1.054 4.22 4.847 7.182 9.197 7.182z"/><g id="taxi-g46" fill="#fff" transform="translate(0,-56.889)"><circle id="taxi-circle38" cy="355.56" cx="85.333" r="14.222"/><circle id="taxi-circle40" cy="355.56" cx="426.67" r="14.222"/><circle id="taxi-circle42" cy="289.18" cx="80.593" r="28.444"/><circle id="taxi-circle44" cy="289.18" cx="431.41" r="28.444"/></g><path id="taxi-path48" fill="#464655" d="m360.3 303.41h-208.6c-5.236 0-9.481 4.245-9.481 9.481v28.444h227.56v-28.444c-0.001-5.237-4.247-9.481-9.483-9.481z"/><path id="taxi-path50" fill="#5b5d6e" d="m284.44 37.926h-56.889c-5.236 0-9.481-4.245-9.481-9.481s4.245-9.481 9.481-9.481h56.889c5.236 0 9.481 4.245 9.481 9.481 0.001 5.235-4.244 9.481-9.481 9.481z"/></svg><svg viewBox="0 0 512 512" width="32" height="32" id="tel_trubka" y="4854"><g fill="#FFF"><path d="m389.3 338.7c-16.7-16.5-37.6-16.5-54.2 0-12.7 12.6-25.4 25.1-37.8 37.9-3.4 3.5-6.3 4.3-10.4 1.9-8.2-4.5-16.9-8.1-24.8-13-36.8-23.1-67.5-52.8-94.8-86.3-13.5-16.6-25.6-34.4-34-54.4-1.7-4-1.4-6.7 1.9-10 12.7-12.3 25-24.8 37.5-37.4 17.4-17.5 17.4-37.9-0.1-55.5-9.9-10-19.8-19.8-29.7-29.8-10.2-10.2-20.3-20.6-30.7-30.7-16.7-16.3-37.6-16.3-54.2 0.1-13 12.5-25.2 25.4-38.2 37.8-12.1 11.4-18.1 25.4-19.4 41.7-2 26.5 4.5 51.6 13.6 76 18.8 50.5 47.3 95.4 81.9 136.5 46.8 55.5 102.6 99.5 168 131.3 29.4 14.3 59.9 25.3 93 27.1 22.8 1.3 42.6-4.5 58.5-22.3 10.9-12.1 23.1-23.2 34.6-34.8 17-17.3 17.2-38.1 0.2-55.2-20.2-20.4-40.6-40.7-60.9-60.9zm-20.4-84.9l39.3-6.7c-6.2-36.1-23.2-68.8-49.1-94.8-27.4-27.4-62-44.6-100.1-50l-5.5 39.5c29.5 4.2 56.4 17.5 77.6 38.7 19.9 20 33 45.4 37.8 73.3zm61.5-170.9c-45.4-45.4-102.8-74.1-166.2-82.9l-5.5 39.5c54.7 7.7 104.3 32.5 143.6 71.6 37.2 37.2 61.6 84.2 70.4 135.8l39.3-6.7c-10.3-59.8-38.6-114.2-81.6-157.3z"/></g></svg><svg xmlns:rdf="http://www.w3.org/1999/02/22-rdf-syntax-ns#" xmlns:cc="http://creativecommons.org/ns#" xmlns:dc="http://purl.org/dc/elements/1.1/" id="vitriny" enable-background="new 0 0 595.3 841.9" xml:space="preserve" viewBox="0 0 136.80001 118.69999" height="119" width="137" version="1.1" y="4886" x="0px"><g id="vitriny-g4" transform="translate(-360.2,-502.6)"><path id="vitriny-path2" fill="#1a9f29" d="m496.9 621.3h-136.6v-21.1h136.5v21.1zm-131.8-4.8h126.9v-11.5h-126.9z"/></g><path id="vitriny-path6" fill="#f79400" d="m120.1 41h-103.4v49.9h103.4zm-98.6 45.1v-40.2h24.7v40.2zm29.5 0v-40.2h29.9v40.2zm34.7 0v-40.2h29.6v40.2z"/><path id="vitriny-path8" fill="#1a9f29" d="m136.8 0h-136.6v0.1h-0.2v102.3h136.5v-79c0.1-0.5 0.1-1.1 0.1-1.7v-21.7zm-131.6 4.9h17.1v16.9c0 4.7-3.8 8.5-8.5 8.5s-8.6-3.8-8.6-8.5zm21.9 0h17.1v16.9c0 4.7-3.8 8.5-8.5 8.5s-8.6-3.8-8.6-8.5zm22 0h17.1v16.9c0 4.7-3.8 8.5-8.5 8.5s-8.6-3.8-8.6-8.5zm21.9 0h17.1v16.9c0 4.7-3.8 8.5-8.5 8.5s-8.5-3.8-8.5-8.5v-16.9zm22 0h17.1v16.9c0 4.7-3.8 8.5-8.5 8.5s-8.5-3.8-8.5-8.5v-16.9zm21.9 0h17v18.2c-0.6 4.1-4.2 7.2-8.4 7.2-4.7 0-8.5-3.8-8.5-8.5v-16.9zm-110 92.7v-65.7c2.4 2.1 5.4 3.3 8.8 3.3 4.5 0 8.5-2.3 10.9-5.7 2.4 3.5 6.4 5.7 11 5.7 4.5 0 8.6-2.3 11-5.8 2.4 3.5 6.4 5.8 11 5.8 4.5 0 8.5-2.3 11-5.7 2.4 3.5 6.4 5.7 11 5.7s8.6-2.3 11-5.8c2.4 3.5 6.4 5.8 11 5.8 4.5 0 8.5-2.3 11-5.7 2.4 3.5 6.4 5.7 11 5.7 3.2 0 6.1-1.1 8.4-3v65.4z"/></svg><svg xmlns:rdf="http://www.w3.org/1999/02/22-rdf-syntax-ns#" xmlns:cc="http://creativecommons.org/ns#" xmlns:dc="http://purl.org/dc/elements/1.1/" id="viveski" enable-background="new 0 0 595.3 841.9" xml:space="preserve" viewBox="0 0 140.9 74.138105" height="74" width="141" version="1.1" y="5005" x="0px"><g id="viveski-g4" transform="translate(-422.7 -550.46)"><path id="viveski-path2" fill="#f79400" d="m461.7 610.5-0.1-6.8v-2.4-0.4h-0.4-2.4-4.9-2v-2.1c-0.1-2.7-0.1-5.4-0.2-8l-0.2-10.5 2.1 0.1c1.7 0.1 3.3 0.2 5 0.2 0.9 0 1.8 0.1 2.7 0.1v-2.8c0-1.7-0.1-3.4-0.1-5v-2.2l2.2 0.2c1.4 0.1 2.9 0.2 4.3 0.3l3.3 0.3 1.1 0.1c2.1 0.2 4.1 0.3 6.1 0.5l1.9 0.1v1.9 2.4 2.4 2.3 0.5c0.8 0 1.6 0.1 2.3 0.1l6 0.2v18.7h-2-2-4.1-0.1v2.5 4.5 1.9l-1.9 0.1c-1.2 0.1-2.4 0.1-3.7 0.2-1.1 0-2.3 0.1-3.4 0.1-2.3 0.1-4.7 0.2-7.1 0.3zm1.8-13.7h2v2 2.4 2.4 2.7c1.8-0.1 3.6-0.2 5.4-0.2 1.1-0.1 2.3-0.1 3.4-0.1 0.6 0 1.2 0 1.7-0.1v-2.6-4.6-2h2 2.1 4.1v-10.9l-2.2-0.1c-1.4-0.1-2.8-0.1-4.2-0.2l-1.9-0.1v-1.9-2.3-2.4-2.3-0.5c-1.4-0.1-2.9-0.2-4.3-0.3l-1.1-0.1c-1.1-0.1-2.2-0.2-3.4-0.3-0.7-0.1-1.4-0.1-2.1-0.2v2.7l0.1 7.1-2.1-0.1c-1.6-0.1-3.2-0.1-4.8-0.2-0.9 0-1.9-0.1-2.8-0.1l0.1 6.2c0.1 2.1 0.1 4.2 0.2 6.3h2.9 2.4c1-0.2 1.7-0.2 2.5-0.2z"/></g><g id="viveski-g10" fill="#1a9f29" transform="translate(-422.7 -550.46)"><path id="viveski-path6" d="m544.3 566.2v-3c0-3.5-2.8-6.6-6.3-7-3.7-0.4-6.7 2.4-6.7 6v2.9l-53.6-4.6v-3c0-3.5-2.7-6.6-6.3-7-3.7-0.4-6.7 2.4-6.7 6v2.9l-24.9-2.1-0.1-0.2-16 9c-0.6 0.4-1 1-1 1.7v49.7c0 0.9 0.6 1.6 1.4 1.9l15.5 5.2v-0.1 0.1l124-9v-47.7zm-75.5-9.8c0-1.3 1-2.2 2.3-2 1.5 0.2 2.7 1.6 2.7 3.1v2.5l-5-0.4zm-29.2 64-12.9-4.3v-47.1l12.9-7.2zm95.7-58.3c0-1.3 1-2.2 2.3-2 1.5 0.2 2.7 1.6 2.7 3.1v2.5l-5-0.4zm24.3 49.7-116 8.4v-58.7l116 9.9z"/><path id="viveski-path8" d="m550.9 582.7-53.2-2.3v22.9l53.2-2.1zm-4 14.6-45.2 1.8v-14.5l45.2 2z"/></g></svg></svg>
